<svg xmlns="http://www.w3.org/2000/svg" width="295" height="259.841" viewBox="0 0 295 259.841">
  <path id="Cricket_Icon" d="M236.088-258.247c-5.566,2.259-10.614,8.085-11.649,13.436-1.683,8.917-3.624,10.7-11.779,11.533a47.858,47.858,0,0,0-10.1,1.783c-3.754,1.546-17.086,3.567-23.557,3.567-3.106,0-9.061,1.308-13.2,2.854-7.9,2.854-9.449,2.735-10.873-.832-.518-1.189-3.107-2.972-5.7-4.043-5.954-2.259-13.073-.951-20.969,3.924-2.718,1.665-6.342,3.091-8.025,3.091-4.4.238-12.814,6.658-14.885,11.176-1.036,2.14-2.977,4.043-4.66,4.4s-7.9,2.021-13.979,3.8c-12.685,3.448-28.088,7.491-35.6,9.036a49.667,49.667,0,0,0-7.119,1.9,14.742,14.742,0,0,1-4.789.476c-1.683-.119-2.977.357-2.977,1.07S35.2-189.88,33.908-190C30.284-190.593,22-187.5,22-185.6c0,1.07,1.424,1.665,3.624,1.665,1.942.119,8.413.238,14.5.476,13.979.594,27.958-2.259,42.714-8.561,17.6-7.491,23.557-9.75,24.593-9.155.518.238,1.683,2.14,2.589,4.043,1.294,2.972,2.459,3.686,7.378,4.4,4.919.594,6.084.357,8.284-1.783,1.942-1.9,3.495-2.378,5.436-1.783,4.271,1.189,13.85,6.064,19.674,9.987a53.863,53.863,0,0,0,11.649,5.469,40.117,40.117,0,0,1,8.284,3.329c.906.594,7.507,1.427,14.5,1.665,14.885.594,14.626.357,9.449,12.009-1.812,4.161-3.365,9.75-3.495,12.484-.518,6.539-1.294,7.491-7.248,8.442-7.119,1.07-9.319,2.972-9.708,8.323-.388,4.043-1.683,5.707-9.967,12.722-6.86,5.826-10.355,7.966-12.167,7.609-1.424-.357-5.436-1.308-9.061-2.259s-7.637-1.308-9.061-.832c-2.848.951-2.848,2.14-.647,11.3a39.573,39.573,0,0,1,.388,13.673c-1.424,11.3-.906,14.506,3.495,22.71C141.211-62.421,156.614-17,156.614-12.6c0,.951-2.071,2.735-4.53,3.8-3.236,1.427-4.53,2.735-4.53,4.756,0,2.735.388,2.854,12.814,3.686a183.719,183.719,0,0,0,22.91,0L193.5-1.07V-9.63c-.129-6.064-.777-9.393-2.589-11.771-2.33-3.329-2.33-3.329.518-4.043,3.106-.713,4.66-4.875,3.495-9.274-.906-3.448-6.342-5.232-9.19-2.972-3.624,2.735-4.919.119-4.013-8.323.906-9.631,0-14.506-3.236-17.716a7.522,7.522,0,0,1-2.459-4.518c0-1.189-1.553-4.875-3.236-8.085l-3.236-5.945,4.919-.713c2.589-.476,5.307-.594,5.825-.238.647.357,2.071-.238,3.236-1.189a18.431,18.431,0,0,1,6.084-2.5c2.2-.476,5.048-1.07,6.6-1.427,3.236-.832,2.718-1.665,9.578,17.954,2.848,7.847,6.084,16.765,7.378,19.737,2.2,5.469,2.2,5.469-1.035,9.036a28.046,28.046,0,0,1-6.6,5.588c-5.048,2.854-4.66,5.826.906,7.728,2.459.832,4.53,2.021,4.53,2.616s1.165,1.07,2.589,1.07,3.754,1.308,5.307,2.854c1.424,1.546,5.825,3.686,9.708,4.994,5.825,1.783,7.766,1.9,11,.832,3.236-1.189,6.99-1.07,17.862.357,22.522,2.854,36.889,7.253,38.054,11.414.518,1.783,2.071,2.14,8.025,2.14s7.766-.476,10.355-2.972a8.685,8.685,0,0,0,.777-12.6c-1.942-2.259-2.33-4.043-1.812-8.323.647-4.756.259-5.945-2.33-8.085-1.683-1.427-4.4-3.8-6.084-5.232-2.459-2.259-4.4-2.616-12.944-2.735-7.9-.119-12.685-.951-23.3-4.518-7.248-2.378-15.273-4.28-17.733-4.28s-4.53-.357-4.66-.951c-1.553-9.987-1.942-33.886-.777-41.852,1.165-7.134,5.7-22.591,7.378-24.255.647-.832.906-4.518.518-8.323-.388-4.4-.129-7.491.906-8.561.777-.951,1.553-4.875,1.683-8.68.129-4.875.777-7.728,2.459-9.274a9.423,9.423,0,0,0,2.2-5.35c0-1.665,1.424-5.469,3.236-8.68,4.53-7.728,5.177-16.527,2.459-30.914-2.977-15.932-3.495-31.151-1.165-35.432,1.294-2.259,1.424-4.043.647-5.35a41.947,41.947,0,0,1-2.589-6.9C259.646-257.058,247.608-262.884,236.088-258.247Zm-28.994,45.895c0,.951,1.553,1.189,4.53.713,5.954-.832,5.954,1.189.259,9.869-4.271,6.539-4.4,6.539-12.038,7.372a53.017,53.017,0,0,0-10.614,2.14c-4.53,1.783-9.19,1.427-19.674-1.665-5.307-1.546-12.944-3.448-16.827-4.161-5.7-1.07-7.9-2.14-10.743-5.469l-3.624-4.161h5.7c3.495,0,6.342.713,7.378,1.783,1.812,2.021,6.472.357,6.472-2.259,0-2.14,2.848-3.091,9.449-3.21a78.091,78.091,0,0,0,10.614-.951C186.126-214.016,207.094-213.9,207.094-212.352Z" transform="translate(-22 259.841)" fill="#fff"/>
</svg>
