<svg enable-background="new 0 0 100 100" viewBox="0 0 100 100" xmlns="http://www.w3.org/2000/svg"><path d="m70.9 27.5s.2-.3 1.2 1.7c1.1 2 3.4 5.2 2.3 5.6-1.4.7-7-5.3-3.5-7.3z" fill="#ffffff"/><path d="m70.8 16.8c.1.3.4.6.5 2 .3 2.8-.3 6.9-.1 10.2l5.7 3c1.2-3.5-2-12.1-2.9-14.2-.8-1.3-1.6-2.2-1.6-2.2" fill="#d8cfc0"/><circle cx="71.1" cy="13.2" fill="#ffffff" r="2.1"/><path d="m70.7 12.5c-.3.1.5 1.4-.7 1.8-.6.2-.8-1.2-.8-1.4s.5-1.3.3-1.4c-.2-.2-.8.8-.9 1.7s-.2 1.9.2 2.5c.4.7 2.2 1.3 2.3 1.9 1.2-.2 2.1-1 1.8-1.4-.1-.2-.3 0-.7-1-.3-1-1.1-2.9-1.5-2.7z" fill="#d8cfc0"/><path d="m72 27.9c-1.4.2-3.7.6-5 .8-6 1-3.9 6-1.3 6.3 1.9.2 9 .4 11.1-3" fill="#d8cfc0"/><path d="m71 28s-1.1 1.4 2.8 6.2c-1.8.8-2.7.8-2.7.8l-1.4-6.7z" fill="#d8cfc0" opacity=".6"/><path d="m59 29.7c3.4-.4 11.2-1.9 11.9-2.2-2 2.4 2.8 7.3 3.6 7.3-5 2.9-9.6 5-12.3 5-4.1-.1-7.1-9.6-3.2-10.1z" fill="#ffffff"/><path d="m72.2 32.7c-.6 2-5.9 7-10 7.1 2.7.1 7.3-2 12.3-5-.3 0-1.4-.9-2.3-2.1z" fill="#ffffff" opacity=".5"/><path d="m72.1 95s1.4 1 2.8 1.8c1.2.6 2.4.9 2.7 1.4.6 1.4-2.6 1.8-4.6 1.1-2.1-.7-2.9-.9-3-.8-.2.2-3.2-.4-3.4-.7 0-1.1 1.1-3.9 1.2-4.2.7-2 1.4-3 1.7-2.9 1.5.7 2.6 4.3 2.6 4.3z" fill="#ffffff"/><path d="m76.1 97.1s.8.4-.2.8c-.9.4-3.6-.7-3.8-1.5s.9-1.1 1.3-.9c.3.1 2.4 1.6 2.7 1.6z" fill="#a58f64"/><path d="m76.2 97.7c-.1.1-.2.1-.3.2-.9.4-3.6-.7-3.8-1.5s.9-1.1 1.3-.9c0 0 .1 0 .1.1-.6.1-1.1.5-.5 1.3.6.7 2.2 1 3.2.8z" fill="#a58f64" opacity=".5"/><path d="m69.9 98.6c-.2.2-3.2-.4-3.4-.7 0-1.1 1.1-3.9 1.2-4.2 1.1-3.9 2-5.9 2.2-5.8l2.3 4.7s-4.9 3.4-4.6 4.8 1.8.2 2.7.6 3 1.6 5.6 1.4c.9-.1 1.5-.3 1.9-.7-.1 1.1-2.8 1.4-4.7.8-2.2-.9-3.1-1.1-3.2-.9z" fill="#ffffff" opacity=".5"/><path d="m71.9 94.9c-.1.1-2.3 2.5-4.9.9.8-2.5 1.9-5 1.9-5z" fill="#ffffff" opacity=".5"/><path d="m25.6 69s-1.3 1.1-2.4 2.2c-.9 1-1.5 2.1-2.1 2.2-1.5.3-1.1-2.9.1-4.7s1.7-2.6 1.5-2.8c-.1-.3 1.2-3 1.5-3.1 1.1.2 3.5 2 3.8 2.2 1.7 1.2 2.6 2.1 2.3 2.4-.9 1.4-4.7 1.6-4.7 1.6z" fill="#ffffff"/><path d="m22.6 72.3s-.6.6-.7-.4 1.6-3.3 2.4-3.3.8 1.2.6 1.5c-.3.3-2.3 1.9-2.3 2.2z" fill="#a58f64"/><path d="m22 72.3c0-.1-.1-.2-.1-.4-.1-1 1.6-3.3 2.4-3.3s.8 1.2.6 1.5c0 0-.1.1-.1.1.1-.6-.2-1.2-1.1-.8-1 .4-1.7 1.9-1.7 2.9z" fill="#a58f64" opacity=".5"/><path d="m22.7 66c-.1-.3 1.2-3 1.5-3.1 1.1.2 3.5 2 3.8 2.2 3.5 2 5.3 3.4 5.1 3.6l-5.1 1s-2.1-5.6-3.5-5.7-.6 1.7-1.2 2.5-2.3 2.5-2.8 5c-.2.9-.1 1.5.2 2-1-.3-.6-3.1.5-4.7 1.2-1.9 1.6-2.7 1.5-2.8z" fill="#ffffff" opacity=".5"/><path d="m25.7 68.8c-.1-.1-1.9-2.9.4-5 2.2 1.4 4.4 3.1 4.4 3.1z" fill="#ffffff" opacity=".5"/><path d="m62.3 17.8s-.1 4.3.8 5.3c.9.9 3.1 1.3 3.5 1.7.4.5-3.9 4.7-7.1 5.1-1.4-1.6-2.4-3.1-4-3.9.5-.8 2.5-2.7 2.7-7.1 1.2-4 4.1-2.3 4.1-1.1z" fill="#d8cfc0"/><path d="m59.5 29.9c-1.3-1.5-2.3-2.9-3.8-3.8 0-.2.1-.3.1-.5.6-.6 1.6-2.5 2.2-4.8l.5-6s-.9 8.1 1 13.2c1.4 1 3.2-2 4.5-4.3 1 .5 2.3.8 2.6 1.1.5.5-3.9 4.7-7.1 5.1z" fill="#d8cfc0" opacity=".4"/><path d="m60.1 20.6s1 1.2 2.5.9c-.3-2.7-.8-4.4-.7-4.1s-1.8 3.2-1.8 3.2z" fill="#d8cfc0" opacity=".7"/><path d="m59.1 20.3c1.5.9 4.5 1.1 5.4-.4s-.2-6-1.8-6.9c-1.5-.9-4.2-.2-5.1 1.3s0 5.1 1.5 6z" fill="#d8cfc0"/><path d="m61.8 17.9c.1.5.6.7 1.1.6s.7-.6.6-1.1-.6-.7-1.1-.6-.8.6-.6 1.1z" fill="#d8cfc0" opacity=".7"/><path d="m63.7 14s-.3.8-1.7.4-1.9.6-2 1.6 1.3 2.1 1 2.4-.7.3-.8.2c-.2-.1-.5-1.6-1.3-1.8s-.9 1.5.2 2.6c.4.9-1 1.5-1 1.5s-2.2-2.8-1.7-4.8c-2-2.6 1.1-5.1 4.5-4.2 1.4-2.3 3.9.9 2.8 2.1z" fill="#ffffff"/><path d="m67.1 50.2c3.1 4.9 13 15.3 12.8 23.2-.3 8-6.9 19.6-7.4 21.4s-4.8 1-5.1-1.8c-.2-2.1 0-9.2 2.6-16.7 1.9-5.6-8.3-9.3-11.4-18.3-1.5-4.3 5.1-6.8 8.5-7.8z" fill="#ffffff"/><path d="m71.3 95.7c0-.1 0-.3-.1-.4-.7-3.3 1.8-13.6 5.1-21.3s-9.8-24.5-9.8-24.5l4.6 6.1c4 5.3 8.9 12.2 8.8 17.8-.3 8-6.9 19.6-7.4 21.4-.1.5-.6.8-1.2.9z" fill="#ffffff" opacity=".3"/><path d="m69.8 95.6c-1.2-.3-2.3-1.2-2.4-2.5-.2-2.1 0-9.2 2.6-16.7 1.9-5.6-8.3-9.3-11.4-18.3-.3-.8-.3-1.6 0-2.3 1-.9 1.9-1.7 2.1-1.9l4.9-1.6s-4.9 9.4-.1 14 7.2 4.6 5.7 10.2c-1.7 5.6-4.4 14.2-1.4 19.1z" fill="#ffffff" opacity=".5"/><path d="m65.2 53.9c-.9 4.8-8.7 20.6-16 21.4-7.9.4-21.4-5.6-23.2-6-1.8-.3-.5-4.5 2.2-5 2.1-.4 10.2.1 17.9 2.1 3.5-3 4.9-11.4 11.1-16.1 2.5.7 6 .7 8 3.6z" fill="#ffffff"/><path d="m62.2 60.2c2-3.2 2.6-4.8 1.6-2-2.8 6.5-8.9 16.5-14.6 17-7.9.4-21.4-5.6-23.2-6-.8-.2-1-1.1-.7-2.2.5 0 1.3 0 2.5.1 4.3.5 19.6 5.9 22.3 5.5 2.6-.4 9-7.7 12.1-12.4z" fill="#ffffff" opacity=".3"/><path d="m47.9 67.7c-1.1 2.9-2.6-.1-11.3-2.1-6.8-1.5-9.5-.5-10.5-.1.5-.6 1.2-1 1.9-1.2 2.1-.4 10.2.1 17.9 2.1 3-2.5 4.5-9 8.6-13.8-2.7 3.9-5.7 12.6-6.6 15.1z" fill="#ffffff" opacity=".5"/><path d="m67.6 51 1.8 2.4s-14 4.8-17.4 3c2.2-3.4 3.7-8 3.7-8z" fill="#ffffff" opacity=".7"/><path d="m66.4 30.8c2.1 6.2 1.7 11 2.6 19.5 2.9 3.6-14.8 4.4-16.6 4.9-1.8.4 2.3-2.4 2.3-21.1 0-5.5.7-9.1 2.1-10.6 3.1.5 7.8 2.1 9.6 7.3z" fill="#ffffff"/><path d="m57.4 44.1c-2-6.5-2.4-15.9-2.4-16-.3 1.6-.4 3.6-.4 6 0 18.7-4.1 21.5-2.3 21.1 1-.2 6.3-.6 10.7-1.3 0-2.7-4.1-5-5.6-9.8z" fill="#ffffff" opacity=".3"/><path d="m57.8 22.2s-.5.8 5.9 1.2c2.6 1.2 2.6 2.2 2.6 2.3s-8.8-.4-9.5-2c-.6-1.3 1-1.5 1-1.5z" fill="#ffffff"/><g fill="#ffffff" opacity=".3"><path d="m62.8 23.8c.7.1 1.3.3 1.8.7.8.5 1.1 1 1.3 1.3h.1c0-.1 0-1.1-2.6-2.2-2.4-.2-3.8-.4-4.6-.6.7.2 1.9.5 4 .8z"/><path d="m57 23.9c-.3-.9.3-1.3.7-1.4 0-.1 0-.1 0-.1s-1.5.2-.9 1.5c.1.3.7.6 1.4.9-.6-.3-1.1-.6-1.2-.9z"/></g><path d="m56.9 23.1c0-.1 0-.1-.1-.2-.1.2-.2.6 0 1 .5 1.5 7.5 2 7.5 1.9 0 0 0-.4-.3-.8-1.5-.1-6.7-.6-7.1-1.9z" fill="#ffffff" opacity=".3"/><path d="m66.4 50.9c.9-.7 1.4-8.3 1.3-14.1.6 3.8.6 7.8 1.1 13.4.7.9.1 1.6-1.1 2.2-1.4-.4-2.4-.6-1.3-1.5z" fill="#ffffff" opacity=".3"/><path d="m71.7 21.2s.1-.4 1.7 1.5 4.9 4.8 3.8 5.5c-1.4 1.1-8.7-4-5.5-7z" fill="#ffffff"/><path d="m75.5 9.1c-.1-.5-.3-1.2-.3-1.3-.1-.8-.1-1.6 0-2.3.1-1.3.1-2.7.1-4 0-.5-.4-.6-.5.1-.1.3-.1.9-.1 1.5 0 .2-.1.4-.1.6 0 0 0 .1-.2.1-.1 0-.2-.2-.2-.2 0-.3-.1-.8-.1-1.3-.1-.7-.2-1.5-.3-1.7-.1-.5-.5-.5-.5.2 0 .4 0 1 .1 1.6v1.4s0 .2-.1.2-.2-.2-.2-.2c-.1-.4-.3-.8-.4-1.3-.2-.9-.4-1.8-.5-2.2-.1-.5-.6-.3-.6.1 0 .2.1 1.3.2 2.3.1.4.1.8.2 1.1v.1c0 .1 0 .4-.1.4s-.2-.3-.2-.3c-.1-.3-.3-.7-.5-1.1-.3-.6-.4-1.4-.5-1.6-.2-.4-.6-.3-.4.3.1.3.1 1.1.3 1.6s.4 1.1.5 1.6c0 .1.1.2.1.2.1.2.1.1.1.3 0 .1-.1.2-.4-.2-.7-.8-1.4-.6-1.4-.4 0 .3.4.3 1.1 1.5.4.7 1.1 1.2 1.4 1.9.5 1.2.6 2.5.6 3.7.1 2.1-.3 4.2-.3 6.2 0 1.4.1 3.3 0 3.4-1.4.5-3.8 1.5-5.1 2-6.3 2.5-2.7 7.4.1 7.1 2.1-.2 9.8-1.7 11.2-5.8 1.2-3.6-2-13.2-3-15.6z" fill="#d8cfc0"/><path d="m72.2 21.6c-.4.2-1 .4-1.5.6l.6.2s1.8 1.2 2.2.8c.3-.3-.6-4.2-.6-10.8 0-3.9-1.8-5.3-2.3-6.1.4.7 1.1 1.2 1.4 1.9.5 1.2.6 2.5.6 3.7.1 2.1-.3 4.2-.3 6.2 0 1.5 0 3.5-.1 3.5z" fill="#d8cfc0" opacity=".4"/><path d="m76.5 12.2c1 3.9 2 9.2 1.6 10-.3.8-2 1.5-1.4 3.5-1.1 3.1-5.4 3.6-5.4 3.6s.5 0 1.1.1c2.5-.9 5.1-2.4 5.9-4.6 1.2-3.4-1.3-11.5-2.6-14.8.1-.1.5 1 .8 2.2z" fill="#d8cfc0" opacity=".6"/><path d="m71.9 21.7s-1.1 1.7 4.3 5.9c-1.8 1.3-2.5 1.6-2.5 1.6l-3.1-6.9z" fill="#d8cfc0" opacity=".6"/><path d="m59.4 26.4c3.6-1.3 11.6-4.6 12.3-5.2-1.5 3.1 4.7 7.2 5.6 7-4.6 4.3-9.1 7.6-12 8.2-4.4.9-9.9-8.6-5.9-10z" fill="#ffffff"/><path d="m71.7 21.2c-.6.5-8.7 3.9-12.3 5.2-.1 0-.1 0-.2.1l-.7.2s10.1-2.6 13-3.4c-.1-.7-.1-1.4.2-2.1z" fill="#ffffff" opacity=".3"/><path d="m74.3 26.5c-.2 2.3-4.7 8.9-9 9.9 2.9-.6 7.4-3.9 12-8.2-.4.1-1.7-.6-3-1.7z" fill="#ffffff" opacity=".5"/><g fill="#ffffff"><path d="m50.8 74.9c1.5-.7 2.7-1.7 3.8-2.8s2.2-2.3 3.1-3.6c1-1.3 1.9-2.6 2.7-4s1.6-2.8 2.4-4.2l-1.1 2.2-1.2 2.1c-.8 1.4-1.7 2.7-2.7 4s-2 2.5-3.2 3.6c-1 1-2.3 2-3.8 2.7z"/><path d="m46 66.3c.7-.6 1.2-1.4 1.7-2.2s1-1.6 1.4-2.4c.9-1.6 1.7-3.3 2.6-5-.7 1.7-1.6 3.4-2.4 5-.5.8-.9 1.6-1.5 2.4-.5.9-1.1 1.6-1.8 2.2z"/><path d="m29 64.2c2.7-.1 5.5.1 8.2.3 2.7.3 5.4.8 8 1.8-2.6-.9-5.3-1.3-8-1.6-2.7-.4-5.5-.5-8.2-.5z"/><path d="m26.7 69.5c3.5 1.3 7 2.6 10.6 3.6 1.8.6 3.6 1 5.4 1.5 1.8.4 3.7.7 5.5.7-1.9.1-3.7-.2-5.6-.6-1.8-.4-3.6-.9-5.4-1.4-3.6-1.1-7.1-2.4-10.5-3.8z"/><path d="m69.4 53.4c2.3 2.9 4.6 5.9 6.5 9 1 1.6 1.9 3.2 2.6 4.9.4.9.7 1.7.9 2.6s.3 1.8.3 2.8c0 1.9-.3 3.7-.7 5.5s-1 3.6-1.6 5.3c-1.3 3.5-2.8 6.9-4.5 10.2 1.7-3.3 3.2-6.7 4.5-10.2.6-1.8 1.2-3.5 1.5-5.3.4-1.8.7-3.6.6-5.5 0-.9-.1-1.8-.3-2.7s-.5-1.8-.9-2.6c-.7-1.7-1.6-3.3-2.6-4.9-1.8-3.2-4-6.2-6.3-9.1z"/><path d="m67.4 91.7c.1-2.8.4-5.6.8-8.3.4-2.8 1-5.5 2-8.1.1-1.1-.4-2.2-1-3.2s-1.4-1.8-2.2-2.7c-1.6-1.7-3.3-3.3-4.7-5.1 1.5 1.7 3.2 3.3 4.8 5 .8.8 1.6 1.7 2.2 2.7s1.1 2.1 1.1 3.3c-1 2.6-1.5 5.3-2 8.1s-.8 5.6-1 8.3z"/><path d="m65.2 36.4c1.2-.3 2.3-.9 3.3-1.5s2.1-1.3 3-2c2-1.4 3.8-3 5.7-4.6-.9.9-1.8 1.7-2.7 2.5s-1.9 1.6-2.9 2.3-2 1.4-3.1 2c-.9.5-2.1 1.1-3.3 1.3z"/><path d="m59.3 26.4 6.1-2.5c2-.8 4.1-1.6 6.1-2.5-1.9 1-4 1.8-6 2.7-2.1.8-4.2 1.6-6.2 2.3z"/><path d="m71.7 21.2c-.3.6-.1 1.4.1 2 .3.6.7 1.2 1.1 1.7.9 1.1 1.9 1.9 3 2.8-.6-.4-1.1-.8-1.7-1.2-.5-.4-1-.9-1.5-1.4-.4-.5-.8-1.1-1.1-1.8-.2-.7-.3-1.5.1-2.1z"/><path d="m71.1 7.1c.3.3.5.7.7 1.1.1.4.2.8.4 1.2.2.8.3 1.7.4 2.6 0 1.6-.1 3.1-.2 4.7l-.2 2.3c0 .8-.1 1.6 0 2.3-.2-.8-.1-1.6-.1-2.4l.1-2.4c.1-1.6.2-3.1.2-4.7-.1-.9-.2-1.7-.4-2.6 0-.2-.2-.6-.3-1-.2-.4-.3-.8-.6-1.1z"/><path d="m53.7 48c.4-4.1.7-8.3.8-12.4.1-2.1 0-4.2.3-6.2s.8-4.1 1.9-5.9c-1 1.8-1.4 3.9-1.7 5.9-.3 2.1-.2 4.1-.3 6.2-.2 4.2-.5 8.3-1 12.4z"/><path d="m54.7 55.1c2.2-.3 4.3-.7 6.5-1.1s4.3-.9 6.4-1.4c-2.1.7-4.2 1.1-6.4 1.6-2.2.3-4.3.7-6.5.9z"/><path d="m68.3 39.9c.2 1.5.3 3.1.4 4.6s.2 3.1.2 4.6c-.2-1.5-.3-3.1-.4-4.6s-.2-3.1-.2-4.6z"/><path d="m72.4 32.9c.4.6.7 1.3 1.2 1.9v.1h-.1c-.7.5-1.5 1-2.3 1.4s-1.6.8-2.4 1.2c.8-.4 1.6-.9 2.3-1.3l2.3-1.4v.1c-.4-.6-.7-1.3-1-2z"/><path d="m74.5 34c.2.1.2.4 0 .5 0-.2 0-.3 0-.5z"/><path d="m25.4 69.6c-.5-1-.5-2.2.1-3.2-.4 1-.4 2.1-.1 3.2z"/><path d="m20.4 73c-.2-.5 0-1.1.1-1.6s.2-1.1.4-1.6c.4-1 .8-2.1 1.4-3-.5 1-.9 2-1.2 3.1-.2.5-.3 1-.5 1.6-.1.5-.3 1-.2 1.5z"/><path d="m22 73.3c.3-.4.7-.8 1-1.1.4-.3.7-.7 1.1-1-.3.4-.7.8-1 1.1-.4.3-.7.7-1.1 1z"/><path d="m22.9 65.1c.3-.8.6-1.6.9-2.5v-.1h.1c.5.2.9.4 1.4.6.4.2.9.5 1.2.8-.4-.3-.8-.5-1.3-.7-.4-.2-.9-.4-1.4-.6h.1c-.3.9-.6 1.7-1 2.5z"/><path d="m67.4 94.7c-.1.6-.2 1.2-.3 1.9-.1.6-.2 1.2-.3 1.9l-.1-.1c1 .3 2 .3 3 .3-.5 0-1 .1-1.5 0-.5 0-1-.1-1.5-.2h-.1v-.1c.1-.6.2-1.2.3-1.8.2-.7.4-1.3.5-1.9z"/><path d="m70.7 98.6c1.2.5 2.4 1 3.6 1.2.6.1 1.3.2 1.9.1s1.2-.5 1.3-1.2c0 .7-.7 1.2-1.3 1.3-.6.2-1.3.1-1.9 0-1.2-.4-2.5-.8-3.6-1.4z"/><path d="m74.1 96.5c.7.3 1.3.6 2 .9.6.4 1.3.7 1.9 1.1-.7-.3-1.3-.6-2-.9-.6-.4-1.3-.7-1.9-1.1z"/><path d="m56.8 23.2c-.2.4 0 .8.2 1.1.3.3.7.5 1 .6.8.3 1.6.5 2.4.7-.8-.1-1.7-.3-2.5-.6-.4-.2-.8-.4-1.1-.7-.1-.2-.2-.7 0-1.1z"/><path d="m63.6 24.6c-.6-.8-1.6-1-2.5-1.1s-1.9-.1-2.7-.6c.9.3 1.8.3 2.8.4.5.1.9.1 1.4.3.4.2.8.6 1 1z"/><path d="m71.4 19.6c-.2-.7-.4-1.4-.7-2.1s-1.1-.8-1.7-1.3c-.3-.3-.4-.7-.4-1.1s-.1-.7-.1-1.1c0-.7.1-1.5.2-2.2-.1.7-.1 1.4-.1 2.2 0 .4 0 .7.1 1.1 0 .4.1.7.4.9.5.5 1.4.6 1.7 1.4.3.7.5 1.5.6 2.2z"/><path d="m69.6 13.7c-.1.2.2.4.4.4s.4-.2.5-.4c.2-.4.3-.8.1-1.3v-.1h.1c.3-.1.5.2.5.3l.2.6.4 1.2c.3.8.5 1.5.7 2.3-.3-.7-.6-1.5-.9-2.3l-.4-1.1c-.1-.3-.2-.9-.5-.8v-.1c.1.5.1 1-.2 1.3-.1.2-.3.4-.6.4-.1.1-.4-.1-.3-.4z"/><path d="m74 34.3c.5-.2 1-.5 1.4-.8s.9-.7 1.2-1.1c.2-.4.1-1.1.2-1.6v-.8-.4-.2-.1c-.1 0 0-.1 0 0v.1.2.4.8.8.4c0 .1 0 .3-.1.4-.4.4-.8.8-1.3 1.1-.3.4-.8.6-1.4.8z"/><path d="m68.5 95.3c.5.1 1.1.3 1.6.3.5.1 1.1.1 1.6.2-.5.1-1.1.1-1.6 0-.6-.1-1.2-.2-1.6-.5z"/><path d="m54.6 52.8c1.7-.2 3.3-.3 5-.6 1.7-.2 3.3-.5 5-.8-1.6.4-3.3.7-5 .9-1.6.3-3.3.5-5 .5z"/><path d="m59.4 21.9h.9c.3.1.6.1.9.2-.3 0-.6 0-.9 0-.3-.1-.6-.1-.9-.2z"/><path d="m75.2 5.4c0-.6.1-1.1.1-1.7.1-.6 0-1.1.1-1.7.1.6.1 1.1.1 1.7-.1.6-.1 1.1-.3 1.7z"/><path d="m76.5 27.5c.5-.5 1-1 1.4-1.5.4-.6.7-1.2.8-1.9s.1-1.4.1-2c0-.3-.1-.7-.1-1-.1-.3 0-.7-.3-1 .3.2.3.6.4.9s.1.7.1 1c.1.7.1 1.4 0 2.1s-.4 1.4-.8 1.9c-.5.6-1.1 1.1-1.6 1.5z"/></g></svg>