<svg enable-background="new 0 0 32 32" viewBox="0 0 32 32" xmlns="http://www.w3.org/2000/svg"><path d="m29.8 3.6c-.1-.6-.5-1-1.2-1-1.2 0-2.4 0-3.6 0h-.5c0-.6 0-1.1 0-1.6.1-.5-.3-1-.8-1-.1 0-.1 0-.2 0-5 0-10 0-15 0-.5 0-1 .3-1.1.8v.2 1.6h-4.1c-.8 0-1.2.4-1.2 1.1-.1 1.3-.1 2.6 0 3.9.2 3 1.8 5.7 4.4 7.2 1.1.6 2 1.4 2.6 2.5 1.1 1.8 2.9 2.8 5 3.3.3.1.4.1.4.5-.1 1.3-.1 2.6-.2 3.9-.3 2.7-1.8 4.2-4.4 4.5-.6 0-1.2.4-1.4 1-.1.2-.2.5-.3.7-.3.6-.1.8.5.8h14.4.3c.2 0 .4-.1.5-.4 0-.1 0-.1 0-.2-.1-.4-.2-.7-.4-1-.2-.6-.7-1-1.4-1-2.5-.3-3.8-1.6-4.3-4-.3-1.4-.4-2.8-.3-4.2 0-.3.1-.5.4-.6 2.5-.6 4.6-2.2 5.7-4.5.1-.2.3-.4.6-.5 2.3-1 4.1-2.9 5-5.2s.9-4.6.6-6.8zm-22.4 9.3c-.1-.1-.2-.1-.3-.2-1.7-1.3-2.8-3.2-3-5.3 0-.7 0-1.5-.1-2.2 0-.3.1-.5.3-.5h.2 2.9zm17.4-.1c-.1 0-.2.1-.2.1v-8.2h3c.2 0 .3.2.4.3 0 3.1-.6 5.9-3.2 7.8z" fill="#fbb03b"/></svg>