<?xml version="1.0" encoding="utf-8"?>
<!-- Generator: Adobe Illustrator 25.2.1, SVG Export Plug-In . SVG Version: 6.00 Build 0)  -->
<svg version="1.1" id="Layer_1" xmlns="http://www.w3.org/2000/svg" xmlns:xlink="http://www.w3.org/1999/xlink" x="0px" y="0px"
	 viewBox="0 0 100 100" style="enable-background:new 0 0 100 100;" xml:space="preserve">
<style type="text/css">
	.st0{fill:#B2A740;}
	.st1{opacity:0.6;fill:#B2A740;}
	.st2{fill:#FFF203;}
	.st3{opacity:0.5;fill:#FFF203;}
	.st4{fill:#1A1A1A;}
	.st5{fill:#A799E6;}
	.st6{fill:#9E996A;}
	.st7{fill:#CDB3ED;}
	.st8{opacity:0.6;fill:#CDB3ED;}
	.st9{opacity:0.3;fill:#FFF203;}
	.st10{opacity:0.5;fill:#CDB3ED;}
	.st11{opacity:0.4;fill:#9E996A;}
	.st12{opacity:0.4;}
	.st13{opacity:0.5;fill:#B2A740;}
	.st14{fill:#FFF426;}
	.st15{opacity:0.4;fill:#CDB3ED;}
	.st16{opacity:0.7;fill:#CDB3ED;}
	.st17{opacity:0.6;fill:#FFF203;}
	.st18{opacity:0.6;}
	.st19{opacity:0.7;fill:#FFF203;}
	.st20{fill:#8A604F;}
	.st21{opacity:0.4;fill:#8A604F;}
	.st22{fill:#774632;}
	.st23{fill:none;}
	.st24{fill:#E64B00;}
	.st25{opacity:0.3;fill:#E64B00;}
	.st26{opacity:0.6;fill:#E64B00;}
	.st27{fill:#386AC4;}
	.st28{opacity:0.5;}
	.st29{fill:#D1847E;}
	.st30{opacity:0.6;fill:#D1847E;}
	.st31{opacity:0.5;fill:#386AC4;}
	.st32{opacity:0.3;fill:#386AC4;}
	.st33{opacity:0.4;fill:#386AC4;}
	.st34{opacity:0.7;fill:#386AC4;}
	.st35{opacity:0.7;fill:#E64B00;}
	.st36{fill:#253E6B;}
	.st37{fill:#7A43C3;}
	.st38{fill:#CDCAC6;}
	.st39{opacity:0.6;fill:#CDCAC6;}
	.st40{opacity:0.5;fill:#7A43C3;}
	.st41{opacity:0.3;fill:#7A43C3;}
	.st42{fill:#543961;}
	.st43{fill:#E2BA33;}
	.st44{opacity:0.7;fill:#E2BA33;}
	.st45{opacity:0.6;fill:#7A43C3;}
	.st46{opacity:0.5;fill:#E2BA33;}
	.st47{opacity:0.4;fill:#E2BA33;}
	.st48{fill:#E2DA7E;}
	.st49{opacity:0.4;fill:#E2DA7E;}
	.st50{fill:#F2EF94;}
	.st51{opacity:0.4;fill:#FFFFFF;}
	.st52{opacity:0.5;fill:#CDCAC6;}
	.st53{fill:#6C41B1;}
	.st54{fill:#090704;}
	.st55{fill:#D8CFC0;}
	.st56{fill:#2A41E8;}
	.st57{opacity:0.6;fill:#D8CFC0;}
	.st58{fill:#FF822A;}
	.st59{opacity:0.5;fill:#FF822A;}
	.st60{fill:#A58F64;}
	.st61{opacity:0.5;fill:#A58F64;}
	.st62{fill:#561A91;}
	.st63{opacity:0.4;fill:#D8CFC0;}
	.st64{opacity:0.7;fill:#D8CFC0;}
	.st65{opacity:0.3;fill:#FF822A;}
	.st66{opacity:0.7;fill:#FF822A;}
	.st67{opacity:0.3;}
	.st68{fill:#E83C7D;}
	.st69{fill:#BF9726;}
	.st70{opacity:0.4;fill:#E83C7D;}
	.st71{fill:#767676;}
	.st72{opacity:0.5;fill:#E83C7D;}
	.st73{opacity:0.5;fill:#767676;}
	.st74{opacity:0.9;fill:#767676;}
	.st75{opacity:0.3;fill:#E83C7D;}
	.st76{opacity:0.4;fill:#7F3451;}
	.st77{opacity:0.4;fill:#BF9726;}
	.st78{opacity:0.7;fill:#BF9726;}
	.st79{opacity:0.6;fill:#E83C7D;}
	.st80{opacity:0.2;fill:#E83C7D;}
	.st81{fill:#7F3451;}
	.st82{fill:#968B22;}
	.st83{opacity:0.4;fill:#968B22;}
	.st84{fill:#FFEAA6;}
	.st85{fill:#1274C4;}
	.st86{fill:#D1D1D1;}
	.st87{opacity:0.3;fill:#1274C4;}
	.st88{opacity:0.6;fill:#D1D1D1;}
	.st89{opacity:0.5;fill:#1274C4;}
	.st90{fill:#0A3F6B;}
	.st91{fill:#E67E5B;}
	.st92{opacity:0.6;fill:#D46642;}
	.st93{opacity:0.6;fill:#1274C4;}
	.st94{opacity:0.4;fill:#001B6A;}
	.st95{opacity:0.3;fill:#D46642;}
	.st96{fill:#1065AB;}
	.st97{opacity:0.4;fill:#1274C4;}
	.st98{opacity:0.7;fill:#E67E5B;}
	.st99{fill:#C7C4BE;}
	.st100{fill:#EFEBE0;}
	.st101{opacity:0.3;fill:#C7C4BE;}
	.st102{opacity:0.5;fill:#D1D1D1;}
	.st103{opacity:0.9;fill:#D1D1D1;}
	.st104{fill:#0F64A8;}
	.st105{fill:#D1AB3E;}
	.st106{opacity:0.5;fill:#D1AB3E;}
	.st107{opacity:0.8;fill:#D1AB3E;}
	.st108{opacity:0.1;fill:#D1AB3E;}
	.st109{fill:#C16A23;}
	.st110{opacity:0.5;fill:#C16A23;}
	.st111{fill:#6DEC6E;}
	.st112{opacity:0.5;fill:#6DEC6E;}
	.st113{fill:#826315;}
	.st114{opacity:0.3;fill:#EC1C24;}
	.st115{opacity:0.4;fill:#826315;}
	.st116{fill:#C87C3D;}
	.st117{fill:#EE3A40;}
	.st118{fill:none;stroke:#1A1A1A;stroke-width:0.1469;stroke-linejoin:round;stroke-miterlimit:10;}
	.st119{fill:none;stroke:#CA7F42;stroke-width:0.1352;stroke-miterlimit:10;}
	.st120{opacity:0.5;fill:#FFFFFF;}
	.st121{fill:#C57330;}
	.st122{opacity:0.3;fill:#C57330;}
	.st123{opacity:0.5;fill:#8FF08F;}
	.st124{opacity:0.5;fill:#C57330;}
	.st125{fill:#8FF08F;}
	.st126{opacity:0.5;fill:#EE3A40;}
	.st127{opacity:0.3;fill:#EE3A40;}
	.st128{opacity:0.4;fill:#EE3A40;}
	.st129{opacity:0.2;fill:#EE3A40;}
	.st130{opacity:0.4;fill:#C57330;}
	.st131{opacity:0.4;fill:#D1AB3E;}
	.st132{opacity:0.6;fill:#D1AB3E;}
	.st133{opacity:0.9;fill:#D1AB3E;}
	.st134{fill:none;stroke:#1A1A1A;stroke-width:0.1469;stroke-miterlimit:10;}
	.st135{opacity:0.7;}
	.st136{fill:#F05459;}
	.st137{fill:#EADBE1;}
	.st138{fill:#D2B1BE;}
	.st139{fill:none;stroke:#EED3B0;stroke-width:0.1115;stroke-miterlimit:10;}
	.st140{opacity:0.5;fill:#D2B1BE;}
	.st141{fill:#561B32;}
	.st142{fill:#E10A52;}
	.st143{opacity:0.4;fill:#E10A52;}
	.st144{opacity:0.2;fill:#E10A52;}
	.st145{fill:#DEC5CF;}
	.st146{opacity:0.6;fill:#D2B1BE;}
	.st147{opacity:0.3;fill:#D2B1BE;}
	.st148{opacity:0.4;fill:#DEC5CF;}
	.st149{fill:#ECCEA7;}
	.st150{opacity:0.4;fill:#ECCEA7;}
	.st151{opacity:0.9;fill:#ECCEA7;}
	.st152{opacity:0.9;fill:#E1B375;}
	.st153{fill:#E1B375;}
	.st154{opacity:0.5;fill:#ECCEA7;}
	.st155{opacity:0.8;fill:#ECCEA7;}
	.st156{opacity:0.7;fill:#ECCEA7;}
	.st157{opacity:0.6;fill:#E10A52;}
	.st158{opacity:0.7;fill:#E10A52;}
	.st159{fill:#D89C4C;}
	.st160{opacity:0.8;fill:#D89C4C;}
	.st161{fill:#D5FEE3;}
	.st162{opacity:0.4;fill:#EFD7B7;}
	.st163{fill:#EBCCA2;}
	.st164{opacity:0.4;fill:#EBCCA2;}
	.st165{fill:#EDD1AD;}
	.st166{fill:url(#SVGID_1_);}
	.st167{opacity:0.3;fill:#FFFFFF;}
	.st168{fill:url(#SVGID_2_);}
	.st169{fill:#B1778D;}
	.st170{fill:url(#SVGID_3_);}
	.st171{opacity:0.2;}
	.st172{fill:#FFFFFF;}
	.st173{fill:url(#SVGID_4_);}
	.st174{fill:url(#SVGID_5_);}
	.st175{opacity:0.2;fill:url(#SVGID_6_);}
	.st176{opacity:0.4;fill:url(#SVGID_7_);}
	.st177{opacity:0.4;fill:url(#SVGID_8_);}
	.st178{clip-path:url(#SVGID_10_);fill:#764659;}
	.st179{clip-path:url(#SVGID_10_);fill:#78495B;}
	.st180{clip-path:url(#SVGID_10_);fill:#794B5D;}
	.st181{clip-path:url(#SVGID_10_);fill:#7D4F61;}
	.st182{clip-path:url(#SVGID_10_);fill:#7F5263;}
	.st183{clip-path:url(#SVGID_10_);fill:#805465;}
	.st184{clip-path:url(#SVGID_10_);fill:#825667;}
	.st185{clip-path:url(#SVGID_10_);fill:#845969;}
	.st186{clip-path:url(#SVGID_10_);fill:#855B6B;}
	.st187{clip-path:url(#SVGID_10_);fill:#875D6D;}
	.st188{clip-path:url(#SVGID_10_);fill:#895F70;}
	.st189{clip-path:url(#SVGID_10_);fill:#E0004B;}
	.st190{clip-path:url(#SVGID_10_);fill:#E0034D;}
	.st191{clip-path:url(#SVGID_10_);fill:#E10850;}
	.st192{clip-path:url(#SVGID_10_);fill:#E10A52;}
	.st193{clip-path:url(#SVGID_10_);fill:#E20F56;}
	.st194{clip-path:url(#SVGID_10_);fill:#E21258;}
	.st195{clip-path:url(#SVGID_10_);fill:#E3175B;}
	.st196{fill:url(#SVGID_11_);}
	.st197{fill:url(#SVGID_12_);}
	.st198{fill:url(#SVGID_13_);}
	.st199{opacity:0.2;fill:#FFFFFF;}
	.st200{fill:#2F2C1E;}
	.st201{fill:url(#SVGID_14_);}
	.st202{fill:url(#SVGID_15_);}
	.st203{opacity:0.1;fill:#FFFFFF;}
	.st204{fill:url(#SVGID_16_);}
	.st205{fill:url(#SVGID_17_);}
	.st206{opacity:0.2;fill:url(#SVGID_18_);}
	.st207{fill:url(#SVGID_19_);}
	.st208{fill:url(#SVGID_20_);}
	.st209{fill:url(#SVGID_21_);}
	.st210{opacity:0.2;fill:url(#SVGID_22_);}
	.st211{fill:url(#SVGID_23_);}
	.st212{fill:url(#SVGID_24_);}
	.st213{opacity:0.4;fill:url(#SVGID_25_);}
	.st214{opacity:0.4;fill:url(#SVGID_26_);}
	.st215{opacity:0.4;fill:#561B32;}
	.st216{fill:#E52968;}
	.st217{fill:none;stroke:#AC5773;stroke-width:3.185000e-02;stroke-miterlimit:10;}
	.st218{fill:none;stroke:#F7EBDB;stroke-width:3.166700e-02;stroke-miterlimit:10;}
	.st219{fill:#FBB03B;}
</style>
<g>
	<g>
		<path class="st0" d="M37.6,23.4c-0.4,0,0,1,0.6,2.3c0.6,1.3,2.9,1.6,4,2C42.2,25.9,40.7,23.7,37.6,23.4z"/>
		<path class="st1" d="M38,24.9c-0.1,0-0.2-0.1-0.3-0.3c-0.1-0.2-0.1-0.4,0-0.5c0.1-0.2,0.3-0.3,0.5-0.3c0.2,0,0.4,0,0.6,0.1
			c0.3,0.1,0.6,0.3,0.8,0.6c0.1,0.2,0.3,0.4,0.2,0.6c0,0.1-0.1,0.2-0.2,0.3c-0.1,0.1-0.3,0.2-0.4,0.2c-0.1,0-0.2,0-0.3,0
			c-0.2-0.1-0.4-0.3-0.5-0.5L38,24.9z"/>
		<g>
			<path class="st2" d="M57.4,21.2c0,0.1,0,0.1,0,0.2c0,0.7-1.4,1.7-1.1,2c0.3,0.3,1.3,0.7,1.5,0.5c0.1-0.1,0.6-0.9,1.1-1.6
				C58.4,22,57.9,21.6,57.4,21.2z"/>
			<path class="st3" d="M58.7,22.2c-0.4,0.8-1.3,1.6-1.8,1.6c0.4,0.1,0.7,0.2,0.8,0.2c0.1-0.1,0.6-0.9,1.1-1.6
				C58.8,22.3,58.7,22.3,58.7,22.2z"/>
		</g>
		<circle class="st4" cx="56.9" cy="23" r="0.4"/>
		<g>
			<path class="st4" d="M56.5,25.9C56.5,25.9,56.5,25.9,56.5,25.9c0-1.2,0.2-3.1,0.2-3.1c0,0,0,0,0,0c0,0,0,0,0,0c0,0,0,0,0,0
				C56.8,22.8,56.6,24.8,56.5,25.9C56.6,25.9,56.6,25.9,56.5,25.9L56.5,25.9z"/>
		</g>
		<path class="st5" d="M51.5,32.2c0,0-0.3,0.3-1.4,2.1c-1.1,1.8-3.2,3.5-1.6,4.4c1.6,0.9,3.1-0.2,3.5-1.1
			C52.5,36.8,52.9,31.8,51.5,32.2z"/>
		<path class="st6" d="M40.5,31.4c0,0,0.1,0.1,0.7-0.3c0.6-0.4,2.3-2.6,2-2.6C42.9,28.5,40.9,30.4,40.5,31.4z"/>
		<path class="st0" d="M34.4,28.6c-0.1-0.4,0.5-0.6,1.8,0c1.3,0.6,2.1,1.9,2.4,3C36.8,31.8,34.6,29.2,34.4,28.6z"/>
		<g>
			<path class="st7" d="M47.5,37.1c3,2.9,10.7,1.7,12.5,1c2.6-1,3.4-6.7-2.9-6c-1.3,0.1-4,0.6-5.4,0.8L47.5,37.1z"/>
			<path class="st7" d="M51.6,32.9c-3.4-1.9-8.4-3.7-10.6-5.7c-1.2-0.2-2.5,1.4-1.7,2.5c0.6,0.9,8.4,9,12.5,9.5L51.6,32.9z"/>
			<path class="st8" d="M51.6,32.9c0,0,0.2,1.1-2.8,4.9c1.7,1.6,2.3,1.3,2.3,1.3l1.1-6.4L51.6,32.9z"/>
			<path class="st2" d="M51.5,32.2c0,0,1.5,0.3-2,6.5c2.1,1.1,11.8-0.5,11.9-0.6c0.1-0.1-1.7-7.8-1.7-7.8L51.5,32.2z"/>
			<path class="st9" d="M57.9,31.1c0.5,0.1,0.7-0.1,0.7-0.5l-7.2,1.6c0,0,0.5,0.1,0.2,1.3C53.4,32.4,56.6,30.9,57.9,31.1z"/>
			<path class="st10" d="M50.8,37.4c-2.9-0.2-7.4-3.9-8.4-5.6c-1.1-1.7-0.1-2.3-0.1-2.3L40.9,28c-0.3-0.1-0.7-0.2-1-0.2
				c-0.1,0-0.4,0.4-0.9,1.1c0,0.3,0.1,0.5,0.2,0.8c0.6,0.9,8.4,9,12.5,9.5l0-1.8C51.4,37.4,51.1,37.4,50.8,37.4z"/>
		</g>
		<path class="st0" d="M38.6,29.9c0,0,0.9,0.9,1.9,1.5c1.6-2.1,2.7-2.9,2.7-2.9L41,26.6L38.6,29.9z"/>
		<path class="st11" d="M43.2,28.5l-1.4-1.2c-0.1,0.2-0.1,0.4-0.3,0.6c-0.8,1.1,0.1-0.2,0.6,0.2c0.5,0.4-1,2.9-1.6,2.9
			c-0.6,0-1-0.6-0.8-1.2c0.2-0.5-0.2,0.1-1.1,0.2c0.2,0.2,1,1,1.9,1.5C42.1,29.3,43.2,28.5,43.2,28.5z"/>
		<path class="st0" d="M36.4,28.4c0,0.1,1.2,2,3.2,1.7c2-0.3,3.3-3,0.1-4.4C36.2,24.3,36.4,28.4,36.4,28.4z"/>
		<g class="st12">
			<path class="st6" d="M41.6,27.8c0,0-0.1,0.1-0.1,0.1c-0.6,0.8-0.3,0.4,0.1,0.2C41.6,28,41.6,27.9,41.6,27.8z"/>
			<path class="st6" d="M38,29.9c0.4,0.2,1,0.3,1.6,0.2c0,0,0.1,0,0.1,0c0-0.1,0-0.2,0.1-0.3C40,29.2,39.3,30.3,38,29.9z"/>
		</g>
		<path class="st1" d="M36.9,27.6c0,0.2-0.6,1.6,1.3,1.7c1.9,0,3-2.6,1.8-3.1C38.7,25.6,37.3,26.3,36.9,27.6z"/>
		<path class="st1" d="M40.3,25.4c-0.5-0.5-1.1-1-1-1.7c0,0.3-0.2,0.5-0.1,0.9c0.1,0.7,0.3,0.8,0.1,1.5c-0.2,0.6-0.7,1.1-1.2,1.5
			c-0.5,0.3-1.2,0.5-1.7,0.8C36,28.6,36,29,36.5,29.2c0.2,0.1,0.5,0.1,0.7,0c0.2-0.1,0.4-0.3,0.3-0.5c0.3,0.1,0.7-0.1,0.8-0.4
			c0-0.1,0-0.1,0.1-0.2c0,0,0.1,0,0.1,0c0.5-0.1,0.8-0.4,1-0.8c0.3-0.5,0.4-0.3,0.9-0.5c0.2-0.1,0.3-0.5,0.2-0.7
			C40.6,25.8,40.5,25.6,40.3,25.4z"/>
		<path class="st6" d="M39.9,32.6c0,0,0.2,0-0.4,0.9c-0.6,0.9-2.1,2.4-2.2,1.9S38.6,32.8,39.9,32.6z"/>
		<g>
			<path class="st2" d="M64.9,93.8c0,0,2.2,3.4,2.1,3.8c-0.1,0.4-1.2,1.6-0.7,2.1c0.5,0.5,2.9,0.2,3.7-1c0.8-1.2-0.6-4.6-0.6-5.2
				s0.1-2.7-0.5-3.1c-0.5-0.4-3.5,0-3.7,0.3C65.5,92,65,93.6,64.9,93.8z"/>
			<path class="st0" d="M66.9,97.9c0,0,0.3,0.3,0.6-0.4c0.3-0.7,0-3.5-1-3.7c-1-0.2-0.8,1.6,0.3,3.3C67,97.6,66.9,97.9,66.9,97.9z"
				/>
			<path class="st1" d="M66.5,93.9c-0.7-0.1-0.8,0.7-0.4,1.9c0.1-0.3,0.5-1,1-0.5c0.5,0.5,0.5,2.4-0.1,2.6c0,0.1,0,0.1,0,0.1
				s0.3,0.3,0.6-0.4C67.8,96.8,67.5,94.1,66.5,93.9z"/>
			<path class="st3" d="M68.9,90.4c-0.5-0.4-3.5,0-3.7,0.3c0,0.1,0,0.2,0.1,0.3c1.1-0.3,2.9-0.3,3.2,1.1c0.4,1.6-0.5,1.3,0.6,3.1
				c1.1,1.9,1.2,3.9-1.2,4.3c-0.7,0.1-1.3,0.1-1.7,0c0,0.1,0.1,0.2,0.1,0.2c0.5,0.5,2.9,0.2,3.7-1c0.8-1.2-0.6-4.6-0.6-5.2
				C69.3,92.8,69.4,90.8,68.9,90.4z"/>
		</g>
		<g>
			<path class="st2" d="M32.5,88.2c0,0-0.8,1.5-1.8,2.8c-0.8,1.1-1.9,1.9-1.9,2.4c0,1.5,3.1,0.6,4.7-0.8c1.6-1.5,2.3-2.1,2.5-2
				c0.3,0.1,2.8-1.7,2.9-2.1c-0.4-1-2.6-3.2-2.8-3.4C35,86.8,32.5,88.2,32.5,88.2z"/>
			<path class="st0" d="M29.8,91.8c0,0-0.5,0.7,0.5,0.6c1,0,3-2.1,2.9-3c-0.1-0.8-1.3-0.6-1.6-0.3C31.3,89.5,30,91.7,29.8,91.8z"/>
			<path class="st13" d="M29.9,92.4c0.1,0,0.2,0,0.4,0c1,0,3-2.1,2.9-3c-0.1-0.8-1.3-0.6-1.6-0.3c0,0-0.1,0.1-0.1,0.1
				c0.6-0.2,1.2,0,1,1C32.3,91.3,30.8,92.2,29.9,92.4z"/>
			<path class="st3" d="M36.1,90.6c0.3,0.1,2.8-1.7,2.9-2.1c-0.4-1-2.6-3.2-2.8-3.4c-0.1,0.2-0.3,0.4-0.4,0.5l-0.2,1.9
				c0,0,2-0.5,2.3,0.9c0.3,1.4-1.6,0.9-2.3,1.6c-0.6,0.7-2.1,2.8-4.6,3.6c-0.9,0.3-1.5,0.3-2,0.2c0.5,1,3.2,0.1,4.7-1.2
				C35.2,91.1,35.9,90.5,36.1,90.6z"/>
			<path class="st3" d="M32.7,88.1c0.1,0.1,3.2,1.4,4.9-1.2c-1.7-2-2.7-2.2-2.7-2.2L32.7,88.1z"/>
		</g>
		<g>
			<g>
				<path class="st7" d="M58.2,25.3c0,0,0.7,3.8,0,4.8c-0.6,1-2.6,1.6-2.9,2.1c-0.3,0.5,4.2,3.6,7,3.5c1-1.6,1.7-3.1,3-4.1
					c-0.5-0.6-2.6-2-3.4-5.9C60.3,22.4,58,24.3,58.2,25.3z"/>
				<path class="st15" d="M62.4,35.7c1-1.5,1.6-2.9,2.8-3.9c-0.1-0.1-0.1-0.3-0.2-0.4c-0.6-0.5-1.8-2-2.6-3.9l-0.6-0.4
					c0,0,1.9,2.3,0.2,7c-1.1,1.1-3.1-1.3-4.6-3.2c-0.8,0.6-1.9,1-2.2,1.4C55,32.7,59.5,35.8,62.4,35.7z"/>
				<path class="st16" d="M60.6,27.5c0,0-0.8,1.3-2.1,1.1c-0.1-2.5,0.1-4,0-3.8C58.5,25.1,60.6,27.5,60.6,27.5z"/>
				<path class="st7" d="M61.6,27.2c-1.4,0.7-4.1,0.8-4.8-0.6c-0.7-1.4,0.5-5.4,1.9-6.1c1.4-0.7,3.8,0,4.6,1.4
					C64,23.3,63.1,26.4,61.6,27.2z"/>
				<path class="st4" d="M57.4,20.3c0,0-1,1.1,0.5,1.4c0.3,0.7,1.4,0.8,2,0.3c0.7,0.3,0.4,1.3,1,1.4c0.6,0.2-0.1,1.7-0.4,1.7
					c-0.2,0.1,0.3,0.5,0.6,0.4c0.4,0,1.4-1.8,1.8-1.2c0.4,0.6-0.6,1.9-0.9,2.3c0.1,0.8,0.5,1.1,0.5,1.1s2.3-1.9,2.2-4
					c-0.1-2.1-2.4-2.4-2.4-2.4S59.6,17.5,57.4,20.3z"/>
				<path class="st16" d="M57.2,24.4c0.1-0.4,0-0.8-0.3-0.9c-0.1,0.5-0.2,1-0.3,1.4C56.9,24.9,57.1,24.7,57.2,24.4z"/>
				<path class="st16" d="M60.5,25.3c-0.2,0.4-0.6,0.6-1,0.5c-0.4-0.2-0.6-0.6-0.5-1c0.2-0.4,0.6-0.6,1-0.5
					C60.5,24.4,60.7,24.9,60.5,25.3z"/>
			</g>
			<g>
				<path class="st2" d="M60.8,21.4c0,0,0.7,1.4,0.7,2.2c0,0.7-1.4,1.7-1.1,2c0.3,0.3,1.3,0.7,1.5,0.5c0.2-0.1,1.4-2.5,2.5-2.2
					L60.8,21.4z"/>
				<path class="st3" d="M60.9,21.6c0.1,0.3,0.4,0.9,0.5,1.3c0.2-0.1,0.6-0.1,1.2,0.3c1.1,0.8-0.9,2.7-1.6,2.7
					c0.4,0.1,0.7,0.2,0.8,0.2c0.2-0.1,1.4-2.5,2.5-2.2l-3.2-2.4C61.1,21.6,61,21.6,60.9,21.6z"/>
			</g>
			<path class="st2" d="M57,20.6c0,0,4.1,1.1,7.9,4c1.6-4.2-1.8-6.5-4-6.6c-1.5-0.1-3,0.9-3.6,2.3C57,20.1,57,20.6,57,20.6z"/>
			<path class="st3" d="M58.7,21.2c1.5,0.6,4,1.7,6.2,3.4c0.9-2.3,0.1-4.2-0.9-5.3c0.6,1,0.9,2.2-0.1,3.2
				C63,23.1,61.8,21.9,58.7,21.2C58.7,21.2,58.7,21.2,58.7,21.2z"/>
			<path class="st17" d="M61.5,18C61.3,18,61.1,18,61,18c-1.5-0.1-3,0.9-3.6,2.3C57,20.1,57,20.6,57,20.6s0.5,0.1,1.4,0.5
				C58.4,20.3,58.7,18.4,61.5,18z"/>
		</g>
		<path class="st2" d="M50.7,52.8c-0.7,5.5-4.9,18.4-1.5,25.2c3.5,6.7,13.9,14,15,15.4c1.2,1.3,4-1.7,3.1-4.2
			c-0.7-1.9-3.2-7.3-8.5-12.7C55,72.5,62.3,65,61.2,56C60.8,51.8,54.1,52.3,50.7,52.8z"/>
		<path class="st9" d="M65.6,93.5c0-0.1,0-0.2-0.1-0.2c-0.7-3.2-7-11-13-16.3c-6-5.3-1.8-16.2-1.8-16.2l-1.3-1.6
			c-1.3,6.2-2.7,14.1-0.2,18.9c3.5,6.7,13.9,14,15,15.4C64.6,93.7,65.1,93.7,65.6,93.5z"/>
		<path class="st3" d="M66.7,92.5c0.7-0.9,1.1-2.2,0.7-3.4c-0.7-1.9-3.2-7.3-8.5-12.7C55,72.5,62.3,65,61.2,56
			c-0.1-0.8-0.4-1.5-0.9-2c-1.2-0.4-2.3-0.7-2.6-0.8l-4.6,1.8c0,0,7.8,4.9,5.6,10.9c-2.3,5.9-4.4,6.9-0.7,11.1
			C61.7,81.2,67.3,87.1,66.7,92.5z"/>
		<path class="st2" d="M54.6,50.5c-5,0-22.2,4.9-24.3,12.1C28.4,70.5,32,85,32,86.9c0,1.9,4.4,1.4,5.4-1.2c0.8-2,1.8-10.2,1.2-18.3
			l0,0c3.6-2.9,12.3-2.8,18.2-8.1C56.5,56.6,57.2,53.1,54.6,50.5z"/>
		<path class="st9" d="M48.3,53.1c2,0.2,2.3-0.7,1.7-2c-7,1.5-18.1,5.8-19.7,11.4C28.4,70.5,32,85,32,86.9c0,0.9,0.9,1.2,2.1,1.1
			c0.1-0.5,0.3-1.3,0.4-2.5c0.3-4.4-2.3-20.7-1.4-23.3C34,59.6,42.6,52.6,48.3,53.1z"/>
		<path class="st3" d="M37.7,65.3c-3.1,0.5-0.4,2.6,0,11.7c0.3,7-1.2,9.6-1.8,10.5c0.7-0.4,1.3-1,1.5-1.7c0.8-2,1.8-10.2,1.2-18.3
			c3.1-2.5,9.8-2.8,15.3-6.1C49.5,63.5,40.3,64.8,37.7,65.3z"/>
		<g>
			<path class="st0" d="M55.9,83.5c0,0,4-1.8,4.7-4.7c0-1-1-1.5-1-1.5s-0.9,3-5.2,5.2C53.9,84.2,55.9,83.5,55.9,83.5z"/>
			<path class="st13" d="M59.6,77.3c0,0-0.9,3-5.2,5.2c-0.5,1.7,1.4,0.9,1.4,0.9s0.4-0.2,1-0.5c0,0-1.1,0.3-1-0.5
				C56,81.6,58,80.6,59,79c1-1.6,1.7-0.3,0.9,1.2c0.3-0.5,0.6-0.9,0.7-1.5C60.6,77.8,59.6,77.3,59.6,77.3z"/>
		</g>
		<g>
			<path class="st0" d="M63.7,92.6c0,0,3.1-1.4,3.6-3.6c0-0.8-0.5-1.3-0.5-1.3s-0.9,2.4-4.2,4.2C62.2,93.2,63.7,92.6,63.7,92.6z"/>
			<path class="st13" d="M62.6,91.9c-0.4,1.3,1.1,0.7,1.1,0.7s0.6-0.3,1.2-0.7c0,0-0.7,0-0.7-0.5c0-0.5,2.2-2.1,2.5-2.6
				c0.2-0.3,0.4,0,0.5,0.5c0-0.1,0.1-0.2,0.1-0.3c0-0.8-0.5-1.3-0.5-1.3S65.9,90.2,62.6,91.9z"/>
		</g>
		<g>
			<path class="st0" d="M65.6,93.3c0,0-9.6-11.9-12.1-14.3c-2.7-2.6-5-4-5.5-3.7c-0.4,0.3,0.2,3.5,2.5,6.5
				c1.9,2.5,13.4,11.6,14.1,12.3C65.1,94.3,65.6,93.3,65.6,93.3z"/>
			<g class="st18">
				<path class="st0" d="M63.9,91.9c0.8,0.8,1.3,1.4,1.3,1.4S64.8,92.7,63.9,91.9z"/>
				<path class="st0" d="M64.5,93.5c0.1,0.1,0.1,0.1,0.1,0.1S64.6,93.6,64.5,93.5z"/>
				<path class="st0" d="M55.1,80.7l-3.2,2.6c2,1.9,5.3,4.7,8,6.9l0,0c0,0-7-5.8-6.5-6.3c0.4-0.4,9.9,8.4,11.1,9.5
					c-1.2-1.1-10.4-9.8-10.1-10.5c0.3-0.6,6.7,5.9,9.5,8.9c-2.7-2.8-8.4-8.8-8.2-9.2c0.3-0.5,9.8,10.6,9.8,10.6S58.7,84.8,55.1,80.7
					z"/>
				<path class="st13" d="M52.5,80.5c-0.1,1.4-1.2,0.9-1.2,0.9s0.4,0.8-0.3,1.1c0.5,0.5,1.2,1.2,2.1,2c0-0.3,0.1-1.1,1-0.6
					c0.1-1.4,0.7-1.6,1.2-1c-0.2-0.7,0.5-0.8,1-0.7c-0.8-0.9-1.5-1.8-2.1-2.4C54.2,79.6,53.7,81,52.5,80.5z"/>
			</g>
			<path class="st1" d="M48,75.2c-0.1,0-0.1,0.2-0.1,0.4c0.2-0.1,1.4-0.4,4.7,3.2c1.5,1.4-0.1,2-3-1.4c3.8,4.8,2.1,4.8-0.2,1.6
				c0.8,1.5,2.4,3.6,1.3,3.1c0.3,0.3,0.7,0.7,1.1,1.2c0.2-0.1,0.3-0.1,0.5-0.3c0.7-0.4,1.8-1.4,2.8-2.3c-0.7-0.8-1.2-1.4-1.6-1.7
				C50.8,76.4,48.5,74.9,48,75.2z"/>
			<path class="st0" d="M52.1,83.6c1.2-0.4,3.7-2.2,3.3-2.9c-0.7-1.3-3.5,1.2-4.4,1.8C50.4,82.8,51,84,52.1,83.6z"/>
			<path class="st1" d="M51,82.5c-0.1,0-0.1,0.1-0.2,0.2c0.1-0.2,3.9-2.7,4.2-2.1c0.3,0.5-0.5,1.7-2.4,2.6c-1.1,0.5-1.6,0.4-1.8,0.2
				c0.2,0.3,0.6,0.6,1.2,0.3c1.2-0.4,3.7-2.2,3.3-2.9C54.8,79.4,52,81.9,51,82.5z"/>
		</g>
		<g>
			<g>
				<path class="st0" d="M32.7,85c0,0,3.6,0.5,5.3-1.3c0.4-0.7,0.2-1.5,0.2-1.5s-2.2,1.7-6.2,1.4C31,84.7,32.7,85,32.7,85z"/>
				<path class="st13" d="M32.1,83.7c-1.1,1,0.6,1.3,0.6,1.3s0.6,0.1,1.5,0c0,0-0.7-0.4-0.4-0.9c0.3-0.5,3.2-0.7,3.8-1
					c0.3-0.2,0.3,0.3,0.2,0.7c0.1-0.1,0.2-0.1,0.2-0.2c0.4-0.7,0.2-1.5,0.2-1.5S36.1,84,32.1,83.7z"/>
			</g>
			<g>
				<path class="st0" d="M33.2,73.2c0,0,3.9,0.5,5.8-1.4c0.4-0.8,0-1.7,0-1.7s-2.1,2-6.5,1.7C31.3,72.9,33.2,73.2,33.2,73.2z"/>
				<path class="st13" d="M39,70.2c0,0-2.1,2-6.5,1.7c-1.2,1.1,0.7,1.4,0.7,1.4s0.4,0,1,0.1c0,0-1-0.3-0.5-0.9
					c0.5-0.6,2.5-0.4,4-1.2c1.5-0.8,1.5,0.5,0.2,1.4c0.4-0.2,0.9-0.5,1.2-0.8C39.4,71.1,39,70.2,39,70.2z"/>
			</g>
			<g>
				<path class="st0" d="M33.5,88.2c0,0-0.3-16.3-0.8-20c-0.6-3.9-1.6-6.7-2.2-6.7c-0.6-0.1-2.1,3.1-2.2,7.1
					C28.2,72,32,87.2,32.2,88.2C32.5,88.8,33.5,88.2,33.5,88.2z"/>
				<g class="st18">
					<path class="st0" d="M33.1,86c0.1,1.2,0.2,2,0.2,2S33.2,87.2,33.1,86z"/>
					<path class="st0" d="M32.5,87.7c0,0.1,0,0.2,0,0.2S32.5,87.8,32.5,87.7z"/>
					<path class="st0" d="M32.9,70.7l-4.4,0.1c0.4,2.9,1.4,7.4,2.2,11.1l0,0c0,0-2.1-9.5-1.4-9.5c0.6,0,2.9,13.6,3.2,15.3
						c-0.3-1.7-2.4-15.1-1.7-15.5c0.6-0.3,1.8,9.4,2.2,13.8c-0.4-4.1-1.3-13-0.9-13.1c0.6-0.2,1.3,15.4,1.3,15.4
						S33.3,76.6,32.9,70.7z"/>
					<path class="st13" d="M30.9,68.8c-1,1.1-1.6-0.1-1.6-0.1s-0.2,1-0.9,0.7c0.1,0.8,0.2,1.8,0.4,3c0.2-0.3,0.8-0.9,1.2,0.2
						c1-1.1,1.6-0.9,1.7,0c0.3-0.7,0.9-0.3,1.3,0c-0.1-1.3-0.1-2.5-0.2-3.4C32.8,69.2,31.6,70.1,30.9,68.8z"/>
				</g>
				<path class="st1" d="M30.5,61.5c-0.1,0-0.2,0.1-0.3,0.2c0.2,0.1,1.5,0.6,1.9,5.8c0.3,2.1-1.4,1.6-1.6-3.2
					c0.1,6.5-1.4,5.4-1.2,1.2c-0.3,1.8-0.3,4.7-1,3.4c0,0.5,0.1,1,0.2,1.7c0.2,0,0.4,0.1,0.6,0.1c0.8,0.1,2.5,0,3.9-0.1
					c-0.1-1.1-0.1-2-0.2-2.5C32.1,64.3,31.1,61.5,30.5,61.5z"/>
				<path class="st0" d="M28.5,71.3c1.3,0.4,4.6,0.6,4.7-0.3c0.3-1.6-3.8-1.2-4.9-1.4C27.6,69.5,27.3,70.9,28.5,71.3z"/>
				<path class="st1" d="M28.3,69.6c-0.1,0-0.2,0-0.3,0c0.2-0.1,5,0.3,5,1c-0.1,0.7-1.6,1.1-3.7,0.6c-1.3-0.3-1.6-0.7-1.6-1
					c0,0.4,0.2,0.9,0.8,1.1c1.3,0.4,4.6,0.6,4.7-0.3C33.6,69.4,29.5,69.8,28.3,69.6z"/>
			</g>
		</g>
		<path class="st2" d="M63.6,29c0,0,1.3,1.5,2.1,3.4c-2.1-0.1-3.3-2.1-3.3-2.1L63.6,29z"/>
		<path class="st5" d="M62.8,28.1c0,0,0.5,0.7-4.2,1.8c-1.8,1.4-1.6,2.3-1.6,2.4s6.5-1.4,6.8-2.9C63.9,28.1,62.8,28.1,62.8,28.1z"/>
		<path class="st19" d="M47.5,51.9l-1.4,0.4c0,0,7,7.3,15.1,8.1c0.9-5-1.1-8.2-1.1-8.2L47.5,51.9z"/>
		<path class="st2" d="M54.6,33.5c-3.5,5.2-4.3,9.7-7.2,17.3c-3.5,2.6,12.5,7.7,14,8.6c1.6,0.8,2.2-3.5,4.8-19.8
			C68.1,27.6,58.7,27.4,54.6,33.5z"/>
		<path class="st9" d="M49.6,51.9c-0.7-0.9,0.8-7.9,2.2-13.2c-1.5,3.4-2.5,7-4.4,12c-0.9,0.6-0.5,1.5,0.5,2.3
			C49.4,53,50.4,53,49.6,51.9z"/>
		<path class="st3" d="M66.3,39.4c0.1-0.9,0.2-1.7,0.2-2.4c-0.2,0.3,0,6.1-10.5,11.6c-4.8,2.5-3.3,4.3-5,6.3c4,2,9.5,3.9,10.4,4.3
			C63,60.1,63.6,55.8,66.3,39.4z"/>
		<g>
			<path class="st5" d="M49.5,37.3c0,0-0.4-0.1,0.6,2.1s2,6.2,3,5.6C54.6,44.1,53.4,35.8,49.5,37.3z"/>
			<path class="st7" d="M53.5,34.4c-1,0.9-2.8,2.5-3.9,3.5c-3.4-1.9-8.4-3.3-10.6-5.3c-1.2-0.2-2.5,1.4-1.7,2.5
				c0.6,0.9,8.4,9,12.5,9.5c4.1,0.5,8.6-5.4,9.7-7.1C60.9,35.2,58.3,30.1,53.5,34.4z"/>
			<path class="st8" d="M56.6,40.5c0,0-2.2,3.4-5.4,3.1c-1.4-1.4-2.7-0.2-3.6-0.3c-0.8-0.1-5.3-2.9-7.7-5.8
				c-2.5-2.9-0.9-4.1-0.9-4.1l-1.4-0.2c-0.5,0.5-0.7,1.3-0.3,1.9c0.6,0.9,8.4,9,12.5,9.5c2.2,0.3,4.5-1.3,6.4-3.1
				C56.4,40.9,56.6,40.5,56.6,40.5z"/>
			<path class="st8" d="M49.8,37.7c0,0,1.9-0.2,3.2,6.2c1.9-1,2.5-1.5,2.5-1.5l-4.5-5.6L49.8,37.7z"/>
			<path class="st2" d="M58.7,30.1c-3.7,1.7-8.5,6.9-9.2,7.2c3.3,0,4.1,7,3.6,7.7c5.5-1.5,8.8-4.4,10.5-6.6
				C66.2,35,62.5,28.4,58.7,30.1z"/>
			<path class="st9" d="M50.7,37.6c0.4-0.2,1-0.1,2,1c2,2.2-3-3.3,6.1-8.5c-3.7,1.7-8.5,6.9-9.2,7.2C49.9,37.3,50.3,37.4,50.7,37.6z
				"/>
			<path class="st3" d="M63.6,38.3c0.1-0.2,0.2-0.3,0.3-0.5l0,0c-2.4,3.7-8.3,5.1-10.7,5.5c0.1,0.8,0,1.4-0.1,1.6
				C58.6,43.5,61.9,40.6,63.6,38.3z"/>
		</g>
		<g>
			<path class="st20" d="M42.9,25.5C46.4,22.3,58,9.2,59.4,5.3c0.7-1.9-0.2-3.8-1.3-4.5c-1.2-0.8-2.7-0.1-3.3,0.4
				c-3.4,2.4-14.3,15.7-16.6,19.9c0,0-0.1,0.8,0.2,1.3C39.2,23.9,42.3,26,42.9,25.5z"/>
			<path class="st21" d="M58.1,0.8c-0.1-0.1-0.2-0.1-0.2-0.1c-0.7,0-1.4,0-2,0C55.4,0.8,55,1,54.8,1.2c-0.5,0.3-1,0.8-1.7,1.5
				l3.9,2.8c0,0,1.9-0.8,1.4,1.2c-0.5,2-11.7,14.9-14.1,17.3c-1,1-1.4,0.8-0.6-0.3c-0.2-1.3-1.2-3.7-0.1-5.8c0.7-1.2,0-2.3-1.1-2.9
				c-1.9,2.5-3.5,4.7-4.3,6c0,0-0.1,0.8,0.2,1.3c0.9,1.5,4,3.6,4.6,3.1C46.4,22.3,58,9.2,59.4,5.3C60,3.4,59.2,1.6,58.1,0.8z"/>
			<path class="st22" d="M41.1,23.2l-1-0.8l-7,8.7c-0.1,0-0.2,0-0.3,0.1c-0.1,0.1-0.1,0.3,0.1,0.5l0.7,0.6c0.1,0.1,0.3,0.1,0.5-0.1
				c0.1-0.1,0.1-0.2,0.1-0.3L41.1,23.2z"/>
			<path class="st21" d="M40.3,23.6c0,0-4.5,6.1-6.3,8.2c-0.4,0.5-0.5,0.3-0.5,0.3l0.1,0.1c0.1,0.1,0.3,0.1,0.5-0.1
				c0.1-0.1,0.1-0.2,0.1-0.3l6.7-8.3L40.3,23.6z"/>
			<path class="st21" d="M40,22.3l-0.3,0.4c0.3,1.6-3.7,6.1-5.4,8.2c-0.5,0.5-0.8,0.8-1.1,1l0.3,0.3c0.1,0.1,0.3,0.1,0.5-0.1
				c0.1-0.1,0.1-0.2,0.1-0.3l7-8.7L40,22.3z"/>
			<path class="st22" d="M42.6,24.7C46.1,21.5,57.5,8.4,59,4.6c0.6-1.5,0.2-2.8-0.9-3.7c-1.1-0.9-2.9-1-3.6-0.6
				c-3.4,2.4-14.7,16.9-16.4,20.8C37.8,21.8,42.1,25.2,42.6,24.7z"/>
			<path class="st21" d="M58.1,0.8c-1.1-0.9-2.9-1-3.6-0.6c0,0-0.1,0.1-0.1,0.1c1.3,0.3,2.5,1.3,3.3,2.5c2,2.8-11.4,18.9-15.3,19.6
				c-2.7,0.5-3.6-1.3-3.9-2.3c-0.2,0.4-0.4,0.7-0.5,1c-0.3,0.7,3.9,4.2,4.5,3.6C46.1,21.5,57.5,8.4,59,4.6
				C59.5,3.1,59.2,1.7,58.1,0.8z"/>
		</g>
		<path class="st0" d="M35.6,34.5c0,0,0.8,0.5,1.7,1c1.4-2.3,2.6-2.8,2.6-2.8s-1.4-1.2-1.7-1.4C37.9,30.9,35.6,34.5,35.6,34.5z"/>
		<path class="st1" d="M37.4,31.9c-0.8,1-1.8,2.6-1.8,2.6s0.8,0.5,1.7,1c0.9-1.5,1.7-2.3,2.2-2.6l0,0c-1,0.5-2,2.1-2.6,1.8
			c-0.6-0.3,0.6-0.9,1.2-2.2C38.6,31.6,37.4,31.9,37.4,31.9z"/>
		<path class="st0" d="M32.8,33.1c0,0,1.3,1.4,2.8,1.5c0.9,0.1,3.2-2.8,2.8-3.3c-0.5-0.5-1.7-1.5-1.7-1.5L32.8,33.1z"/>
		<g>
			<path class="st0" d="M33.9,32.3c-0.6-0.4-1.2-0.8-1.7-1.6c-0.4-0.6-1.4,0.3-0.4,1.4C33.4,34.1,34.6,32.8,33.9,32.3z"/>
			<path class="st1" d="M33.9,32.3c-0.6-0.4-1.2-0.8-1.7-1.6c-0.2-0.3-0.5-0.2-0.7,0c0.2,0,0.4,0.3,1.2,1.2c0.2,0.2,0.5,0.4,0.7,0.5
				c0.2,0.1,0.3,0.2,0.4,0.2c0.1,0,0.1,0.1,0.2,0C34.1,32.5,34,32.4,33.9,32.3z"/>
			<path class="st0" d="M34.9,31.6c-0.7-0.5-1.3-0.9-1.9-1.8c-0.5-0.7-1.6,0.4-0.5,1.6C34.2,33.5,35.6,32.1,34.9,31.6z"/>
			<path class="st1" d="M34.9,31.6c-0.7-0.5-1.3-0.9-1.9-1.8c-0.2-0.2-0.4-0.3-0.6-0.2c0.2,0.2,0.5,0.8,1.4,1.6
				c0.2,0.2,0.4,0.3,0.6,0.5c0.1,0.1,0.6,0.3,0.7,0.3C35.2,32,35,31.7,34.9,31.6z"/>
			<path class="st0" d="M35.9,30.7c-0.7-0.5-1.4-1-2.1-1.9c-0.5-0.7-1.7,0.4-0.5,1.8C35.2,32.8,36.6,31.3,35.9,30.7z"/>
			<path class="st1" d="M33.3,28.6c0.2,1,1.1,1.9,2.4,2.5c0.1,0,0.3,0.1,0.3-0.1c0-0.1-0.1-0.2-0.2-0.3c-0.7-0.5-1.4-1-2.1-1.9
				C33.7,28.6,33.5,28.5,33.3,28.6z"/>
			<path class="st0" d="M36.7,29.8c-0.7-0.5-1.4-1-2.1-1.9c-0.5-0.7-1.7,0.4-0.5,1.8C36,31.9,37.5,30.4,36.7,29.8z"/>
		</g>
		<path class="st11" d="M41.7,27.5c0.2,0.1,0.3,0.1,0.5,0.2c0-0.6-0.2-1.2-0.6-1.7C41.8,26.2,42,26.8,41.7,27.5z"/>
		<g>
			<path class="st0" d="M37,28.1c-0.6-0.5-1.1-0.8-1.6-1.6c-0.4-0.6-1.4,0.3-0.5,1.4C36.4,29.8,37.6,28.6,37,28.1z"/>
			<path class="st1" d="M37,28.1c-0.6-0.5-1.1-0.8-1.6-1.6c-0.2-0.3-0.5-0.2-0.7,0c0.2,0,0.3,0.3,1.1,1.2c0.4,0.5,0.9,0.8,1.3,1
				C37.2,28.4,37.2,28.2,37,28.1z"/>
			<path class="st0" d="M38,27.4c-0.7-0.5-1.3-1-1.8-1.9c-0.4-0.7-1.6,0.3-0.6,1.6C37.3,29.3,38.7,27.9,38,27.4z"/>
			<path class="st1" d="M38,27.4c-0.7-0.5-1.3-1-1.8-1.9c-0.1-0.2-0.4-0.3-0.5-0.2c0.2,0.2,0.5,0.8,1.3,1.6c0.8,0.8,1,1,1,1.2
				C38.2,28,38.3,27.6,38,27.4z"/>
			<path class="st0" d="M39,26.6c-0.7-0.6-1.4-1-2-2c-0.5-0.8-1.7,0.3-0.6,1.7C38.2,28.6,39.8,27.2,39,26.6z"/>
			<path class="st1" d="M36.6,24.3c0.2,1.1,1.1,2.1,2.6,2.7c0-0.2,0-0.3-0.2-0.5c-0.7-0.6-1.4-1-2-2C36.9,24.4,36.8,24.3,36.6,24.3z
				"/>
			<path class="st0" d="M39.9,25.7c-0.7-0.6-1.4-1-2-2c-0.5-0.8-1.7,0.3-0.6,1.7C39.1,27.8,40.7,26.3,39.9,25.7z"/>
		</g>
		<g>
			<path class="st4" d="M61,26.4h-1.5c-1.1,0-3.1-0.8-3.3-1.1c-0.2-0.3,0.4-0.8,0.4-0.9c0,0,0,0,0.1,0c0,0,0,0,0,0.1
				c-0.2,0.1-0.6,0.5-0.4,0.7c0.2,0.3,2.1,1.1,3.3,1.1L61,26.4l0.8-1.2l-0.7-0.1l-1.5,0c-1.1,0-3.1-0.8-3.3-1.1
				c-0.2-0.3,0.4-0.8,0.4-0.9c0,0,0,0,0.1,0c0,0,0,0,0,0.1c-0.2,0.1-0.6,0.5-0.4,0.7c0.2,0.3,2.1,1.1,3.3,1.1h1.5l0.8,0.2L61,26.4z"
				/>
		</g>
		<g>
			<path class="st4" d="M59.4,27.6c-1.1,0-3-0.7-3.2-1c-0.2-0.3,0.4-0.8,0.4-0.9c0,0,0,0,0.1,0c0,0,0,0,0,0.1
				c-0.2,0.1-0.6,0.5-0.4,0.7C56.4,26.9,58.3,27.6,59.4,27.6c0.7-0.1,1.3-0.2,1.5-0.2l1-2l-0.1-0.2c0,0,0,0,0-0.1c0,0,0,0,0.1,0
				l0.1,0.2l-1.1,2.1l0,0C60.9,27.5,60.2,27.6,59.4,27.6z"/>
		</g>
		<g>
			<path class="st4" d="M60.8,27.5C60.7,27.5,60.7,27.5,60.8,27.5l-0.2-1.2l0,0l0.2-1.6c0,0,0,0,0,0c0,0,0,0,0,0l-0.2,1.6L60.8,27.5
				C60.8,27.5,60.8,27.5,60.8,27.5C60.8,27.5,60.8,27.5,60.8,27.5z"/>
		</g>
		<circle class="st4" cx="61.9" cy="25.2" r="0.5"/>
		<g>
			<path class="st4" d="M58.8,27.7C58.8,27.7,58.8,27.7,58.8,27.7C58.8,27.7,58.7,27.7,58.8,27.7c0.1-1.2,0.3-2.9,0.3-2.9
				c0,0,0,0,0,0c0,0,0,0,0,0C59.2,24.9,58.9,26.5,58.8,27.7C58.8,27.7,58.8,27.7,58.8,27.7z"/>
		</g>
		<g>
			<path class="st4" d="M56.7,27.2C56.7,27.2,56.7,27.2,56.7,27.2C56.7,27.2,56.7,27.2,56.7,27.2c0.2-1.2,0.7-2.8,0.7-2.8
				c0,0,0,0,0.1,0c0,0,0,0,0,0.1C57.5,24.4,57,26,56.7,27.2C56.8,27.2,56.8,27.2,56.7,27.2z"/>
		</g>
	</g>
	<path class="st0" d="M38.7,24.6c-0.3,0-0.5-0.1-0.7-0.1c-0.1,0-0.1,0-0.2,0c-0.1,0-0.1,0.1-0.2,0.2c-0.2,0.7,0.8,1.1,1.4,1.3
		c0.3,0.1,0.7,0.2,1,0.4c0.4,0.2,0.7,0.5,1.1,0.9c0.4,0.4,0.8-0.4,0.8-0.7c0-0.4-0.3-0.9-0.6-1.2C40.7,24.8,39.6,24.7,38.7,24.6z"/>
	<g>
		<path class="st4" d="M32.2,60.9c1.4-2.4,3.7-4.1,6-5.4c2.4-1.3,4.9-2.4,7.5-3.3c-2.5,1-5.1,2.1-7.4,3.4
			C36,56.9,33.7,58.6,32.2,60.9z"/>
		<path class="st4" d="M38.6,84c0.5-2.2,0.8-4.3,1-6.6c0.2-2.2,0.2-4.4,0.4-6.6c0,2.2-0.1,4.4-0.2,6.6C39.5,79.7,39.2,81.9,38.6,84z
			"/>
		<path class="st4" d="M33.7,85.8c-0.6-2.5-1.2-5.1-1.8-7.6c-0.5-2.6-1.1-5.1-1.6-7.7c0.6,2.5,1.2,5.1,1.8,7.6
			C32.7,80.7,33.2,83.2,33.7,85.8z"/>
		<path class="st4" d="M35.1,86c-0.2-2.6-0.3-5.1-0.4-7.7c-0.1-2.6-0.2-5.1-0.2-7.7c0.2,2.6,0.3,5.1,0.4,7.7
			C35,80.8,35.1,83.4,35.1,86z"/>
		<path class="st4" d="M30.1,69.7c1.4,0.6,2.9,0.7,4.3,0.2C33.1,70.6,31.4,70.5,30.1,69.7z"/>
		<path class="st4" d="M30,68.1c0.7,0.1,1.4,0.3,2.1,0.3c0.7,0.1,1.4,0,2.1-0.1c-0.7,0.2-1.4,0.3-2.1,0.3
			C31.4,68.5,30.6,68.4,30,68.1z"/>
		<path class="st4" d="M33.3,62.2c0.2,0.6,0.3,1.2,0.5,1.9c0.1,0.6,0.2,1.3,0.3,1.9c-0.2-0.6-0.3-1.2-0.5-1.9
			C33.5,63.5,33.3,62.9,33.3,62.2z"/>
		<path class="st4" d="M35.1,81.4c0.5-0.2,1.1-0.3,1.6-0.4c0.5-0.1,1.1-0.3,1.6-0.5c-0.5,0.3-1,0.5-1.6,0.6
			C36.2,81.2,35.7,81.4,35.1,81.4z"/>
		<path class="st4" d="M35.4,83.1c0.4-0.2,0.8-0.4,1.2-0.6c0.4-0.2,0.8-0.3,1.3-0.5c-0.4,0.2-0.8,0.4-1.2,0.6
			C36.3,82.8,35.9,83,35.4,83.1z"/>
		<path class="st4" d="M36.2,72.2c0.3-0.1,0.7-0.2,1-0.3c0.4-0.1,0.7-0.2,1.1-0.3c-0.3,0.2-0.7,0.3-1,0.5
			C36.9,72,36.5,72.1,36.2,72.2z"/>
		<path class="st4" d="M35.8,70.4c0.3-0.2,0.5-0.3,0.8-0.4c0.3-0.1,0.6-0.2,0.9-0.2c-0.2,0.2-0.5,0.3-0.8,0.4
			C36.3,70.2,36.1,70.3,35.8,70.4z"/>
		<path class="st4" d="M40.3,66c1.5-0.7,3.1-1.2,4.7-1.8c1.6-0.6,3.1-1.2,4.7-1.7c-1.5,0.7-3.1,1.2-4.7,1.8
			C43.4,64.8,41.8,65.4,40.3,66z"/>
		<path class="st4" d="M49.8,54.1c1.8,0.8,3.6,1.7,5.5,2.4c1.8,0.7,3.8,1.2,5.8,1.4c-2,0-4-0.5-5.8-1.2C53.4,56,51.6,55.1,49.8,54.1
			z"/>
		<path class="st4" d="M30.4,91c0.4-0.7,0.8-1.4,1.2-2.1c0.4-0.7,0.8-1.3,1.3-2c-0.4,0.7-0.8,1.4-1.2,2.1
			C31.3,89.7,30.9,90.3,30.4,91z"/>
		<path class="st4" d="M31.6,91.3c0.7-0.3,1.4-0.6,2-1c0.7-0.3,1.3-0.8,1.9-1.2c-0.5,0.5-1.2,0.9-1.8,1.3
			C33,90.7,32.3,91.1,31.6,91.3z"/>
		<path class="st4" d="M37,88c0.4,0,0.7-0.1,1.1-0.3c0.3-0.1,0.6-0.4,0.9-0.6c-0.2,0.4-0.5,0.6-0.8,0.8C37.8,88,37.4,88.1,37,88z"/>
		<path class="st4" d="M38.4,85c0.2,0.1,0.2,0.1,0.3,0.3C38.6,85.3,38.4,85.2,38.4,85z"/>
		<path class="st4" d="M47.6,50.2c0.3-0.9,0.6-1.7,0.9-2.5c0.3-0.8,0.7-1.7,1-2.5c-0.3,0.9-0.6,1.7-0.9,2.5
			C48.3,48.5,48,49.3,47.6,50.2z"/>
		<path class="st4" d="M62.8,58.5c0.5-2.6,1.1-5.2,1.5-7.8c0.5-2.6,0.8-5.2,1.1-7.8c-0.2,2.6-0.6,5.3-1,7.9
			C64,53.4,63.5,55.9,62.8,58.5z"/>
		<path class="st4" d="M53.2,45.3c1.7-0.7,3.4-1.4,5.1-2.2c1.7-0.8,3.3-1.7,4.8-2.7c-1.4,1.2-3.1,2-4.7,2.9
			C56.7,44.1,55,44.7,53.2,45.3z"/>
		<path class="st4" d="M60.5,29.4c0.4-0.2,0.8-0.4,1.2-0.6c0.4-0.2,0.8-0.5,1.2-0.7c-0.3,0.3-0.7,0.6-1.1,0.8
			C61.4,29.1,61,29.3,60.5,29.4z"/>
		<path class="st4" d="M64.7,30.3c0.6,1,1,2.1,1.4,3.3c0.2,0.6,0.3,1.1,0.5,1.7c0.1,0.6,0.2,1.2,0.1,1.8c0-0.6-0.1-1.2-0.2-1.7
			c-0.1-0.6-0.3-1.1-0.5-1.7C65.6,32.5,65.2,31.4,64.7,30.3z"/>
		<path class="st4" d="M50.1,36.7c1-0.9,2-1.7,3-2.6c1-0.8,2-1.7,3.1-2.5c-1,0.9-2,1.7-3,2.6C52.1,35,51.1,35.9,50.1,36.7z"/>
		<path class="st4" d="M48.2,74.9c-0.3-1.7-0.4-3.4-0.4-5c0.1-1.7,0.2-3.4,0.6-5c-0.2,1.7-0.4,3.3-0.4,5
			C48,71.6,48.1,73.3,48.2,74.9z"/>
		<path class="st4" d="M48.7,79.3c0.4,0.4,0.7,0.9,1.1,1.3c0.3,0.4,0.7,0.8,1.1,1.3c-0.5-0.3-0.8-0.8-1.2-1.2
			C49.3,80.3,48.9,79.8,48.7,79.3z"/>
		<path class="st4" d="M52.7,78.1c0.4,0.4,0.8,0.8,1.2,1.2c0.4,0.4,0.8,0.8,1.2,1.2l0,0c0.5,0.2,0.8,0.6,0.9,1.1
			c-0.2-0.4-0.5-0.8-0.9-1l0,0l0,0c-0.4-0.4-0.8-0.8-1.2-1.2C53.4,79,53,78.6,52.7,78.1z"/>
		<path class="st4" d="M57.7,83.6c1.2,1.2,2.3,2.4,3.5,3.6c1.1,1.3,2.2,2.6,3.2,3.9c-1.1-1.3-2.2-2.6-3.3-3.8
			C60,86.1,58.9,84.8,57.7,83.6z"/>
		<path class="st4" d="M57,82.6c0.5-0.2,0.7-0.6,1.1-0.9c0.3-0.4,0.6-0.7,0.9-1.1c0.6-0.7,1.1-1.5,1.7-2.3c-0.4,0.9-1,1.6-1.5,2.4
			c-0.3,0.4-0.6,0.7-0.9,1.1C57.8,82.1,57.4,82.5,57,82.6z"/>
		<path class="st4" d="M64.8,90.6c0.3-0.5,0.6-0.9,0.8-1.3c0.3-0.4,0.5-0.9,0.8-1.3c-0.2,0.5-0.4,1-0.7,1.4
			C65.5,89.8,65.2,90.2,64.8,90.6z"/>
		<path class="st4" d="M65.5,91.6c0.2-0.3,0.4-0.6,0.6-1c0.2-0.3,0.4-0.6,0.7-0.9c-0.2,0.3-0.4,0.6-0.6,1C66,91,65.8,91.3,65.5,91.6
			z"/>
		<path class="st4" d="M54.7,85.7c1.3,1,2.5,2.1,3.8,3.1c1.2,1.1,2.5,2.1,3.7,3.3c-1.3-1-2.5-2.1-3.8-3.1
			C57.2,87.9,55.9,86.8,54.7,85.7z"/>
		<path class="st4" d="M51.7,84.2c0.6-0.4,1.2-0.8,1.7-1.2c0.6-0.4,1.2-0.7,1.8-1.1c-0.6,0.4-1.2,0.8-1.7,1.2
			C52.9,83.4,52.3,83.8,51.7,84.2z"/>
		<path class="st4" d="M50.4,82.7c0.6-0.5,1.3-1,1.9-1.5c0.7-0.4,1.3-0.9,2-1.4c-0.6,0.5-1.3,1-1.9,1.5
			C51.8,81.8,51.1,82.2,50.4,82.7z"/>
		<path class="st4" d="M65.9,95.1c0.3,0.5,0.5,1,0.8,1.5c0.2,0.5,0.5,1,0.6,1.5c-0.3-0.5-0.5-1-0.8-1.5C66.3,96.1,66,95.6,65.9,95.1
			z"/>
		<path class="st4" d="M66.1,99.7c1,0.2,2.1,0.1,3-0.5C68.3,100,67,100.2,66.1,99.7z"/>
		<path class="st4" d="M69.4,94.3c0.2,0.3,0.4,0.6,0.6,0.9c0.1,0.3,0.3,0.6,0.4,0.9c-0.2-0.3-0.4-0.6-0.6-0.9
			C69.7,94.9,69.5,94.6,69.4,94.3z"/>
		<path class="st4" d="M66.8,90.2c0.9,0,1.8,0.4,2.7,0.3l0.1,0l0,0.1c0,1-0.1,2-0.2,3c0-1,0-2,0-3l0.1,0.1
			C68.5,90.7,67.7,90.3,66.8,90.2z"/>
		<path class="st4" d="M66.9,94c0.3,0.2,0.4,0.4,0.6,0.7c0.1,0.3,0.2,0.6,0.3,0.9c0.1,0.6,0.2,1.2,0.1,1.8c-0.1-0.6-0.1-1.2-0.3-1.8
			C67.5,95.1,67.3,94.5,66.9,94z"/>
		<path class="st4" d="M57.8,71.6c0.5-1.7,1.1-3.3,1.6-5c0.6-1.7,1-3.4,1.5-5.1c-0.4,1.7-0.9,3.4-1.4,5.1C59,68.3,58.5,70,57.8,71.6
			z"/>
		<path class="st4" d="M51.6,34.6c0-0.4,0-0.8,0-1.2c0-0.4-0.1-0.8-0.2-1.2l0-0.1l0.1,0c0.6-0.2,1.3-0.3,2-0.4
			c0.7-0.1,1.3-0.1,2-0.4c-0.6,0.3-1.3,0.4-1.9,0.5c-0.7,0.1-1.3,0.2-1.9,0.4l0-0.1C51.7,33,51.7,33.8,51.6,34.6z"/>
		<path class="st4" d="M32.1,31c0.2,0.2,0.4,0.5,0.6,0.7c0.2,0.2,0.4,0.4,0.7,0.6c-0.3-0.1-0.5-0.3-0.8-0.5
			C32.4,31.6,32.2,31.3,32.1,31z"/>
		<path class="st4" d="M32.8,30.4c0.2,0.2,0.5,0.5,0.7,0.7c0.2,0.2,0.5,0.4,0.7,0.7c-0.3-0.1-0.6-0.3-0.8-0.5
			C33.2,31,33,30.7,32.8,30.4z"/>
		<path class="st4" d="M33.6,29.5c0.3,0.2,0.5,0.5,0.8,0.7c0.2,0.2,0.5,0.4,0.8,0.7c-0.3-0.1-0.6-0.3-0.9-0.5
			C34,30,33.7,29.8,33.6,29.5z"/>
		<path class="st4" d="M34.7,28.3c0.3,0.2,0.6,0.4,0.8,0.6c0.2,0.2,0.5,0.5,0.7,0.7c-0.3-0.2-0.6-0.4-0.8-0.6
			C35.1,28.8,34.9,28.6,34.7,28.3z"/>
		<path class="st4" d="M37.5,35.2c0.3-0.5,0.7-1,1-1.5c0.2-0.2,0.4-0.4,0.7-0.6c0.1-0.1,0.3-0.2,0.4-0.2c0.2,0,0.3,0,0.4,0.1
			c-0.3-0.2-0.6,0-0.8,0.2c-0.2,0.2-0.4,0.4-0.6,0.6C38.2,34.2,37.9,34.8,37.5,35.2z"/>
		<path class="st4" d="M35.7,34.6c0.3,0.1,0.5,0.2,0.7,0.3c0.2,0.2,0.5,0.3,0.7,0.5c-0.3-0.1-0.5-0.2-0.7-0.3
			C36.1,34.9,35.9,34.8,35.7,34.6z"/>
		<path class="st4" d="M37.7,29.7c0.5,0.5,0.7,1.1,1.1,1.7c0.3,0.6,0.7,1.1,1.3,1.4c-0.6-0.2-1.1-0.8-1.4-1.4
			C38.3,30.8,38,30.3,37.7,29.7z"/>
		<path class="st4" d="M38.6,30.2c0.3,0.1,0.6,0.3,0.9,0.5c0.3,0.2,0.5,0.5,0.7,0.8c-0.3-0.2-0.5-0.4-0.8-0.6
			C39.2,30.5,38.9,30.4,38.6,30.2z"/>
		<path class="st4" d="M40.9,31.1c0.7-0.8,1.5-1.6,2.3-2.4l0,0.1c-0.3-0.3-0.6-0.7-0.8-1.1c-0.2-0.5-0.2-0.9-0.4-1.3
			c-0.4-0.8-1-1.5-1.7-2.1c0.8,0.5,1.4,1.2,1.8,2c0.2,0.4,0.2,0.9,0.4,1.3c0.2,0.4,0.5,0.7,0.8,1.1l0,0l0,0
			C42.5,29.6,41.7,30.4,40.9,31.1z"/>
		<path class="st4" d="M36.9,24.7c0.4,0.4,0.7,0.9,1.1,1.3c0.3,0.5,0.7,0.9,1.1,1.2c-0.6-0.2-0.9-0.7-1.3-1.1
			C37.5,25.7,37.2,25.2,36.9,24.7z"/>
		<path class="st4" d="M38.7,24.7c-0.2-0.1-0.3-0.2-0.4-0.4c-0.1-0.2-0.2-0.3-0.3-0.5C38.3,24,38.5,24.3,38.7,24.7z"/>
		<path class="st4" d="M36.1,25.2c0.3,0.9,0.8,1.8,1.6,2.4C36.8,27.2,36.2,26.2,36.1,25.2z"/>
		<path class="st4" d="M35.3,26.1c0.2,1,0.8,2,1.6,2.6C36,28.2,35.4,27.2,35.3,26.1z"/>
		<path class="st4" d="M34.6,26.9c0.4,0.8,1,1.5,1.7,2c0.3,0.3,0.7,0.5,1.2,0.6l0.6,0.2c0.2,0.1,0.4,0.2,0.6,0.3
			c-0.4-0.2-0.8-0.3-1.2-0.5c-0.4-0.1-0.9-0.3-1.2-0.6C35.5,28.5,34.9,27.8,34.6,26.9z"/>
		<path class="st4" d="M39.5,18.6c1.7-2.5,3.5-4.9,5.3-7.2c1.9-2.3,3.8-4.6,5.8-6.8c-1.9,2.3-3.9,4.5-5.7,6.9
			C43,13.8,41.2,16.2,39.5,18.6z"/>
		<path class="st4" d="M44.5,23.9c2.2-2.8,4.4-5.5,6.7-8.3c2.3-2.7,4.5-5.5,6.8-8.2c-2.2,2.8-4.4,5.5-6.7,8.3
			C49.1,18.4,46.8,21.2,44.5,23.9z"/>
		<path class="st4" d="M44.8,22.2c2-2.6,4-5.1,6-7.7c2-2.5,4-5.1,6.1-7.6c-2,2.6-4,5.1-6,7.7C48.8,17.1,46.8,19.7,44.8,22.2z"/>
		<path class="st4" d="M58.4,20.8c0.6,0.2,1.3,0.5,1.9,0.7c0.6,0.3,1.2,0.5,1.8,0.8c-0.6-0.2-1.3-0.5-1.9-0.7
			C59.6,21.4,59,21.1,58.4,20.8z"/>
		<path class="st4" d="M59.5,19.5c1-0.3,2.1-0.6,3.2-0.2c1,0.4,1.7,1.4,2,2.4c-0.4-1-1-1.9-2-2.3C61.6,19.1,60.5,19.4,59.5,19.5z"/>
		<path class="st4" d="M56.8,80.9c0.5-0.5,1.1-1,1.5-1.6c0.5-0.5,0.9-1.2,1.4-1.8c-0.3,0.7-0.8,1.3-1.2,1.9
			C58,80,57.4,80.5,56.8,80.9z"/>
		<path class="st4" d="M50.7,37.9c0.6,0.3,1,0.7,1.4,1.2c0.3,0.5,0.6,1.1,0.8,1.7c0.4,1.2,0.7,2.4,0.8,3.6c-0.2-1.2-0.4-2.4-0.9-3.6
			C52.3,39.8,51.8,38.6,50.7,37.9z"/>
		<path class="st4" d="M40.1,37.9c1,1,2.1,2,3.3,2.9c1.2,0.9,2.4,1.6,3.7,2.3c-1.4-0.5-2.6-1.3-3.8-2.1C42.1,40,41,39,40.1,37.9z"/>
		<path class="st4" d="M42.6,34.6c1,0.4,2,0.9,3,1.4c1,0.5,2,1,3,1.5c-1-0.4-2-0.9-3-1.4C44.6,35.6,43.5,35.1,42.6,34.6z"/>
		<g>
			<path class="st4" d="M41.3,25.5c-0.5-0.4-1.1-0.5-1.6-0.6l-1.8-0.2c-0.2,0-0.3,0.4-0.1,0.6c0.1,0.2,0.4,0.4,0.6,0.5
				c0.5,0.3,1.1,0.4,1.6,0.7c-0.6-0.2-1.1-0.3-1.7-0.6c-0.3-0.1-0.5-0.3-0.7-0.6c-0.1-0.2-0.2-0.8,0.2-0.8l1.8,0.2
				C40.3,24.9,40.9,25.1,41.3,25.5z"/>
		</g>
		<path class="st4" d="M45.6,30c0.8,0.3,1.6,0.6,2.5,1c0.8,0.4,1.6,0.7,2.4,1.1c-0.8-0.3-1.6-0.6-2.5-1C47.2,30.8,46.3,30.4,45.6,30
			z"/>
	</g>
</g>
</svg>
