<svg enable-background="new 0 0 100 100" viewBox="0 0 100 100" xmlns="http://www.w3.org/2000/svg"><path d="m61.9 12.1s4.8-3.4 5.7-4.2c1.4-1.3 4.2-2.4 12.4-2.1 1.2.7 1 1.9.8 2.8-1.8 1.5-7.6 3.1-10.4 5.5-4 3.4-8 8.5-10.6 8.4-2.4-.1-.9-7.6 2.1-10.4z" fill="#e64b00"/><path d="m80.9 8.6c.1-.7.2-1.6-.2-2.2-.6.4-1 1.1-.9 1.7.2 1.6-6.9 3.9-8.3 2.9s-1.4.5-1.4 2-3 3.5-6.2 4.9l-2.4 2.6s.4.4 1 1c2.3-1.6 5.2-4.9 8.1-7.4 2.7-2.4 8.6-3.9 10.3-5.5z" fill="#e64b00" opacity=".3"/><path d="m65.7 9.4 1-.7s2 3.7.4 8.7c-4.5 4.4-6.6 5.5-6.6 5.5z" fill="#e64b00" opacity=".6"/><path d="m80.5 5.8s-2.2-1.3-2.1.5c0 1.9 1.3 2.9 2.1 2.9.9 0 1.5-1.2 1.5-1.2z" fill="#386ac4"/><g fill="#386ac4" opacity=".5"><path d="m78.5 6.8c0 .2.1.4.1.6-.1-.3-.1-.5-.1-.6z"/><path d="m80.5 5.8s-2.2-1.3-2.1.5v.4c0-.3.2-.8.5-.7.2.1.2.3.3.5.1.7.6 1.4 1.2 1.7.2.1.5.3.5.5s-.2.3-.3.4c.8 0 1.4-1.1 1.4-1.1z"/></g><path d="m20.2 91.8s-2.9 4.5-2.8 5.1c.1.5 1.6 2.1.9 2.8s-3.8.2-4.9-1.4c-1-1.6.8-6.2.8-7s-.1-3.5.6-4.1c.7-.5 4.6.1 4.9.4-.2 1.7.5 3.9.5 4.2z" fill="#386ac4"/><path d="m17.6 97.2s-.4.4-.8-.5 0-4.6 1.4-4.9 1.1 2.2-.4 4.4c-.3.7-.2 1-.2 1z" fill="#d1847e"/><path d="m18.2 91.8c1-.2 1.1 1 .6 2.5-.1-.3-.7-1.3-1.3-.6-.7.7-.7 3.3.1 3.4v.1s-.4.4-.8-.5 0-4.6 1.4-4.9z" fill="#d1847e" opacity=".6"/><path d="m15 87.2c.7-.5 4.6.1 4.9.4 0 .1-.1.3-.1.5-1.5-.4-3.8-.4-4.3 1.4-.6 2.2.6 1.7-.8 4.2s-1.6 5.1 1.6 5.7c1 .2 1.7.2 2.3 0 0 .1-.1.2-.2.3-.7.7-3.8.2-4.9-1.4-1-1.6.8-6.2.8-7 .1-.8 0-3.5.7-4.1z" fill="#386ac4" opacity=".5"/><path d="m48.3 17.2s13.4-6.7 17.7-8.3c2.7 2.2.1 9.2-1 11.3-5.1 5.7-12.8 12.6-14.7 16.1-9.9 2.4-2-19.1-2-19.1z" fill="#386ac4"/><path d="m47.8 18.6 3.3.4c2-2 12.8-8.3 15.4-9.6-.1-.2-.3-.4-.5-.5-4.3 1.6-17.7 8.3-17.7 8.3s-.2.5-.5 1.4z" fill="#386ac4" opacity=".3"/><path d="m58.6 24.5v2.4c2.2-2.2 4.5-4.5 6.4-6.7.2-.4.4-.9.7-1.6-1.3 2.3-7.1 5.9-7.1 5.9z" fill="#386ac4" opacity=".5"/><path d="m35 73.6c2.3-5.3-2.9-19.6 2.3-25.5 6.1-7 11.5-.6 13 3.4 2.2 5.8-.5 25.8-8.3 30.7z" fill="#386ac4"/><path d="m51 56.1c-2.9-2.8-6-4.7-6.2-4.9-.4-.4 5.4 20.2-1.8 28-.6.6-1.3 1.3-2 1.9l1 1.2c6.3-4.1 9.3-18 9-26.2z" fill="#386ac4" opacity=".3"/><path d="m37.5 47.9c-.1.1-.2.2-.2.3-5.2 6 0 20.2-2.3 25.5l1.3 1.7c4.5-3.8 2.3-7.7 1-19.2-.3-3.3-.1-6.1.2-8.3z" fill="#386ac4" opacity=".5"/><path d="m16 87s.7 5.4 2.8 7c1.2-1 1.5-5.6 1.5-5.6l-3.5-1.4z" fill="#386ac4" opacity=".5"/><path d="m45.4 78.4c-5.4 9.4-23.6 14.2-25.8 14.7-1.7-.4-3.5-4.3-3-6.2 3.3-1.3 9.4-8.4 18.5-13.3z" fill="#386ac4"/><path d="m45.4 78.4-1.4-.6c-.3.5-.7 1-1.1 1.4-6 6.3-19.8 11.5-24.6 13.2.4.4.8.7 1.2.8 2.3-.6 20.5-5.4 25.9-14.8z" fill="#386ac4" opacity=".3"/><path d="m35 73.6c-9 4.9-15.1 12-18.5 13.3-.2.6-.1 1.5.2 2.3 4.8-4.4 11.8-9.2 16.9-12.1 1.5-.9 2.7-1.7 3.5-2.6z" fill="#386ac4" opacity=".5"/><path d="m50.7 72.3c-2-5.4-16.1-10.7-16-20s7.9-8.3 11.7-6.5c5.6 2.7 17.4 19 15.2 28z" fill="#386ac4"/><path d="m61.6 73.8c2-8-7.1-21.7-13.1-26.5l-.2.9s11.5 11.1 12.4 22.3c.1 1.1.1 2.1-.1 3.2z" fill="#386ac4" opacity=".3"/><path d="m44 60.6c-5.1-6.1-1.9-9.4-1.9-9.4l-6.4-3.6c-.6 1.1-1 2.7-1 4.7-.1 9.3 13.9 14.6 16 20l1.9.2c.1-.5.2-1 .3-1.3.5-3.4-3.8-4.6-8.9-10.6z" fill="#386ac4" opacity=".5"/><path d="m61.5 68.6c2.6 10.5-7.5 25.3-8.8 27.3-.9 1.3-5.2.6-6.1-1.1-.6-2.6 2.2-12.6 4.2-22.4z" fill="#386ac4"/><path d="m61.5 68.6-.9.3c.1.5.1 1 .2 1.5.8 10-9.1 22.3-11 26 1.3.2 2.5.1 3-.6 1.1-1.9 11.3-16.7 8.7-27.2z" fill="#386ac4" opacity=".3"/><path d="m52.7 71.6-2.1.7c-2 9.8-4.8 19.8-4.2 22.4.3.5.8.9 1.5 1.2-.4-6.5 4.1-20.5 4.8-24.3z" fill="#386ac4" opacity=".5"/><path d="m46.9 94.5s-.7-.7-.4-1.7 8.2-.8 7.7.6-6.8 1.5-7.3 1.1z" fill="#386ac4" opacity=".4"/><path d="m45.7 97.4s.3-2.7.8-3.7c.5-.9 4-1.3 5.5-.7s7.3-.8 8.3 2.2c-2.1 3.9-14.6 2.2-14.6 2.2z" fill="#386ac4"/><path d="m59.6 94.1c-.3-.2-.6-.3-.9-.4-.8-.2-1.7-.2-2.5 0-1.1.3-2.1 1-3.3 1.3s-2.4.2-3.6.2c-.5 0-1.1-.1-1.5-.5-.4-.3-.5-.8-.5-1.3 0-.1 0-.2 0-.4-.3.1-.6.3-.7.5-.5.9-.8 3.7-.8 3.7s12.5 1.7 14.6-2.2c-.2-.2-.5-.6-.8-.9z" fill="#386ac4" opacity=".3"/><path d="m45.9 97.8c-.3-.6-.2-1.7 2-2.1 2.2-.3 2.9.4 5.3 0 2.5-.4 5.3-2.6 6.9-.9.8.8-.1 2.9-2.9 3.6-2 .5-10.4 1.5-11.3-.6z" fill="#386ac4"/><path d="m45.9 97.8c-.3-.6-.2-1.7 2-2.1 2.2-.3 2.9.4 5.3 0 2.5-.4 5.3-2.6 6.9-.9.8.8-.1 2.9-2.9 3.6-2 .5-10.4 1.5-11.3-.6z" fill="#386ac4" opacity=".5"/><path d="m34.9 58.1s1.3-4.1 9.9-5.5c3.6-.6 8.4-.5 8.4-.5l-3.9-5.5-14.2 7.4z" fill="#386ac4" opacity=".7"/><path d="m61 18.8c-1.4 9.8-7.3 22.4-8.2 30.1 2 4.7-3.1 1.5-9.9 3-5 1.1-7.7 5.1-8 3.3-1.1-6.5 1.7-22.7 4.6-30.5 3.1-8.3 18.3-11.2 21.5-5.9z" fill="#386ac4"/><path d="m51.8 49c.1 1.2-.3 2-.7 2.7 1.9 0 2.7-.3 1.7-2.7.6-5.9 4.2-14.6 6.5-22.8-.2.4-7.7 19.6-7.5 22.8z" fill="#386ac4" opacity=".3"/><path d="m43.8 39.3c-3-4.1-.8-7.7-.8-7.7-1.1-3.7-2.4-5.4-3.8-5.9-2.7 8.1-5.3 23.2-4.3 29.4.3 1.7 2.6-1.7 7-3 1.2-1.7 3.4-2.7 5.1-5 2.1-2.8-.3-3.7-3.2-7.8z" fill="#386ac4" opacity=".5"/><path d="m48.4 16.5s-.9 2.3-1.3 3.4c1.3 1.7 5.1 4.7 5.5 4.5 1.5-2.7 2.6-6.2 2.6-6.6-.8-.8-2.5-3.1-2.5-3.1z" fill="#e64b00"/><path d="m52.2 24.4c.3-.2.6-.4.6-.4s-1-.6-1.6-2.2c1.4-.4 2.3-1.7 2.3-1.7l-3.3-1c-.4 0-2.1.2-2.4.4-.2.1-.4.4-.6.7 1.3 1.4 4 3.7 5 4.2z" fill="#e64b00" opacity=".7"/><path d="m52.8 24.1s3-5.1 0-8c2.9-.3 4.8 5.1 2.5 9.8-2-.8-2.5-1.8-2.5-1.8z" fill="#386ac4"/><path d="m52.8 16.1c.3.3.6.1.8.5 1.3-.1 3.4 4 1.9 7.6-.4 1-1.4.7-2.5-.2-.1.1-.1.2-.1.2s.5 1 2.5 1.7c2.2-4.7.3-10.2-2.6-9.8z" fill="#386ac4" opacity=".5"/><path d="m47.6 41.7s0 .6 2.4-.2c2.3-.9 8.3-4.4 7.4-5-1-.5-9.2-4-9.8 5.2z" fill="#253e6b"/><path d="m45.1 34.8c1.3 2.3 2.8 5.3 6.6 8.1s13.4 6 14.5 6.7 3.6-.5 3.6-2.4c-1.9-1.2-10.5-8.6-13.1-10.2s-4.7-6.6-5.7-7.8c-.9-1.3-7.7 2.5-5.9 5.6z" fill="#e64b00"/><path d="m66.2 49.1c-13.4-3.9-16.6-9.6-16.6-9.6l-1.1.5c.8 1 1.9 2 3.2 2.9 3.8 2.8 13.4 6 14.5 6.7.2.1.5.2.8.2-.3-.3-.6-.6-.8-.7z" fill="#e64b00" opacity=".6"/><path d="m49.2 40.8s2.6-2.4 7.8-3.6c-3.1-2.1-4.1-4-4.1-4l-5.6 5.3z" fill="#e64b00" opacity=".6"/><path d="m39.6 29.3s5.1 8.5 8 12.4c1.1-3.3 8.6-5.1 9.7-5.2-4.1-6-8.1-11.3-10.3-12.6s-9.6-.3-7.4 5.4z" fill="#386ac4"/><path d="m56.1 36.8c.6-.1 1.1-.2 1.3-.3-3.1-4.5-6-8.5-8.3-10.9 0 .1 5.3 8.5 7 11.2z" fill="#386ac4" opacity=".3"/><path d="m40.2 30.2c1.4 2.3 5.2 8.4 7.5 11.5.2-.7.8-1.3 1.4-1.9-2.9-.8-8.9-9.6-8.9-9.6z" fill="#386ac4" opacity=".5"/><path d="m48.8 17.5s-3.1 1.5 3.8 6.6c0 1.5-1.1 2.8-1.1 2.8s-5.3-3.4-5.5-6.5 2.8-3.7 2.8-3.7z" fill="#386ac4"/><path d="m51.5 26.8s1.1-1.3 1.1-2.8c-.2-.1-.3-.3-.5-.4-.1 2.7-3.3 1.7-5.1-1.4-1.9-3.3.4-4 .4-4l-.1-.8c-.7.5-1.3 1.4-1.3 2.9.3 3.1 5.5 6.5 5.5 6.5z" fill="#386ac4" opacity=".5"/><path d="m52.1 11.1c-.8-.5-1.7-.6-2.6-.5s-1.7.6-2.2 1.3c-1.1 1.5-.6 5.4 1.2 7.2.6.6 1.8.9 2.7.8.9-.2 1.9-.8 2.2-1.6 1.1-2.1.3-6.1-1.3-7.2z" fill="#e64b00"/><path d="m54.1 13.4c-.2-.2-.5-.2-.8-.2s-.5.1-.7.4c-.4.5-.3 1.7.2 2.3.2.2.5.3.8.3s.6-.2.7-.5c.4-.7.3-2-.2-2.3z" fill="#e64b00"/><path d="m46.4 15.2c.1-.3.4-.4.7-.5s.6-.1.8.1c.5.3.9 1.4.7 2.2-.1.3-.4.5-.6.6-.3.1-.6 0-.9-.1-.6-.6-1-1.8-.7-2.3z" fill="#e64b00"/><path d="m54 16.6c-.2.4-.6.6-1 .5-.4-.2-.6-.6-.5-1 .2-.4.6-.6 1-.5.4.2.6.6.5 1z" fill="#e64b00" opacity=".7"/><path d="m49 17.7c-.2.4-.6.6-1 .5-.4-.2-.6-.6-.5-1 .2-.4.6-.6 1-.5.5.2.7.6.5 1z" fill="#e64b00" opacity=".7"/><path d="m79.9 7.3c.3.4.6.7 1 .8 1.4.4 2.5-1 2.9-1.4.9-1 1.9-1.9 2.7-3 .3-.4.1-.7-.4-.3-.3.2-.7.7-1.1 1.1-.2.1-.3.3-.4.4 0 0-.1.1-.2 0s0-.2 0-.2c.2-.3.5-.7.8-1.1.4-.6.8-1.3.9-1.5.2-.4 0-.7-.5-.2-.2.1-.6.6-1 1.1s-.7.8-.9 1c0 0-.1.1-.2.1-.1-.1 0-.2 0-.2.2-.3.4-.7.6-1.2.4-.8.9-1.6 1.1-2 .2-.5-.2-.7-.5-.3-.1.2-.8 1.1-1.3 1.9-.2.4-.4.7-.6 1v.1c-.1.1-.2.3-.4.2s-.1-.4-.1-.4c.1-.3.2-.7.4-1.1.2-.7.6-1.3.7-1.6.1-.5-.2-.6-.5-.1-.2.3-.6.9-.8 1.5-.2.5-.4 1.1-.6 1.5 0 .1-.1.2-.1.2-.1.2 0 .1-.1.3-.3.1-.4.1-.4-.5-.1-1-.7-1.4-.9-1.2s0 .5-.2 1.9c-.1.8-.3 1.6-.2 2.4 0 .2.2.5.3.8z" fill="#e64b00"/><path d="m65.7 48.6s.7 1.8 1.8 2.4c1.2.7 2.2 1 2.3 1.2.1.1.2.2.1.2-.2.1-.8-.2-.9-.1-.6.3.5 1.1 1 1.2.8.2 1.1-.1 1.1-.5.6.4 1.1.1 1.3-.4.7.3 1.3.1 1.4-.4.7.2 1.1-.2 1.1-.7 0-.3-.6-2.3-1.1-2.9s-5.1-1.8-5.7-1.9c-.6-.2-2.4 1.3-2.4 1.9z" fill="#e64b00"/><path d="m66.2 49.1c-.1-.1-.2-.1-.4-.1.3.6.9 1.6 1.6 2 1.2.7 2.2 1 2.3 1.2.1.1.2.2.1.2-.2.1-.8-.2-.9-.1 1.5.7 1.7.2 1.2-.3-1.6-.5-3-2.4-3.9-2.9z" fill="#e64b00" opacity=".6"/><g fill="#1a1a1a"><path d="m46.5 15s.2-.2.5.6c.2.8.2 1 .4 1.1.2.2.5.1.5-.1-.1-.2-.3-1.6-.4-1.8s-.4-1.6.4-2.4c1-1.1 5.1.3 5.4-2.8.3-3-2.7-1-4.3-.2s-3 1.3-2.7 2.9c-1.1 1.1.2 2.7.2 2.7z"/><path d="m53.8 13.3s.4-2-.9-2.4c-.3-1-1-1.3-1.9-1.3v1.9c.1 0 .3.1.4.2 1.3.6 1.3 1.9 1.5 2s.4 1.6.4 1.7c0 .2.4.2.5-.1.1-.2 0-.4-.1-1.2-.2-.9.1-.8.1-.8z"/><path d="m35 54.9c-.4-1.7-.6-3.5-.6-5.2 0-1.8.2-3.5.4-5.3.3-1.7.6-3.5.9-5.2s.7-3.4 1-5.2c-.3 1.7-.6 3.5-.9 5.2s-.6 3.5-.8 5.2c-.5 3.5-.7 7 0 10.5z"/><path d="m53.2 51.5c.3-.4.1-.9-.1-1.2-.2-.4-.5-.8-.5-1.3.1-.5.2-.9.3-1.3 0-.2.1-.4.1-.7v-.3c0-.1-.2.2-.2.1 0 .1.1-.3.2-.1v.3.7c0 .5-.2.9-.2 1.3-.1.4.2.8.4 1.2s.3 1 0 1.3z"/><path d="m41.4 32.2c1.1 1.3 2.1 2.7 3 4.1.9 1.5 1.7 3 2.4 4.5-.8-1.5-1.6-3-2.6-4.4-.8-1.4-1.8-2.8-2.8-4.2z"/><path d="m51 27.3c1.1 1.3 2 2.7 3 4.1.9 1.4 1.8 2.8 2.6 4.3z"/><path d="m49.2 21.1c.5.4.9.9 1.4 1.3.4.5.9.9 1.3 1.4-.6-.3-1-.8-1.5-1.2-.5-.5-.9-1-1.2-1.5z"/><path d="m53.2 23.8c.1-.5.2-1 .3-1.5.2-.5.3-1 .6-1.4 0 .5-.2 1-.3 1.5-.3.5-.4 1-.6 1.4z"/><path d="m46.1 18.7c.3 1.6 1 3.1 2 4.3.9 1.3 2.2 2.3 3.6 3-1.5-.5-2.8-1.6-3.8-2.8-1-1.4-1.7-2.9-1.8-4.5z"/><path d="m54.2 24.8c.4.1.8.4 1.1.7h-.1c.5-1.3.7-2.7.8-4 0-1.4-.2-2.8-.7-4.1.6 1.2.9 2.7.9 4.1s-.3 2.8-.9 4.1v.1l-.1-.1c-.3-.4-.6-.6-1-.8z"/><path d="m55.6 13.7c1.4-.8 2.9-1.5 4.3-2.3 1.5-.7 2.9-1.4 4.5-2.1-1.4.8-2.9 1.5-4.3 2.3-1.5.7-3 1.4-4.5 2.1z"/><path d="m66.7 9.9c.7 1.5.7 3.2.6 4.7-.2 1.6-.6 3.2-1.2 4.7.3-1.6.8-3.1 1-4.7.1-1.5.1-3.1-.4-4.7z"/><path d="m60.3 25.1c.7-.8 1.4-1.5 2.1-2.2s1.4-1.5 2.1-2.2c-.6.9-1.3 1.6-1.9 2.4-.7.7-1.4 1.4-2.3 2z"/><path d="m68.9 15.9c1.1-1.7 2.7-2.9 4.4-3.8s3.6-1.6 5.4-2.2c-1.8.8-3.6 1.4-5.3 2.4-1.7.8-3.3 2-4.5 3.6z"/><path d="m70.7 6.6c.4-.3 1-.4 1.6-.5.5-.1 1.1-.2 1.6-.2 1.1 0 2.2-.1 3.3.1-1.1 0-2.2 0-3.3.1-.5 0-1.1.1-1.6.1-.6.1-1.2.1-1.6.4z"/><path d="m79.4 6c.1.4.2.8.5 1.2.2.4.5.6.9.9-.5-.1-.8-.5-1.1-.8-.2-.4-.4-.9-.3-1.3z"/><path d="m78.6 6.7c.1.6.1 1.1.4 1.6.1.3.2.5.4.7s.4.4.6.5c-.3 0-.6-.2-.8-.4s-.3-.5-.5-.8c-.2-.5-.3-1-.1-1.6z"/><path d="m50.1 41.8c1.7 1.5 3.7 2.4 5.8 3.3 2 .9 4.1 1.8 6.1 2.8-2.1-.8-4.1-1.7-6.2-2.6-2-1-4.1-1.9-5.7-3.5z"/><path d="m68.5 46.3c1.3.8 2.8 1.2 4.3 1.6.4.1.8.3 1.1.6s.5.7.6 1c.3.7.4 1.5.4 2.3-.1-.8-.3-1.5-.6-2.2-.2-.3-.3-.7-.6-.9-.3-.3-.6-.4-1-.5-1.4-.5-2.9-.9-4.2-1.9z"/><path d="m73.2 50.4c.3.2.4.5.6.8.1.3.2.6.2 1-.2-.3-.3-.6-.4-.9-.2-.3-.4-.6-.4-.9z"/><path d="m72 51.2c.2.2.3.5.5.7.1.3.2.6.1.9-.2-.3-.2-.5-.4-.8.1-.3-.1-.5-.2-.8z"/><path d="m71.1 51.9c.2.2.2.4.3.5 0 .2.1.4.1.6-.2-.2-.2-.4-.3-.5-.1-.2-.1-.4-.1-.6z"/><path d="m48.2 41.2c-.1 0 0-.2 0-.2l.2-.2.4-.4c.3-.2.6-.5.9-.7.6-.5 1.3-.9 2-1.3 1.4-.7 2.8-1.4 4.3-1.8-1.4.6-2.9 1.2-4.2 2-.7.4-1.3.8-2 1.2-.3.2-.6.4-1 .7l-.5.3c.1.1-.2.2-.1.4z"/><path d="m36.3 55.1c2.3-1.5 4.7-2.8 7.3-3.6 1.3-.4 2.7-.6 4.1-.6s2.7.3 4.1.2c-1.4.2-2.7 0-4.1 0s-2.7.2-4 .6c-2.7.7-5.1 2.1-7.4 3.4z"/><path d="m16.9 86.4c1.7-.4 2.9-1.7 4.1-2.8 1.3-1.1 2.6-2.2 3.9-3.2 2.8-2 5.6-3.8 8.7-5.3-3 1.7-5.9 3.4-8.6 5.5-1.4 1-2.7 2.1-4 3.2-1.1.9-2.4 2.2-4.1 2.6z"/><path d="m35.6 71.1c.1-2.5-.1-5-.5-7.4-.3-2.5-.6-5-.4-7.5-.1 2.5.2 5 .6 7.4.3 2.5.6 5 .3 7.5z"/><path d="m38.5 60.3c2.3 1.9 4.4 4 6.5 6 1 1.1 2.1 2.1 3.1 3.2l1.5 1.6c.2.3.5.6.7.9s.3.7.1 1.1c.3-.8-.4-1.4-.8-1.9l-1.6-1.5c-1-1.1-2.1-2.1-3.1-3.2-2.1-2.1-4.2-4.1-6.4-6.2z"/><path d="m46.6 91.8c.4-2.5.9-4.9 1.3-7.4.5-2.4 1-4.9 1.6-7.3-.4 2.5-.9 4.9-1.3 7.4-.5 2.4-1 4.9-1.6 7.3z"/><path d="m55.4 91.8c1.1-2.2 2.3-4.4 3.3-6.6 1.1-2.2 2.1-4.5 2.2-7 0 1.2-.2 2.5-.6 3.6-.4 1.2-.9 2.3-1.4 3.4-.6 1.1-1.2 2.2-1.7 3.3-.6 1.1-1.2 2.2-1.8 3.3z"/><path d="m57.9 59.4c2 2.2 3 5 3.6 7.9.5 2.9.5 5.8.4 8.7 0-2.9 0-5.8-.6-8.6-.5-2.9-1.6-5.7-3.4-8z"/><path d="m27.3 90.8c4.2-2 8.3-4.2 11.9-7.2 3.6-2.9 6.8-6.5 8.7-10.7-1.8 4.3-5 8-8.6 10.9s-7.7 5.1-12 7z"/><path d="m46.5 93.9c.5-1 1.6-1.5 2.7-1.7 1.1-.1 2.2.1 3.2.5-1.1-.2-2.1-.4-3.2-.3-1 .1-2.1.6-2.7 1.5z"/><path d="m45.9 96.9c.6-.9 1.7-1.3 2.8-1.3 1.1-.1 2.1.2 3.1.3 1 .2 2.1.1 3.1-.2s2.1-.7 3.1-.3c-1-.3-2.1.2-3.1.5-1 .4-2.1.5-3.2.3-1-.2-2.1-.5-3.1-.4-.9 0-2 .2-2.7 1.1z"/><path d="m52.7 99c1.4-.3 2.9-.3 4.3-.5.7-.1 1.4-.2 2-.7.5-.4.8-1.1.9-1.8 0 .7-.2 1.5-.8 2s-1.3.6-2 .8c-1.6.1-3 .1-4.4.2z"/><path d="m18.5 99.3c-.5-.7-.7-1.7-.8-2.6 0-.9.2-1.8.8-2.6-.3.8-.6 1.7-.5 2.6-.1.9.1 1.7.5 2.6z"/><path d="m13.9 98.8c-.3-.7-.5-1.5-.5-2.3s.2-1.5.3-2.3c.3-1.5.3-3.1.4-4.6.1 1.6.1 3.1-.2 4.7-.1.8-.4 1.5-.4 2.3 0 .7.2 1.5.4 2.2z"/></g></svg>