<?xml version="1.0" encoding="utf-8"?>
<!-- Generator: Adobe Illustrator 25.2.1, SVG Export Plug-In . SVG Version: 6.00 Build 0)  -->
<svg version="1.1" id="Layer_1" xmlns="http://www.w3.org/2000/svg" xmlns:xlink="http://www.w3.org/1999/xlink" x="0px" y="0px"
	 viewBox="0 0 100 100" style="enable-background:new 0 0 100 100;" xml:space="preserve">
<style type="text/css">
	.st0{fill:#B2A740;}
	.st1{opacity:0.6;fill:#B2A740;}
	.st2{fill:#FFF203;}
	.st3{opacity:0.5;fill:#FFF203;}
	.st4{fill:#1A1A1A;}
	.st5{fill:#A799E6;}
	.st6{fill:#9E996A;}
	.st7{fill:#CDB3ED;}
	.st8{opacity:0.6;fill:#CDB3ED;}
	.st9{opacity:0.3;fill:#FFF203;}
	.st10{opacity:0.5;fill:#CDB3ED;}
	.st11{opacity:0.4;fill:#9E996A;}
	.st12{opacity:0.4;}
	.st13{opacity:0.5;fill:#B2A740;}
	.st14{fill:#FFF426;}
	.st15{opacity:0.4;fill:#CDB3ED;}
	.st16{opacity:0.7;fill:#CDB3ED;}
	.st17{opacity:0.6;fill:#FFF203;}
	.st18{opacity:0.6;}
	.st19{opacity:0.7;fill:#FFF203;}
	.st20{fill:#8A604F;}
	.st21{opacity:0.4;fill:#8A604F;}
	.st22{fill:#774632;}
	.st23{fill:none;}
	.st24{fill:#E64B00;}
	.st25{opacity:0.3;fill:#E64B00;}
	.st26{opacity:0.6;fill:#E64B00;}
	.st27{fill:#386AC4;}
	.st28{opacity:0.5;}
	.st29{fill:#D1847E;}
	.st30{opacity:0.6;fill:#D1847E;}
	.st31{opacity:0.5;fill:#386AC4;}
	.st32{opacity:0.3;fill:#386AC4;}
	.st33{opacity:0.4;fill:#386AC4;}
	.st34{opacity:0.7;fill:#386AC4;}
	.st35{opacity:0.7;fill:#E64B00;}
	.st36{fill:#253E6B;}
	.st37{fill:#7A43C3;}
	.st38{fill:#CDCAC6;}
	.st39{opacity:0.6;fill:#CDCAC6;}
	.st40{opacity:0.5;fill:#7A43C3;}
	.st41{opacity:0.3;fill:#7A43C3;}
	.st42{fill:#543961;}
	.st43{fill:#E2BA33;}
	.st44{opacity:0.7;fill:#E2BA33;}
	.st45{opacity:0.6;fill:#7A43C3;}
	.st46{opacity:0.5;fill:#E2BA33;}
	.st47{opacity:0.4;fill:#E2BA33;}
	.st48{fill:#E2DA7E;}
	.st49{opacity:0.4;fill:#E2DA7E;}
	.st50{fill:#F2EF94;}
	.st51{opacity:0.4;fill:#FFFFFF;}
	.st52{opacity:0.5;fill:#CDCAC6;}
	.st53{fill:#6C41B1;}
	.st54{fill:#090704;}
	.st55{fill:#D8CFC0;}
	.st56{fill:#2A41E8;}
	.st57{opacity:0.6;fill:#D8CFC0;}
	.st58{fill:#FF822A;}
	.st59{opacity:0.5;fill:#FF822A;}
	.st60{fill:#A58F64;}
	.st61{opacity:0.5;fill:#A58F64;}
	.st62{fill:#561A91;}
	.st63{opacity:0.4;fill:#D8CFC0;}
	.st64{opacity:0.7;fill:#D8CFC0;}
	.st65{opacity:0.3;fill:#FF822A;}
	.st66{opacity:0.7;fill:#FF822A;}
	.st67{opacity:0.3;}
	.st68{fill:#E83C7D;}
	.st69{fill:#BF9726;}
	.st70{opacity:0.4;fill:#E83C7D;}
	.st71{fill:#767676;}
	.st72{opacity:0.5;fill:#E83C7D;}
	.st73{opacity:0.5;fill:#767676;}
	.st74{opacity:0.9;fill:#767676;}
	.st75{opacity:0.3;fill:#E83C7D;}
	.st76{opacity:0.4;fill:#7F3451;}
	.st77{opacity:0.4;fill:#BF9726;}
	.st78{opacity:0.7;fill:#BF9726;}
	.st79{opacity:0.6;fill:#E83C7D;}
	.st80{opacity:0.2;fill:#E83C7D;}
	.st81{fill:#7F3451;}
	.st82{fill:#968B22;}
	.st83{opacity:0.4;fill:#968B22;}
	.st84{fill:#FFEAA6;}
	.st85{fill:#1274C4;}
	.st86{fill:#D1D1D1;}
	.st87{opacity:0.3;fill:#1274C4;}
	.st88{opacity:0.6;fill:#D1D1D1;}
	.st89{opacity:0.5;fill:#1274C4;}
	.st90{fill:#0A3F6B;}
	.st91{fill:#E67E5B;}
	.st92{opacity:0.6;fill:#D46642;}
	.st93{opacity:0.6;fill:#1274C4;}
	.st94{opacity:0.4;fill:#001B6A;}
	.st95{opacity:0.3;fill:#D46642;}
	.st96{fill:#1065AB;}
	.st97{opacity:0.4;fill:#1274C4;}
	.st98{opacity:0.7;fill:#E67E5B;}
	.st99{fill:#C7C4BE;}
	.st100{fill:#EFEBE0;}
	.st101{opacity:0.3;fill:#C7C4BE;}
	.st102{opacity:0.5;fill:#D1D1D1;}
	.st103{opacity:0.9;fill:#D1D1D1;}
	.st104{fill:#0F64A8;}
	.st105{fill:#D1AB3E;}
	.st106{opacity:0.5;fill:#D1AB3E;}
	.st107{opacity:0.8;fill:#D1AB3E;}
	.st108{opacity:0.1;fill:#D1AB3E;}
	.st109{fill:#C16A23;}
	.st110{opacity:0.5;fill:#C16A23;}
	.st111{fill:#6DEC6E;}
	.st112{opacity:0.5;fill:#6DEC6E;}
	.st113{fill:#826315;}
	.st114{opacity:0.3;fill:#EC1C24;}
	.st115{opacity:0.4;fill:#826315;}
	.st116{fill:#C87C3D;}
	.st117{fill:#EE3A40;}
	.st118{fill:none;stroke:#1A1A1A;stroke-width:0.1469;stroke-linejoin:round;stroke-miterlimit:10;}
	.st119{fill:none;stroke:#CA7F42;stroke-width:0.1352;stroke-miterlimit:10;}
	.st120{opacity:0.5;fill:#FFFFFF;}
	.st121{fill:#C57330;}
	.st122{opacity:0.3;fill:#C57330;}
	.st123{opacity:0.5;fill:#8FF08F;}
	.st124{opacity:0.5;fill:#C57330;}
	.st125{fill:#8FF08F;}
	.st126{opacity:0.5;fill:#EE3A40;}
	.st127{opacity:0.3;fill:#EE3A40;}
	.st128{opacity:0.4;fill:#EE3A40;}
	.st129{opacity:0.2;fill:#EE3A40;}
	.st130{opacity:0.4;fill:#C57330;}
	.st131{opacity:0.4;fill:#D1AB3E;}
	.st132{opacity:0.6;fill:#D1AB3E;}
	.st133{opacity:0.9;fill:#D1AB3E;}
	.st134{fill:none;stroke:#1A1A1A;stroke-width:0.1469;stroke-miterlimit:10;}
	.st135{opacity:0.7;}
	.st136{fill:#F05459;}
	.st137{fill:#EADBE1;}
	.st138{fill:#D2B1BE;}
	.st139{fill:none;stroke:#EED3B0;stroke-width:0.1115;stroke-miterlimit:10;}
	.st140{opacity:0.5;fill:#D2B1BE;}
	.st141{fill:#561B32;}
	.st142{fill:#E10A52;}
	.st143{opacity:0.4;fill:#E10A52;}
	.st144{opacity:0.2;fill:#E10A52;}
	.st145{fill:#DEC5CF;}
	.st146{opacity:0.6;fill:#D2B1BE;}
	.st147{opacity:0.3;fill:#D2B1BE;}
	.st148{opacity:0.4;fill:#DEC5CF;}
	.st149{fill:#ECCEA7;}
	.st150{opacity:0.4;fill:#ECCEA7;}
	.st151{opacity:0.9;fill:#ECCEA7;}
	.st152{opacity:0.9;fill:#E1B375;}
	.st153{fill:#E1B375;}
	.st154{opacity:0.5;fill:#ECCEA7;}
	.st155{opacity:0.8;fill:#ECCEA7;}
	.st156{opacity:0.7;fill:#ECCEA7;}
	.st157{opacity:0.6;fill:#E10A52;}
	.st158{opacity:0.7;fill:#E10A52;}
	.st159{fill:#D89C4C;}
	.st160{opacity:0.8;fill:#D89C4C;}
	.st161{fill:#D5FEE3;}
	.st162{opacity:0.4;fill:#EFD7B7;}
	.st163{fill:#EBCCA2;}
	.st164{opacity:0.4;fill:#EBCCA2;}
	.st165{fill:#EDD1AD;}
	.st166{fill:url(#SVGID_1_);}
	.st167{opacity:0.3;fill:#FFFFFF;}
	.st168{fill:url(#SVGID_2_);}
	.st169{fill:#B1778D;}
	.st170{fill:url(#SVGID_3_);}
	.st171{opacity:0.2;}
	.st172{fill:#FFFFFF;}
	.st173{fill:url(#SVGID_4_);}
	.st174{fill:url(#SVGID_5_);}
	.st175{opacity:0.2;fill:url(#SVGID_6_);}
	.st176{opacity:0.4;fill:url(#SVGID_7_);}
	.st177{opacity:0.4;fill:url(#SVGID_8_);}
	.st178{clip-path:url(#SVGID_10_);fill:#764659;}
	.st179{clip-path:url(#SVGID_10_);fill:#78495B;}
	.st180{clip-path:url(#SVGID_10_);fill:#794B5D;}
	.st181{clip-path:url(#SVGID_10_);fill:#7D4F61;}
	.st182{clip-path:url(#SVGID_10_);fill:#7F5263;}
	.st183{clip-path:url(#SVGID_10_);fill:#805465;}
	.st184{clip-path:url(#SVGID_10_);fill:#825667;}
	.st185{clip-path:url(#SVGID_10_);fill:#845969;}
	.st186{clip-path:url(#SVGID_10_);fill:#855B6B;}
	.st187{clip-path:url(#SVGID_10_);fill:#875D6D;}
	.st188{clip-path:url(#SVGID_10_);fill:#895F70;}
	.st189{clip-path:url(#SVGID_10_);fill:#E0004B;}
	.st190{clip-path:url(#SVGID_10_);fill:#E0034D;}
	.st191{clip-path:url(#SVGID_10_);fill:#E10850;}
	.st192{clip-path:url(#SVGID_10_);fill:#E10A52;}
	.st193{clip-path:url(#SVGID_10_);fill:#E20F56;}
	.st194{clip-path:url(#SVGID_10_);fill:#E21258;}
	.st195{clip-path:url(#SVGID_10_);fill:#E3175B;}
	.st196{fill:url(#SVGID_11_);}
	.st197{fill:url(#SVGID_12_);}
	.st198{fill:url(#SVGID_13_);}
	.st199{opacity:0.2;fill:#FFFFFF;}
	.st200{fill:#2F2C1E;}
	.st201{fill:url(#SVGID_14_);}
	.st202{fill:url(#SVGID_15_);}
	.st203{opacity:0.1;fill:#FFFFFF;}
	.st204{fill:url(#SVGID_16_);}
	.st205{fill:url(#SVGID_17_);}
	.st206{opacity:0.2;fill:url(#SVGID_18_);}
	.st207{fill:url(#SVGID_19_);}
	.st208{fill:url(#SVGID_20_);}
	.st209{fill:url(#SVGID_21_);}
	.st210{opacity:0.2;fill:url(#SVGID_22_);}
	.st211{fill:url(#SVGID_23_);}
	.st212{fill:url(#SVGID_24_);}
	.st213{opacity:0.4;fill:url(#SVGID_25_);}
	.st214{opacity:0.4;fill:url(#SVGID_26_);}
	.st215{opacity:0.4;fill:#561B32;}
	.st216{fill:#E52968;}
	.st217{fill:none;stroke:#AC5773;stroke-width:3.185000e-02;stroke-miterlimit:10;}
	.st218{fill:none;stroke:#F7EBDB;stroke-width:3.166700e-02;stroke-miterlimit:10;}
	.st219{fill:#FBB03B;}
</style>
<g>
	<g>
		<path class="st24" d="M61.9,12.1c0,0,4.8-3.4,5.7-4.2c1.4-1.3,4.2-2.4,12.4-2.1c1.2,0.7,1,1.9,0.8,2.8c-1.8,1.5-7.6,3.1-10.4,5.5
			c-4,3.4-8,8.5-10.6,8.4C57.4,22.4,58.9,14.9,61.9,12.1z"/>
		<path class="st25" d="M80.9,8.6c0.1-0.7,0.2-1.6-0.2-2.2c-0.6,0.4-1,1.1-0.9,1.7c0.2,1.6-6.9,3.9-8.3,2.9c-1.4-1-1.4,0.5-1.4,2
			s-3,3.5-6.2,4.9l-2.4,2.6c0,0,0.4,0.4,1,1c2.3-1.6,5.2-4.9,8.1-7.4C73.3,11.7,79.2,10.2,80.9,8.6z"/>
		<path class="st26" d="M65.7,9.4l1-0.7c0,0,2,3.7,0.4,8.7c-4.5,4.4-6.6,5.5-6.6,5.5L65.7,9.4z"/>
		<path class="st27" d="M80.5,5.8c0,0-2.2-1.3-2.1,0.5c0,1.9,1.3,2.9,2.1,2.9C81.4,9.2,82,8,82,8L80.5,5.8z"/>
		<g class="st28">
			<path class="st27" d="M78.5,6.8c0,0.2,0.1,0.4,0.1,0.6C78.5,7.1,78.5,6.9,78.5,6.8z"/>
			<path class="st27" d="M80.5,5.8c0,0-2.2-1.3-2.1,0.5c0,0.2,0,0.3,0,0.4c0-0.3,0.2-0.8,0.5-0.7c0.2,0.1,0.2,0.3,0.3,0.5
				c0.1,0.7,0.6,1.4,1.2,1.7c0.2,0.1,0.5,0.3,0.5,0.5c0,0.2-0.2,0.3-0.3,0.4C81.4,9.1,82,8,82,8L80.5,5.8z"/>
		</g>
		<g>
			<path class="st27" d="M20.2,91.8c0,0-2.9,4.5-2.8,5.1c0.1,0.5,1.6,2.1,0.9,2.8c-0.7,0.7-3.8,0.2-4.9-1.4c-1-1.6,0.8-6.2,0.8-7
				c0-0.8-0.1-3.5,0.6-4.1c0.7-0.5,4.6,0.1,4.9,0.4C19.5,89.3,20.2,91.5,20.2,91.8z"/>
			<path class="st29" d="M17.6,97.2c0,0-0.4,0.4-0.8-0.5c-0.4-0.9,0-4.6,1.4-4.9s1.1,2.2-0.4,4.4C17.5,96.9,17.6,97.2,17.6,97.2z"/>
			<path class="st30" d="M18.2,91.8c1-0.2,1.1,1,0.6,2.5c-0.1-0.3-0.7-1.3-1.3-0.6c-0.7,0.7-0.7,3.3,0.1,3.4c0,0.1,0,0.1,0,0.1
				s-0.4,0.4-0.8-0.5C16.4,95.8,16.8,92.1,18.2,91.8z"/>
			<path class="st31" d="M15,87.2c0.7-0.5,4.6,0.1,4.9,0.4c0,0.1-0.1,0.3-0.1,0.5c-1.5-0.4-3.8-0.4-4.3,1.4
				c-0.6,2.2,0.6,1.7-0.8,4.2c-1.4,2.5-1.6,5.1,1.6,5.7c1,0.2,1.7,0.2,2.3,0c0,0.1-0.1,0.2-0.2,0.3c-0.7,0.7-3.8,0.2-4.9-1.4
				c-1-1.6,0.8-6.2,0.8-7C14.4,90.5,14.3,87.8,15,87.2z"/>
		</g>
		<path class="st27" d="M48.3,17.2c0,0,13.4-6.7,17.7-8.3c2.7,2.2,0.1,9.2-1,11.3c-5.1,5.7-12.8,12.6-14.7,16.1
			C40.4,38.7,48.3,17.2,48.3,17.2z"/>
		<path class="st32" d="M47.8,18.6l3.3,0.4c2-2,12.8-8.3,15.4-9.6c-0.1-0.2-0.3-0.4-0.5-0.5c-4.3,1.6-17.7,8.3-17.7,8.3
			S48.1,17.7,47.8,18.6z"/>
		<path class="st31" d="M58.6,24.5v2.4c2.2-2.2,4.5-4.5,6.4-6.7c0.2-0.4,0.4-0.9,0.7-1.6C64.4,20.9,58.6,24.5,58.6,24.5z"/>
		<g>
			<path class="st27" d="M35,73.6c2.3-5.3-2.9-19.6,2.3-25.5c6.1-7,11.5-0.6,13,3.4c2.2,5.8-0.5,25.8-8.3,30.7L35,73.6z"/>
			<path class="st32" d="M51,56.1c-2.9-2.8-6-4.7-6.2-4.9c-0.4-0.4,5.4,20.2-1.8,28c-0.6,0.6-1.3,1.3-2,1.9l1,1.2
				C48.3,78.2,51.3,64.3,51,56.1z"/>
			<path class="st31" d="M37.5,47.9c-0.1,0.1-0.2,0.2-0.2,0.3c-5.2,6,0,20.2-2.3,25.5l1.3,1.7c4.5-3.8,2.3-7.7,1-19.2
				C37,52.9,37.2,50.1,37.5,47.9z"/>
			<path class="st31" d="M16,87c0,0,0.7,5.4,2.8,7c1.2-1,1.5-5.6,1.5-5.6L16.8,87H16z"/>
			<path class="st27" d="M45.4,78.4C40,87.8,21.8,92.6,19.6,93.1c-1.7-0.4-3.5-4.3-3-6.2c3.3-1.3,9.4-8.4,18.5-13.3L45.4,78.4z"/>
			<path class="st32" d="M45.4,78.4L44,77.8c-0.3,0.5-0.7,1-1.1,1.4c-6,6.3-19.8,11.5-24.6,13.2c0.4,0.4,0.8,0.7,1.2,0.8
				C21.8,92.6,40,87.8,45.4,78.4z"/>
			<path class="st31" d="M35,73.6c-9,4.9-15.1,12-18.5,13.3c-0.2,0.6-0.1,1.5,0.2,2.3c4.8-4.4,11.8-9.2,16.9-12.1
				c1.5-0.9,2.7-1.7,3.5-2.6L35,73.6z"/>
		</g>
		<g>
			<path class="st27" d="M50.7,72.3c-2-5.4-16.1-10.7-16-20c0.1-9.3,7.9-8.3,11.7-6.5c5.6,2.7,17.4,19,15.2,28L50.7,72.3z"/>
			<path class="st32" d="M61.6,73.8c2-8-7.1-21.7-13.1-26.5l-0.2,0.9c0,0,11.5,11.1,12.4,22.3c0.1,1.1,0.1,2.1-0.1,3.2L61.6,73.8z"
				/>
			<path class="st31" d="M44,60.6c-5.1-6.1-1.9-9.4-1.9-9.4l-6.4-3.6c-0.6,1.1-1,2.7-1,4.7c-0.1,9.3,13.9,14.6,16,20l1.9,0.2
				c0.1-0.5,0.2-1,0.3-1.3C53.4,67.8,49.1,66.6,44,60.6z"/>
			<path class="st27" d="M61.5,68.6c2.6,10.5-7.5,25.3-8.8,27.3c-0.9,1.3-5.2,0.6-6.1-1.1c-0.6-2.6,2.2-12.6,4.2-22.4L61.5,68.6z"/>
			<path class="st32" d="M61.5,68.6l-0.9,0.3c0.1,0.5,0.1,1,0.2,1.5c0.8,10-9.1,22.3-11,26c1.3,0.2,2.5,0.1,3-0.6
				C53.9,93.9,64.1,79.1,61.5,68.6z"/>
			<path class="st31" d="M52.7,71.6l-2.1,0.7c-2,9.8-4.8,19.8-4.2,22.4c0.3,0.5,0.8,0.9,1.5,1.2C47.5,89.4,52,75.4,52.7,71.6z"/>
		</g>
		<g>
			<path class="st33" d="M46.9,94.5c0,0-0.7-0.7-0.4-1.7c0.3-1,8.2-0.8,7.7,0.6S47.4,94.9,46.9,94.5z"/>
			<path class="st27" d="M45.7,97.4c0,0,0.3-2.7,0.8-3.7c0.5-0.9,4-1.3,5.5-0.7c1.5,0.6,7.3-0.8,8.3,2.2
				C58.2,99.1,45.7,97.4,45.7,97.4z"/>
			<path class="st32" d="M59.6,94.1c-0.3-0.2-0.6-0.3-0.9-0.4c-0.8-0.2-1.7-0.2-2.5,0c-1.1,0.3-2.1,1-3.3,1.3
				c-1.2,0.3-2.4,0.2-3.6,0.2c-0.5,0-1.1-0.1-1.5-0.5c-0.4-0.3-0.5-0.8-0.5-1.3c0-0.1,0-0.2,0-0.4c-0.3,0.1-0.6,0.3-0.7,0.5
				c-0.5,0.9-0.8,3.7-0.8,3.7s12.5,1.7,14.6-2.2C60.2,94.8,59.9,94.4,59.6,94.1z"/>
			<path class="st27" d="M45.9,97.8c-0.3-0.6-0.2-1.7,2-2.1c2.2-0.3,2.9,0.4,5.3,0c2.5-0.4,5.3-2.6,6.9-0.9c0.8,0.8-0.1,2.9-2.9,3.6
				C55.2,98.9,46.8,99.9,45.9,97.8z"/>
			<path class="st31" d="M45.9,97.8c-0.3-0.6-0.2-1.7,2-2.1c2.2-0.3,2.9,0.4,5.3,0c2.5-0.4,5.3-2.6,6.9-0.9c0.8,0.8-0.1,2.9-2.9,3.6
				C55.2,98.9,46.8,99.9,45.9,97.8z"/>
		</g>
		<path class="st34" d="M34.9,58.1c0,0,1.3-4.1,9.9-5.5c3.6-0.6,8.4-0.5,8.4-0.5l-3.9-5.5L35.1,54L34.9,58.1z"/>
		<path class="st27" d="M61,18.8c-1.4,9.8-7.3,22.4-8.2,30.1c2,4.7-3.1,1.5-9.9,3c-5,1.1-7.7,5.1-8,3.3c-1.1-6.5,1.7-22.7,4.6-30.5
			C42.6,16.4,57.8,13.5,61,18.8z"/>
		<path class="st32" d="M51.8,49c0.1,1.2-0.3,2-0.7,2.7c1.9,0,2.7-0.3,1.7-2.7c0.6-5.9,4.2-14.6,6.5-22.8
			C59.1,26.6,51.6,45.8,51.8,49z"/>
		<path class="st31" d="M43.8,39.3c-3-4.1-0.8-7.7-0.8-7.7c-1.1-3.7-2.4-5.4-3.8-5.9c-2.7,8.1-5.3,23.2-4.3,29.4
			c0.3,1.7,2.6-1.7,7-3c1.2-1.7,3.4-2.7,5.1-5C49.1,44.3,46.7,43.4,43.8,39.3z"/>
		<path class="st24" d="M48.4,16.5c0,0-0.9,2.3-1.3,3.4c1.3,1.7,5.1,4.7,5.5,4.5c1.5-2.7,2.6-6.2,2.6-6.6c-0.8-0.8-2.5-3.1-2.5-3.1
			L48.4,16.5z"/>
		<path class="st35" d="M52.2,24.4c0.3-0.2,0.6-0.4,0.6-0.4s-1-0.6-1.6-2.2c1.4-0.4,2.3-1.7,2.3-1.7l-3.3-1c-0.4,0-2.1,0.2-2.4,0.4
			c-0.2,0.1-0.4,0.4-0.6,0.7C48.5,21.6,51.2,23.9,52.2,24.4z"/>
		<path class="st27" d="M52.8,24.1c0,0,3-5.1,0-8c2.9-0.3,4.8,5.1,2.5,9.8C53.3,25.1,52.8,24.1,52.8,24.1z"/>
		<path class="st31" d="M52.8,16.1c0.3,0.3,0.6,0.1,0.8,0.5c1.3-0.1,3.4,4,1.9,7.6c-0.4,1-1.4,0.7-2.5-0.2c-0.1,0.1-0.1,0.2-0.1,0.2
			s0.5,1,2.5,1.7C57.6,21.2,55.7,15.7,52.8,16.1z"/>
		<path class="st36" d="M47.6,41.7c0,0,0,0.6,2.4-0.2c2.3-0.9,8.3-4.4,7.4-5C56.4,36,48.2,32.5,47.6,41.7z"/>
		<path class="st24" d="M45.1,34.8c1.3,2.3,2.8,5.3,6.6,8.1c3.8,2.8,13.4,6,14.5,6.7c1.1,0.7,3.6-0.5,3.6-2.4
			c-1.9-1.2-10.5-8.6-13.1-10.2c-2.6-1.6-4.7-6.6-5.7-7.8C50.1,27.9,43.3,31.7,45.1,34.8z"/>
		<path class="st26" d="M66.2,49.1c-13.4-3.9-16.6-9.6-16.6-9.6L48.5,40c0.8,1,1.9,2,3.2,2.9c3.8,2.8,13.4,6,14.5,6.7
			c0.2,0.1,0.5,0.2,0.8,0.2C66.7,49.5,66.4,49.2,66.2,49.1z"/>
		<path class="st26" d="M49.2,40.8c0,0,2.6-2.4,7.8-3.6c-3.1-2.1-4.1-4-4.1-4l-5.6,5.3L49.2,40.8z"/>
		<path class="st27" d="M39.6,29.3c0,0,5.1,8.5,8,12.4c1.1-3.3,8.6-5.1,9.7-5.2c-4.1-6-8.1-11.3-10.3-12.6
			C44.8,22.6,37.4,23.6,39.6,29.3z"/>
		<path class="st32" d="M56.1,36.8c0.6-0.1,1.1-0.2,1.3-0.3c-3.1-4.5-6-8.5-8.3-10.9C49.1,25.7,54.4,34.1,56.1,36.8z"/>
		<path class="st31" d="M40.2,30.2c1.4,2.3,5.2,8.4,7.5,11.5c0.2-0.7,0.8-1.3,1.4-1.9C46.2,39,40.2,30.2,40.2,30.2z"/>
		<path class="st27" d="M48.8,17.5c0,0-3.1,1.5,3.8,6.6c0,1.5-1.1,2.8-1.1,2.8s-5.3-3.4-5.5-6.5c-0.2-3.1,2.8-3.7,2.8-3.7L48.8,17.5
			z"/>
		<path class="st31" d="M51.5,26.8c0,0,1.1-1.3,1.1-2.8c-0.2-0.1-0.3-0.3-0.5-0.4c-0.1,2.7-3.3,1.7-5.1-1.4c-1.9-3.3,0.4-4,0.4-4
			l-0.1-0.8c-0.7,0.5-1.3,1.4-1.3,2.9C46.3,23.4,51.5,26.8,51.5,26.8z"/>
		<path class="st24" d="M52.1,11.1c-0.8-0.5-1.7-0.6-2.6-0.5c-0.9,0.1-1.7,0.6-2.2,1.3c-1.1,1.5-0.6,5.4,1.2,7.2
			c0.6,0.6,1.8,0.9,2.7,0.8c0.9-0.2,1.9-0.8,2.2-1.6C54.5,16.2,53.7,12.2,52.1,11.1z"/>
		<g>
			<path class="st24" d="M54.1,13.4c-0.2-0.2-0.5-0.2-0.8-0.2c-0.3,0-0.5,0.1-0.7,0.4c-0.4,0.5-0.3,1.7,0.2,2.3
				c0.2,0.2,0.5,0.3,0.8,0.3c0.3,0,0.6-0.2,0.7-0.5C54.7,15,54.6,13.7,54.1,13.4z"/>
			<path class="st24" d="M46.4,15.2c0.1-0.3,0.4-0.4,0.7-0.5c0.3-0.1,0.6-0.1,0.8,0.1c0.5,0.3,0.9,1.4,0.7,2.2
				c-0.1,0.3-0.4,0.5-0.6,0.6c-0.3,0.1-0.6,0-0.9-0.1C46.5,16.9,46.1,15.7,46.4,15.2z"/>
		</g>
		<g>
			<path class="st35" d="M54,16.6c-0.2,0.4-0.6,0.6-1,0.5c-0.4-0.2-0.6-0.6-0.5-1c0.2-0.4,0.6-0.6,1-0.5
				C53.9,15.8,54.1,16.2,54,16.6z"/>
		</g>
		<g>
			<path class="st35" d="M49,17.7c-0.2,0.4-0.6,0.6-1,0.5c-0.4-0.2-0.6-0.6-0.5-1c0.2-0.4,0.6-0.6,1-0.5C49,16.9,49.2,17.3,49,17.7z
				"/>
		</g>
		<path class="st24" d="M79.9,7.3c0.3,0.4,0.6,0.7,1,0.8c1.4,0.4,2.5-1,2.9-1.4c0.9-1,1.9-1.9,2.7-3c0.3-0.4,0.1-0.7-0.4-0.3
			c-0.3,0.2-0.7,0.7-1.1,1.1c-0.2,0.1-0.3,0.3-0.4,0.4c0,0-0.1,0.1-0.2,0c-0.1-0.1,0-0.2,0-0.2c0.2-0.3,0.5-0.7,0.8-1.1
			c0.4-0.6,0.8-1.3,0.9-1.5c0.2-0.4,0-0.7-0.5-0.2C85.4,2,85,2.5,84.6,3c-0.4,0.5-0.7,0.8-0.9,1c0,0-0.1,0.1-0.2,0.1
			c-0.1-0.1,0-0.2,0-0.2c0.2-0.3,0.4-0.7,0.6-1.2c0.4-0.8,0.9-1.6,1.1-2c0.2-0.5-0.2-0.7-0.5-0.3c-0.1,0.2-0.8,1.1-1.3,1.9
			c-0.2,0.4-0.4,0.7-0.6,1c0,0,0,0.1,0,0.1c-0.1,0.1-0.2,0.3-0.4,0.2c-0.2-0.1-0.1-0.4-0.1-0.4c0.1-0.3,0.2-0.7,0.4-1.1
			c0.2-0.7,0.6-1.3,0.7-1.6c0.1-0.5-0.2-0.6-0.5-0.1c-0.2,0.3-0.6,0.9-0.8,1.5c-0.2,0.5-0.4,1.1-0.6,1.5c0,0.1-0.1,0.2-0.1,0.2
			c-0.1,0.2,0,0.1-0.1,0.3C81,4,80.9,4,80.9,3.4C80.8,2.4,80.2,2,80,2.2c-0.2,0.2,0,0.5-0.2,1.9c-0.1,0.8-0.3,1.6-0.2,2.4
			C79.6,6.7,79.8,7,79.9,7.3z"/>
		<path class="st24" d="M65.7,48.6c0,0,0.7,1.8,1.8,2.4c1.2,0.7,2.2,1,2.3,1.2c0.1,0.1,0.2,0.2,0.1,0.2c-0.2,0.1-0.8-0.2-0.9-0.1
			c-0.6,0.3,0.5,1.1,1,1.2c0.8,0.2,1.1-0.1,1.1-0.5c0.6,0.4,1.1,0.1,1.3-0.4c0.7,0.3,1.3,0.1,1.4-0.4c0.7,0.2,1.1-0.2,1.1-0.7
			c0-0.3-0.6-2.3-1.1-2.9c-0.5-0.6-5.1-1.8-5.7-1.9C67.5,46.5,65.7,48,65.7,48.6z"/>
		<path class="st26" d="M66.2,49.1C66.1,49,66,49,65.8,49c0.3,0.6,0.9,1.6,1.6,2c1.2,0.7,2.2,1,2.3,1.2c0.1,0.1,0.2,0.2,0.1,0.2
			c-0.2,0.1-0.8-0.2-0.9-0.1c1.5,0.7,1.7,0.2,1.2-0.3C68.5,51.5,67.1,49.6,66.2,49.1z"/>
		<path class="st4" d="M46.5,15c0,0,0.2-0.2,0.5,0.6c0.2,0.8,0.2,1,0.4,1.1c0.2,0.2,0.5,0.1,0.5-0.1c-0.1-0.2-0.3-1.6-0.4-1.8
			c-0.1-0.2-0.4-1.6,0.4-2.4c1-1.1,5.1,0.3,5.4-2.8c0.3-3-2.7-1-4.3-0.2c-1.6,0.8-3,1.3-2.7,2.9C45.2,13.4,46.5,15,46.5,15z"/>
		<path class="st4" d="M53.8,13.3c0,0,0.4-2-0.9-2.4c-0.3-1-1-1.3-1.9-1.3v1.9c0.1,0,0.3,0.1,0.4,0.2c1.3,0.6,1.3,1.9,1.5,2
			c0.2,0.1,0.4,1.6,0.4,1.7c0,0.2,0.4,0.2,0.5-0.1c0.1-0.2,0-0.4-0.1-1.2C53.5,13.2,53.8,13.3,53.8,13.3z"/>
	</g>
	<path class="st4" d="M35,54.9c-0.4-1.7-0.6-3.5-0.6-5.2c0-1.8,0.2-3.5,0.4-5.3c0.3-1.7,0.6-3.5,0.9-5.2c0.3-1.7,0.7-3.4,1-5.2
		c-0.3,1.7-0.6,3.5-0.9,5.2c-0.3,1.7-0.6,3.5-0.8,5.2C34.5,47.9,34.3,51.4,35,54.9z"/>
	<path class="st4" d="M53.2,51.5c0.3-0.4,0.1-0.9-0.1-1.2c-0.2-0.4-0.5-0.8-0.5-1.3c0.1-0.5,0.2-0.9,0.3-1.3c0-0.2,0.1-0.4,0.1-0.7
		l0-0.3c0-0.1-0.2,0.2-0.2,0.1c0,0.1,0.1-0.3,0.2-0.1l0,0.3c0,0.2,0,0.5,0,0.7c0,0.5-0.2,0.9-0.2,1.3c-0.1,0.4,0.2,0.8,0.4,1.2
		C53.4,50.6,53.5,51.2,53.2,51.5z"/>
	<path class="st4" d="M41.4,32.2c1.1,1.3,2.1,2.7,3,4.1c0.9,1.5,1.7,3,2.4,4.5c-0.8-1.5-1.6-3-2.6-4.4C43.4,35,42.4,33.6,41.4,32.2z
		"/>
	<path class="st4" d="M51,27.3c1.1,1.3,2,2.7,3,4.1c0.9,1.4,1.8,2.8,2.6,4.3L51,27.3z"/>
	<path class="st4" d="M49.2,21.1c0.5,0.4,0.9,0.9,1.4,1.3c0.4,0.5,0.9,0.9,1.3,1.4c-0.6-0.3-1-0.8-1.5-1.2
		C49.9,22.1,49.5,21.6,49.2,21.1z"/>
	<path class="st4" d="M53.2,23.8c0.1-0.5,0.2-1,0.3-1.5c0.2-0.5,0.3-1,0.6-1.4c0,0.5-0.2,1-0.3,1.5C53.5,22.9,53.4,23.4,53.2,23.8z"
		/>
	<path class="st4" d="M46.1,18.7c0.3,1.6,1,3.1,2,4.3c0.9,1.3,2.2,2.3,3.6,3c-1.5-0.5-2.8-1.6-3.8-2.8
		C46.9,21.8,46.2,20.3,46.1,18.7z"/>
	<path class="st4" d="M54.2,24.8c0.4,0.1,0.8,0.4,1.1,0.7l-0.1,0c0.5-1.3,0.7-2.7,0.8-4c0-1.4-0.2-2.8-0.7-4.1
		c0.6,1.2,0.9,2.7,0.9,4.1c0,1.4-0.3,2.8-0.9,4.1l0,0.1l-0.1-0.1C54.9,25.2,54.6,25,54.2,24.8z"/>
	<path class="st4" d="M55.6,13.7c1.4-0.8,2.9-1.5,4.3-2.3c1.5-0.7,2.9-1.4,4.5-2.1c-1.4,0.8-2.9,1.5-4.3,2.3
		C58.6,12.3,57.1,13,55.6,13.7z"/>
	<path class="st4" d="M66.7,9.9c0.7,1.5,0.7,3.2,0.6,4.7c-0.2,1.6-0.6,3.2-1.2,4.7c0.3-1.6,0.8-3.1,1-4.7
		C67.2,13.1,67.2,11.5,66.7,9.9z"/>
	<path class="st4" d="M60.3,25.1c0.7-0.8,1.4-1.5,2.1-2.2c0.7-0.7,1.4-1.5,2.1-2.2c-0.6,0.9-1.3,1.6-1.9,2.4
		C61.9,23.8,61.2,24.5,60.3,25.1z"/>
	<path class="st4" d="M68.9,15.9c1.1-1.7,2.7-2.9,4.4-3.8c1.7-0.9,3.6-1.6,5.4-2.2c-1.8,0.8-3.6,1.4-5.3,2.4
		C71.7,13.1,70.1,14.3,68.9,15.9z"/>
	<path class="st4" d="M70.7,6.6c0.4-0.3,1-0.4,1.6-0.5c0.5-0.1,1.1-0.2,1.6-0.2c1.1,0,2.2-0.1,3.3,0.1c-1.1,0-2.2,0-3.3,0.1
		c-0.5,0-1.1,0.1-1.6,0.1C71.7,6.3,71.1,6.3,70.7,6.6z"/>
	<path class="st4" d="M79.4,6c0.1,0.4,0.2,0.8,0.5,1.2c0.2,0.4,0.5,0.6,0.9,0.9C80.3,8,80,7.6,79.7,7.3C79.5,6.9,79.3,6.4,79.4,6z"
		/>
	<path class="st4" d="M78.6,6.7c0.1,0.6,0.1,1.1,0.4,1.6c0.1,0.3,0.2,0.5,0.4,0.7c0.2,0.2,0.4,0.4,0.6,0.5c-0.3,0-0.6-0.2-0.8-0.4
		c-0.2-0.2-0.3-0.5-0.5-0.8C78.5,7.8,78.4,7.3,78.6,6.7z"/>
	<path class="st4" d="M50.1,41.8c1.7,1.5,3.7,2.4,5.8,3.3c2,0.9,4.1,1.8,6.1,2.8c-2.1-0.8-4.1-1.7-6.2-2.6
		C53.8,44.3,51.7,43.4,50.1,41.8z"/>
	<path class="st4" d="M68.5,46.3c1.3,0.8,2.8,1.2,4.3,1.6c0.4,0.1,0.8,0.3,1.1,0.6c0.3,0.3,0.5,0.7,0.6,1c0.3,0.7,0.4,1.5,0.4,2.3
		c-0.1-0.8-0.3-1.5-0.6-2.2c-0.2-0.3-0.3-0.7-0.6-0.9c-0.3-0.3-0.6-0.4-1-0.5C71.3,47.7,69.8,47.3,68.5,46.3z"/>
	<path class="st4" d="M73.2,50.4c0.3,0.2,0.4,0.5,0.6,0.8c0.1,0.3,0.2,0.6,0.2,1c-0.2-0.3-0.3-0.6-0.4-0.9
		C73.4,51,73.2,50.7,73.2,50.4z"/>
	<path class="st4" d="M72,51.2c0.2,0.2,0.3,0.5,0.5,0.7c0.1,0.3,0.2,0.6,0.1,0.9c-0.2-0.3-0.2-0.5-0.4-0.8
		C72.3,51.7,72.1,51.5,72,51.2z"/>
	<path class="st4" d="M71.1,51.9c0.2,0.2,0.2,0.4,0.3,0.5c0,0.2,0.1,0.4,0.1,0.6c-0.2-0.2-0.2-0.4-0.3-0.5
		C71.1,52.3,71.1,52.1,71.1,51.9z"/>
	<path class="st4" d="M48.2,41.2c-0.1,0,0-0.2,0-0.2l0.2-0.2l0.4-0.4c0.3-0.2,0.6-0.5,0.9-0.7c0.6-0.5,1.3-0.9,2-1.3
		c1.4-0.7,2.8-1.4,4.3-1.8c-1.4,0.6-2.9,1.2-4.2,2c-0.7,0.4-1.3,0.8-2,1.2c-0.3,0.2-0.6,0.4-1,0.7l-0.5,0.3
		C48.4,40.9,48.1,41,48.2,41.2z"/>
	<path class="st4" d="M36.3,55.1c2.3-1.5,4.7-2.8,7.3-3.6c1.3-0.4,2.7-0.6,4.1-0.6c1.4,0,2.7,0.3,4.1,0.2c-1.4,0.2-2.7,0-4.1,0
		c-1.4,0-2.7,0.2-4,0.6C41,52.4,38.6,53.8,36.3,55.1z"/>
	<path class="st4" d="M16.9,86.4c1.7-0.4,2.9-1.7,4.1-2.8c1.3-1.1,2.6-2.2,3.9-3.2c2.8-2,5.6-3.8,8.7-5.3c-3,1.7-5.9,3.4-8.6,5.5
		c-1.4,1-2.7,2.1-4,3.2C19.9,84.7,18.6,86,16.9,86.4z"/>
	<path class="st4" d="M35.6,71.1c0.1-2.5-0.1-5-0.5-7.4c-0.3-2.5-0.6-5-0.4-7.5c-0.1,2.5,0.2,5,0.6,7.4
		C35.6,66.1,35.9,68.6,35.6,71.1z"/>
	<path class="st4" d="M38.5,60.3c2.3,1.9,4.4,4,6.5,6c1,1.1,2.1,2.1,3.1,3.2l1.5,1.6c0.2,0.3,0.5,0.6,0.7,0.9
		c0.2,0.3,0.3,0.7,0.1,1.1c0.3-0.8-0.4-1.4-0.8-1.9L48,69.7c-1-1.1-2.1-2.1-3.1-3.2C42.8,64.4,40.7,62.4,38.5,60.3z"/>
	<path class="st4" d="M46.6,91.8c0.4-2.5,0.9-4.9,1.3-7.4c0.5-2.4,1-4.9,1.6-7.3c-0.4,2.5-0.9,4.9-1.3,7.4
		C47.7,86.9,47.2,89.4,46.6,91.8z"/>
	<path class="st4" d="M55.4,91.8c1.1-2.2,2.3-4.4,3.3-6.6c1.1-2.2,2.1-4.5,2.2-7c0,1.2-0.2,2.5-0.6,3.6c-0.4,1.2-0.9,2.3-1.4,3.4
		c-0.6,1.1-1.2,2.2-1.7,3.3C56.6,89.6,56,90.7,55.4,91.8z"/>
	<path class="st4" d="M57.9,59.4c2,2.2,3,5,3.6,7.9c0.5,2.9,0.5,5.8,0.4,8.7c0-2.9,0-5.8-0.6-8.6C60.8,64.5,59.7,61.7,57.9,59.4z"/>
	<path class="st4" d="M27.3,90.8c4.2-2,8.3-4.2,11.9-7.2c3.6-2.9,6.8-6.5,8.7-10.7c-1.8,4.3-5,8-8.6,10.9
		C35.7,86.7,31.6,88.9,27.3,90.8z"/>
	<path class="st4" d="M46.5,93.9c0.5-1,1.6-1.5,2.7-1.7c1.1-0.1,2.2,0.1,3.2,0.5c-1.1-0.2-2.1-0.4-3.2-0.3
		C48.2,92.5,47.1,93,46.5,93.9z"/>
	<path class="st4" d="M45.9,96.9c0.6-0.9,1.7-1.3,2.8-1.3c1.1-0.1,2.1,0.2,3.1,0.3c1,0.2,2.1,0.1,3.1-0.2c1-0.3,2.1-0.7,3.1-0.3
		c-1-0.3-2.1,0.2-3.1,0.5c-1,0.4-2.1,0.5-3.2,0.3c-1-0.2-2.1-0.5-3.1-0.4C47.7,95.8,46.6,96,45.9,96.9z"/>
	<path class="st4" d="M52.7,99c1.4-0.3,2.9-0.3,4.3-0.5c0.7-0.1,1.4-0.2,2-0.7c0.5-0.4,0.8-1.1,0.9-1.8c0,0.7-0.2,1.5-0.8,2
		c-0.6,0.5-1.3,0.6-2,0.8C55.5,98.9,54.1,98.9,52.7,99z"/>
	<path class="st4" d="M18.5,99.3c-0.5-0.7-0.7-1.7-0.8-2.6c0-0.9,0.2-1.8,0.8-2.6c-0.3,0.8-0.6,1.7-0.5,2.6
		C17.9,97.6,18.1,98.4,18.5,99.3z"/>
	<path class="st4" d="M13.9,98.8c-0.3-0.7-0.5-1.5-0.5-2.3c0-0.8,0.2-1.5,0.3-2.3c0.3-1.5,0.3-3.1,0.4-4.6c0.1,1.6,0.1,3.1-0.2,4.7
		c-0.1,0.8-0.4,1.5-0.4,2.3C13.5,97.3,13.7,98.1,13.9,98.8z"/>
</g>
</svg>
