<?xml version="1.0" encoding="utf-8"?>
<!-- Generator: Adobe Illustrator 25.2.1, SVG Export Plug-In . SVG Version: 6.00 Build 0)  -->
<svg version="1.1" id="Layer_1" xmlns="http://www.w3.org/2000/svg" xmlns:xlink="http://www.w3.org/1999/xlink" x="0px" y="0px"
	 viewBox="0 0 100 100" style="enable-background:new 0 0 100 100;" xml:space="preserve">
<style type="text/css">
	.st0{fill:#B2A740;}
	.st1{opacity:0.6;fill:#B2A740;}
	.st2{fill:#FFF203;}
	.st3{opacity:0.5;fill:#FFF203;}
	.st4{fill:#1A1A1A;}
	.st5{fill:#A799E6;}
	.st6{fill:#9E996A;}
	.st7{fill:#CDB3ED;}
	.st8{opacity:0.6;fill:#CDB3ED;}
	.st9{opacity:0.3;fill:#FFF203;}
	.st10{opacity:0.5;fill:#CDB3ED;}
	.st11{opacity:0.4;fill:#9E996A;}
	.st12{opacity:0.4;}
	.st13{opacity:0.5;fill:#B2A740;}
	.st14{fill:#FFF426;}
	.st15{opacity:0.4;fill:#CDB3ED;}
	.st16{opacity:0.7;fill:#CDB3ED;}
	.st17{opacity:0.6;fill:#FFF203;}
	.st18{opacity:0.6;}
	.st19{opacity:0.7;fill:#FFF203;}
	.st20{fill:#8A604F;}
	.st21{opacity:0.4;fill:#8A604F;}
	.st22{fill:#774632;}
	.st23{fill:none;}
	.st24{fill:#E64B00;}
	.st25{opacity:0.3;fill:#E64B00;}
	.st26{opacity:0.6;fill:#E64B00;}
	.st27{fill:#386AC4;}
	.st28{opacity:0.5;}
	.st29{fill:#D1847E;}
	.st30{opacity:0.6;fill:#D1847E;}
	.st31{opacity:0.5;fill:#386AC4;}
	.st32{opacity:0.3;fill:#386AC4;}
	.st33{opacity:0.4;fill:#386AC4;}
	.st34{opacity:0.7;fill:#386AC4;}
	.st35{opacity:0.7;fill:#E64B00;}
	.st36{fill:#253E6B;}
	.st37{fill:#7A43C3;}
	.st38{fill:#CDCAC6;}
	.st39{opacity:0.6;fill:#CDCAC6;}
	.st40{opacity:0.5;fill:#7A43C3;}
	.st41{opacity:0.3;fill:#7A43C3;}
	.st42{fill:#543961;}
	.st43{fill:#E2BA33;}
	.st44{opacity:0.7;fill:#E2BA33;}
	.st45{opacity:0.6;fill:#7A43C3;}
	.st46{opacity:0.5;fill:#E2BA33;}
	.st47{opacity:0.4;fill:#E2BA33;}
	.st48{fill:#E2DA7E;}
	.st49{opacity:0.4;fill:#E2DA7E;}
	.st50{fill:#F2EF94;}
	.st51{opacity:0.4;fill:#FFFFFF;}
	.st52{opacity:0.5;fill:#CDCAC6;}
	.st53{fill:#6C41B1;}
	.st54{fill:#090704;}
	.st55{fill:#D8CFC0;}
	.st56{fill:#2A41E8;}
	.st57{opacity:0.6;fill:#D8CFC0;}
	.st58{fill:#FF822A;}
	.st59{opacity:0.5;fill:#FF822A;}
	.st60{fill:#A58F64;}
	.st61{opacity:0.5;fill:#A58F64;}
	.st62{fill:#561A91;}
	.st63{opacity:0.4;fill:#D8CFC0;}
	.st64{opacity:0.7;fill:#D8CFC0;}
	.st65{opacity:0.3;fill:#FF822A;}
	.st66{opacity:0.7;fill:#FF822A;}
	.st67{opacity:0.3;}
	.st68{fill:#E83C7D;}
	.st69{fill:#BF9726;}
	.st70{opacity:0.4;fill:#E83C7D;}
	.st71{fill:#767676;}
	.st72{opacity:0.5;fill:#E83C7D;}
	.st73{opacity:0.5;fill:#767676;}
	.st74{opacity:0.9;fill:#767676;}
	.st75{opacity:0.3;fill:#E83C7D;}
	.st76{opacity:0.4;fill:#7F3451;}
	.st77{opacity:0.4;fill:#BF9726;}
	.st78{opacity:0.7;fill:#BF9726;}
	.st79{opacity:0.6;fill:#E83C7D;}
	.st80{opacity:0.2;fill:#E83C7D;}
	.st81{fill:#7F3451;}
	.st82{fill:#968B22;}
	.st83{opacity:0.4;fill:#968B22;}
	.st84{fill:#FFEAA6;}
	.st85{fill:#1274C4;}
	.st86{fill:#D1D1D1;}
	.st87{opacity:0.3;fill:#1274C4;}
	.st88{opacity:0.6;fill:#D1D1D1;}
	.st89{opacity:0.5;fill:#1274C4;}
	.st90{fill:#0A3F6B;}
	.st91{fill:#E67E5B;}
	.st92{opacity:0.6;fill:#D46642;}
	.st93{opacity:0.6;fill:#1274C4;}
	.st94{opacity:0.4;fill:#001B6A;}
	.st95{opacity:0.3;fill:#D46642;}
	.st96{fill:#1065AB;}
	.st97{opacity:0.4;fill:#1274C4;}
	.st98{opacity:0.7;fill:#E67E5B;}
	.st99{fill:#C7C4BE;}
	.st100{fill:#EFEBE0;}
	.st101{opacity:0.3;fill:#C7C4BE;}
	.st102{opacity:0.5;fill:#D1D1D1;}
	.st103{opacity:0.9;fill:#D1D1D1;}
	.st104{fill:#0F64A8;}
	.st105{fill:#D1AB3E;}
	.st106{opacity:0.5;fill:#D1AB3E;}
	.st107{opacity:0.8;fill:#D1AB3E;}
	.st108{opacity:0.1;fill:#D1AB3E;}
	.st109{fill:#C16A23;}
	.st110{opacity:0.5;fill:#C16A23;}
	.st111{fill:#6DEC6E;}
	.st112{opacity:0.5;fill:#6DEC6E;}
	.st113{fill:#826315;}
	.st114{opacity:0.3;fill:#EC1C24;}
	.st115{opacity:0.4;fill:#826315;}
	.st116{fill:#C87C3D;}
	.st117{fill:#EE3A40;}
	.st118{fill:none;stroke:#1A1A1A;stroke-width:0.1469;stroke-linejoin:round;stroke-miterlimit:10;}
	.st119{fill:none;stroke:#CA7F42;stroke-width:0.1352;stroke-miterlimit:10;}
	.st120{opacity:0.5;fill:#FFFFFF;}
	.st121{fill:#C57330;}
	.st122{opacity:0.3;fill:#C57330;}
	.st123{opacity:0.5;fill:#8FF08F;}
	.st124{opacity:0.5;fill:#C57330;}
	.st125{fill:#8FF08F;}
	.st126{opacity:0.5;fill:#EE3A40;}
	.st127{opacity:0.3;fill:#EE3A40;}
	.st128{opacity:0.4;fill:#EE3A40;}
	.st129{opacity:0.2;fill:#EE3A40;}
	.st130{opacity:0.4;fill:#C57330;}
	.st131{opacity:0.4;fill:#D1AB3E;}
	.st132{opacity:0.6;fill:#D1AB3E;}
	.st133{opacity:0.9;fill:#D1AB3E;}
	.st134{fill:none;stroke:#1A1A1A;stroke-width:0.1469;stroke-miterlimit:10;}
	.st135{opacity:0.7;}
	.st136{fill:#F05459;}
	.st137{fill:#EADBE1;}
	.st138{fill:#D2B1BE;}
	.st139{fill:none;stroke:#EED3B0;stroke-width:0.1115;stroke-miterlimit:10;}
	.st140{opacity:0.5;fill:#D2B1BE;}
	.st141{fill:#561B32;}
	.st142{fill:#E10A52;}
	.st143{opacity:0.4;fill:#E10A52;}
	.st144{opacity:0.2;fill:#E10A52;}
	.st145{fill:#DEC5CF;}
	.st146{opacity:0.6;fill:#D2B1BE;}
	.st147{opacity:0.3;fill:#D2B1BE;}
	.st148{opacity:0.4;fill:#DEC5CF;}
	.st149{fill:#ECCEA7;}
	.st150{opacity:0.4;fill:#ECCEA7;}
	.st151{opacity:0.9;fill:#ECCEA7;}
	.st152{opacity:0.9;fill:#E1B375;}
	.st153{fill:#E1B375;}
	.st154{opacity:0.5;fill:#ECCEA7;}
	.st155{opacity:0.8;fill:#ECCEA7;}
	.st156{opacity:0.7;fill:#ECCEA7;}
	.st157{opacity:0.6;fill:#E10A52;}
	.st158{opacity:0.7;fill:#E10A52;}
	.st159{fill:#D89C4C;}
	.st160{opacity:0.8;fill:#D89C4C;}
	.st161{fill:#D5FEE3;}
	.st162{opacity:0.4;fill:#EFD7B7;}
	.st163{fill:#EBCCA2;}
	.st164{opacity:0.4;fill:#EBCCA2;}
	.st165{fill:#EDD1AD;}
	.st166{fill:url(#SVGID_1_);}
	.st167{opacity:0.3;fill:#FFFFFF;}
	.st168{fill:url(#SVGID_2_);}
	.st169{fill:#B1778D;}
	.st170{fill:url(#SVGID_3_);}
	.st171{opacity:0.2;}
	.st172{fill:#FFFFFF;}
	.st173{fill:url(#SVGID_4_);}
	.st174{fill:url(#SVGID_5_);}
	.st175{opacity:0.2;fill:url(#SVGID_6_);}
	.st176{opacity:0.4;fill:url(#SVGID_7_);}
	.st177{opacity:0.4;fill:url(#SVGID_8_);}
	.st178{clip-path:url(#SVGID_10_);fill:#764659;}
	.st179{clip-path:url(#SVGID_10_);fill:#78495B;}
	.st180{clip-path:url(#SVGID_10_);fill:#794B5D;}
	.st181{clip-path:url(#SVGID_10_);fill:#7D4F61;}
	.st182{clip-path:url(#SVGID_10_);fill:#7F5263;}
	.st183{clip-path:url(#SVGID_10_);fill:#805465;}
	.st184{clip-path:url(#SVGID_10_);fill:#825667;}
	.st185{clip-path:url(#SVGID_10_);fill:#845969;}
	.st186{clip-path:url(#SVGID_10_);fill:#855B6B;}
	.st187{clip-path:url(#SVGID_10_);fill:#875D6D;}
	.st188{clip-path:url(#SVGID_10_);fill:#895F70;}
	.st189{clip-path:url(#SVGID_10_);fill:#E0004B;}
	.st190{clip-path:url(#SVGID_10_);fill:#E0034D;}
	.st191{clip-path:url(#SVGID_10_);fill:#E10850;}
	.st192{clip-path:url(#SVGID_10_);fill:#E10A52;}
	.st193{clip-path:url(#SVGID_10_);fill:#E20F56;}
	.st194{clip-path:url(#SVGID_10_);fill:#E21258;}
	.st195{clip-path:url(#SVGID_10_);fill:#E3175B;}
	.st196{fill:url(#SVGID_11_);}
	.st197{fill:url(#SVGID_12_);}
	.st198{fill:url(#SVGID_13_);}
	.st199{opacity:0.2;fill:#FFFFFF;}
	.st200{fill:#2F2C1E;}
	.st201{fill:url(#SVGID_14_);}
	.st202{fill:url(#SVGID_15_);}
	.st203{opacity:0.1;fill:#FFFFFF;}
	.st204{fill:url(#SVGID_16_);}
	.st205{fill:url(#SVGID_17_);}
	.st206{opacity:0.2;fill:url(#SVGID_18_);}
	.st207{fill:url(#SVGID_19_);}
	.st208{fill:url(#SVGID_20_);}
	.st209{fill:url(#SVGID_21_);}
	.st210{opacity:0.2;fill:url(#SVGID_22_);}
	.st211{fill:url(#SVGID_23_);}
	.st212{fill:url(#SVGID_24_);}
	.st213{opacity:0.4;fill:url(#SVGID_25_);}
	.st214{opacity:0.4;fill:url(#SVGID_26_);}
	.st215{opacity:0.4;fill:#561B32;}
	.st216{fill:#E52968;}
	.st217{fill:none;stroke:#AC5773;stroke-width:3.185000e-02;stroke-miterlimit:10;}
	.st218{fill:none;stroke:#F7EBDB;stroke-width:3.166700e-02;stroke-miterlimit:10;}
	.st219{fill:#FBB03B;}
</style>
<g>
	<g>
		<path class="st37" d="M87,90.9c0,0,2.5,4.9,2.4,5.4s-1.8,2-1.2,2.8c0.6,0.8,3.9,0.5,5-1c1.2-1.6-0.3-6.3-0.2-7.2
			c0-0.8,0.4-3.6-0.3-4.2c-0.6-0.6-4.7-0.3-5,0C88,88.5,87.1,90.6,87,90.9z"/>
		<path class="st38" d="M89.2,96.7c0,0,0.3,0.4,0.8-0.5c0.5-0.9,0.4-4.7-1-5.1c-1.4-0.4-1.3,2.1,0,4.5
			C89.4,96.3,89.2,96.7,89.2,96.7z"/>
		<path class="st39" d="M89.1,91.1c-1-0.3-1.2,0.9-0.8,2.5c0.1-0.3,0.8-1.2,1.4-0.5c0.7,0.7,0.5,3.4-0.4,3.4c0,0.1,0,0.1,0,0.1
			s0.3,0.4,0.8-0.5C90.6,95.3,90.5,91.5,89.1,91.1z"/>
		<path class="st40" d="M92.8,86.7c-0.6-0.6-4.7-0.3-5,0c0,0.2,0,0.3,0,0.5c1.6-0.3,3.9-0.1,4.2,1.8c0.4,2.2-0.8,1.7,0.5,4.3
			s1.2,5.3-2.1,5.6c-1,0.1-1.8,0-2.3-0.2c0,0.1,0.1,0.2,0.1,0.3c0.6,0.8,3.9,0.5,5-1c1.2-1.6-0.3-6.3-0.2-7.2
			C93.1,90.1,93.4,87.3,92.8,86.7z"/>
		<path class="st37" d="M9.4,92.4c0,0-7.3,1.4-8.4,2.8c-1.3,1.7,3,3.3,6,2.9c3.1-0.4,4.3-0.4,4.4-0.2c0.3,0.3,4.6,0.4,4.9,0
			c0.4-1.5-0.4-5.7-0.4-6.1C13.3,92.8,9.4,92.4,9.4,92.4z"/>
		<path class="st41" d="M1,95.2c-0.2,0.2-0.2,0.4-0.2,0.6c0.3-0.3,0.7-0.5,1-0.7c3.5-1.8,7.5-1.8,8.9-1.8c0.2,0,0.4,0,0.6-0.2
			c0.2-0.2,0.1-0.5-0.1-0.7c-1.1,0-1.8-0.1-1.8-0.1S2.1,93.8,1,95.2z"/>
		<path class="st38" d="M3.7,93.7c0,0-0.7,0.9,2,1c2.7,0.1,6.4-1.5,5.7-2.4C10.7,91.4,8,92.4,3.7,93.7z"/>
		<path class="st39" d="M8.5,92.3c0.3,0.1,0.5,0.4,0.1,1.1c-0.6,1.2-4.1,1.3-4.9,0.4c-0.1,0.2-0.4,0.9,2,1c2.7,0.1,6.4-1.5,5.7-2.4
			C11,91.8,10,91.9,8.5,92.3z"/>
		<path class="st40" d="M11.4,97.9c0.3,0.3,4.6,0.4,4.9,0c0.4-1.5-0.4-5.7-0.4-6.1C15.6,91.9,15.3,92,15,92L13.3,94
			c0,0,2.7,1,1.8,2.8c-0.8,1.8-2.6-0.3-3.9,0c-1.3,0.3-4.6,1.4-8,0.4c-1.2-0.3-2-0.9-2.4-1.5c-0.2,1.5,3.5,2.7,6.2,2.4
			C10.1,97.7,11.3,97.6,11.4,97.9z"/>
		<path class="st42" d="M68.2,39.2c0,0,0.8,0.6-1.3,2.3c-2,1.7-9.4,7.5-8.5,4.8S65.8,38.3,68.2,39.2z"/>
		<path class="st43" d="M65.1,36c0,0,4.5,6.6,6.2,9.8c1.9,3.1,0.2,6.2-6.2,3.6c-6.4-2.5-8-10.5-6.9-12.2
			C59.2,35.6,61.4,31.5,65.1,36z"/>
		<path class="st44" d="M67.9,40.3c-0.9-1.3-1.7-2.6-2.2-3.3L59,40c0,0-0.2,1.1-0.4,2.4c1,2.7,3,5.7,6.5,7.1
			c0.1,0.1,0.3,0.1,0.4,0.2c-0.9-1.8-2-4.6-1.6-6.2C64.5,40.7,67.9,40.3,67.9,40.3z"/>
		<path class="st37" d="M52.2,26.1c0,0,8,2.3,16,13.1c-3.1,0.1-8.3,7.9-11.4,7.3C50.1,46,52.2,26.1,52.2,26.1z"/>
		<path class="st45" d="M66.5,38.6c-0.2-1.1-1.2,0.5-3.3,0c-2.1-0.5-4.5-6.4-4.5-6.4l-2.6,7.1c0.3,1.3,0.2,4.5,0.4,7.1
			c0.1,0,0.2,0,0.3,0c2.5,0.4,6.4-4.5,9.4-6.5C66.4,39.5,66.6,39,66.5,38.6z"/>
		<g>
			<path class="st37" d="M88.1,86.6c-2.8-2-16.7-6.3-25.3-6.9C62.7,72.7,66,62.5,63.2,58c-4-6.5-14-3.5-14.6,1.6
				c-0.8,8-2.9,23.1,3.9,31.9c10.7,3.2,32.1,1.2,34.7,1.3C89.9,92.9,91.2,88.8,88.1,86.6z"/>
			<path class="st41" d="M87.3,92.8c1,0.1,1.8-0.5,2.2-1.4c-26.6-6.3-31.2-2-33.5-3.3c-2.3-1.3-9.3-16.5-3.5-22
				c0.9-0.9-4.3-2.8-4.3-2.8c-0.9,8.4-1.6,20.6,4.3,28.2C63.3,94.7,84.7,92.6,87.3,92.8z"/>
			<path class="st40" d="M61.5,81.5C61.5,81.5,61.5,81.5,61.5,81.5c0.1,0,0.2,0.1,0.3,0.1c0,0,0,0,0.1,0c0.1,0,0.2,0,0.2,0.1
				c0,0,0.1,0,0.1,0c0.1,0,0.2,0,0.3,0.1c0,0,0.1,0,0.1,0c0.1,0,0.2,0,0.3,0.1c0,0,0.1,0,0.1,0c0,0,0.1,0,0.1,0c0,0,0,0,0,0
				c6.5,1.3,21.2,2.2,26.4,6.2c-0.3-0.5-0.7-1.1-1.4-1.5c-2.8-2-16.7-6.3-25.3-6.9c-0.1-3.9,0.9-8.8,1.3-13.1l-1.6,2.7
				c0,0-0.6,7.9-2.6,10.9c-0.1,0.1-0.1,0.2-0.1,0.3l0,0c0,0,0,0,0,0c0,0.3,0.5,0.6,1.3,0.9c0,0,0,0,0,0
				C61.3,81.5,61.4,81.5,61.5,81.5z"/>
		</g>
		<path class="st37" d="M35.6,31c-1.9,2.1-11.7,12.3,11.3,34.9c7.3,2,17.1-0.7,17.4-3.3c0.2-2.5-1.5-28.6-8.5-34.5
			C49.3,22.7,39.8,26.5,35.6,31z"/>
		<path class="st40" d="M57.9,30.8l0.2,0.4c1.9,3.8,4.7,13.1-1.8,22.2c-3.2,4.5-8.3,6.7-12.9,8.9c1.1,1.2,2.2,2.4,3.5,3.6
			c7.3,2,17.1-0.7,17.4-3.3C64.5,60.3,63.2,39.5,57.9,30.8z"/>
		<path class="st45" d="M33,46.1c1.6,4.9,5.3,11,12.8,18.6c7.4-0.3,16.2-2,14.1-9.1C38.9,57.6,33.4,47.3,33,46.1z"/>
		<path class="st40" d="M9.2,92.8c0.1,0.2,3.9,3,7.1,2.2c-0.4-3.6-1.2-4.6-1.2-4.6L9.2,92.8z"/>
		<path class="st37" d="M63.9,55.3c-8.1,0.9-28.1-0.5-36.5,6.8C19,69.4,11.3,88.6,9.8,90.7c-1.5,2.1,3.9,5.1,7.1,3
			c2.5-1.6,9.6-9.2,15.4-18.6c4.3-7,20.9-2.9,28.4-4.1C66.9,69.9,65.9,59.9,63.9,55.3z"/>
		<path class="st40" d="M65.4,62.3c-0.1-2.6-0.7-5.2-1.5-7c-2.4,0.3-5.8,0.3-9.7,0.5l0,0C54.5,55.8,63.9,55.1,65.4,62.3z"/>
		<path class="st41" d="M48.9,56.1c-8,0.5-16.7,1.8-21.5,6C19,69.4,11.3,88.6,9.8,90.7c-0.8,1.2,0.4,2.6,2.3,3.3
			c3.9-5.8,7.3-11.9,10.8-17.9c1.6-2.8,3.1-5.7,5-8.3c3.4-4.8,8.8-7.6,14.2-9.5C44.3,57.5,46.7,57,48.9,56.1z"/>
		<path class="st40" d="M59.8,71.1c-7.5,0.7-22.5-3-26.4-2.2c-4.6,0.9-0.5,2.7-7.6,14.3c-3.9,6.4-8.5,9.6-11.8,11.3
			c1,0,2-0.2,2.8-0.7c2.5-1.6,9.6-9.2,15.4-18.6C36.4,68.3,51.9,71.9,59.8,71.1L59.8,71.1z"/>
		<path class="st42" d="M41.5,52.7c0,0,0.4,0.4,2.6-1.2c2.2-1.6,6.3-7.2,5.5-8.1C48.7,42.6,40.9,47.1,41.5,52.7z"/>
		<g>
			<path class="st43" d="M45.5,41.3c0,0,3.5,3.1,5.5,4.3c5.8-1.4,15.7,0.4,20.6-1.2c1.7,0.4,2.5,3.4,0.8,4.4
				c-1.3,0.8-16.7,6-22.8,5.8c-6.1-0.2-14.3-6.9-15.2-9.7C33.4,42.1,38,35.5,45.5,41.3z"/>
		</g>
		<path class="st46" d="M47.2,54.1c0.8,0.2,1.6,0.3,2.4,0.4c1.1,0,2.5-0.1,4-0.3C52.2,52.3,48.9,53.2,47.2,54.1z"/>
		<path class="st46" d="M66.9,45C66.9,45,66.9,45,66.9,45c-5.1,0.2-11.6-0.5-16,0.6c-1.4-0.9-3.6-2.7-4.8-3.7c-0.4,0-0.7,0-0.7,0
			l-0.9,0.2l1.6,4.1c0,0,2.6-1.6,5.2,0.4c2.9-1.3,12.4-2.1,13.3,0.4c0.6,1.9,0.5,3.2,1.3,3.9c0.7-0.2,1.3-0.4,1.9-0.6
			C67.9,48.5,67.1,45.5,66.9,45z"/>
		<path class="st46" d="M50.2,45.1c-2-1.4-4.7-3.8-4.7-3.8c-7.5-5.7-12.1,0.8-11.1,3.6c0.6,1.7,3.8,4.8,7.6,7
			C43.1,50,48,47.5,50.2,45.1z"/>
		<path class="st37" d="M33.5,35.4c-3.1,3.1-3.5,13.2,8,17.2c-0.7-1.9,6.2-5.9,8.1-9.2C44.1,37.8,36.2,32.7,33.5,35.4z"/>
		<path class="st40" d="M43.4,49.6c2-1.9,5-4.2,6.1-6.2c-3-3.1-6.7-6-9.9-7.5c0.3,0.2,5.3,4.2,5.9,6.8C46,44.5,45.2,47.7,43.4,49.6
			L43.4,49.6z"/>
		<path class="st45" d="M43.4,49.6c-0.4,0.4-0.7,0.6-2.1,0.9c-1.9,0.4-5.5-0.4-7.7-3.4c1.5,2.2,4.1,4.2,7.9,5.5
			C41.2,51.9,42.1,50.9,43.4,49.6z"/>
		<g>
			<path class="st43" d="M35.3,21.9c0,0,2.7,4.6,2.3,6.1c-0.4,1.5-2.5,3.2-2.7,4c-0.2,0.7,7,2.6,10.6,1.1c0.4-2.2,0.4-5,1.1-6.8
				c0.2-0.5-0.1-1-0.5-1.1c-1.4-0.4-3.6-1-5.8-4.5C36.6,17.1,34.6,20.7,35.3,21.9z"/>
			<path class="st47" d="M45.6,33.1c0.5-2.4,0.3-5.5,1.4-7.4c-0.1-0.1-0.3-0.3-0.4-0.5c-1-0.3-2.9-0.6-4.8-2.7l-0.1,0.1
				c0,0,2.5,1.7,2.7,8.5c-0.8,1.9-4.5-0.2-7.3-1.9c-0.8,1.1-2,2.2-2.1,2.7C34.8,32.7,41.9,34.6,45.6,33.1z"/>
			<path class="st44" d="M39.4,23.6c0,0-0.4,1.9-2.1,2.4c-1.4-3.1-1.8-5.1-1.7-4.8C35.6,21.5,39.4,23.6,39.4,23.6z"/>
			<path class="st43" d="M40.6,22.6c-1.4,1.6-4.8,3-6.4,1.5c-1.6-1.4-1.9-7.1-0.5-8.7c1.4-1.6,4.8-1.8,6.5-0.4
				C41.7,16.5,42,21,40.6,22.6z"/>
			<path class="st37" d="M33.7,23.6c0,0,0.5-0.2,0.8-0.1c0.3,0.1,0.9,0.5,0.9,0.8c0,0.4-0.8,0.4-0.8,0.4S34,24.5,33.7,23.6z"/>
			<polygon class="st37" points="34.6,23.7 38.2,19.5 38.7,20.3 35.2,24.3 			"/>
			<circle class="st44" cx="35.5" cy="20.7" r="1.1"/>
			<path class="st4" d="M33,16.9c0,0,0.6,0.9,2.2-0.1c1.6-1,2.3,0,2.8,1.1s-0.7,3-0.3,3.2c0.4,0.2,0.9,0.1,1.1-0.1
				c0.2-0.2,0-2.1,0.8-2.5c0.8-0.5,1.6,1.4,0.8,3c-0.1,1.2,1.8,1.4,1.8,1.4s1.5-4,0.3-6.2c1.3-3.7-3.2-5.5-6.7-3.2
				C32.9,11.3,31.2,15.9,33,16.9z"/>
		</g>
		<g>
			<path class="st48" d="M82.6,41.1c3.9-5.8,15.9-28.5,16.5-34.6c0.3-3-1.6-5.3-3.4-6c-2-0.7-3.8,0.8-4.6,1.7
				c-4,4.7-14.9,27.5-16.9,34.4c0,0,0.1,1.2,0.7,1.8C76.8,40.2,82,42.1,82.6,41.1z"/>
			<path class="st49" d="M95.7,0.5c-0.1,0-0.3-0.1-0.4-0.1c-1,0.2-2,0.4-2.9,0.6c-0.6,0.4-1.1,0.8-1.4,1.2c-0.5,0.6-1.2,1.6-1.9,2.8
				l6.5,2.7c0,0,2.5-1.8,2.4,1.2C98,11.9,86.6,34.3,84,38.7c-1.1,1.8-1.7,1.6-1-0.2c-0.8-1.8-3-4.9-2.1-8.3c0.5-2-0.8-3.3-2.6-3.7
				c-1.9,4.2-3.4,8-4,10.1c0,0,0.1,1.2,0.7,1.8c1.8,1.8,7,3.7,7.7,2.8c3.9-5.8,15.9-28.5,16.5-34.6C99.4,3.6,97.6,1.2,95.7,0.5z"/>
			<path class="st50" d="M79.2,38.4l-1.8-0.8l-7,14.9c-0.1,0-0.3,0.1-0.3,0.3c-0.1,0.2,0,0.5,0.2,0.6l1.2,0.6c0.2,0.1,0.5,0,0.6-0.2
				c0.1-0.1,0.1-0.3,0-0.4L79.2,38.4z"/>
			<path class="st49" d="M78.2,39.3c0,0-4.4,10.3-6.2,14c-0.4,0.8-0.7,0.6-0.7,0.6l0.2,0.1c0.2,0.1,0.5,0,0.6-0.2
				c0.1-0.1,0.1-0.3,0-0.4L78.9,39L78.2,39.3z"/>
			<path class="st49" d="M77.4,37.6l-0.3,0.6c1,2.2-3.2,10.1-4.9,13.6c-0.5,0.9-0.9,1.5-1.2,1.8l0.6,0.3c0.2,0.1,0.5,0,0.6-0.2
				c0.1-0.1,0.1-0.3,0-0.4l7-14.9L77.4,37.6z"/>
			<path class="st50" d="M82,40.1c3.9-5.8,15.5-28.5,16.4-34.6c0.3-2.3-0.7-4.2-2.6-5c-1.9-0.9-4.6-0.5-5.3,0.4
				c-4,4.7-15.2,29.4-16.2,35.6C74.1,37.6,81.3,41.1,82,40.1z"/>
			<path class="st49" d="M95.7,0.5c-1.9-0.9-4.6-0.5-5.3,0.4c0,0-0.1,0.1-0.1,0.2c2,0,4,0.9,5.6,2.4c3.8,3.4-9.7,31.1-15,33.5
				c-3.7,1.7-5.6-0.6-6.3-2c-0.2,0.6-0.3,1.1-0.3,1.5c-0.2,1.2,7.1,4.6,7.7,3.6c3.9-5.8,15.5-28.5,16.4-34.6
				C98.6,3.2,97.6,1.4,95.7,0.5z"/>
			<path class="st49" d="M90.4,0.9c-4,4.7-15.2,29.4-16.2,35.6c-0.1,0.5,1.4,1.6,3.1,2.4c0,0,9.2-25.1,18.3-38.4
				C93.8-0.4,91.2,0,90.4,0.9z"/>
		</g>
		<path class="st43" d="M70.7,53.1c0,0-3.4-1.3-3.7-3.3c-0.3-2.1,2.4-5.9,5.1-3.6C74.8,48.4,73.3,52.5,70.7,53.1z"/>
		<g>
			<path class="st38" d="M73.8,53.8c-1.1-0.3-2-0.6-3.1-1.4c-0.9-0.6-1.8,1.1,0.1,2.2C73.9,56.4,74.9,54.1,73.8,53.8z"/>
			<path class="st39" d="M73.8,53.8c-1.1-0.3-2-0.6-3.1-1.4c-0.4-0.3-0.8-0.1-0.9,0.3c0.3-0.1,0.6,0.2,2.2,1.1
				c0.9,0.5,1.7,0.6,2.3,0.6C74.3,54.1,74.1,53.9,73.8,53.8z"/>
			<path class="st38" d="M74.8,52.3c-1.2-0.4-2.2-0.6-3.5-1.5c-1-0.7-2,1.3,0.1,2.5C74.8,55.3,76,52.7,74.8,52.3z"/>
			<path class="st39" d="M74.8,52.3c-1.2-0.4-2.2-0.6-3.5-1.5c-0.3-0.2-0.6-0.2-0.9,0c0.3,0.1,1.1,0.9,2.7,1.5
				c1.6,0.6,1.9,0.8,2,1.1C75.3,52.9,75.2,52.4,74.8,52.3z"/>
			<path class="st38" d="M75.7,50.6c-1.3-0.4-2.4-0.7-3.8-1.7c-1.1-0.8-2.2,1.4,0.1,2.7C75.8,53.8,77,51,75.7,50.6z"/>
			<path class="st39" d="M71.2,48.8c0.9,1.4,2.7,2.3,5.1,2.3c0-0.2-0.2-0.4-0.5-0.5c-1.3-0.4-2.4-0.7-3.8-1.7
				C71.6,48.7,71.4,48.7,71.2,48.8z"/>
			<path class="st38" d="M76.5,48.9c-1.3-0.4-2.4-0.7-3.8-1.7c-1.1-0.8-2.2,1.4,0.1,2.7C76.5,52.2,77.8,49.3,76.5,48.9z"/>
		</g>
		<g>
			<path class="st38" d="M78.3,44.3c1.4-1.9-3-3.2-4.8-2.7c-1.8,0.5-2.4,1.1-4,3c0,0-1.4-0.8-2.8,0.3c-1.4,1.6-0.9,6.1,0.2,6.3
				c1,0.1,2.1-0.6,2.3-0.8c1,0.1,2.2,0.4,4.3-1.9c2,1.2,4.3,1.1,3.8-0.1c1.1-0.1,1.4-1.3,0.6-2C78.8,46.5,79.3,45.4,78.3,44.3z"/>
			<path class="st51" d="M78.5,43.3c-0.5-1.3-3.6-2.1-5-1.6c-1.8,0.5-2.4,1.1-4,3c0,0-1.4-0.8-2.8,0.3c-0.1,0.1-0.2,0.3-0.3,0.4
				c0.4-0.2,0.8-0.3,1.2-0.4c0.5,0,1.1,0.1,1.4,0.6c0.1,0.1,0.1,0.3,0.2,0.3c0.2,0.1,0.4-0.1,0.5-0.3c0.7-1.4,1.9-2.7,3.3-3.5
				C74.9,41.1,77.3,42,78.5,43.3z"/>
			<path class="st39" d="M74.7,43.1c0,0,3.9,1.7,4,1.9c-0.1-0.2-0.2-0.4-0.4-0.6c0,0,0.1-0.1,0.1-0.1L74.7,43.1z"/>
			<path class="st39" d="M78.3,46.9c-0.1-0.2-0.2-0.3-0.3-0.4c0.1,0,0.3,0,0.4-0.1c-1.5-0.4-3.6-1.5-3.6-1.5L78.3,46.9z"/>
			<path class="st39" d="M77.3,48.5c0.4,0,0.7-0.2,0.9-0.5c-0.9,0.1-2.3-0.6-4.3-1.6C74.8,47,77.3,48.5,77.3,48.5z"/>
			<path class="st39" d="M73.5,48.5c1.4,0.8,2.9,1.1,3.6,0.7c-1.9,0.7-3.4-1.3-3.8-1.2c-0.3,0.1-4,2.1-4.1-2.1
				c-0.1,2.8-0.8,4.9-2.3,4.4c-1.5-0.5-0.4-5.1-0.4-5.2c-1.1,1.8-0.6,5.9,0.4,6c1,0.1,2.1-0.6,2.3-0.8
				C70.2,50.5,71.5,50.8,73.5,48.5z"/>
		</g>
		<g>
			<path class="st38" d="M69.3,89.4c0,0,2-5.3,0.1-8.7c-0.9-0.9-2.2-0.5-2.2-0.5s1.9,3.6,0,9.6C68.2,91.9,69.3,89.4,69.3,89.4z"/>
			<path class="st52" d="M67.1,80.2c0,0,1.9,3.6,0,9.6c1.1,2,2.2-0.4,2.2-0.4s0.2-0.5,0.4-1.4c0,0-0.7,1.3-1.4,0.4
				c-0.7-0.9,0.3-3.7-0.3-6.1c-0.6-2.4,1.3-1.9,2,0.3c-0.1-0.7-0.4-1.4-0.7-2C68.4,79.8,67.1,80.2,67.1,80.2z"/>
		</g>
		<g>
			<path class="st38" d="M85.4,92.7c0,0,1.8-4.7,0.1-7.6c-0.8-0.8-1.9-0.8-1.9-0.8s1.6,3.5-0.1,8.8C84.4,94.9,85.4,92.7,85.4,92.7z"
				/>
			<path class="st52" d="M83.5,93.2c0.9,1.7,1.9-0.4,1.9-0.4s0.3-0.8,0.6-2c0,0-0.8,0.8-1.3,0.2c-0.6-0.6,0.2-4.5,0-5.4
				c-0.1-0.5,0.5-0.4,1,0c-0.1-0.1-0.1-0.3-0.2-0.4c-0.8-0.8-1.9-0.8-1.9-0.8S85.2,87.8,83.5,93.2z"/>
		</g>
		<g>
			<path class="st38" d="M89.1,91.4c0,0-22.3-2.5-27.5-2.4c-5.5,0.1-9.4,1-9.6,1.8c-0.2,0.8,3.9,3.4,9.3,4.2
				c4.6,0.7,26.1-1.8,27.6-1.8C89.8,93,89.1,91.4,89.1,91.4z"/>
			<g class="st18">
				<path class="st38" d="M86,91.6c1.7,0,2.8,0.1,2.8,0.1S87.7,91.7,86,91.6z"/>
				<path class="st38" d="M88.3,92.7c0.2,0,0.3,0,0.3,0S88.4,92.7,88.3,92.7z"/>
				<path class="st38" d="M65.1,89.1l-0.7,6.1c4-0.1,10.3-0.6,15.6-1.1l0,0c0,0-13.4,1.1-13.3,0.2c0.1-0.9,19.1-1.5,21.6-1.6
					c-2.4,0.1-21.1,0.6-21.5-0.4C66.4,91.4,80,91.5,86,91.6c-5.7-0.1-18-0.5-18.1-1.1c-0.2-0.8,21.2,0.9,21.2,0.9
					S73.2,89.6,65.1,89.1z"/>
				<path class="st52" d="M62.1,91.6c1.4,1.6-0.4,2.2-0.4,2.2s1.3,0.5,0.8,1.4c1.1,0,2.5,0,4.2-0.1c-0.3-0.3-1.1-1.2,0.4-1.7
					c-1.3-1.6-1-2.4,0.3-2.4c-0.9-0.5-0.3-1.3,0.3-1.8C65.9,89.1,64.3,89,63,89C63,89,64,90.9,62.1,91.6z"/>
			</g>
			<path class="st39" d="M52,90.8c0,0.1,0.1,0.3,0.2,0.5c0.1-0.3,1.1-1.9,8.3-1.5c3,0,2,2.2-4.7,1.6c9,1,7.2,2.9,1.5,1.8
				c2.4,0.7,6.3,1.3,4.5,1.9c0.6,0.1,1.4,0.1,2.4,0.1c0.1-0.2,0.2-0.5,0.2-0.8c0.2-1.1,0.4-3.4,0.5-5.3C63.6,89,62.4,89,61.6,89
				C56.1,89,52.2,90,52,90.8z"/>
			<path class="st38" d="M65,95.2c0.8-1.7,1.6-6.2,0.4-6.5c-2.1-0.7-2.3,4.9-2.8,6.5C62.5,96.2,64.3,96.8,65,95.2z"/>
			<path class="st39" d="M62.7,95.2c0,0.1,0,0.3,0,0.4c-0.1-0.3,1.3-6.9,2.2-6.6c0.9,0.2,1.2,2.3,0.2,5.2c-0.6,1.7-1.3,2.1-1.7,2.1
				c0.5,0.1,1.2-0.1,1.6-0.9c0.8-1.7,1.6-6.2,0.4-6.5C63.4,88,63.1,93.6,62.7,95.2z"/>
		</g>
		<path class="st37" d="M37.1,28.6c0,0-2.9,3.6-3.3,4.8c2.1,1.8,9.3,2.3,11.8-0.2C42.9,32.1,37.1,28.6,37.1,28.6z"/>
		<path class="st40" d="M36.9,29.8c0,0,1.7,3.9,3.7,5.9c1.3-2,1.3-3.3,5-2.5c-3.9-1.7-8.4-5-8.4-5L36.9,29.8z"/>
		<path class="st37" d="M37.3,26c0,0-1.1,0.4-0.8,2.5c0.3,2,2.1,4.4,3.9,6.2c1.1-1.7,1.5-2.2,2.1-2.2c0.7,0,3,0.6,3,0.6
			S39.3,30.1,37.3,26z"/>
		<path class="st40" d="M37.3,26c0,0-0.1,0-0.1,0.1c0.1,0.7,1.2,4.8,5.4,6.5c0.7,0,3,0.6,3,0.6S39.3,30.1,37.3,26z"/>
		<path class="st45" d="M42.5,32.6c-1.2,0-2.7,1.2-4.5-1.6c-2.4-3.8-0.8-5-0.8-5s-1.1,0.4-0.8,2.5c0.3,2,2.1,4.4,3.9,6.2
			C41.4,33.1,41.9,32.6,42.5,32.6z"/>
		<path class="st40" d="M45.6,33.1c0,0,1-2.7,2-3.1c0.9-0.3,3.3-0.3,3.3-0.3s-1.1-1.7-3.8-4.2C44.7,26.7,45.6,33.1,45.6,33.1z"/>
		<path class="st37" d="M42.4,23.2c0,0,2,1.4,3.1,9.9c0.8-1.7,0.6-3.6,1.5-3.7c0.9-0.1,3-0.1,3-0.1S45.2,22,42.4,23.2z"/>
		<path class="st40" d="M45.6,33.1c0.2-0.5,0.4-1,0.5-1.5c-0.5-7.1-3.6-8.4-3.6-8.4S44.5,24.6,45.6,33.1z"/>
		<path class="st45" d="M50.1,29.3c0,0-4.7-7.2-7.5-6.1c0.2,0,2.9-0.2,4.6,4.5c0.3,1.1-0.6,0.4-0.8,2.9c0,0,0,0,0,0.1
			c0.2-0.7,0.3-1.2,0.8-1.2C48,29.3,50.1,29.3,50.1,29.3z"/>
		<g>
			<path class="st38" d="M12.1,88.9c0,0,3.7,3.4,7,2.8c1-0.5,1.4-1.4,1.4-1.4s-3.8,0.2-8.2-3.4C10.4,87.2,12.1,88.9,12.1,88.9z"/>
			<path class="st52" d="M12.4,87c-2,0.2-0.3,2-0.3,2s0.7,0.6,1.7,1.3c0,0-0.4-1,0.3-1.3c0.7-0.3,4.1,1.8,5,1.9
				c0.5,0.1,0.2,0.6-0.4,1c0.1,0,0.3,0,0.4-0.1c1-0.5,1.4-1.4,1.4-1.4S16.7,90.5,12.4,87z"/>
		</g>
		<g>
			<path class="st38" d="M22,76.1c0,0,4,3.7,7.7,3.1c1.1-0.5,1.3-1.9,1.3-1.9s-3.9,0.5-8.7-3.4C20.2,74.2,22,76.1,22,76.1z"/>
			<path class="st52" d="M31,77.3c0,0-3.9,0.5-8.7-3.4c-2.1,0.3-0.3,2.1-0.3,2.1s0.4,0.4,1.1,0.8c0,0-0.9-1.1,0.1-1.4
				c1-0.3,3.1,1.5,5.5,1.9c2.3,0.3,1.2,1.8-0.9,1.7c0.7,0.1,1.3,0.2,2,0C30.7,78.6,31,77.3,31,77.3z"/>
		</g>
		<g>
			<path class="st38" d="M10.4,93.2c0,0,12.7-18.6,15.1-23.1c2.5-4.9,3.5-8.8,2.9-9.3c-0.6-0.5-4.8,1.8-8.1,6.2
				C17.4,70.7,9.5,90.8,8.8,92.1C8.7,93,10.4,93.2,10.4,93.2z"/>
			<g class="st18">
				<path class="st38" d="M11.6,90.3c-0.8,1.5-1.4,2.5-1.4,2.5S10.8,91.8,11.6,90.3z"/>
				<path class="st38" d="M9.6,91.8c-0.1,0.1-0.1,0.2-0.1,0.2S9.5,92,9.6,91.8z"/>
				<path class="st38" d="M23.7,73.1l-5.1-3.4c-1.8,3.6-4.3,9.4-6.4,14.3l0,0c0,0,5.3-12.3,6.1-11.8c0.7,0.5-7.7,17.6-8.7,19.8
					c1.1-2.2,9.4-18.9,10.5-18.7c1,0.1-5.5,12-8.5,17.3c2.8-4.9,8.9-15.6,9.5-15.5c0.9,0.2-10.8,18.3-10.8,18.3S19.5,80,23.7,73.1z"
					/>
				<path class="st52" d="M22.9,69.3c-2.1,0.4-1.7-1.3-1.7-1.3s-1,0.9-1.6,0.1c-0.6,0.9-1.2,2.2-1.9,3.7c0.5-0.1,1.6-0.4,1.3,1.2
					c2-0.4,2.5,0.2,2,1.3c0.9-0.5,1.3,0.3,1.5,1.1c1-1.6,1.8-2.9,2.5-4C24.8,71.3,22.7,71.3,22.9,69.3z"/>
			</g>
			<path class="st39" d="M28.4,60.7c-0.1-0.1-0.3-0.1-0.6,0c0.2,0.3,1.2,1.8-2.6,8.1c-1.4,2.6-2.9,0.7,0.8-4.9
				c-5.1,7.4-5.9,5-2.3,0.5c-1.8,1.8-4.1,5-3.8,3.1c-0.3,0.5-0.7,1.2-1.2,2.1c0.1,0.2,0.3,0.4,0.6,0.6c0.9,0.7,2.8,2,4.4,3
				c0.8-1.3,1.4-2.3,1.8-3C28,65.2,29,61.3,28.4,60.7z"/>
			<path class="st38" d="M18.3,70.1c1.1,1.5,4.7,4.3,5.6,3.5c1.6-1.5-3.2-4.4-4.4-5.5C18.7,67.4,17.3,68.7,18.3,70.1z"/>
			<path class="st39" d="M19.4,68.1c-0.1-0.1-0.2-0.2-0.3-0.2c0.3,0,5.4,4.4,4.8,5c-0.6,0.7-2.7,0-4.7-2.3c-1.2-1.4-1.2-2.1-1-2.5
				c-0.4,0.4-0.5,1.1,0,1.9c1.1,1.5,4.7,4.3,5.6,3.5C25.5,72.1,20.6,69.2,19.4,68.1z"/>
		</g>
		<path class="st37" d="M35.8,15.6c0,0.1,1.6,1.5,1.9,2.5c0.3,1-1,2.8-0.5,3.1c0.5,0.3,1.9,0.2,2.1,0c0.2-0.2,0.6-3.9,2.1-3.9
			L35.8,15.6z"/>
		<path class="st40" d="M36.1,15.9c0.3,0.3,0.9,0.9,1.3,1.5c0.2-0.3,0.7-0.5,1.6-0.2c1.8,0.6,0.1,3.9-0.7,4.2c0.5,0,1.1-0.1,1.1-0.2
			c0.2-0.2,0.6-3.9,2.1-3.9l-5.2-1.5C36.2,15.8,36.1,15.8,36.1,15.9z"/>
		<path class="st37" d="M31.6,16.5c0,0,5.4-0.5,11.6,1.2c0.1-6.1-5.1-7.4-7.9-6.4c-2,0.7-3.4,2.5-3.4,4.6
			C31.4,15.9,31.6,16.5,31.6,16.5z"/>
		<path class="st40" d="M34,16.4c2.2,0,5.6,0.3,9.2,1.3c0-3.4-1.5-5.3-3.4-6.2c1.2,1,2.1,2.4,1.4,4.1C40.3,16.8,38.2,15.8,34,16.4
			C34,16.4,34,16.4,34,16.4z"/>
		<path class="st45" d="M36,11.1c-0.2,0-0.5,0.1-0.7,0.2c-2,0.7-3.4,2.5-3.4,4.6c-0.5,0-0.3,0.6-0.3,0.6s0.8-0.1,2-0.1
			C33.2,15.4,32.7,12.8,36,11.1z"/>
		<g>
			<path class="st54" d="M34.2,25.9c-0.3,0-1.6-1.4-1.8-1.7c-0.4-0.9-0.4-2.9-0.4-3v-0.1l0.1,0c1.5-0.2,4-0.6,4.2-0.4
				c0.1,0.1,0.1,0.3,0.1,1c0,0.5,0.1,1.2,0.2,1.4c0.1,0.1,0.4,0.4,0.7,0.7c0.5,0.5,0.7,0.7,0.7,0.8l0,0l0,0
				C37.8,24.8,34.4,25.9,34.2,25.9z M32.2,21.2c0,0.3,0,2.1,0.4,2.9c0.1,0.3,1.4,1.6,1.7,1.6c0.3,0,3.2-1,3.6-1.2
				c-0.1-0.1-0.4-0.5-0.7-0.7c-0.3-0.3-0.6-0.6-0.7-0.7c-0.1-0.2-0.2-0.7-0.2-1.4c0-0.4,0-0.8-0.1-0.9c0,0,0,0-0.1,0
				C35.6,20.8,33.5,21,32.2,21.2z"/>
		</g>
		<g>
			<polygon class="st54" points="33.1,24.9 33,24.8 36.7,23.3 38.8,20.5 37.9,20.5 36.4,22.2 36.3,22.2 32.2,22.8 32.2,22.7 
				36.3,22.1 37.8,20.4 39.1,20.4 39,20.5 36.8,23.4 36.8,23.4 			"/>
		</g>
		<path class="st54" d="M39.1,20.4c0,0.4-0.3,0.7-0.7,0.7c-0.4,0-0.7-0.3-0.7-0.7c0-0.4,0.3-0.7,0.7-0.7
			C38.7,19.7,39.1,20,39.1,20.4z"/>
	</g>
	<g>
		<g>
			<path class="st4" d="M10.5,92.9c2.8-4.4,5.8-8.7,8.6-13.1c2.9-4.3,5.8-8.8,7.6-13.7c-0.8,2.5-1.9,4.9-3.2,7.2
				c-1.3,2.3-2.7,4.5-4.1,6.7C16.4,84.3,13.5,88.6,10.5,92.9z"/>
			<path class="st4" d="M16.4,94.2c3.2-2.6,5.9-5.8,8.4-9.1c2.5-3.2,4.9-6.7,7.6-9.7c-2.6,3.2-5,6.6-7.5,9.9
				C22.4,88.5,19.8,91.7,16.4,94.2z"/>
			<path class="st4" d="M74.3,36.8c1.4-6.4,3.8-12.6,6.7-18.6c2.9-5.9,6.2-11.6,9.5-17.3c-3.1,5.8-6.4,11.5-9.3,17.4
				C78.2,24.3,75.9,30.5,74.3,36.8z"/>
			<path class="st4" d="M82,41.1c2.2-4.6,4.6-9.1,6.8-13.7c2.4-4.5,4.6-9.1,7.1-13.6c-2.2,4.6-4.6,9.1-6.8,13.7
				C86.7,32,84.5,36.5,82,41.1z"/>
			<path class="st4" d="M83,40.5c3.1-5.1,6-10.4,8.6-15.8c2.7-5.3,5.1-10.8,7.2-16.5c-1.8,5.7-4.3,11.2-7,16.6
				C89.1,30.2,86.3,35.5,83,40.5z"/>
			<path class="st4" d="M33.3,47.1c1.1,1.2,2.3,2.3,3.6,3.2c1.3,0.9,2.8,1.6,4.2,2.3c-1.5-0.5-3-1.3-4.4-2.2
				C35.5,49.6,34.3,48.5,33.3,47.1z"/>
			<path class="st4" d="M42.5,37.5c1.3,0.9,2.6,1.8,3.9,2.7c1.2,1,2.5,1.9,3.7,2.9c-1.3-0.9-2.6-1.8-3.9-2.7
				C45,39.5,43.7,38.5,42.5,37.5z"/>
			<path class="st4" d="M18.4,70.1c0.7,0.6,1.4,1.3,2.2,1.8c0.8,0.6,1.6,1,2.5,1.5c-0.9-0.3-1.8-0.8-2.6-1.3
				C19.7,71.5,19,70.9,18.4,70.1z"/>
			<path class="st4" d="M19.9,68.7c0.8,0.4,1.5,0.9,2.2,1.4c0.7,0.5,1.4,1,2.1,1.6c-0.8-0.4-1.5-0.9-2.2-1.4
				C21.3,69.8,20.5,69.3,19.9,68.7z"/>
			<path class="st4" d="M23,69c0.4-0.9,1-1.8,1.4-2.6c0.5-0.8,1-1.7,1.6-2.5c-0.4,0.9-1,1.8-1.4,2.6C24,67.4,23.6,68.2,23,69z"/>
			<path class="st4" d="M21.4,68.1c0.3-0.7,0.6-1.3,1-2c0.4-0.6,0.8-1.3,1.4-1.8C22.9,65.6,22.2,66.9,21.4,68.1z"/>
			<path class="st4" d="M10.5,90.6c1.4-3.2,2.8-6.4,4.2-9.7c1.5-3.2,2.9-6.4,4.4-9.6c-1.4,3.2-2.8,6.4-4.2,9.7
				C13.5,84.2,12.1,87.5,10.5,90.6z"/>
			<path class="st4" d="M10.1,92.4c1.7-3.3,3.5-6.6,5.2-9.9c1.8-3.2,3.5-6.5,5.4-9.7c-1.7,3.3-3.5,6.6-5.2,9.9
				C13.7,85.9,12,89.1,10.1,92.4z"/>
			<path class="st4" d="M47.4,71.5c1.4-0.2,2.8-0.3,4.2-0.4c1.4,0,2.8,0,4.2,0.2c-1.4,0-2.8,0-4.2,0C50.2,71.4,48.8,71.5,47.4,71.5z
				"/>
			<path class="st4" d="M49.2,82.2c0.2,0.9,0.4,1.8,0.8,2.7c0.2,0.9,0.6,1.7,0.9,2.6c-0.5-0.8-0.8-1.7-1.2-2.5
				C49.5,84.1,49.3,83.2,49.2,82.2z"/>
			<path class="st4" d="M52.4,91.5c1.4,0.8,2.8,1.6,4.3,2.3c1.5,0.7,3,1.3,4.5,1.8c-1.6-0.3-3.1-0.9-4.6-1.6
				C55.1,93.3,53.7,92.5,52.4,91.5z"/>
			<path class="st4" d="M63.3,90.6c-0.1,0.9-0.3,1.8-0.5,2.7c-0.2,0.9-0.4,1.7-0.7,2.6c0.1-0.9,0.3-1.8,0.5-2.7
				C62.8,92.3,63,91.5,63.3,90.6z"/>
			<path class="st4" d="M65.1,94.5c0-0.3,0.1-0.6,0.2-0.9c0.1-0.3,0.2-0.6,0.4-0.8c0,0.3-0.1,0.6-0.2,0.9
				C65.4,93.9,65.3,94.2,65.1,94.5z"/>
			<path class="st4" d="M65.1,95.9c2.7-1.4,5.8-1.4,8.7-1.4c2.9,0,5.9,0,8.7-1c-2.7,1.2-5.8,1.2-8.7,1.2
				C70.9,94.7,67.9,94.7,65.1,95.9z"/>
			<path class="st4" d="M87.8,93.3c0.3,0.3,0.4,0.7,0.6,1.1c0.1,0.4,0.2,0.8,0.2,1.2c-0.2-0.4-0.2-0.8-0.4-1.1
				C88.1,94.1,87.9,93.7,87.8,93.3z"/>
			<path class="st4" d="M89,97.7c-0.4,0-0.7,0.4-0.9,0.7c-0.1,0.4,0,0.8,0.3,1c0.2,0.3,0.6,0.4,1,0.4c0.4,0,0.8-0.2,1.1-0.5
				c-0.2,0.3-0.6,0.6-1.1,0.6c-0.4,0.1-0.9-0.1-1.2-0.4c-0.3-0.3-0.4-0.8-0.2-1.2C88.2,97.9,88.6,97.6,89,97.7z"/>
			<path class="st4" d="M92.4,90.6c0.6,1,1,2.2,1.3,3.3c0.2,1.2,0.4,2.3,0.3,3.5c-0.1-1.2-0.3-2.3-0.6-3.5
				C93.3,92.8,92.9,91.7,92.4,90.6z"/>
			<path class="st4" d="M65,81c2.7,0.1,5.3,0.4,7.9,0.8c2.6,0.4,5.2,0.8,7.8,1.5c-2.6-0.4-5.2-0.9-7.9-1.2
				C70.3,81.6,67.6,81.3,65,81z"/>
			<path class="st4" d="M60,70.9c1.5-0.2,2.8-0.9,3.7-2C63.1,70.2,61.5,71.1,60,70.9z"/>
			<path class="st4" d="M50.5,55.5c1-0.2,1.9-0.2,2.9-0.3c1,0,1.9-0.1,2.9-0.1c-1,0.2-1.9,0.2-2.9,0.3
				C52.5,55.4,51.5,55.5,50.5,55.5z"/>
			<path class="st4" d="M53.6,45.1c1.5-0.2,2.9-0.3,4.4-0.4c1.5-0.1,2.9-0.2,4.4-0.2c-1.5,0.2-2.9,0.3-4.4,0.4
				C56.6,44.9,55.1,45.1,53.6,45.1z"/>
			<path class="st4" d="M58.9,29.7c1.4,1.2,2.8,2.4,4.2,3.6c1.4,1.3,2.8,2.5,4.1,3.8c-1.4-1.2-2.8-2.4-4.2-3.6
				C61.6,32.3,60.2,31.1,58.9,29.7z"/>
			<path class="st4" d="M59,33.5c0.7,1.2,1.2,2.5,1.7,3.8c0.4,1.3,0.9,2.6,1.2,3.9c-0.5-1.3-0.9-2.6-1.4-3.9
				C60,36.1,59.4,34.8,59,33.5z"/>
			<path class="st4" d="M67.9,40.3c0.5,0.5,0.8,1.2,1.1,1.8c0.3,0.7,0.5,1.3,0.6,2c-0.3-0.7-0.5-1.3-0.9-1.9
				C68.5,41.6,68.2,41,67.9,40.3z"/>
			<path class="st4" d="M69.1,50.2c0.8,0,1.6-0.2,2.4-0.5c0.7-0.3,1.5-0.7,1.9-1.4l0-0.1l0.1,0c0.7,0.4,1.4,0.9,2.2,0.9
				c-0.8,0.1-1.6-0.4-2.3-0.8l0.1,0c-0.4,0.8-1.2,1.2-2,1.5C70.8,50.1,69.9,50.3,69.1,50.2z"/>
			<path class="st4" d="M74.7,47.2c0.5,0.1,1,0.3,1.4,0.4c0.5,0.2,0.9,0.4,1.4,0.6c-0.5-0.1-1-0.3-1.4-0.4
				C75.6,47.6,75.1,47.4,74.7,47.2z"/>
			<path class="st4" d="M75.1,45.3c0.6,0.1,1.2,0.4,1.7,0.7c0.5,0.3,1.1,0.6,1.5,1.1c-0.6-0.3-1.1-0.6-1.6-0.9
				C76.2,45.9,75.6,45.7,75.1,45.3z"/>
			<path class="st4" d="M75.3,43.8c0.5,0,0.9,0.2,1.4,0.3c0.4,0.2,0.9,0.3,1.3,0.5c-0.5,0-0.9-0.2-1.4-0.3
				C76.1,44.2,75.7,44.1,75.3,43.8z"/>
			<path class="st4" d="M69.6,44.5c0.6-0.6,1.1-1.2,1.7-1.7c0.6-0.5,1.3-1,2.1-1.2c0.8-0.1,1.6-0.1,2.4,0.1c0.8,0.1,1.5,0.6,2.2,1.1
				c-0.7-0.3-1.4-0.8-2.2-0.9c-0.8-0.2-1.6-0.2-2.4-0.1c-0.8,0.1-1.5,0.5-2.1,1C70.8,43.4,70.2,43.9,69.6,44.5z"/>
			<path class="st4" d="M71.3,51.1c1.1,0.6,2.3,1,3.6,1C73.7,52.4,72.2,52,71.3,51.1z"/>
			<path class="st4" d="M72.7,50.5c0.5,0.1,1,0.2,1.5,0.3c0.5,0.2,1,0.3,1.4,0.6c-0.5-0.1-1-0.2-1.5-0.3
				C73.7,50.8,73.2,50.7,72.7,50.5z"/>
			<path class="st4" d="M71,52.9c1.1,0.5,2.2,0.8,3.4,0.7C73.2,53.9,71.9,53.7,71,52.9z"/>
			<path class="st4" d="M69.9,53.5c1.3,0.7,2.6,1.1,4,1.2C72.5,54.8,71,54.4,69.9,53.5z"/>
			<path class="st4" d="M31.5,41.7c-0.1-1.8,0.3-3.6,0.8-5.3c0.6-1.7,1.3-3.3,2.2-4.9c-0.7,1.7-1.5,3.3-2,5
				C31.9,38.2,31.6,39.9,31.5,41.7z"/>
			<path class="st4" d="M40.2,34.8c-0.5-0.3-0.8-0.7-1.2-1.2c-0.3-0.4-0.7-0.9-1-1.3c-0.6-1-1.2-1.9-1.6-3c0.6,1,1.1,1.9,1.8,2.8
				c0.3,0.5,0.6,0.9,0.9,1.4C39.4,33.9,39.7,34.4,40.2,34.8z"/>
			<path class="st4" d="M41.6,30.5c1.3,0.9,2.7,1.6,4,2.5l-0.1,0.1c-0.5-2.7-0.6-5.5-1.8-7.9c0.7,1.2,1.1,2.5,1.3,3.9
				c0.3,1.3,0.4,2.7,0.6,4l0,0.2l-0.2-0.1C44.2,32.3,42.8,31.6,41.6,30.5z"/>
			<path class="st4" d="M44.7,23.7c1.1,0.6,2,1.4,2.9,2.3c0.8,0.9,1.6,1.9,2.2,3c-0.7-1-1.5-2-2.4-2.8
				C46.7,25.2,45.7,24.5,44.7,23.7z"/>
			<path class="st4" d="M31.8,15.4c0.4-2.1,2.4-3.8,4.5-4c2.2-0.2,4.4,1.1,5.2,3.2c-0.9-1.9-3.1-3.1-5.1-2.9
				C34.2,11.8,32.4,13.4,31.8,15.4z"/>
			<path class="st4" d="M31.5,16.6c1.4-0.1,2.8-0.1,4.2-0.1c1.4,0,2.8,0,4.2,0.1c-1.4,0.1-2.8,0.1-4.2,0.1
				C34.4,16.6,32.9,16.7,31.5,16.6z"/>
			<path class="st4" d="M39.5,21.1c0-0.4,0.1-0.8,0.2-1.3c0.1-0.4,0.1-0.8,0.3-1.3c0.1-0.4,0.5-0.8,1-0.9c0.4-0.1,0.9,0,1.2,0.3
				c-0.7-0.5-1.8-0.1-2,0.7C40,19.4,39.8,20.3,39.5,21.1z"/>
			<path class="st4" d="M37.2,20.4c0.1-0.5,0.2-0.9,0.3-1.4c0.1-0.5,0.2-0.9,0.3-1.4c0.1,0.5,0,1-0.1,1.4
				C37.6,19.5,37.4,20,37.2,20.4z"/>
			<path class="st4" d="M40.2,34.7c0.2-0.3,0.5-0.6,0.7-0.9c0.3-0.2,0.5-0.5,0.9-0.7c-0.2,0.3-0.5,0.6-0.7,0.9
				C40.8,34.2,40.5,34.5,40.2,34.7z"/>
			<path class="st4" d="M41.8,52.6c0.1-1,0.6-1.9,1.2-2.7c0.7-0.8,1.5-1.4,2.3-2c0.8-0.6,1.6-1.1,2.3-1.8c0.7-0.7,1.3-1.5,1.6-2.5
				c-0.2,1-0.8,1.9-1.5,2.6c-0.7,0.7-1.5,1.3-2.3,1.9c-0.8,0.6-1.6,1.2-2.3,1.9C42.5,50.8,41.9,51.7,41.8,52.6z"/>
			<path class="st4" d="M55.1,54c1.8-0.4,3.6-0.7,5.3-1.3c1.8-0.5,3.5-1.1,5.2-1.8c-1.6,0.8-3.4,1.5-5.1,2
				C58.7,53.4,56.9,53.8,55.1,54z"/>
			<path class="st4" d="M29.3,61.2c3.1-1.7,6.4-2.9,9.8-3.8c3.4-0.8,7-1.2,10.5-1.1c-3.5,0.1-7,0.5-10.4,1.4
				C35.7,58.5,32.4,59.7,29.3,61.2z"/>
			<path class="st4" d="M51.7,90.1c-1.8-2.4-2.8-5.4-3.4-8.3c-0.3-1.5-0.4-3-0.5-4.5c-0.1-1.5-0.1-3-0.2-4.5c0.2,1.5,0.3,3,0.4,4.5
				c0.1,1.5,0.2,3,0.5,4.5C49.1,84.6,50.2,87.5,51.7,90.1z"/>
			<path class="st4" d="M22.5,76.8c0.9,0.5,1.7,1.1,2.6,1.5c0.9,0.5,1.8,0.8,2.7,1.2c-1-0.2-1.9-0.6-2.8-1
				C24.1,78,23.2,77.5,22.5,76.8z"/>
			<path class="st4" d="M24.4,75.4c0.9,0.2,1.8,0.5,2.6,0.8c0.9,0.3,1.8,0.5,2.6,0.8c-0.9-0.1-1.8-0.3-2.7-0.6
				C26.1,76.1,25.3,75.9,24.4,75.4z"/>
			<path class="st4" d="M23.5,76.5c0.6,0.3,1.1,0.7,1.8,0.9c0.6,0.3,1.2,0.5,1.8,0.8c-0.7-0.1-1.3-0.4-1.9-0.6
				C24.6,77.3,24,77,23.5,76.5z"/>
			<path class="st4" d="M14.4,89.9c1.3,0.9,2.8,1.3,4.4,1.2C17.2,91.5,15.5,91,14.4,89.9z"/>
			<path class="st4" d="M14,90.2c1.2,1.2,2.8,1.9,4.5,2C16.8,92.5,14.9,91.7,14,90.2z"/>
			<path class="st4" d="M15.5,89.5c0.6,0.1,1.2,0.3,1.7,0.5c0.6,0.2,1.1,0.4,1.7,0.7c-0.6-0.1-1.2-0.3-1.7-0.5
				C16.6,89.9,16,89.8,15.5,89.5z"/>
			<path class="st4" d="M3.8,94.7c1.1-0.1,2.1-0.1,3.2-0.2c1.1-0.1,2.1-0.3,3.2-0.5c-1,0.4-2.1,0.6-3.1,0.8
				C6,94.8,4.9,94.8,3.8,94.7z"/>
			<path class="st4" d="M1.5,95.5c0.4,1,1.4,1.4,2.4,1.8c1,0.3,2,0.5,3,0.5c2.1,0.1,4.1-0.3,6.2-0.4C11,97.7,8.9,98,6.8,98
				c-1,0-2.1-0.2-3.1-0.6C2.8,97.1,1.7,96.6,1.5,95.5z"/>
			<path class="st4" d="M14.5,98.1c0.6-0.1,1.2-0.3,1.8-0.3l-0.1,0.1c0-0.6,0-1.2,0.1-1.8c0.1,0.6,0.1,1.2,0.1,1.8l0,0.1l-0.1,0
				C15.8,98,15.2,98.2,14.5,98.1z"/>
			<path class="st4" d="M62.3,43.4c0.7-0.8,1.5-1.6,2.3-2.3c0.8-0.7,1.6-1.4,2.6-2l-2.4,2.2L62.3,43.4z"/>
			<path class="st4" d="M63.3,71.7c0,1.4-0.1,2.8-0.2,4.2c-0.1,1.4-0.2,2.8-0.4,4.1c0-1.4,0.1-2.8,0.2-4.2
				C63,74.5,63.1,73.1,63.3,71.7z"/>
			<path class="st4" d="M54.1,89.4c2-0.4,4-0.6,6-0.7c2,0,4.1,0.1,6,0.5c-2-0.2-4-0.3-6-0.3C58.1,89,56.1,89.2,54.1,89.4z"/>
			<path class="st4" d="M67.6,89.1c0.2-1,0.3-2,0.4-3c0.1-1,0-2,0-3c0.3,1,0.3,2,0.3,3C68.1,87.1,67.9,88.1,67.6,89.1z"/>
			<path class="st4" d="M70.3,83.4c0.2,1,0.2,2,0.2,3c-0.1,1-0.2,2-0.6,3c0.2-1,0.3-2,0.4-3C70.3,85.4,70.3,84.4,70.3,83.4z"/>
			<path class="st4" d="M83.9,86.4c0.3,0.7,0.5,1.5,0.6,2.3c0,0.8,0.1,1.6-0.1,2.4c0-0.8,0-1.6-0.2-2.3C84.2,87.9,84,87.2,83.9,86.4
				z"/>
			<path class="st4" d="M85.9,87.2c0.2,0.4,0.2,0.9,0.3,1.4c0,0.5,0.1,0.9,0.1,1.4c-0.2-0.5-0.2-0.9-0.3-1.4
				C86,88.2,85.9,87.7,85.9,87.2z"/>
			<path class="st4" d="M82.5,90.8c1.2-0.1,2.4,0,3.6,0.2c1.2,0.3,2.3,0.6,3.4,1.1c-1.1-0.4-2.3-0.7-3.4-0.9
				C84.8,90.9,83.6,90.8,82.5,90.8z"/>
			<path class="st4" d="M83.4,84.5c0.6,0,1.1,0.2,1.6,0.4c0.5,0.2,1,0.4,1.5,0.8c-0.5-0.2-1-0.4-1.6-0.6
				C84.4,84.8,83.9,84.7,83.4,84.5z"/>
			<path class="st4" d="M88.4,86.8c0.8-0.5,2-0.6,2.8-0.1C90.2,86.5,89.3,86.6,88.4,86.8z"/>
			<path class="st4" d="M59.8,35.4c0.6,1.5,1,3,1.4,4.5c0.3,1.6,0.7,3.1,0.8,4.7c-0.3-1.6-0.6-3.1-1-4.6
				C60.7,38.4,60.2,36.9,59.8,35.4z"/>
			<path class="st4" d="M47.9,25.8c1.8,0.1,3.6,0.5,5.4,1.1c1.7,0.7,3.4,1.5,4.8,2.6c-1.6-0.9-3.2-1.8-4.9-2.4
				C51.5,26.5,49.8,26.1,47.9,25.8z"/>
			<path class="st4" d="M34.4,24.3c0.6,0.1,1.1,0.3,1.7,0.3c0.6,0.1,1.1,0.1,1.7,0.1c-0.6,0.2-1.1,0.2-1.7,0.1
				C35.5,24.7,34.9,24.6,34.4,24.3z"/>
			<path class="st4" d="M35.5,23.9c0.2-0.4,0.5-0.7,0.8-1.1c0.3-0.3,0.6-0.6,0.9-0.9c-0.2,0.4-0.5,0.7-0.8,1.1
				C36.1,23.3,35.8,23.6,35.5,23.9z"/>
			<path class="st4" d="M34.5,23.6c0.2-0.3,0.5-0.6,0.7-0.9c0.3-0.2,0.5-0.5,0.9-0.7c-0.2,0.3-0.5,0.6-0.7,0.9
				C35.1,23.1,34.9,23.4,34.5,23.6z"/>
			<path class="st4" d="M37.3,26.1c0.5,0.7,1.1,1.5,1.7,2.1c0.6,0.7,1.2,1.3,1.9,2c-0.8-0.5-1.4-1.1-2-1.8
				C38.2,27.6,37.7,26.9,37.3,26.1z"/>
			<path class="st4" d="M66.3,50.6c-1-1.7-0.9-3.9,0.1-5.5C65.7,46.8,65.7,48.8,66.3,50.6z"/>
			<path class="st4" d="M69.1,50.1c-0.1-0.7-0.1-1.4-0.2-2.1c0.1-0.7,0.1-1.4,0.3-2.1c0,0.7,0,1.4,0,2.1
				C69.1,48.7,69.1,49.4,69.1,50.1z"/>
			<path class="st4" d="M67.9,51.4c0.4,0.1,0.7,0.4,1.1,0.6c0.3,0.3,0.7,0.5,0.9,0.8c-0.4-0.1-0.7-0.4-1.1-0.6
				C68.5,51.9,68.2,51.7,67.9,51.4z"/>
		</g>
		<path class="st4" d="M75.5,41.6c0.1-0.5,0.3-0.9,0.5-1.4c0.2-0.4,0.4-0.9,0.7-1.3c-0.1,0.5-0.3,0.9-0.5,1.4
			C76,40.8,75.8,41.2,75.5,41.6z"/>
		<path class="st4" d="M77.5,42.1c0.1-0.4,0.2-0.7,0.3-1.1c0.2-0.3,0.3-0.7,0.6-1c-0.1,0.4-0.2,0.7-0.3,1.1
			C77.8,41.4,77.7,41.8,77.5,42.1z"/>
		<path class="st4" d="M78.9,40.6c0.6,0.1,1.2,0.4,1.9,0.5c0.3,0.1,0.6,0.1,0.9,0.1c0.3,0,0.6,0,0.9-0.2c-0.2,0.2-0.6,0.3-0.9,0.3
			c-0.3,0-0.7,0-1-0.1C80.1,41.2,79.5,41,78.9,40.6z"/>
	</g>
</g>
</svg>
