<?xml version="1.0" encoding="utf-8"?>
<!-- Generator: Adobe Illustrator 25.2.1, SVG Export Plug-In . SVG Version: 6.00 Build 0)  -->
<svg version="1.1" id="Layer_1" xmlns="http://www.w3.org/2000/svg" xmlns:xlink="http://www.w3.org/1999/xlink" x="0px" y="0px"
	 viewBox="0 0 100 100" style="enable-background:new 0 0 100 100;" xml:space="preserve">
<style type="text/css">
	.st0{fill:#B2A740;}
	.st1{opacity:0.6;fill:#B2A740;}
	.st2{fill:#FFF203;}
	.st3{opacity:0.5;fill:#FFF203;}
	.st4{fill:#1A1A1A;}
	.st5{fill:#A799E6;}
	.st6{fill:#9E996A;}
	.st7{fill:#CDB3ED;}
	.st8{opacity:0.6;fill:#CDB3ED;}
	.st9{opacity:0.3;fill:#FFF203;}
	.st10{opacity:0.5;fill:#CDB3ED;}
	.st11{opacity:0.4;fill:#9E996A;}
	.st12{opacity:0.4;}
	.st13{opacity:0.5;fill:#B2A740;}
	.st14{fill:#FFF426;}
	.st15{opacity:0.4;fill:#CDB3ED;}
	.st16{opacity:0.7;fill:#CDB3ED;}
	.st17{opacity:0.6;fill:#FFF203;}
	.st18{opacity:0.6;}
	.st19{opacity:0.7;fill:#FFF203;}
	.st20{fill:#8A604F;}
	.st21{opacity:0.4;fill:#8A604F;}
	.st22{fill:#774632;}
	.st23{fill:none;}
	.st24{fill:#E64B00;}
	.st25{opacity:0.3;fill:#E64B00;}
	.st26{opacity:0.6;fill:#E64B00;}
	.st27{fill:#386AC4;}
	.st28{opacity:0.5;}
	.st29{fill:#D1847E;}
	.st30{opacity:0.6;fill:#D1847E;}
	.st31{opacity:0.5;fill:#386AC4;}
	.st32{opacity:0.3;fill:#386AC4;}
	.st33{opacity:0.4;fill:#386AC4;}
	.st34{opacity:0.7;fill:#386AC4;}
	.st35{opacity:0.7;fill:#E64B00;}
	.st36{fill:#253E6B;}
	.st37{fill:#7A43C3;}
	.st38{fill:#CDCAC6;}
	.st39{opacity:0.6;fill:#CDCAC6;}
	.st40{opacity:0.5;fill:#7A43C3;}
	.st41{opacity:0.3;fill:#7A43C3;}
	.st42{fill:#543961;}
	.st43{fill:#E2BA33;}
	.st44{opacity:0.7;fill:#E2BA33;}
	.st45{opacity:0.6;fill:#7A43C3;}
	.st46{opacity:0.5;fill:#E2BA33;}
	.st47{opacity:0.4;fill:#E2BA33;}
	.st48{fill:#E2DA7E;}
	.st49{opacity:0.4;fill:#E2DA7E;}
	.st50{fill:#F2EF94;}
	.st51{opacity:0.4;fill:#FFFFFF;}
	.st52{opacity:0.5;fill:#CDCAC6;}
	.st53{fill:#6C41B1;}
	.st54{fill:#090704;}
	.st55{fill:#D8CFC0;}
	.st56{fill:#2A41E8;}
	.st57{opacity:0.6;fill:#D8CFC0;}
	.st58{fill:#FF822A;}
	.st59{opacity:0.5;fill:#FF822A;}
	.st60{fill:#A58F64;}
	.st61{opacity:0.5;fill:#A58F64;}
	.st62{fill:#561A91;}
	.st63{opacity:0.4;fill:#D8CFC0;}
	.st64{opacity:0.7;fill:#D8CFC0;}
	.st65{opacity:0.3;fill:#FF822A;}
	.st66{opacity:0.7;fill:#FF822A;}
	.st67{opacity:0.3;}
	.st68{fill:#E83C7D;}
	.st69{fill:#BF9726;}
	.st70{opacity:0.4;fill:#E83C7D;}
	.st71{fill:#767676;}
	.st72{opacity:0.5;fill:#E83C7D;}
	.st73{opacity:0.5;fill:#767676;}
	.st74{opacity:0.9;fill:#767676;}
	.st75{opacity:0.3;fill:#E83C7D;}
	.st76{opacity:0.4;fill:#7F3451;}
	.st77{opacity:0.4;fill:#BF9726;}
	.st78{opacity:0.7;fill:#BF9726;}
	.st79{opacity:0.6;fill:#E83C7D;}
	.st80{opacity:0.2;fill:#E83C7D;}
	.st81{fill:#7F3451;}
	.st82{fill:#968B22;}
	.st83{opacity:0.4;fill:#968B22;}
	.st84{fill:#FFEAA6;}
	.st85{fill:#1274C4;}
	.st86{fill:#D1D1D1;}
	.st87{opacity:0.3;fill:#1274C4;}
	.st88{opacity:0.6;fill:#D1D1D1;}
	.st89{opacity:0.5;fill:#1274C4;}
	.st90{fill:#0A3F6B;}
	.st91{fill:#E67E5B;}
	.st92{opacity:0.6;fill:#D46642;}
	.st93{opacity:0.6;fill:#1274C4;}
	.st94{opacity:0.4;fill:#001B6A;}
	.st95{opacity:0.3;fill:#D46642;}
	.st96{fill:#1065AB;}
	.st97{opacity:0.4;fill:#1274C4;}
	.st98{opacity:0.7;fill:#E67E5B;}
	.st99{fill:#C7C4BE;}
	.st100{fill:#EFEBE0;}
	.st101{opacity:0.3;fill:#C7C4BE;}
	.st102{opacity:0.5;fill:#D1D1D1;}
	.st103{opacity:0.9;fill:#D1D1D1;}
	.st104{fill:#0F64A8;}
	.st105{fill:#D1AB3E;}
	.st106{opacity:0.5;fill:#D1AB3E;}
	.st107{opacity:0.8;fill:#D1AB3E;}
	.st108{opacity:0.1;fill:#D1AB3E;}
	.st109{fill:#C16A23;}
	.st110{opacity:0.5;fill:#C16A23;}
	.st111{fill:#6DEC6E;}
	.st112{opacity:0.5;fill:#6DEC6E;}
	.st113{fill:#826315;}
	.st114{opacity:0.3;fill:#EC1C24;}
	.st115{opacity:0.4;fill:#826315;}
	.st116{fill:#C87C3D;}
	.st117{fill:#EE3A40;}
	.st118{fill:none;stroke:#1A1A1A;stroke-width:0.1469;stroke-linejoin:round;stroke-miterlimit:10;}
	.st119{fill:none;stroke:#CA7F42;stroke-width:0.1352;stroke-miterlimit:10;}
	.st120{opacity:0.5;fill:#FFFFFF;}
	.st121{fill:#C57330;}
	.st122{opacity:0.3;fill:#C57330;}
	.st123{opacity:0.5;fill:#8FF08F;}
	.st124{opacity:0.5;fill:#C57330;}
	.st125{fill:#8FF08F;}
	.st126{opacity:0.5;fill:#EE3A40;}
	.st127{opacity:0.3;fill:#EE3A40;}
	.st128{opacity:0.4;fill:#EE3A40;}
	.st129{opacity:0.2;fill:#EE3A40;}
	.st130{opacity:0.4;fill:#C57330;}
	.st131{opacity:0.4;fill:#D1AB3E;}
	.st132{opacity:0.6;fill:#D1AB3E;}
	.st133{opacity:0.9;fill:#D1AB3E;}
	.st134{fill:none;stroke:#1A1A1A;stroke-width:0.1469;stroke-miterlimit:10;}
	.st135{opacity:0.7;}
	.st136{fill:#F05459;}
	.st137{fill:#EADBE1;}
	.st138{fill:#D2B1BE;}
	.st139{fill:none;stroke:#EED3B0;stroke-width:0.1115;stroke-miterlimit:10;}
	.st140{opacity:0.5;fill:#D2B1BE;}
	.st141{fill:#561B32;}
	.st142{fill:#E10A52;}
	.st143{opacity:0.4;fill:#E10A52;}
	.st144{opacity:0.2;fill:#E10A52;}
	.st145{fill:#DEC5CF;}
	.st146{opacity:0.6;fill:#D2B1BE;}
	.st147{opacity:0.3;fill:#D2B1BE;}
	.st148{opacity:0.4;fill:#DEC5CF;}
	.st149{fill:#ECCEA7;}
	.st150{opacity:0.4;fill:#ECCEA7;}
	.st151{opacity:0.9;fill:#ECCEA7;}
	.st152{opacity:0.9;fill:#E1B375;}
	.st153{fill:#E1B375;}
	.st154{opacity:0.5;fill:#ECCEA7;}
	.st155{opacity:0.8;fill:#ECCEA7;}
	.st156{opacity:0.7;fill:#ECCEA7;}
	.st157{opacity:0.6;fill:#E10A52;}
	.st158{opacity:0.7;fill:#E10A52;}
	.st159{fill:#D89C4C;}
	.st160{opacity:0.8;fill:#D89C4C;}
	.st161{fill:#D5FEE3;}
	.st162{opacity:0.4;fill:#EFD7B7;}
	.st163{fill:#EBCCA2;}
	.st164{opacity:0.4;fill:#EBCCA2;}
	.st165{fill:#EDD1AD;}
	.st166{fill:url(#SVGID_1_);}
	.st167{opacity:0.3;fill:#FFFFFF;}
	.st168{fill:url(#SVGID_2_);}
	.st169{fill:#B1778D;}
	.st170{fill:url(#SVGID_3_);}
	.st171{opacity:0.2;}
	.st172{fill:#FFFFFF;}
	.st173{fill:url(#SVGID_4_);}
	.st174{fill:url(#SVGID_5_);}
	.st175{opacity:0.2;fill:url(#SVGID_6_);}
	.st176{opacity:0.4;fill:url(#SVGID_7_);}
	.st177{opacity:0.4;fill:url(#SVGID_8_);}
	.st178{clip-path:url(#SVGID_10_);fill:#764659;}
	.st179{clip-path:url(#SVGID_10_);fill:#78495B;}
	.st180{clip-path:url(#SVGID_10_);fill:#794B5D;}
	.st181{clip-path:url(#SVGID_10_);fill:#7D4F61;}
	.st182{clip-path:url(#SVGID_10_);fill:#7F5263;}
	.st183{clip-path:url(#SVGID_10_);fill:#805465;}
	.st184{clip-path:url(#SVGID_10_);fill:#825667;}
	.st185{clip-path:url(#SVGID_10_);fill:#845969;}
	.st186{clip-path:url(#SVGID_10_);fill:#855B6B;}
	.st187{clip-path:url(#SVGID_10_);fill:#875D6D;}
	.st188{clip-path:url(#SVGID_10_);fill:#895F70;}
	.st189{clip-path:url(#SVGID_10_);fill:#E0004B;}
	.st190{clip-path:url(#SVGID_10_);fill:#E0034D;}
	.st191{clip-path:url(#SVGID_10_);fill:#E10850;}
	.st192{clip-path:url(#SVGID_10_);fill:#E10A52;}
	.st193{clip-path:url(#SVGID_10_);fill:#E20F56;}
	.st194{clip-path:url(#SVGID_10_);fill:#E21258;}
	.st195{clip-path:url(#SVGID_10_);fill:#E3175B;}
	.st196{fill:url(#SVGID_11_);}
	.st197{fill:url(#SVGID_12_);}
	.st198{fill:url(#SVGID_13_);}
	.st199{opacity:0.2;fill:#FFFFFF;}
	.st200{fill:#2F2C1E;}
	.st201{fill:url(#SVGID_14_);}
	.st202{fill:url(#SVGID_15_);}
	.st203{opacity:0.1;fill:#FFFFFF;}
	.st204{fill:url(#SVGID_16_);}
	.st205{fill:url(#SVGID_17_);}
	.st206{opacity:0.2;fill:url(#SVGID_18_);}
	.st207{fill:url(#SVGID_19_);}
	.st208{fill:url(#SVGID_20_);}
	.st209{fill:url(#SVGID_21_);}
	.st210{opacity:0.2;fill:url(#SVGID_22_);}
	.st211{fill:url(#SVGID_23_);}
	.st212{fill:url(#SVGID_24_);}
	.st213{opacity:0.4;fill:url(#SVGID_25_);}
	.st214{opacity:0.4;fill:url(#SVGID_26_);}
	.st215{opacity:0.4;fill:#561B32;}
	.st216{fill:#E52968;}
	.st217{fill:none;stroke:#AC5773;stroke-width:3.185000e-02;stroke-miterlimit:10;}
	.st218{fill:none;stroke:#F7EBDB;stroke-width:3.166700e-02;stroke-miterlimit:10;}
	.st219{fill:#FBB03B;}
</style>
<g>
	<g>
		<g>
			<path class="st4" d="M70.9,27.5c0,0,0.2-0.3,1.2,1.7c1.1,2,3.4,5.2,2.3,5.6C73,35.5,67.4,29.5,70.9,27.5z"/>
			<path class="st55" d="M70.8,16.8c0.1,0.3,0.4,0.6,0.5,2c0.3,2.8-0.3,6.9-0.1,10.2l5.7,3c1.2-3.5-2-12.1-2.9-14.2
				c-0.8-1.3-1.6-2.2-1.6-2.2"/>
			<g>
				<circle class="st56" cx="71.1" cy="13.2" r="2.1"/>
				<path class="st55" d="M70.7,12.5c-0.3,0.1,0.5,1.4-0.7,1.8c-0.6,0.2-0.8-1.2-0.8-1.4s0.5-1.3,0.3-1.4c-0.2-0.2-0.8,0.8-0.9,1.7
					c-0.1,0.9-0.2,1.9,0.2,2.5c0.4,0.7,2.2,1.3,2.3,1.9c1.2-0.2,2.1-1,1.8-1.4c-0.1-0.2-0.3,0-0.7-1C71.9,14.2,71.1,12.3,70.7,12.5z
					"/>
			</g>
			<path class="st55" d="M72,27.9c-1.4,0.2-3.7,0.6-5,0.8c-6,1-3.9,6-1.3,6.3c1.9,0.2,9,0.4,11.1-3"/>
			<path class="st57" d="M71,28c0,0-1.1,1.4,2.8,6.2C72,35,71.1,35,71.1,35l-1.4-6.7L71,28z"/>
			<path class="st58" d="M59,29.7c3.4-0.4,11.2-1.9,11.9-2.2c-2,2.4,2.8,7.3,3.6,7.3c-5,2.9-9.6,5-12.3,5
				C58.1,39.7,55.1,30.2,59,29.7z"/>
			<path class="st59" d="M72.2,32.7c-0.6,2-5.9,7-10,7.1c2.7,0.1,7.3-2,12.3-5C74.2,34.8,73.1,33.9,72.2,32.7z"/>
		</g>
		<g>
			<path class="st58" d="M72.1,95c0,0,1.4,1,2.8,1.8c1.2,0.6,2.4,0.9,2.7,1.4c0.6,1.4-2.6,1.8-4.6,1.1c-2.1-0.7-2.9-0.9-3-0.8
				c-0.2,0.2-3.2-0.4-3.4-0.7c0-1.1,1.1-3.9,1.2-4.2c0.7-2,1.4-3,1.7-2.9C71,91.4,72.1,95,72.1,95z"/>
			<path class="st60" d="M76.1,97.1c0,0,0.8,0.4-0.2,0.8c-0.9,0.4-3.6-0.7-3.8-1.5c-0.2-0.8,0.9-1.1,1.3-0.9
				C73.7,95.6,75.8,97.1,76.1,97.1z"/>
			<path class="st61" d="M76.2,97.7c-0.1,0.1-0.2,0.1-0.3,0.2c-0.9,0.4-3.6-0.7-3.8-1.5c-0.2-0.8,0.9-1.1,1.3-0.9c0,0,0.1,0,0.1,0.1
				c-0.6,0.1-1.1,0.5-0.5,1.3C73.6,97.6,75.2,97.9,76.2,97.7z"/>
			<path class="st59" d="M69.9,98.6c-0.2,0.2-3.2-0.4-3.4-0.7c0-1.1,1.1-3.9,1.2-4.2c1.1-3.9,2-5.9,2.2-5.8l2.3,4.7
				c0,0-4.9,3.4-4.6,4.8s1.8,0.2,2.7,0.6c0.9,0.4,3,1.6,5.6,1.4c0.9-0.1,1.5-0.3,1.9-0.7c-0.1,1.1-2.8,1.4-4.7,0.8
				C70.9,98.6,70,98.4,69.9,98.6z"/>
			<path class="st59" d="M71.9,94.9c-0.1,0.1-2.3,2.5-4.9,0.9c0.8-2.5,1.9-5,1.9-5L71.9,94.9z"/>
		</g>
		<g>
			<path class="st58" d="M25.6,69c0,0-1.3,1.1-2.4,2.2c-0.9,1-1.5,2.1-2.1,2.2c-1.5,0.3-1.1-2.9,0.1-4.7c1.2-1.8,1.7-2.6,1.5-2.8
				c-0.1-0.3,1.2-3,1.5-3.1c1.1,0.2,3.5,2,3.8,2.2c1.7,1.2,2.6,2.1,2.3,2.4C29.4,68.8,25.6,69,25.6,69z"/>
			<path class="st60" d="M22.6,72.3c0,0-0.6,0.6-0.7-0.4c-0.1-1,1.6-3.3,2.4-3.3c0.8,0,0.8,1.2,0.6,1.5C24.6,70.4,22.6,72,22.6,72.3
				z"/>
			<path class="st61" d="M22,72.3c0-0.1-0.1-0.2-0.1-0.4c-0.1-1,1.6-3.3,2.4-3.3c0.8,0,0.8,1.2,0.6,1.5c0,0-0.1,0.1-0.1,0.1
				c0.1-0.6-0.2-1.2-1.1-0.8C22.7,69.8,22,71.3,22,72.3z"/>
			<path class="st59" d="M22.7,66c-0.1-0.3,1.2-3,1.5-3.1c1.1,0.2,3.5,2,3.8,2.2c3.5,2,5.3,3.4,5.1,3.6l-5.1,1c0,0-2.1-5.6-3.5-5.7
				c-1.4-0.1-0.6,1.7-1.2,2.5s-2.3,2.5-2.8,5c-0.2,0.9-0.1,1.5,0.2,2c-1-0.3-0.6-3.1,0.5-4.7C22.4,66.9,22.8,66.1,22.7,66z"/>
			<path class="st59" d="M25.7,68.8c-0.1-0.1-1.9-2.9,0.4-5c2.2,1.4,4.4,3.1,4.4,3.1L25.7,68.8z"/>
		</g>
		<g>
			<g>
				<g>
					<path class="st55" d="M62.3,17.8c0,0-0.1,4.3,0.8,5.3c0.9,0.9,3.1,1.3,3.5,1.7c0.4,0.5-3.9,4.7-7.1,5.1c-1.4-1.6-2.4-3.1-4-3.9
						c0.5-0.8,2.5-2.7,2.7-7.1C59.4,14.9,62.3,16.6,62.3,17.8z"/>
					<path class="st63" d="M59.5,29.9c-1.3-1.5-2.3-2.9-3.8-3.8c0-0.2,0.1-0.3,0.1-0.5c0.6-0.6,1.6-2.5,2.2-4.8l0.5-6
						c0,0-0.9,8.1,1,13.2c1.4,1,3.2-2,4.5-4.3c1,0.5,2.3,0.8,2.6,1.1C67.1,25.3,62.7,29.5,59.5,29.9z"/>
					<path class="st64" d="M60.1,20.6c0,0,1,1.2,2.5,0.9c-0.3-2.7-0.8-4.4-0.7-4.1S60.1,20.6,60.1,20.6z"/>
				</g>
			</g>
			<g>
				<path class="st55" d="M59.1,20.3c1.5,0.9,4.5,1.1,5.4-0.4c0.9-1.5-0.2-6-1.8-6.9c-1.5-0.9-4.2-0.2-5.1,1.3
					C56.7,15.8,57.6,19.4,59.1,20.3z"/>
				<path class="st64" d="M61.8,17.9c0.1,0.5,0.6,0.7,1.1,0.6c0.5-0.1,0.7-0.6,0.6-1.1c-0.1-0.5-0.6-0.7-1.1-0.6
					C61.9,16.9,61.6,17.4,61.8,17.9z"/>
				<path class="st4" d="M63.7,14c0,0-0.3,0.8-1.7,0.4S60.1,15,60,16c-0.1,1,1.3,2.1,1,2.4c-0.3,0.3-0.7,0.3-0.8,0.2
					c-0.2-0.1-0.5-1.6-1.3-1.8c-0.8-0.2-0.9,1.5,0.2,2.6c0.4,0.9-1,1.5-1,1.5s-2.2-2.8-1.7-4.8c-2-2.6,1.1-5.1,4.5-4.2
					C62.3,9.6,64.8,12.8,63.7,14z"/>
			</g>
		</g>
		<path class="st58" d="M67.1,50.2c3.1,4.9,13,15.3,12.8,23.2C79.6,81.4,73,93,72.5,94.8c-0.5,1.8-4.8,1-5.1-1.8
			c-0.2-2.1,0-9.2,2.6-16.7c1.9-5.6-8.3-9.3-11.4-18.3C57.1,53.7,63.7,51.2,67.1,50.2z"/>
		<path class="st65" d="M71.3,95.7c0-0.1,0-0.3-0.1-0.4C70.5,92,73,81.7,76.3,74c3.3-7.7-9.8-24.5-9.8-24.5l4.6,6.1
			c4,5.3,8.9,12.2,8.8,17.8C79.6,81.4,73,93,72.5,94.8C72.4,95.3,71.9,95.6,71.3,95.7z"/>
		<path class="st59" d="M69.8,95.6c-1.2-0.3-2.3-1.2-2.4-2.5c-0.2-2.1,0-9.2,2.6-16.7c1.9-5.6-8.3-9.3-11.4-18.3
			c-0.3-0.8-0.3-1.6,0-2.3c1-0.9,1.9-1.7,2.1-1.9l4.9-1.6c0,0-4.9,9.4-0.1,14c4.8,4.6,7.2,4.6,5.7,10.2
			C69.5,82.1,66.8,90.7,69.8,95.6z"/>
		<g>
			<path class="st58" d="M65.2,53.9c-0.9,4.8-8.7,20.6-16,21.4c-7.9,0.4-21.4-5.6-23.2-6c-1.8-0.3-0.5-4.5,2.2-5
				c2.1-0.4,10.2,0.1,17.9,2.1l0,0c3.5-3,4.9-11.4,11.1-16.1C59.7,51,63.2,51,65.2,53.9z"/>
			<path class="st65" d="M62.2,60.2c2-3.2,2.6-4.8,1.6-2c-2.8,6.5-8.9,16.5-14.6,17c-7.9,0.4-21.4-5.6-23.2-6
				c-0.8-0.2-1-1.1-0.7-2.2c0.5,0,1.3,0,2.5,0.1c4.3,0.5,19.6,5.9,22.3,5.5C52.7,72.2,59.1,64.9,62.2,60.2z"/>
			<path class="st59" d="M47.9,67.7c-1.1,2.9-2.6-0.1-11.3-2.1c-6.8-1.5-9.5-0.5-10.5-0.1c0.5-0.6,1.2-1,1.9-1.2
				c2.1-0.4,10.2,0.1,17.9,2.1c3-2.5,4.5-9,8.6-13.8C51.8,56.5,48.8,65.2,47.9,67.7z"/>
		</g>
		<path class="st66" d="M67.6,51l1.8,2.4c0,0-14,4.8-17.4,3c2.2-3.4,3.7-8,3.7-8L67.6,51z"/>
		<path class="st58" d="M66.4,30.8c2.1,6.2,1.7,11,2.6,19.5c2.9,3.6-14.8,4.4-16.6,4.9c-1.8,0.4,2.3-2.4,2.3-21.1
			c0-5.5,0.7-9.1,2.1-10.6C59.9,24,64.6,25.6,66.4,30.8z"/>
		<path class="st65" d="M57.4,44.1c-2-6.5-2.4-15.9-2.4-16l0,0c-0.3,1.6-0.4,3.6-0.4,6c0,18.7-4.1,21.5-2.3,21.1
			c1-0.2,6.3-0.6,10.7-1.3C63,51.2,58.9,48.9,57.4,44.1z"/>
		<path class="st58" d="M57.8,22.2c0,0-0.5,0.8,5.9,1.2c2.6,1.2,2.6,2.2,2.6,2.3s-8.8-0.4-9.5-2C56.2,22.4,57.8,22.2,57.8,22.2z"/>
		<g class="st67">
			<path class="st58" d="M62.8,23.8c0.7,0.1,1.3,0.3,1.8,0.7c0.8,0.5,1.1,1,1.3,1.3c0.1,0,0.1,0,0.1,0c0-0.1,0-1.1-2.6-2.2
				c-2.4-0.2-3.8-0.4-4.6-0.6C59.5,23.2,60.7,23.5,62.8,23.8z"/>
			<path class="st58" d="M57,23.9c-0.3-0.9,0.3-1.3,0.7-1.4c0-0.1,0-0.1,0-0.1s-1.5,0.2-0.9,1.5c0.1,0.3,0.7,0.6,1.4,0.9
				C57.6,24.5,57.1,24.2,57,23.9z"/>
		</g>
		<path class="st65" d="M56.9,23.1c0-0.1,0-0.1-0.1-0.2c-0.1,0.2-0.2,0.6,0,1c0.5,1.5,7.5,2,7.5,1.9c0,0,0-0.4-0.3-0.8
			C62.5,24.9,57.3,24.4,56.9,23.1z"/>
		<path class="st65" d="M66.4,50.9c0.9-0.7,1.4-8.3,1.3-14.1c0.6,3.8,0.6,7.8,1.1,13.4c0.7,0.9,0.1,1.6-1.1,2.2
			C66.3,52,65.3,51.8,66.4,50.9z"/>
		<g>
			<path class="st4" d="M71.7,21.2c0,0,0.1-0.4,1.7,1.5c1.6,1.9,4.9,4.8,3.8,5.5C75.8,29.3,68.5,24.2,71.7,21.2z"/>
			<path class="st55" d="M75.5,9.1c-0.1-0.5-0.3-1.2-0.3-1.3c-0.1-0.8-0.1-1.6,0-2.3c0.1-1.3,0.1-2.7,0.1-4c0-0.5-0.4-0.6-0.5,0.1
				c-0.1,0.3-0.1,0.9-0.1,1.5c0,0.2-0.1,0.4-0.1,0.6c0,0,0,0.1-0.2,0.1c-0.1,0-0.2-0.2-0.2-0.2c0-0.3-0.1-0.8-0.1-1.3
				c-0.1-0.7-0.2-1.5-0.3-1.7c-0.1-0.5-0.5-0.5-0.5,0.2c0,0.4,0,1,0.1,1.6c0,0.6,0,1,0,1.4c0,0,0,0.2-0.1,0.2
				c-0.1,0-0.2-0.2-0.2-0.2C73,3.4,72.8,3,72.7,2.5c-0.2-0.9-0.4-1.8-0.5-2.2c-0.1-0.5-0.6-0.3-0.6,0.1c0,0.2,0.1,1.3,0.2,2.3
				c0.1,0.4,0.1,0.8,0.2,1.1c0,0,0,0.1,0,0.1c0,0.1,0,0.4-0.1,0.4C71.8,4.3,71.7,4,71.7,4c-0.1-0.3-0.3-0.7-0.5-1.1
				c-0.3-0.6-0.4-1.4-0.5-1.6c-0.2-0.4-0.6-0.3-0.4,0.3c0.1,0.3,0.1,1.1,0.3,1.6c0.2,0.5,0.4,1.1,0.5,1.6c0,0.1,0.1,0.2,0.1,0.2
				c0.1,0.2,0.1,0.1,0.1,0.3c0,0.1-0.1,0.2-0.4-0.2c-0.7-0.8-1.4-0.6-1.4-0.4c0,0.3,0.4,0.3,1.1,1.5c0.4,0.7,1.1,1.2,1.4,1.9
				c0.5,1.2,0.6,2.5,0.6,3.7c0.1,2.1-0.3,4.2-0.3,6.2c0,1.4,0.1,3.3,0,3.4c-1.4,0.5-3.8,1.5-5.1,2c-6.3,2.5-2.7,7.4,0.1,7.1
				c2.1-0.2,9.8-1.7,11.2-5.8C79.7,21.1,76.5,11.5,75.5,9.1z"/>
			<path class="st63" d="M72.2,21.6c-0.4,0.2-1,0.4-1.5,0.6l0.6,0.2c0,0,1.8,1.2,2.2,0.8c0.3-0.3-0.6-4.2-0.6-10.8
				c0-3.9-1.8-5.3-2.3-6.1c0.4,0.7,1.1,1.2,1.4,1.9c0.5,1.2,0.6,2.5,0.6,3.7c0.1,2.1-0.3,4.2-0.3,6.2C72.3,19.6,72.3,21.6,72.2,21.6
				z"/>
			<path class="st57" d="M76.5,12.2c1,3.9,2,9.2,1.6,10c-0.3,0.8-2,1.5-1.4,3.5c-1.1,3.1-5.4,3.6-5.4,3.6s0.5,0,1.1,0.1
				c2.5-0.9,5.1-2.4,5.9-4.6c1.2-3.4-1.3-11.5-2.6-14.8C75.8,9.9,76.2,11,76.5,12.2z"/>
			<path class="st57" d="M71.9,21.7c0,0-1.1,1.7,4.3,5.9c-1.8,1.3-2.5,1.6-2.5,1.6l-3.1-6.9L71.9,21.7z"/>
			<path class="st58" d="M59.4,26.4c3.6-1.3,11.6-4.6,12.3-5.2c-1.5,3.1,4.7,7.2,5.6,7c-4.6,4.3-9.1,7.6-12,8.2
				C60.9,37.3,55.4,27.8,59.4,26.4z"/>
			<path class="st65" d="M71.7,21.2c-0.6,0.5-8.7,3.9-12.3,5.2c-0.1,0-0.1,0-0.2,0.1l-0.7,0.2c0,0,10.1-2.6,13-3.4
				C71.4,22.6,71.4,21.9,71.7,21.2z"/>
			<path class="st59" d="M74.3,26.5c-0.2,2.3-4.7,8.9-9,9.9c2.9-0.6,7.4-3.9,12-8.2C76.9,28.3,75.6,27.6,74.3,26.5z"/>
		</g>
	</g>
	<g>
		<path class="st4" d="M50.8,74.9c1.5-0.7,2.7-1.7,3.8-2.8c1.1-1.1,2.2-2.3,3.1-3.6c1-1.3,1.9-2.6,2.7-4c0.8-1.4,1.6-2.8,2.4-4.2
			l-1.1,2.2l-1.2,2.1c-0.8,1.4-1.7,2.7-2.7,4c-1,1.3-2,2.5-3.2,3.6C53.6,73.2,52.3,74.2,50.8,74.9z"/>
		<path class="st4" d="M46,66.3c0.7-0.6,1.2-1.4,1.7-2.2c0.5-0.8,1-1.6,1.4-2.4c0.9-1.6,1.7-3.3,2.6-5c-0.7,1.7-1.6,3.4-2.4,5
			c-0.5,0.8-0.9,1.6-1.5,2.4C47.3,65,46.7,65.7,46,66.3z"/>
		<path class="st4" d="M29,64.2c2.7-0.1,5.5,0.1,8.2,0.3c2.7,0.3,5.4,0.8,8,1.8c-2.6-0.9-5.3-1.3-8-1.6C34.5,64.3,31.7,64.2,29,64.2
			z"/>
		<path class="st4" d="M26.7,69.5c3.5,1.3,7,2.6,10.6,3.6c1.8,0.6,3.6,1,5.4,1.5c1.8,0.4,3.7,0.7,5.5,0.7c-1.9,0.1-3.7-0.2-5.6-0.6
			c-1.8-0.4-3.6-0.9-5.4-1.4C33.6,72.2,30.1,70.9,26.7,69.5z"/>
		<path class="st4" d="M69.4,53.4c2.3,2.9,4.6,5.9,6.5,9c1,1.6,1.9,3.2,2.6,4.9c0.4,0.9,0.7,1.7,0.9,2.6c0.2,0.9,0.3,1.8,0.3,2.8
			c0,1.9-0.3,3.7-0.7,5.5c-0.4,1.8-1,3.6-1.6,5.3c-1.3,3.5-2.8,6.9-4.5,10.2c1.7-3.3,3.2-6.7,4.5-10.2c0.6-1.8,1.2-3.5,1.5-5.3
			c0.4-1.8,0.7-3.6,0.6-5.5c0-0.9-0.1-1.8-0.3-2.7c-0.2-0.9-0.5-1.8-0.9-2.6c-0.7-1.7-1.6-3.3-2.6-4.9
			C73.9,59.3,71.7,56.3,69.4,53.4z"/>
		<path class="st4" d="M67.4,91.7c0.1-2.8,0.4-5.6,0.8-8.3c0.4-2.8,1-5.5,2-8.1l0,0c0.1-1.1-0.4-2.2-1-3.2c-0.6-1-1.4-1.8-2.2-2.7
			c-1.6-1.7-3.3-3.3-4.7-5.1c1.5,1.7,3.2,3.3,4.8,5c0.8,0.8,1.6,1.7,2.2,2.7c0.6,1,1.1,2.1,1.1,3.3l0,0l0,0c-1,2.6-1.5,5.3-2,8.1
			C67.9,86.2,67.6,89,67.4,91.7z"/>
		<path class="st4" d="M65.2,36.4c1.2-0.3,2.3-0.9,3.3-1.5c1-0.6,2.1-1.3,3-2c2-1.4,3.8-3,5.7-4.6c-0.9,0.9-1.8,1.7-2.7,2.5
			c-0.9,0.8-1.9,1.6-2.9,2.3c-1,0.7-2,1.4-3.1,2C67.6,35.6,66.4,36.2,65.2,36.4z"/>
		<path class="st4" d="M59.3,26.4l6.1-2.5c2-0.8,4.1-1.6,6.1-2.5c-1.9,1-4,1.8-6,2.7C63.4,24.9,61.3,25.7,59.3,26.4z"/>
		<path class="st4" d="M71.7,21.2c-0.3,0.6-0.1,1.4,0.1,2c0.3,0.6,0.7,1.2,1.1,1.7c0.9,1.1,1.9,1.9,3,2.8c-0.6-0.4-1.1-0.8-1.7-1.2
			c-0.5-0.4-1-0.9-1.5-1.4c-0.4-0.5-0.8-1.1-1.1-1.8C71.4,22.6,71.3,21.8,71.7,21.2z"/>
		<path class="st4" d="M71.1,7.1c0.3,0.3,0.5,0.7,0.7,1.1C71.9,8.6,72,9,72.2,9.4c0.2,0.8,0.3,1.7,0.4,2.6l0,0v0
			c0,1.6-0.1,3.1-0.2,4.7L72.2,19c0,0.8-0.1,1.6,0,2.3c-0.2-0.8-0.1-1.6-0.1-2.4l0.1-2.4c0.1-1.6,0.2-3.1,0.2-4.7l0,0
			c-0.1-0.9-0.2-1.7-0.4-2.6C72,9,71.8,8.6,71.7,8.2C71.5,7.8,71.4,7.4,71.1,7.1z"/>
		<path class="st4" d="M53.7,48c0.4-4.1,0.7-8.3,0.8-12.4c0.1-2.1,0-4.2,0.3-6.2c0.3-2,0.8-4.1,1.9-5.9c-1,1.8-1.4,3.9-1.7,5.9
			c-0.3,2.1-0.2,4.1-0.3,6.2C54.5,39.8,54.2,43.9,53.7,48z"/>
		<path class="st4" d="M54.7,55.1c2.2-0.3,4.3-0.7,6.5-1.1c2.2-0.4,4.3-0.9,6.4-1.4c-2.1,0.7-4.2,1.1-6.4,1.6
			C59,54.5,56.9,54.9,54.7,55.1z"/>
		<path class="st4" d="M68.3,39.9c0.2,1.5,0.3,3.1,0.4,4.6c0.1,1.5,0.2,3.1,0.2,4.6c-0.2-1.5-0.3-3.1-0.4-4.6
			C68.4,43,68.3,41.4,68.3,39.9z"/>
		<path class="st4" d="M72.4,32.9c0.4,0.6,0.7,1.3,1.2,1.9l0,0.1l-0.1,0c-0.7,0.5-1.5,1-2.3,1.4c-0.8,0.4-1.6,0.8-2.4,1.2
			c0.8-0.4,1.6-0.9,2.3-1.3l2.3-1.4l0,0.1C73,34.3,72.7,33.6,72.4,32.9z"/>
		<path class="st4" d="M74.5,34c0.2,0.1,0.2,0.4,0,0.5C74.5,34.3,74.5,34.2,74.5,34z"/>
		<path class="st4" d="M25.4,69.6c-0.5-1-0.5-2.2,0.1-3.2C25.1,67.4,25.1,68.5,25.4,69.6z"/>
		<path class="st4" d="M20.4,73c-0.2-0.5,0-1.1,0.1-1.6c0.1-0.5,0.2-1.1,0.4-1.6c0.4-1,0.8-2.1,1.4-3c-0.5,1-0.9,2-1.2,3.1
			c-0.2,0.5-0.3,1-0.5,1.6C20.5,72,20.3,72.5,20.4,73z"/>
		<path class="st4" d="M22,73.3c0.3-0.4,0.7-0.8,1-1.1c0.4-0.3,0.7-0.7,1.1-1c-0.3,0.4-0.7,0.8-1,1.1C22.7,72.6,22.4,73,22,73.3z"/>
		<path class="st4" d="M22.9,65.1c0.3-0.8,0.6-1.6,0.9-2.5l0-0.1l0.1,0c0.5,0.2,0.9,0.4,1.4,0.6c0.4,0.2,0.9,0.5,1.2,0.8
			c-0.4-0.3-0.8-0.5-1.3-0.7c-0.4-0.2-0.9-0.4-1.4-0.6l0.1,0C23.6,63.5,23.3,64.3,22.9,65.1z"/>
		<path class="st4" d="M67.4,94.7c-0.1,0.6-0.2,1.2-0.3,1.9c-0.1,0.6-0.2,1.2-0.3,1.9l-0.1-0.1c1,0.3,2,0.3,3,0.3
			c-0.5,0-1,0.1-1.5,0c-0.5,0-1-0.1-1.5-0.2l-0.1,0l0-0.1c0.1-0.6,0.2-1.2,0.3-1.8C67.1,95.9,67.3,95.3,67.4,94.7z"/>
		<path class="st4" d="M70.7,98.6c1.2,0.5,2.4,1,3.6,1.2c0.6,0.1,1.3,0.2,1.9,0.1c0.6-0.1,1.2-0.5,1.3-1.2c0,0.7-0.7,1.2-1.3,1.3
			c-0.6,0.2-1.3,0.1-1.9,0C73.1,99.6,71.8,99.2,70.7,98.6z"/>
		<path class="st4" d="M74.1,96.5c0.7,0.3,1.3,0.6,2,0.9c0.6,0.4,1.3,0.7,1.9,1.1c-0.7-0.3-1.3-0.6-2-0.9
			C75.4,97.2,74.7,96.9,74.1,96.5z"/>
		<path class="st4" d="M56.8,23.2c-0.2,0.4,0,0.8,0.2,1.1c0.3,0.3,0.7,0.5,1,0.6c0.8,0.3,1.6,0.5,2.4,0.7c-0.8-0.1-1.7-0.3-2.5-0.6
			c-0.4-0.2-0.8-0.4-1.1-0.7C56.7,24.1,56.6,23.6,56.8,23.2z"/>
		<path class="st4" d="M63.6,24.6c-0.6-0.8-1.6-1-2.5-1.1c-0.9-0.1-1.9-0.1-2.7-0.6c0.9,0.3,1.8,0.3,2.8,0.4
			c0.5,0.1,0.9,0.1,1.4,0.3C63,23.8,63.4,24.2,63.6,24.6z"/>
		<path class="st4" d="M71.4,19.6c-0.2-0.7-0.4-1.4-0.7-2.1c-0.3-0.7-1.1-0.8-1.7-1.3c-0.3-0.3-0.4-0.7-0.4-1.1
			c0-0.4-0.1-0.7-0.1-1.1c0-0.7,0.1-1.5,0.2-2.2c-0.1,0.7-0.1,1.4-0.1,2.2c0,0.4,0,0.7,0.1,1.1c0,0.4,0.1,0.7,0.4,0.9
			c0.5,0.5,1.4,0.6,1.7,1.4C71.1,18.1,71.3,18.9,71.4,19.6z"/>
		<path class="st4" d="M69.6,13.7c-0.1,0.2,0.2,0.4,0.4,0.4c0.2,0,0.4-0.2,0.5-0.4c0.2-0.4,0.3-0.8,0.1-1.3l0-0.1l0.1,0
			c0.3-0.1,0.5,0.2,0.5,0.3l0.2,0.6l0.4,1.2c0.3,0.8,0.5,1.5,0.7,2.3c-0.3-0.7-0.6-1.5-0.9-2.3l-0.4-1.1c-0.1-0.3-0.2-0.9-0.5-0.8
			l0-0.1c0.1,0.5,0.1,1-0.2,1.3c-0.1,0.2-0.3,0.4-0.6,0.4C69.8,14.2,69.5,14,69.6,13.7z"/>
		<path class="st4" d="M74,34.3c0.5-0.2,1-0.5,1.4-0.8c0.4-0.3,0.9-0.7,1.2-1.1c0.2-0.4,0.1-1.1,0.2-1.6l0-0.8l0-0.4l0-0.2
			c0,0,0-0.1,0-0.1c0,0-0.1,0,0,0c-0.1,0,0-0.1,0,0c0,0,0,0.1,0,0.1l0,0.2l0,0.4l0,0.8l0,0.8c0,0.1,0,0.3,0,0.4c0,0.1,0,0.3-0.1,0.4
			c-0.4,0.4-0.8,0.8-1.3,1.1C75.1,33.9,74.6,34.1,74,34.3z"/>
		<path class="st4" d="M68.5,95.3c0.5,0.1,1.1,0.3,1.6,0.3c0.5,0.1,1.1,0.1,1.6,0.2c-0.5,0.1-1.1,0.1-1.6,0
			C69.5,95.7,68.9,95.6,68.5,95.3z"/>
		<path class="st4" d="M54.6,52.8c1.7-0.2,3.3-0.3,5-0.6c1.7-0.2,3.3-0.5,5-0.8c-1.6,0.4-3.3,0.7-5,0.9C58,52.6,56.3,52.8,54.6,52.8
			z"/>
		<path class="st4" d="M59.4,21.9c0.3,0,0.6,0,0.9,0c0.3,0.1,0.6,0.1,0.9,0.2c-0.3,0-0.6,0-0.9,0C60,22,59.7,22,59.4,21.9z"/>
		<path class="st4" d="M75.2,5.4c0-0.6,0.1-1.1,0.1-1.7c0.1-0.6,0-1.1,0.1-1.7c0.1,0.6,0.1,1.1,0.1,1.7C75.4,4.3,75.4,4.8,75.2,5.4z
			"/>
		<path class="st4" d="M76.5,27.5c0.5-0.5,1-1,1.4-1.5c0.4-0.6,0.7-1.2,0.8-1.9c0.1-0.7,0.1-1.4,0.1-2c0-0.3-0.1-0.7-0.1-1
			c-0.1-0.3,0-0.7-0.3-1c0.3,0.2,0.3,0.6,0.4,0.9c0.1,0.3,0.1,0.7,0.1,1c0.1,0.7,0.1,1.4,0,2.1c-0.1,0.7-0.4,1.4-0.8,1.9
			C77.6,26.6,77,27.1,76.5,27.5z"/>
	</g>
</g>
</svg>
