<?xml version="1.0" encoding="utf-8"?>
<!-- Generator: Adobe Illustrator 25.2.1, SVG Export Plug-In . SVG Version: 6.00 Build 0)  -->
<svg version="1.1" id="Layer_1" xmlns="http://www.w3.org/2000/svg" xmlns:xlink="http://www.w3.org/1999/xlink" x="0px" y="0px"
	 viewBox="0 0 100 100" style="enable-background:new 0 0 100 100;" xml:space="preserve">
<style type="text/css">
	.st0{fill:#B2A740;}
	.st1{opacity:0.6;fill:#B2A740;}
	.st2{fill:#FFF203;}
	.st3{opacity:0.5;fill:#FFF203;}
	.st4{fill:#1A1A1A;}
	.st5{fill:#A799E6;}
	.st6{fill:#9E996A;}
	.st7{fill:#CDB3ED;}
	.st8{opacity:0.6;fill:#CDB3ED;}
	.st9{opacity:0.3;fill:#FFF203;}
	.st10{opacity:0.5;fill:#CDB3ED;}
	.st11{opacity:0.4;fill:#9E996A;}
	.st12{opacity:0.4;}
	.st13{opacity:0.5;fill:#B2A740;}
	.st14{fill:#FFF426;}
	.st15{opacity:0.4;fill:#CDB3ED;}
	.st16{opacity:0.7;fill:#CDB3ED;}
	.st17{opacity:0.6;fill:#FFF203;}
	.st18{opacity:0.6;}
	.st19{opacity:0.7;fill:#FFF203;}
	.st20{fill:#8A604F;}
	.st21{opacity:0.4;fill:#8A604F;}
	.st22{fill:#774632;}
	.st23{fill:none;}
	.st24{fill:#E64B00;}
	.st25{opacity:0.3;fill:#E64B00;}
	.st26{opacity:0.6;fill:#E64B00;}
	.st27{fill:#386AC4;}
	.st28{opacity:0.5;}
	.st29{fill:#D1847E;}
	.st30{opacity:0.6;fill:#D1847E;}
	.st31{opacity:0.5;fill:#386AC4;}
	.st32{opacity:0.3;fill:#386AC4;}
	.st33{opacity:0.4;fill:#386AC4;}
	.st34{opacity:0.7;fill:#386AC4;}
	.st35{opacity:0.7;fill:#E64B00;}
	.st36{fill:#253E6B;}
	.st37{fill:#7A43C3;}
	.st38{fill:#CDCAC6;}
	.st39{opacity:0.6;fill:#CDCAC6;}
	.st40{opacity:0.5;fill:#7A43C3;}
	.st41{opacity:0.3;fill:#7A43C3;}
	.st42{fill:#543961;}
	.st43{fill:#E2BA33;}
	.st44{opacity:0.7;fill:#E2BA33;}
	.st45{opacity:0.6;fill:#7A43C3;}
	.st46{opacity:0.5;fill:#E2BA33;}
	.st47{opacity:0.4;fill:#E2BA33;}
	.st48{fill:#E2DA7E;}
	.st49{opacity:0.4;fill:#E2DA7E;}
	.st50{fill:#F2EF94;}
	.st51{opacity:0.4;fill:#FFFFFF;}
	.st52{opacity:0.5;fill:#CDCAC6;}
	.st53{fill:#6C41B1;}
	.st54{fill:#090704;}
	.st55{fill:#D8CFC0;}
	.st56{fill:#2A41E8;}
	.st57{opacity:0.6;fill:#D8CFC0;}
	.st58{fill:#FF822A;}
	.st59{opacity:0.5;fill:#FF822A;}
	.st60{fill:#A58F64;}
	.st61{opacity:0.5;fill:#A58F64;}
	.st62{fill:#561A91;}
	.st63{opacity:0.4;fill:#D8CFC0;}
	.st64{opacity:0.7;fill:#D8CFC0;}
	.st65{opacity:0.3;fill:#FF822A;}
	.st66{opacity:0.7;fill:#FF822A;}
	.st67{opacity:0.3;}
	.st68{fill:#E83C7D;}
	.st69{fill:#BF9726;}
	.st70{opacity:0.4;fill:#E83C7D;}
	.st71{fill:#767676;}
	.st72{opacity:0.5;fill:#E83C7D;}
	.st73{opacity:0.5;fill:#767676;}
	.st74{opacity:0.9;fill:#767676;}
	.st75{opacity:0.3;fill:#E83C7D;}
	.st76{opacity:0.4;fill:#7F3451;}
	.st77{opacity:0.4;fill:#BF9726;}
	.st78{opacity:0.7;fill:#BF9726;}
	.st79{opacity:0.6;fill:#E83C7D;}
	.st80{opacity:0.2;fill:#E83C7D;}
	.st81{fill:#7F3451;}
	.st82{fill:#968B22;}
	.st83{opacity:0.4;fill:#968B22;}
	.st84{fill:#FFEAA6;}
	.st85{fill:#1274C4;}
	.st86{fill:#D1D1D1;}
	.st87{opacity:0.3;fill:#1274C4;}
	.st88{opacity:0.6;fill:#D1D1D1;}
	.st89{opacity:0.5;fill:#1274C4;}
	.st90{fill:#0A3F6B;}
	.st91{fill:#E67E5B;}
	.st92{opacity:0.6;fill:#D46642;}
	.st93{opacity:0.6;fill:#1274C4;}
	.st94{opacity:0.4;fill:#001B6A;}
	.st95{opacity:0.3;fill:#D46642;}
	.st96{fill:#1065AB;}
	.st97{opacity:0.4;fill:#1274C4;}
	.st98{opacity:0.7;fill:#E67E5B;}
	.st99{fill:#C7C4BE;}
	.st100{fill:#EFEBE0;}
	.st101{opacity:0.3;fill:#C7C4BE;}
	.st102{opacity:0.5;fill:#D1D1D1;}
	.st103{opacity:0.9;fill:#D1D1D1;}
	.st104{fill:#0F64A8;}
	.st105{fill:#D1AB3E;}
	.st106{opacity:0.5;fill:#D1AB3E;}
	.st107{opacity:0.8;fill:#D1AB3E;}
	.st108{opacity:0.1;fill:#D1AB3E;}
	.st109{fill:#C16A23;}
	.st110{opacity:0.5;fill:#C16A23;}
	.st111{fill:#6DEC6E;}
	.st112{opacity:0.5;fill:#6DEC6E;}
	.st113{fill:#826315;}
	.st114{opacity:0.3;fill:#EC1C24;}
	.st115{opacity:0.4;fill:#826315;}
	.st116{fill:#C87C3D;}
	.st117{fill:#EE3A40;}
	.st118{fill:none;stroke:#1A1A1A;stroke-width:0.1469;stroke-linejoin:round;stroke-miterlimit:10;}
	.st119{fill:none;stroke:#CA7F42;stroke-width:0.1352;stroke-miterlimit:10;}
	.st120{opacity:0.5;fill:#FFFFFF;}
	.st121{fill:#C57330;}
	.st122{opacity:0.3;fill:#C57330;}
	.st123{opacity:0.5;fill:#8FF08F;}
	.st124{opacity:0.5;fill:#C57330;}
	.st125{fill:#8FF08F;}
	.st126{opacity:0.5;fill:#EE3A40;}
	.st127{opacity:0.3;fill:#EE3A40;}
	.st128{opacity:0.4;fill:#EE3A40;}
	.st129{opacity:0.2;fill:#EE3A40;}
	.st130{opacity:0.4;fill:#C57330;}
	.st131{opacity:0.4;fill:#D1AB3E;}
	.st132{opacity:0.6;fill:#D1AB3E;}
	.st133{opacity:0.9;fill:#D1AB3E;}
	.st134{fill:none;stroke:#1A1A1A;stroke-width:0.1469;stroke-miterlimit:10;}
	.st135{opacity:0.7;}
	.st136{fill:#F05459;}
	.st137{fill:#EADBE1;}
	.st138{fill:#D2B1BE;}
	.st139{fill:none;stroke:#EED3B0;stroke-width:0.1115;stroke-miterlimit:10;}
	.st140{opacity:0.5;fill:#D2B1BE;}
	.st141{fill:#561B32;}
	.st142{fill:#E10A52;}
	.st143{opacity:0.4;fill:#E10A52;}
	.st144{opacity:0.2;fill:#E10A52;}
	.st145{fill:#DEC5CF;}
	.st146{opacity:0.6;fill:#D2B1BE;}
	.st147{opacity:0.3;fill:#D2B1BE;}
	.st148{opacity:0.4;fill:#DEC5CF;}
	.st149{fill:#ECCEA7;}
	.st150{opacity:0.4;fill:#ECCEA7;}
	.st151{opacity:0.9;fill:#ECCEA7;}
	.st152{opacity:0.9;fill:#E1B375;}
	.st153{fill:#E1B375;}
	.st154{opacity:0.5;fill:#ECCEA7;}
	.st155{opacity:0.8;fill:#ECCEA7;}
	.st156{opacity:0.7;fill:#ECCEA7;}
	.st157{opacity:0.6;fill:#E10A52;}
	.st158{opacity:0.7;fill:#E10A52;}
	.st159{fill:#D89C4C;}
	.st160{opacity:0.8;fill:#D89C4C;}
	.st161{fill:#D5FEE3;}
	.st162{opacity:0.4;fill:#EFD7B7;}
	.st163{fill:#EBCCA2;}
	.st164{opacity:0.4;fill:#EBCCA2;}
	.st165{fill:#EDD1AD;}
	.st166{fill:url(#SVGID_1_);}
	.st167{opacity:0.3;fill:#FFFFFF;}
	.st168{fill:url(#SVGID_2_);}
	.st169{fill:#B1778D;}
	.st170{fill:url(#SVGID_3_);}
	.st171{opacity:0.2;}
	.st172{fill:#FFFFFF;}
	.st173{fill:url(#SVGID_4_);}
	.st174{fill:url(#SVGID_5_);}
	.st175{opacity:0.2;fill:url(#SVGID_6_);}
	.st176{opacity:0.4;fill:url(#SVGID_7_);}
	.st177{opacity:0.4;fill:url(#SVGID_8_);}
	.st178{clip-path:url(#SVGID_10_);fill:#764659;}
	.st179{clip-path:url(#SVGID_10_);fill:#78495B;}
	.st180{clip-path:url(#SVGID_10_);fill:#794B5D;}
	.st181{clip-path:url(#SVGID_10_);fill:#7D4F61;}
	.st182{clip-path:url(#SVGID_10_);fill:#7F5263;}
	.st183{clip-path:url(#SVGID_10_);fill:#805465;}
	.st184{clip-path:url(#SVGID_10_);fill:#825667;}
	.st185{clip-path:url(#SVGID_10_);fill:#845969;}
	.st186{clip-path:url(#SVGID_10_);fill:#855B6B;}
	.st187{clip-path:url(#SVGID_10_);fill:#875D6D;}
	.st188{clip-path:url(#SVGID_10_);fill:#895F70;}
	.st189{clip-path:url(#SVGID_10_);fill:#E0004B;}
	.st190{clip-path:url(#SVGID_10_);fill:#E0034D;}
	.st191{clip-path:url(#SVGID_10_);fill:#E10850;}
	.st192{clip-path:url(#SVGID_10_);fill:#E10A52;}
	.st193{clip-path:url(#SVGID_10_);fill:#E20F56;}
	.st194{clip-path:url(#SVGID_10_);fill:#E21258;}
	.st195{clip-path:url(#SVGID_10_);fill:#E3175B;}
	.st196{fill:url(#SVGID_11_);}
	.st197{fill:url(#SVGID_12_);}
	.st198{fill:url(#SVGID_13_);}
	.st199{opacity:0.2;fill:#FFFFFF;}
	.st200{fill:#2F2C1E;}
	.st201{fill:url(#SVGID_14_);}
	.st202{fill:url(#SVGID_15_);}
	.st203{opacity:0.1;fill:#FFFFFF;}
	.st204{fill:url(#SVGID_16_);}
	.st205{fill:url(#SVGID_17_);}
	.st206{opacity:0.2;fill:url(#SVGID_18_);}
	.st207{fill:url(#SVGID_19_);}
	.st208{fill:url(#SVGID_20_);}
	.st209{fill:url(#SVGID_21_);}
	.st210{opacity:0.2;fill:url(#SVGID_22_);}
	.st211{fill:url(#SVGID_23_);}
	.st212{fill:url(#SVGID_24_);}
	.st213{opacity:0.4;fill:url(#SVGID_25_);}
	.st214{opacity:0.4;fill:url(#SVGID_26_);}
	.st215{opacity:0.4;fill:#561B32;}
	.st216{fill:#E52968;}
	.st217{fill:none;stroke:#AC5773;stroke-width:3.185000e-02;stroke-miterlimit:10;}
	.st218{fill:none;stroke:#F7EBDB;stroke-width:3.166700e-02;stroke-miterlimit:10;}
	.st219{fill:#FBB03B;}
</style>
<g>
	<g>
		<path class="st68" d="M52.6,14.2c0,0-0.1-1.3,1.8-3.2c1.9-1.9,4.4-3,5.8-1.7C61.5,10.6,53,17.4,52.6,14.2z"/>
		<path class="st68" d="M48.1,28.2c0,0-0.4,0.3,1.6,2.2c2,2,3.9,5.9,4.2,4.6C54.2,33.8,51.2,25.7,48.1,28.2z"/>
		<path class="st69" d="M49.4,23.4c-0.1,0.1-0.6,5.5-1.9,7.9c-1.7,3.1-4.5,3.5-4.8,4.5c-0.5,1.7,0.8,3.6,2.4,3
			c1.1-0.4,4.8-0.1,7.1-2.2c1-0.9,2.1-3.5,1.7-4.9C53.3,29,51.6,21.2,49.4,23.4z"/>
		<path class="st68" d="M63.9,91.7c0,0-3.4,3.7-0.8,5.3c2.6,1.6,5.9-2.5,4.5-4.9C66.2,89.7,63.9,91.7,63.9,91.7z"/>
		<path class="st70" d="M67.6,94.7c0.2-1,0-1.9-0.7-1.5c-1.6,0.8-2.1,3.8-3.7,3.2c-1.5-0.6-0.8-2.3-0.8-2.5
			c-0.5,1.1-0.6,2.3,0.7,3.1C64.8,98,66.9,96.5,67.6,94.7z"/>
		<path class="st71" d="M63.2,93.9c0,0.3,0.1,0.7,0.3,0.9c0.1,0.1,0.3,0.1,0.4,0.1c0.5,0.1,0.9-0.1,1.3-0.4c0.4-0.3,0.6-0.7,0.8-1.1
			c0.2-0.6,0.3-1.3,0.1-2c-0.3-1.1-1.5-0.4-1.9,0.2C63.6,92.3,63.2,93.2,63.2,93.9z"/>
		<path class="st68" d="M59.7,40.3c1.5,6.1,1.9,15,2.1,21.7c0.2,11,0.6,22,3,29c1.4,2,5.7,2.3,6.8-0.4c1.1-2.7,5.2-48.5,1.1-53.9"/>
		<path class="st72" d="M73.1,77.4c0.1-1.3,0.2-2.7,0.3-4.1c-0.7-2.3-2.2-4.6-2.2-4.6s-1.5,6.1-4.7,5.4c-3.2-0.7-4.3-16.4-4.1-23.5
			c0.2-7.1,2.2-6.6,2.4-6.6L60.7,40l-1,0.3c1.5,6.1,1.9,15,2.1,21.7c0.1,5.7,0.3,11.3,0.7,16.4c0.9,0.4,1.8,0.8,2.4,1.2
			C66.1,80.3,70.8,79.7,73.1,77.4z"/>
		<path class="st73" d="M64.1,91.7c-0.3,0.3-0.5,0.8-0.7,1.2c-0.1,0.4,0.2,0.8,0.5,1c0.4,0.3,1.1,0.6,1.6,0.3
			c0.2-0.2,0.3-0.5,0.4-0.8c0.2-0.6,0.3-1.3,0.1-2C65.7,90.3,64.6,91,64.1,91.7z"/>
		<path class="st4" d="M61.2,74.3c0,0,0.2-1.3,1.4-0.8c1.5-0.8,2.3-0.1,2.3-0.1s1.3-0.5,2.2,0.2c1.4-0.9,2.8,0,2.8,0.4
			c-0.1,1.2-1.2,1.5-1.9,1.5C67.2,75.6,61.2,74.3,61.2,74.3z"/>
		<path class="st71" d="M61.2,74.1c0,0,1.7-0.4,4.7-0.1c1.3,0.1,2.9,0.7,4.7,1.1c-1.9,13.1-2.8,19-2.8,19s-3.6,0.1-4.3-2.4
			C62.8,89.1,61.1,74.8,61.2,74.1z"/>
		<g>
			<path class="st73" d="M69,80.7c0,0,0.9-1.6-0.5-1.6c-1.4-0.1-1-3-0.9-3.2c0,0.3-0.5,3.4-2,3.2c-1.5-0.1-1.4-3.5-1.4-3.6
				c0-0.1-0.2,3.6-1.4,3.5c-1.1-0.1-1.6-3.6-1.6-3.6c0.2,2,0.7,6.3,1.2,10c-0.1-1,0-1.7,0.2-1.8c0.5-0.2,0.9,4.4,1.4,7
				c-0.4-2.5-0.1-7,0.7-7.2c1.4-0.3,1.4,9.4,1.4,9.4s0-9.8,0.9-9.6c0.9,0.2,0.2,9.4,0.2,9.4L69,80.7z"/>
		</g>
		<path class="st71" d="M61.5,80.9c0,0,4,2.3,9.2-0.3c0.4-0.3,0.5-1.6-0.3-1.7c-2.9,1.3-6.8,1.1-8.8,0
			C60.8,79.9,61.5,80.9,61.5,80.9z"/>
		<path class="st74" d="M70.8,80.6c0.4-0.3,0.5-1.6-0.3-1.7c-2.9,1.3-6.8,1.1-8.8,0c-0.9,1-0.1,2-0.1,2S65.5,83.2,70.8,80.6z
			 M61.7,80.3c-0.3-0.6,0-0.8,0.3-0.8c1.4,0.4,3.7,0.7,4.5,0.7c1.3,0,2.2,0.5,1.1,1.2C66.3,82,62.2,81.2,61.7,80.3z"/>
		<path class="st68" d="M75.6,32.5c-2.1-2.6-8.3-2.6-9.7,3.9c-1.2,5.9,7,12.6,5.4,27.2c-0.9,15.6-4.5,28.3-4.7,30.4
			c0.4,1.1,4.9,1.9,6.3,0.5c1.1-2.2,8.8-21.8,10.5-31.3C85,53.9,86.9,46.4,75.6,32.5z"/>
		<path class="st75" d="M75.6,32.5c-0.6-0.7-1.5-1.2-2.5-1.5l-1.8,3.1l1.2,5.8c0,0,6.1-3.3,4.9-0.7c-1.2,2.6-3.5,3.3-0.9,3.2
			c2.6-0.1,4.8,0.4,6.4,6.8c1.6,6.4,0.5,14.2-3.5,16c-4,1.8-6,5.8-0.9,7.4c0.8,0.3,1.6,0.4,2.2,0.6c1.2-3.8,2.2-7.3,2.7-10.1
			C85,53.9,86.9,46.4,75.6,32.5z"/>
		<path class="st72" d="M72.6,46.7c0,0-0.5,7.7,0.5,14.5c0.9,6.8-6.5,32.9-6.5,32.9s4.5-26.7,4.9-32C71.9,56.7,71.1,50,72.6,46.7z"
			/>
		<path class="st76" d="M66.2,94.3L68.4,75c0,0-0.4-2.3,0.5-3.7c0.5-2.6,2.1-4.9,2.2-5c0.1-0.1-3.4,26.3-3.4,26.3L66.2,94.3z"/>
		<path class="st71" d="M66.9,92.5c0,0,2.2-23.2,3.9-25.8c1.7-2.6,5.9-5.1,8.1-4.1c2.6,1.1,4,4.2,4,7.5c0,2.1-9.1,24.1-10,24.4
			C71.9,94.9,66.6,94,66.9,92.5z"/>
		<path class="st73" d="M72.9,94.5c1.2-1,10-22.3,10-24.4c0-0.5,0-1-0.1-1.5c0.1,1.9-0.9,4.1-2.3,3.9c-1.7-0.3,0-6,0-6
			s-2.2,5.4-3.3,4.9c-1.1-0.5,0.4-7.1,0.4-7.4c0-0.2-2,6.8-3.4,6.8c-1.3,0-0.8-4.6-1-4.8c-0.2-0.2-1,5.7-2.4,4.7
			c-1.3-1,0.9-5.2,0.9-5.2l0,0c-0.4,0.4-0.7,0.8-1,1.2c-1.4,2.2-3.2,19-3.8,24.2l0,0.3c0,0,1.9-16.4,3.5-15.5c1.6,0.9-1.8,16-1.8,16
			s4.4-16.6,6.1-16.1c1.8,0.5-1.3,7.6-3.5,17.2c6.4-18,8-16.3,7.8-14.8C78.8,80.5,74.8,90.2,72.9,94.5z"/>
		<path class="st71" d="M69.5,71.7c0,0,5.8-2,12,2.8c0.4,0.6,0.2,2.2-0.9,2.2c-3.4-2.4-8.6-3.3-11.6-2.4
			C68.2,72.9,69.5,71.7,69.5,71.7z"/>
		<path class="st74" d="M69.5,71.7c0,0-1.3,1.1-0.4,2.7c3-1,8.2-0.1,11.6,2.4c1.1,0,1.3-1.6,0.9-2.2C75.3,69.7,69.5,71.7,69.5,71.7z
			 M80.3,76.1c-6.1-4.1-10-1.6-10.9-2.5c-0.9-0.9,0.3-1.7,0.7-1.7c4.8-0.9,9,1.3,10.6,2.8C81.6,75.5,81,76.4,80.3,76.1z"/>
		<path class="st68" d="M50.9,18.8c0,0-1.7,2.9-2.8,9.4c2.8,0,5.7,7.1,5.7,7.1l5.9-9.4C59.7,25.9,52.5,18,50.9,18.8z"/>
		<path class="st72" d="M60.8,46.7c0,0,4.3,2.8,18.4-9.5c-3.6-5.6-6.8-7.8-6.8-7.8L60.1,43.8L60.8,46.7z"/>
		<path class="st68" d="M53.1,15.2c-1.4,1.8-7,11.1,7.4,29c5,1.3,17.5-5.7,18.2-7.6c0.6-1.7-1.3-1.7-1.8-3.5
			c-1.4-5.9-4.8-17.2-9.2-20.4C62.2,8.8,56,11.5,53.1,15.2z"/>
		<path class="st75" d="M76.9,33.1c-1-4.1-2.9-10.9-5.5-15.7l0,0c0,0,4.8,10.2,2.1,15.8c-2,4.2,1.8,3.4,4.1,4.5
			c0.6-0.5,1-0.9,1.1-1.2C79.3,34.8,77.3,34.9,76.9,33.1z"/>
		<path class="st72" d="M63.7,37.4c-8.8-1.8-12.8-13.7-12.8-13.7l-0.1,0.1c0.2,4.8,2.4,11.6,9.6,20.4c0.9,0.2,2.1,0.2,3.3,0
			C65.1,39.1,70.3,38.7,63.7,37.4z"/>
		<g>
			<g>
				<path class="st68" d="M48,5.6c0,0.1,0.1,0.1,0.1,0.2c0.4,0.7-0.3,2.3,0.1,2.5c0.4,0.1,1.5-0.1,1.6-0.3c0.1-0.1,0-1.1,0.1-2
					C49.4,5.7,48.7,5.6,48,5.6z"/>
				<path class="st72" d="M49.8,5.8c0.1,0.9-0.3,2.2-0.7,2.4c0.4-0.1,0.8-0.2,0.8-0.3c0.1-0.1,0-1.1,0.1-2C50,5.8,49.9,5.8,49.8,5.8
					z"/>
			</g>
			<path class="st4" d="M49,7.2c0.1,0.2,0.1,0.5-0.1,0.6s-0.5,0.1-0.6-0.1c-0.1-0.2-0.1-0.5,0.1-0.6C48.6,7,48.9,7,49,7.2z"/>
			<g>
				<path class="st4" d="M49.9,10.3C49.9,10.3,49.9,10.3,49.9,10.3c-0.7-1-1.5-2.9-1.5-2.9c0,0,0-0.1,0-0.1c0,0,0.1,0,0.1,0
					C48.5,7.4,49.3,9.3,49.9,10.3C50,10.3,50,10.3,49.9,10.3C49.9,10.3,49.9,10.3,49.9,10.3z"/>
			</g>
			<g>
				<g>
					<path class="st69" d="M51.1,8.8c0,0,2.8,3.1,2.7,4.3c0,1.2-1.4,2.9-1.4,3.5c0,0.6,5.8,0.9,8.3-0.8c0-2,0.1-3.3,0.8-4.9
						c-0.8-0.3-3.9-0.8-6.8-3.8C51.3,5,50.4,8,51.1,8.8z"/>
					<path class="st77" d="M60.7,15.8c0-1.9,0.2-3.1,0.7-4.7c-0.1-0.1-0.2-0.2-0.3-0.3c-2.2-0.6-3.2-1.1-5-2.4l-0.8,0
						c0,0,4.2,1.5,3.4,5.7c-1,1.5-4.4,1.8-5.2,0.1c-0.4,1-1.2,2-1.2,2.4C52.4,17.2,58.2,17.5,60.7,15.8z"/>
					<path class="st78" d="M54.5,9.5c0,0,0,1.5-1.2,2.2c-1.5-2.1-2.2-3.6-2.1-3.4C51.3,8.5,54.5,9.5,54.5,9.5z"/>
					<path class="st69" d="M55.2,8.5c-0.8,1.5-3.2,3-4.7,2.2c-1.5-0.8-2.6-5.1-1.8-6.6c0.8-1.5,3.4-2.2,4.9-1.3
						C55.2,3.7,56.1,7.1,55.2,8.5z"/>
					<path class="st4" d="M47.6,4.8c0,0-0.2,1.6,1.3,1c0.7,0.5,1.7-0.1,2-0.8c0.8-0.1,1.1,0.9,1.7,0.7c0.6-0.2,0.8,1.6,0.7,1.8
						c-0.2,0.2,0.5,0.3,0.8,0c0.3-0.3,0.2-2.4,0.9-2.1s0.6,2,0.5,2.6c0.6,0.6,1,0.7,1,0.7s0.9-3-0.3-4.9c-1.3-1.9-3.5-0.8-3.5-0.8
						S47.9,1,47.6,4.8z"/>
					<path class="st78" d="M49.7,8.6c-0.1-0.4-0.4-0.7-0.8-0.7c0.2,0.5,0.3,1,0.6,1.4C49.7,9.2,49.8,8.9,49.7,8.6z"/>
					<path class="st78" d="M53.2,7.5c0.1,0.4-0.2,0.9-0.6,1c-0.4,0.1-0.9-0.2-1-0.6c-0.1-0.4,0.2-0.9,0.6-1
						C52.6,6.7,53.1,7,53.2,7.5z"/>
				</g>
				<g>
					<path class="st68" d="M51.3,3.8c0,0.1,1.5,0.9,1.9,1.6c0.4,0.7-0.3,2.3,0.1,2.5c0.4,0.1,1.5-0.1,1.6-0.3c0.1-0.2-0.2-3,1-3.3
						L51.3,3.8z"/>
					<path class="st72" d="M51.5,4c0.3,0.2,0.8,0.5,1.2,0.9c0.1-0.3,0.5-0.5,1.2-0.4c1.4,0.1,0.7,3,0.1,3.3c0.4-0.1,0.8-0.2,0.8-0.3
						c0.1-0.2-0.2-3,1-3.3l-4.2-0.3C51.6,3.9,51.5,3.9,51.5,4z"/>
				</g>
				<path class="st68" d="M47.4,5.3c0,0,4.3-1.3,9.3-0.9c-0.9-4.7-5.3-4.8-7.3-3.7c-1.4,0.8-2.2,2.5-1.9,4.1
					C47.1,4.8,47.4,5.3,47.4,5.3z"/>
				<path class="st72" d="M49.2,4.8c1.7-0.3,4.5-0.7,7.5-0.5c-0.5-2.6-2.2-3.8-3.8-4.2c1.1,0.6,2,1.5,1.7,2.9
					C54.1,4.1,52.4,3.7,49.2,4.8C49.2,4.8,49.2,4.8,49.2,4.8z"/>
				<path class="st79" d="M49.9,0.4c-0.2,0.1-0.3,0.2-0.5,0.2c-1.4,0.8-2.2,2.5-1.9,4.1c-0.4,0.1-0.2,0.5-0.2,0.5s0.6-0.2,1.5-0.4
					C48.5,4.2,47.7,2.3,49.9,0.4z"/>
			</g>
			<g>
				<path class="st4" d="M49.5,10c-0.1,0-0.2,0-0.3,0c-0.4-0.2-0.1-1-0.1-1c0,0,0,0,0.1,0c0,0,0,0,0,0.1c-0.1,0.2-0.2,0.8,0.1,0.9
					c0.3,0.1,2.5-0.2,3.5-0.9l1.3-0.8l0.1-1.5l-0.7,0.3l-1.3,0.8c-1,0.6-3.2,1-3.6,0.9c-0.4-0.2-0.1-1-0.1-1c0,0,0,0,0.1,0
					c0,0,0,0,0,0.1c-0.1,0.2-0.2,0.8,0.1,0.9c0.3,0.1,2.5-0.2,3.5-0.9l1.3-0.8l0.8-0.3l0,0.1l-0.1,1.7l0,0l-1.3,0.8
					C52,9.6,50.3,10,49.5,10z"/>
			</g>
			<g>
				<path class="st4" d="M50.2,11.2c-0.1,0-0.2,0-0.2,0c-0.4-0.2-0.1-1-0.1-1c0,0,0,0,0.1,0c0,0,0,0,0,0.1c-0.1,0.2-0.2,0.8,0.1,0.9
					c0.3,0.1,2.4-0.3,3.4-1c0.7-0.4,1.1-0.9,1.2-0.9l-0.2-2.4l-0.2-0.1c0,0,0,0,0-0.1c0,0,0,0,0.1,0l0.2,0.2l0,0l0.2,2.5l0,0
					c0,0-0.5,0.5-1.3,1C52.6,10.8,50.9,11.2,50.2,11.2z"/>
			</g>
			<g>
				<path class="st4" d="M54.6,9.4C54.6,9.4,54.6,9.4,54.6,9.4l-0.8-1l-0.7-1.6c0,0,0-0.1,0-0.1c0,0,0.1,0,0.1,0l0.7,1.5L54.6,9.4
					C54.7,9.3,54.7,9.3,54.6,9.4C54.7,9.4,54.6,9.4,54.6,9.4z"/>
			</g>
			<path class="st4" d="M54.7,6.3c0.2,0.2,0.1,0.6-0.2,0.7c-0.2,0.2-0.6,0.1-0.7-0.2c-0.2-0.2-0.1-0.6,0.2-0.7
				C54.3,6,54.6,6.1,54.7,6.3z"/>
			<g>
				<path class="st4" d="M53,10.7C53,10.7,52.9,10.6,53,10.7c-0.6-1.1-1.3-2.8-1.3-2.8c0,0,0-0.1,0-0.1c0,0,0,0,0.1,0
					C51.7,7.8,52.4,9.5,53,10.7C53,10.6,53,10.6,53,10.7C53,10.7,53,10.7,53,10.7z"/>
			</g>
			<g>
				<path class="st4" d="M50.8,11.3C50.8,11.3,50.8,11.3,50.8,11.3c-0.5-1.2-1-2.9-1-2.9c0,0,0,0,0-0.1c0,0,0,0,0.1,0
					C49.9,8.4,50.4,10.1,50.8,11.3C50.9,11.3,50.9,11.3,50.8,11.3C50.8,11.3,50.8,11.3,50.8,11.3z"/>
			</g>
			<path class="st4" d="M47.7,4.1c0.7-0.2,1.5-0.3,2.3-0.5c0.8-0.1,1.5-0.2,2.3-0.3c-0.7,0.2-1.5,0.3-2.3,0.5
				C49.3,3.9,48.5,4,47.7,4.1z"/>
			<path class="st4" d="M48,2.2c0.8-0.9,1.7-1.9,3-2.2c1.3-0.2,2.5,0.3,3.4,1.2c-1-0.7-2.2-1.3-3.4-1C49.8,0.4,48.9,1.4,48,2.2z"/>
		</g>
		<path class="st68" d="M59.3,10.2c0,0,2.1,2.1-1.6,5.1c-2.5,1.2-4.7,0-4.4-0.5c-1.1,2-2.4,4-2.4,4s6.5,2.1,9.7-1.3
			c3.3-3.5,3-6.5,3-6.5L59.3,10.2z"/>
		<path class="st68" d="M57.2,15.5c0,0,3.2-2.9,1-5.8c0.5-1,2.1-1.2,2.9,0.8c0.8,2-0.3,6.6-0.3,6.7C60.7,17.3,57.2,15.5,57.2,15.5z"
			/>
		<path class="st72" d="M61,10.5c-0.4-0.9-0.9-1.4-1.4-1.5c0.5,0.3,1.7,1.3,1,4.1c-0.5,2.1-1.9,2.3-2.9,1.9
			c-0.3,0.4-0.5,0.6-0.5,0.6s3.6,1.8,3.6,1.7C60.7,17.1,61.8,12.5,61,10.5z"/>
		<path class="st68" d="M66.9,93.1c0,0,0.9,0.8,1.9,0.4c0.9-0.3,2.1-1.5,3.4,0.1c1.3,1.6,0,4.7,0,5.9s-5.1,0.2-6.3-1.5
			C64.6,96.2,66.9,93.1,66.9,93.1z"/>
		<path class="st80" d="M72.1,99.7c0.1-0.1,0.1-0.1,0.1-0.2c0-1.1,1.1-3.8,0.3-5.5c-0.5-0.4-0.9-0.7-0.9-0.7l0,1.3
			c1.2,0.7,0.4,4.4-0.5,3.1c-0.9-1.3-2,1.6-0.2,1.9C71.3,99.7,71.7,99.7,72.1,99.7z"/>
		<path class="st80" d="M68.7,97.5c-1.9,0.5-2.7-1-2.2-2.7c0.5-1.7,2.5-1,2.5-1l0-0.3c-0.1,0-0.2,0.1-0.3,0.1
			c-0.9,0.3-1.9-0.4-1.9-0.4s-2.2,3.2-1,4.9c0.6,0.8,2.1,1.5,3.5,1.8C70.3,98.9,70,97.2,68.7,97.5z"/>
		<path class="st81" d="M72.2,99.5c0-0.2,0-0.5,0.1-0.8c-0.3-0.2-0.3-0.4-0.7-0.7c-1.5-1.6-3.3,0.2-5-0.3c-0.8-0.2-1-1-1-1.8
			c-0.2,0.7-0.1,1.5,0.3,2.1C67.1,99.7,72.2,100.7,72.2,99.5z"/>
		<path class="st71" d="M69,93.4c0,0,0.3,3.2,1.8,3c1.6-0.2,2-1.7,1.9-2.3C72.6,93.4,71.1,91.4,69,93.4z"/>
		<path class="st73" d="M71.8,96c0.8-0.5,1-1.6,0.9-2c-0.1-0.6-1.7-2.6-3.7-0.7c0,0,0,0.1,0,0.3c0.1-0.1,0.2-0.2,0.3-0.3
			c0.5-0.4,1.7-0.4,2.2-0.1c0.8,0.4,0.9,1.2,0.8,1.8C72.2,95.4,72,95.7,71.8,96z"/>
		<path class="st68" d="M57.3,21c0,0-0.8,1,2.4,2.2c3.2,1.2,5.5,3.9,6.4,2.5c0.9-1.3,1.3-6.8-1.3-7.9C62.3,16.7,58.1,18,57.3,21z"/>
		<path class="st69" d="M49.3,29.4c0,0,5-4.9,7.4-6.1c1.2-1.4,2.3-8.2,5.6-8.5c3.3-0.3,4.3,1.8,4.3,5.2c0,2-1.7,4.9-4.1,7.4
			c-2.8,2.8-6.1,4.3-11.9,5.9C47.7,33,49.3,29.4,49.3,29.4z"/>
		<path class="st77" d="M50.6,33.2c5.7-1.6,9.1-3.1,11.9-5.9c2.4-2.4,4.1-5.4,4.1-7.4c0-1.2-0.1-2.3-0.5-3.1c-0.4-0.1-0.8-0.1-1.3,0
			c-2.1,0.2-3.9,0.4-5.4,0.5c-0.6,1-1.1,2.3-1.5,3.4c1.6-0.6,5.5-1.1,5.7,2.4c0.3,4.2-5.4,7.8-11.6,8.9c-1.1,0.2-1.9,0.5-2.5,1
			C49.8,33,50.1,33.2,50.6,33.2z"/>
		<g>
			<path class="st71" d="M48.1,36.7c0,0,0.1,0.6-0.6,0.8c-0.2,0.9-0.9,0.9-0.9,0.9s0,0.8-0.9,0.9c-0.5,0.7-1.3,1.2-1.7,1.1
				c-0.4-0.1-1.6-1.1-1.7-2c-0.2-0.9,0.8-1.4,1.4-1.7C44.3,36.3,47.3,35.3,48.1,36.7z"/>
			<path class="st71" d="M42.3,38.4c0,0-0.5-1.6,0.9-2.1c1.4-0.5,0.4,0.9,0.2,1.3C43.1,37.9,42.3,38.4,42.3,38.4z"/>
			<path class="st71" d="M52.1,31.5c0,0,0.1,0.6-0.6,0.8c-0.2,0.9-0.9,0.9-0.9,0.9s0,0.8-0.9,0.9c-0.5,0.7-1.3,1.2-1.7,1.1
				c-0.4-0.1-1.6-1.1-1.7-2c-0.2-0.9,0.8-1.4,1.4-1.7C48.3,31.1,51.3,30.1,52.1,31.5z"/>
			<path class="st71" d="M46.3,33.1c0,0-0.5-1.6,0.9-2.1c1.4-0.5,0.4,0.9,0.2,1.3C47.1,32.7,46.3,33.1,46.3,33.1z"/>
			<g>
				<path class="st82" d="M42.9,42.9c-3.5,3.9-17.6,17-21.8,18.6c-2.1,0.8-4.2-0.1-5-1.3c-0.9-1.3-0.2-2.9,0.3-3.7
					c2.6-3.8,17-16.1,21.6-18.8c0,0,0.9-0.1,1.4,0.2C41.2,38.9,43.5,42.3,42.9,42.9z"/>
				<path class="st83" d="M16.1,60.2C16,60.1,16,60,15.9,60c0-0.8-0.1-1.5-0.1-2.2c0.2-0.5,0.4-0.9,0.6-1.2c0.3-0.5,0.9-1.2,1.6-1.9
					l3.2,4.2c0,0-0.8,2.2,1.4,1.5c2.1-0.6,16.1-13.2,18.8-15.9c1.1-1.1,0.8-1.5-0.3-0.7c-1.4-0.2-4.2-1.2-6.4,0
					c-1.4,0.8-2.5,0.1-3.2-1.2c2.7-2.2,5.1-4,6.5-4.8c0,0,0.9-0.1,1.4,0.2c1.7,1,4.1,4.4,3.5,5c-3.5,3.9-17.6,17-21.8,18.6
					C19,62.3,16.9,61.4,16.1,60.2z"/>
				<path class="st84" d="M40.4,41l-0.9-1.1l9.4-7.9c0-0.1,0-0.2,0.1-0.3c0.2-0.1,0.4-0.1,0.5,0l0.6,0.8c0.1,0.2,0.1,0.4,0,0.5
					c-0.1,0.1-0.2,0.1-0.3,0.1L40.4,41z"/>
				<path class="st83" d="M40.8,40.1c0,0,6.6-5.1,8.9-7.1c0.5-0.4,0.3-0.6,0.3-0.6l0.1,0.2c0.1,0.2,0.1,0.4,0,0.5
					c-0.1,0.1-0.2,0.1-0.3,0.1l-9,7.6L40.8,40.1z"/>
				<path class="st83" d="M39.4,39.8l0.4-0.3c1.8,0.3,6.7-4.2,8.9-6.2c0.6-0.5,0.9-0.9,1.1-1.2l0.3,0.4c0.1,0.2,0.1,0.4,0,0.5
					c-0.1,0.1-0.2,0.1-0.3,0.1L40.4,41L39.4,39.8z"/>
				<path class="st84" d="M42.1,42.6c-3.5,3.9-17.7,16.7-21.9,18.5c-1.6,0.7-3.1,0.3-4.1-0.9c-1-1.2-1.2-3.2-0.7-3.9
					C18,52.5,33.7,39.7,38,37.8C38.8,37.4,42.7,42,42.1,42.6z"/>
				<path class="st83" d="M16.1,60.2c-1-1.2-1.2-3.2-0.7-3.9c0,0,0.1-0.1,0.1-0.1c0.4,1.4,1.5,2.7,2.8,3.6
					c3.2,2.1,20.6-13,21.3-17.3c0.5-3-1.5-3.9-2.6-4.2c0.4-0.2,0.7-0.4,1-0.5c0.8-0.4,4.7,4.2,4.1,4.9c-3.5,3.9-17.7,16.7-21.9,18.5
					C18.6,61.8,17.1,61.4,16.1,60.2z"/>
			</g>
			<g>
				<g>
					<path class="st71" d="M44.2,39.4c-0.2-0.5-0.1-1.3-0.6-2.1c-0.5-0.8-1.4-1.3-1.4-1.8c0-0.5,1.3-0.9,2.5,1.1
						C46.1,39.1,44.5,40.3,44.2,39.4z"/>
					<path class="st71" d="M44.7,39.6C44.7,39.7,44.7,39.7,44.7,39.6c0.5-0.1,1-1.2-0.1-3c-0.7-1.2-1.4-1.6-1.9-1.5
						c0.3,0.2,0.7,0.5,1.2,1.1C45,37.5,45.3,39.3,44.7,39.6z"/>
				</g>
				<g>
					<path class="st71" d="M45.1,38.8c-0.2-0.5-0.1-1.3-0.6-2.1c-0.5-0.8-1.4-1.3-1.4-1.8c0-0.5,1.3-0.9,2.5,1.1
						C47.1,38.5,45.5,39.7,45.1,38.8z"/>
					<path class="st71" d="M45.7,39C45.7,39,45.6,39,45.7,39c0.5-0.1,1-1.2-0.1-3c-0.7-1.2-1.4-1.6-1.9-1.5c-0.5,0,0.5,0.6,1.1,1.2
						C46,36.8,46.2,38.6,45.7,39z"/>
				</g>
				<g>
					<path class="st71" d="M46.2,37.9c-0.2-0.5-0.2-1.3-0.8-2c-0.6-0.7-1.5-1.1-1.6-1.7c0-0.5,1.2-1,2.6,0.9
						C48.1,37.4,46.6,38.8,46.2,37.9z"/>
					<path class="st71" d="M46.7,38.1C46.7,38.1,46.7,38.1,46.7,38.1c0.5-0.2,0.9-1.3-0.4-3c-0.8-1.1-1.6-1.4-2.1-1.3
						c0.3,0.1,0.8,0.5,1.3,1C46.8,36,47.3,37.7,46.7,38.1z"/>
				</g>
				<g>
					<path class="st71" d="M47.1,37.1c-0.3-0.5-0.2-1.3-0.8-2c-0.6-0.7-1.6-1.1-1.6-1.7s1.2-1,2.6,0.8C49.1,36.6,47.6,38,47.1,37.1z
						"/>
					<path class="st71" d="M47.7,37.3C47.7,37.3,47.7,37.3,47.7,37.3c0.4-0.2,0.8-1.4-0.4-3c-0.9-1.1-1.6-1.4-2.1-1.3
						c0.3,0.1,0.8,0.4,1.3,1C47.7,35.2,48.3,36.9,47.7,37.3z"/>
				</g>
				<path class="st71" d="M44.3,37c0.1,0.1,0,0.3-0.1,0.4c-0.2,0.1-0.4,0.1-0.4-0.1c-0.1-0.1,0-0.3,0.1-0.4
					C44.1,36.8,44.3,36.8,44.3,37z"/>
				<path class="st71" d="M45.3,36.4c0.1,0.1,0,0.3-0.1,0.4c-0.2,0.1-0.4,0.1-0.4-0.1c-0.1-0.1,0-0.3,0.1-0.4
					C45,36.2,45.2,36.2,45.3,36.4z"/>
				<path class="st71" d="M46.2,35.6c0.1,0.1,0,0.3-0.1,0.4c-0.2,0.1-0.4,0.1-0.4-0.1c-0.1-0.1,0-0.3,0.1-0.4
					C45.9,35.4,46.1,35.4,46.2,35.6z"/>
				<path class="st71" d="M47,34.9c0.1,0.1,0,0.3-0.1,0.4c-0.2,0.1-0.4,0.1-0.4-0.1c-0.1-0.1,0-0.3,0.1-0.4
					C46.8,34.7,47,34.7,47,34.9z"/>
			</g>
			<g>
				<g>
					<path class="st71" d="M48.3,35.1c-0.2-0.5-0.1-1.3-0.6-2.1c-0.5-0.8-1.4-1.3-1.4-1.8c0-0.5,1.3-0.9,2.5,1.1
						C50.3,34.8,48.7,36,48.3,35.1z"/>
					<path class="st71" d="M48.9,35.3C48.8,35.3,48.8,35.3,48.9,35.3c0.5-0.1,1-1.2-0.1-3c-0.7-1.2-1.4-1.6-1.9-1.5
						c0.3,0.2,0.7,0.5,1.2,1.1C49.1,33.2,49.4,34.9,48.9,35.3z"/>
				</g>
				<g>
					<path class="st71" d="M49.3,34.4c-0.2-0.5-0.1-1.3-0.6-2.1c-0.5-0.8-1.4-1.3-1.4-1.8c0-0.5,1.3-0.9,2.5,1.1
						C51.2,34.1,49.6,35.3,49.3,34.4z"/>
					<path class="st71" d="M49.8,34.7C49.8,34.7,49.8,34.7,49.8,34.7c0.5-0.1,1-1.2-0.1-3c-0.7-1.2-1.4-1.6-1.9-1.5
						c-0.5,0,0.5,0.6,1.1,1.2C50.2,32.5,50.4,34.3,49.8,34.7z"/>
				</g>
				<g>
					<path class="st71" d="M50.3,33.6c-0.2-0.5-0.2-1.3-0.8-2c-0.6-0.7-1.5-1.1-1.6-1.7c0-0.5,1.2-1,2.6,0.9
						C52.2,33.1,50.8,34.4,50.3,33.6z"/>
					<path class="st71" d="M50.9,33.8C50.9,33.8,50.9,33.8,50.9,33.8c0.5-0.2,0.9-1.3-0.4-3c-0.8-1.1-1.6-1.4-2.1-1.3
						c0.3,0.1,0.8,0.5,1.3,1C50.9,31.6,51.4,33.3,50.9,33.8z"/>
				</g>
				<g>
					<path class="st71" d="M51.3,32.8c-0.3-0.5-0.2-1.3-0.8-2c-0.6-0.7-1.6-1.1-1.6-1.7c0-0.5,1.2-1,2.6,0.8
						C53.2,32.3,51.7,33.7,51.3,32.8z"/>
					<path class="st71" d="M51.9,33C51.9,33,51.8,33,51.9,33c0.4-0.2,0.8-1.4-0.4-3c-0.9-1.1-1.6-1.4-2.1-1.3c0.3,0.1,0.8,0.4,1.3,1
						C51.9,30.9,52.4,32.6,51.9,33z"/>
				</g>
				<path class="st71" d="M48.5,32.7c0.1,0.1,0,0.3-0.1,0.4c-0.2,0.1-0.4,0.1-0.4-0.1c-0.1-0.1,0-0.3,0.1-0.4
					C48.2,32.5,48.4,32.5,48.5,32.7z"/>
				<path class="st71" d="M49.4,32c0.1,0.1,0,0.3-0.1,0.4c-0.2,0.1-0.4,0.1-0.4-0.1c-0.1-0.1,0-0.3,0.1-0.4
					C49.2,31.9,49.4,31.9,49.4,32z"/>
				<path class="st71" d="M50.4,31.3c0.1,0.1,0,0.3-0.1,0.4c-0.2,0.1-0.4,0.1-0.4-0.1c-0.1-0.1,0-0.3,0.1-0.4
					C50.1,31.1,50.3,31.1,50.4,31.3z"/>
				<path class="st71" d="M51.2,30.6c0.1,0.1,0,0.3-0.1,0.4c-0.2,0.1-0.4,0.1-0.4-0.1c-0.1-0.1,0-0.3,0.1-0.4
					C50.9,30.4,51.1,30.4,51.2,30.6z"/>
			</g>
		</g>
		<path class="st68" d="M57.3,21c0,0,1.4-2.6,4.6-1.6c2.2,0.7,5.1,4.6,4.2,6.3c4-5.5,4.2-11.1,1.6-13C65.1,10.8,59.7,11.7,57.3,21z"
			/>
		<path class="st75" d="M57.3,21c0,0,0.8-1.4,2.5-1.7c0.5-3.5,1.6-5.4,3.6-7.1C61.1,13,58.7,15.6,57.3,21z"/>
		<path class="st72" d="M67,20.8c-2.4,0.6-2.9-1.6-5.1-1.4c2.2,0.7,5.1,4.6,4.2,6.3c2.7-3.6,3.6-7.3,3.3-9.9
			C69.4,15.8,69.3,20.2,67,20.8z"/>
		<path class="st68" d="M53.8,13.1c0,0,0.1,2.8,3.3,2.4c-0.7,1.7-0.6,3.2-0.6,3.2s-3.6-1.8-3.9-4C52.4,12.8,53.8,13.1,53.8,13.1z"/>
		<path class="st72" d="M56.5,15.6C56.5,15.6,56.4,15.6,56.5,15.6c-0.1,1.2-0.4,2.5-2.4,0.9c-1.1-0.9-1.4-1.7-1.5-2.3
			c0,0.2,0,0.4,0,0.6c0.3,2.2,3.9,4,3.9,4s0-1.5,0.6-3.2C56.9,15.5,56.7,15.6,56.5,15.6z"/>
	</g>
	<g>
		<path class="st4" d="M46.5,31.8c0.3,0.1,0.5,0.3,0.7,0.5c0.2,0.2,0.4,0.5,0.6,0.7c0.3,0.5,0.6,1.1,0.7,1.7
			c-0.2-0.6-0.5-1.1-0.8-1.6c-0.2-0.3-0.3-0.5-0.5-0.7C46.9,32.2,46.7,31.9,46.5,31.8z"/>
		<path class="st4" d="M47.5,31.2c1,0.6,1.7,1.8,1.8,3C48.9,33,48.3,32,47.5,31.2z"/>
		<path class="st4" d="M48.2,30.8c1.2,0.6,2.1,1.8,2.3,3.1C50.1,32.6,49.3,31.5,48.2,30.8z"/>
		<path class="st4" d="M49.1,29.9c1,0.5,1.8,1.5,1.9,2.5C50.6,31.4,50,30.5,49.1,29.9z"/>
		<path class="st4" d="M50.1,28.9c0.6,0.2,1,0.6,1.3,1.1c0.3,0.5,0.5,1,0.7,1.6c-0.3-0.5-0.5-1-0.8-1.5C51,29.6,50.6,29.2,50.1,28.9
			z"/>
		<path class="st4" d="M50.2,28.6c0.9-0.9,1.9-1.7,2.8-2.5c1-0.8,1.9-1.6,2.9-2.3c-0.9,0.9-1.9,1.7-2.8,2.5
			C52.1,27,51.2,27.8,50.2,28.6z"/>
		<path class="st4" d="M53.1,32.5c1.1-0.4,2.2-0.7,3.2-1.2c1-0.5,2-1.1,3-1.6c1-0.6,2-1.1,2.8-2c0.8-0.8,1.5-1.7,2.3-2.6l-1.1,1.4
			l-1.1,1.3c-0.8,0.9-1.8,1.4-2.8,2c-1,0.6-2,1.1-3.1,1.6C55.3,31.9,54.2,32.2,53.1,32.5z"/>
		<path class="st4" d="M54.6,35.3c0.8,1.5,1.7,2.9,2.7,4.2c1,1.3,2.1,2.6,3.1,4c-1.1-1.2-2.2-2.5-3.2-3.9
			C56.1,38.3,55.2,36.9,54.6,35.3z"/>
		<path class="st4" d="M57.2,20.9c0.7-0.7,1.6-1.3,2.6-1.5c1-0.2,2.1,0,2.9,0.5c0.9,0.6,1.5,1.3,2.1,2.2c0.6,0.8,1,1.8,1.1,2.8
			c-0.2-1-0.7-1.9-1.2-2.7c-0.6-0.8-1.2-1.6-2.1-2.1c-0.8-0.5-1.8-0.7-2.8-0.5C58.8,19.7,57.9,20.2,57.2,20.9z"/>
		<path class="st4" d="M57.5,20c0.3-1.1,0.8-2.1,1.3-3.2c0.5-1,1.1-2,1.8-2.9c-0.6,1-1.1,2-1.6,3C58.4,17.9,57.9,19,57.5,20z"/>
		<path class="st4" d="M67,24.7c0.5-0.8,0.8-1.7,1.1-2.6c0.4-0.9,0.7-1.8,1.2-2.6c-0.4,0.9-0.7,1.8-1,2.7C67.9,23,67.6,24,67,24.7z"
			/>
		<path class="st4" d="M48.6,25c0.3-1.6,0.8-3.1,1.3-4.5c0.6-1.5,1.3-2.9,2.1-4.2c-0.7,1.4-1.4,2.8-2,4.3
			C49.5,21.9,49.1,23.4,48.6,25z"/>
		<path class="st4" d="M52.5,14.5c0.5,0.9,1.2,1.7,1.9,2.3c0.8,0.7,1.6,1.2,2.5,1.7l-0.1,0.1c0.1-0.9,0-1.8,0.2-2.7
			c-0.1,0.9,0,1.8,0,2.7l0,0.1l-0.1,0c-0.9-0.4-1.8-1-2.5-1.7C53.6,16.2,52.9,15.4,52.5,14.5z"/>
		<path class="st4" d="M57.5,15.5c0.3,0.1,0.5,0.2,0.7,0.3c0.2,0.2,0.4,0.3,0.6,0.5c-0.3-0.1-0.5-0.2-0.7-0.3
			C57.9,15.8,57.6,15.7,57.5,15.5z"/>
		<path class="st4" d="M58,8.8C58.5,8.8,59,8.8,59.5,9c0.5,0.2,1,0.4,1.3,0.9c0.6,0.9,0.5,2.1,0.4,3.1c0-1,0.1-2.1-0.5-3
			c-0.3-0.4-0.7-0.7-1.2-0.9C59,8.9,58.5,8.9,58,8.8z"/>
		<path class="st4" d="M58.4,10c0.8,1.1,0.9,2.6,0.3,3.8C59,12.6,58.9,11.2,58.4,10z"/>
		<path class="st4" d="M61.7,44.2c0.6,0.2,1.3,0.1,1.9,0c0.6-0.1,1.3-0.2,1.9-0.4c1.3-0.4,2.5-0.8,3.6-1.4c2.4-1.1,4.5-2.6,6.7-4
			c-2.1,1.5-4.3,3-6.6,4.2c-1.2,0.6-2.4,1-3.7,1.4C64.4,44.2,63,44.5,61.7,44.2z"/>
		<path class="st4" d="M71.3,49.3c0.1,2.5,0.3,5,0.5,7.4c0.2,2.5,0.5,5,0.7,7.4c-0.4-2.5-0.7-4.9-0.9-7.4
			C71.4,54.2,71.3,51.8,71.3,49.3z"/>
		<path class="st4" d="M82.6,43.9c0.9,1.6,1.3,3.5,1.7,5.3c0.3,1.8,0.6,3.6,0.6,5.5c0,0.9-0.2,1.8-0.3,2.8c-0.1,0.9-0.3,1.8-0.4,2.7
			c-0.3,1.8-0.7,3.6-1,5.4c0.3-1.8,0.6-3.6,0.9-5.5c0.2-0.9,0.3-1.8,0.4-2.7c0.1-0.9,0.3-1.8,0.3-2.7c0-1.8-0.3-3.7-0.6-5.5
			C83.8,47.4,83.4,45.6,82.6,43.9z"/>
		<path class="st4" d="M61.9,71.4c-0.2-3.3-0.4-6.6-0.5-9.9c0-3.3,0-6.6,0.3-9.9c-0.1,3.3-0.2,6.6-0.1,9.9
			C61.7,64.8,61.9,68.1,61.9,71.4z"/>
		<path class="st4" d="M66.9,92.6c0.5-3,0.6-6.1,0.8-9.2c0.1-1.5,0.3-3.1,0.6-4.6c0.3-1.5,0.7-3,0.9-4.5c0,1.5-0.5,3-0.7,4.6
			c-0.3,1.5-0.4,3.1-0.5,4.6C67.6,86.5,67.5,89.6,66.9,92.6z"/>
		<path class="st4" d="M68.9,73.4c-0.1,0.1-0.2-0.1-0.1-0.2c0-0.1,0-0.2,0-0.3c0-0.2,0.1-0.4,0.1-0.6c0.2-0.4,0.4-0.7,0.7-1
			c-0.2,0.3-0.4,0.7-0.5,1c-0.1,0.2-0.1,0.4-0.2,0.5l-0.1,0.3C68.8,73.3,68.8,73.4,68.9,73.4z"/>
		<path class="st4" d="M70.5,67.3c0.8-1.5,2.2-2.6,3.6-3.5c0.7-0.4,1.5-0.7,2.3-1.1c0.4-0.2,0.8-0.3,1.2-0.5c0.4-0.1,0.9-0.2,1.2,0
			c-0.4-0.2-0.8-0.1-1.2,0c-0.4,0.1-0.8,0.3-1.2,0.5c-0.8,0.3-1.5,0.7-2.3,1.1C72.7,64.7,71.4,65.8,70.5,67.3z"/>
		<path class="st4" d="M73.3,94.3c0.6-1.5,1.1-2.9,1.7-4.4c0.6-1.4,1.1-2.9,1.8-4.3c1.4-2.8,2.8-5.6,4-8.5c-1,3-2.5,5.8-3.8,8.6
			c-0.7,1.4-1.2,2.9-1.9,4.3C74.6,91.4,74,92.8,73.3,94.3z"/>
		<path class="st4" d="M81.6,75.9c0.2-0.4,0.4-0.7,0.4-1.2c0.1-0.4,0-0.8,0-1.3c0.1,0.4,0.2,0.8,0.2,1.3
			C82.1,75.2,81.9,75.6,81.6,75.9z"/>
		<path class="st4" d="M81.5,64.7c0.7,1.2,1.3,2.5,1.5,3.8c0.2,1.4,0.1,2.8-0.6,4c0.6-1.2,0.7-2.7,0.5-4C82.6,67.2,82,66,81.5,64.7z
			"/>
		<path class="st4" d="M62,82.2c0.7,3.4,1.3,6.8,1.9,10.2l0,0l0,0l-0.2-0.2l0.2,0.2l0,0C63.2,89,62.5,85.6,62,82.2z"/>
		<path class="st4" d="M62.2,81.1c-0.5,0.1-1-0.4-1.2-0.9c-0.1-0.5,0.2-1.1,0.7-1.2c-0.4,0.3-0.7,0.8-0.6,1.2
			C61.3,80.7,61.7,81,62.2,81.1z"/>
		<path class="st4" d="M61.8,78.4c-0.3-0.3-0.4-0.8-0.5-1.2l-0.1-1.3l-0.2-2.6l0-0.1l0.1,0.1c0.6,0.3,1.3,0.1,1.9,0
			c0.7-0.1,1.3-0.1,2-0.1c1.3,0.1,2.6,0.4,3.8,1c-1.2-0.5-2.5-0.8-3.8-0.8c-0.7,0-1.3,0-1.9,0.1c-0.6,0.1-1.3,0.3-2,0l0.1-0.1
			l0.2,2.6l0.1,1.3C61.5,77.6,61.5,78,61.8,78.4z"/>
		<path class="st4" d="M62.2,94c0,1,0.1,2.1,0.8,2.8c0.3,0.4,0.8,0.6,1.3,0.7c0.5,0.1,1-0.1,1.4-0.5c-0.3,0.4-0.9,0.6-1.4,0.6
			c-0.5,0-1-0.3-1.4-0.7C62.2,96.1,62,95,62.2,94z"/>
		<path class="st4" d="M65.7,94.1c0.9-0.8,2.3-1,3.4-0.4l-0.1,0c0.3-0.3,0.6-0.6,1-0.8c0.4-0.2,0.8-0.3,1.3-0.1
			c0.8,0.4,1.2,1.3,1.3,2.1c-0.1-0.8-0.6-1.6-1.3-2c-0.4-0.1-0.8,0-1.1,0.1c-0.4,0.2-0.7,0.4-1,0.7l0,0.1l-0.1,0
			C68,93.2,66.6,93.4,65.7,94.1z"/>
		<path class="st4" d="M66.5,98.1c1.4,1,2.9,1.6,4.6,1.8C69.4,100,67.7,99.3,66.5,98.1z"/>
		<path class="st4" d="M75.4,26.8c0.5,1.6,1,3.3,1.5,4.9c0.2,0.8,0.5,1.6,1,2.3c0.5,0.7,1.1,1.3,1.7,1.9c-0.7-0.5-1.3-1.1-1.8-1.8
			c-0.5-0.7-0.9-1.5-1.1-2.3C76.2,30.1,75.7,28.4,75.4,26.8z"/>
		<path class="st4" d="M79.9,39.2c0.9,0.7,1.6,1.7,1.9,2.8C81.2,41.1,80.6,40.1,79.9,39.2z"/>
		<path class="st4" d="M69.5,89.4l-0.3,0.4l0,0l0,0c1.3-4.9,2.7-9.8,4.1-14.7c-1.3,4.9-2.6,9.8-4.1,14.7l0,0L69.5,89.4z"/>
		<path class="st4" d="M73.1,90.5c0.5-2.5,1.1-5,1.6-7.4c0.6-2.5,1.1-4.9,1.8-7.4c-0.5,2.5-1.1,5-1.6,7.4
			C74.3,85.5,73.7,88,73.1,90.5z"/>
		<path class="st4" d="M64.1,90.5c-0.1-1.2-0.2-2.4-0.2-3.5c0-1.2-0.1-2.4-0.1-3.5c0.1,1.2,0.2,2.4,0.2,3.5
			C64,88.1,64.1,89.3,64.1,90.5z"/>
		<path class="st4" d="M66.2,89c-0.1-1-0.1-2-0.2-2.9c0-1,0-2,0-2.9c0.1,1,0.1,2,0.2,2.9C66.2,87,66.3,88,66.2,89z"/>
		<path class="st4" d="M62.8,79.4c0.6,0.1,1.3,0.3,1.9,0.4c0.6,0.2,1.3,0.3,1.9,0.4c-0.7,0-1.3-0.1-2-0.2
			C64,79.8,63.4,79.7,62.8,79.4z"/>
		<path class="st4" d="M63.1,81.8c1.2,0.2,2.4,0.2,3.6,0.1C65.6,82.3,64.3,82.2,63.1,81.8z"/>
		<path class="st4" d="M72.6,72c2.1-0.1,4.1,0.5,5.9,1.6C76.6,72.7,74.7,72.2,72.6,72z"/>
		<path class="st4" d="M72.6,73.9c2-0.1,4,0.1,5.9,0.8C76.6,74.2,74.6,74,72.6,73.9z"/>
		<path class="st4" d="M46.8,38.6c0.5,0.1,0.9,0,1.4-0.1c0.5-0.1,0.9-0.3,1.3-0.4c0.9-0.3,1.7-0.7,2.5-1.2c-0.7,0.6-1.6,1-2.5,1.4
			c-0.4,0.2-0.9,0.3-1.4,0.4C47.7,38.6,47.2,38.7,46.8,38.6z"/>
		<path class="st4" d="M21.1,61.4c2-1.2,3.8-2.6,5.6-4c1.8-1.4,3.6-2.9,5.3-4.4c3.5-3,6.7-6.4,9.7-9.9c-2.9,3.6-6.1,6.9-9.6,10
			c-1.7,1.5-3.5,3-5.4,4.4C25,58.9,23.1,60.2,21.1,61.4z"/>
		<path class="st4" d="M23,59c2.5-2,4.9-4,7.3-6.1c2.5-2,4.8-4.2,7.2-6.2c-2.3,2.2-4.7,4.3-7.1,6.4C28,55.1,25.5,57.1,23,59z"/>
		<path class="st4" d="M16.6,55.3c2.9-3.2,6-6.1,9.2-8.9c3.3-2.7,6.7-5.3,10.4-7.6c-3.5,2.4-7,4.9-10.3,7.7
			C22.6,49.3,19.5,52.2,16.6,55.3z"/>
		<path class="st4" d="M40.8,38.8c0.6-0.4,1.2-0.8,1.8-1.2C42.2,38.2,41.5,38.6,40.8,38.8z"/>
		<path class="st4" d="M41.8,40.3c0.3,0.2,0.5,0.5,0.8,0.8c0.2,0.3,0.5,0.6,0.7,0.9c-0.3-0.2-0.5-0.5-0.8-0.8
			C42.2,40.9,42,40.7,41.8,40.3z"/>
		<path class="st4" d="M42.2,36c1,0.5,1.8,1.5,1.8,2.7C43.7,37.6,43.1,36.6,42.2,36z"/>
		<path class="st4" d="M43.1,35.2c1.1,0.8,1.9,2.1,2.1,3.5C44.8,37.4,44.1,36.2,43.1,35.2z"/>
		<path class="st4" d="M43.8,34.7c1.2,0.9,2.1,2.3,2.4,3.8C45.7,37.1,44.9,35.8,43.8,34.7z"/>
		<path class="st4" d="M44.6,33.8c1.3,0.8,2.3,2.2,2.5,3.7C46.6,36.1,45.8,34.8,44.6,33.8z"/>
		<path class="st4" d="M45.6,33.5c1.1,0.6,1.9,1.8,2,3.1C47.3,35.4,46.6,34.3,45.6,33.5z"/>
		<path class="st4" d="M42.5,39.4c0.4,0.3,0.7,0.7,1.1,0.9c0.4,0.3,0.8,0.4,1.3,0.3c-0.4,0.3-1,0.1-1.4-0.1
			C43.1,40.2,42.8,39.8,42.5,39.4z"/>
		<path class="st4" d="M45.2,39.5c0.3-0.3,0.6-0.5,0.9-0.8c0.3-0.2,0.6-0.4,1-0.6c-0.3,0.3-0.6,0.5-0.9,0.8
			C45.9,39,45.6,39.3,45.2,39.5z"/>
		<path class="st4" d="M42.2,37.8c-0.1-0.1,0-0.2,0-0.2c0-0.1,0-0.1,0.1-0.2c0.1,0.1,0,0.2,0,0.2C42.3,37.7,42.3,37.7,42.2,37.8z"/>
		<path class="st4" d="M52.5,32.8c0.6,0.8,0.8,1.8,0.8,2.7C53.1,34.6,52.8,33.7,52.5,32.8z"/>
	</g>
</g>
</svg>
