<?xml version="1.0" encoding="utf-8"?>
<!-- Generator: Adobe Illustrator 25.2.1, SVG Export Plug-In . SVG Version: 6.00 Build 0)  -->
<svg version="1.1" id="Layer_1" xmlns="http://www.w3.org/2000/svg" xmlns:xlink="http://www.w3.org/1999/xlink" x="0px" y="0px"
	 viewBox="0 0 100 100" style="enable-background:new 0 0 100 100;" xml:space="preserve">
<style type="text/css">
	.st0{fill:#B2A740;}
	.st1{opacity:0.6;fill:#B2A740;}
	.st2{fill:#FFF203;}
	.st3{opacity:0.5;fill:#FFF203;}
	.st4{fill:#1A1A1A;}
	.st5{fill:#A799E6;}
	.st6{fill:#9E996A;}
	.st7{fill:#CDB3ED;}
	.st8{opacity:0.6;fill:#CDB3ED;}
	.st9{opacity:0.3;fill:#FFF203;}
	.st10{opacity:0.5;fill:#CDB3ED;}
	.st11{opacity:0.4;fill:#9E996A;}
	.st12{opacity:0.4;}
	.st13{opacity:0.5;fill:#B2A740;}
	.st14{fill:#FFF426;}
	.st15{opacity:0.4;fill:#CDB3ED;}
	.st16{opacity:0.7;fill:#CDB3ED;}
	.st17{opacity:0.6;fill:#FFF203;}
	.st18{opacity:0.6;}
	.st19{opacity:0.7;fill:#FFF203;}
	.st20{fill:#8A604F;}
	.st21{opacity:0.4;fill:#8A604F;}
	.st22{fill:#774632;}
	.st23{fill:none;}
	.st24{fill:#E64B00;}
	.st25{opacity:0.3;fill:#E64B00;}
	.st26{opacity:0.6;fill:#E64B00;}
	.st27{fill:#386AC4;}
	.st28{opacity:0.5;}
	.st29{fill:#D1847E;}
	.st30{opacity:0.6;fill:#D1847E;}
	.st31{opacity:0.5;fill:#386AC4;}
	.st32{opacity:0.3;fill:#386AC4;}
	.st33{opacity:0.4;fill:#386AC4;}
	.st34{opacity:0.7;fill:#386AC4;}
	.st35{opacity:0.7;fill:#E64B00;}
	.st36{fill:#253E6B;}
	.st37{fill:#7A43C3;}
	.st38{fill:#CDCAC6;}
	.st39{opacity:0.6;fill:#CDCAC6;}
	.st40{opacity:0.5;fill:#7A43C3;}
	.st41{opacity:0.3;fill:#7A43C3;}
	.st42{fill:#543961;}
	.st43{fill:#E2BA33;}
	.st44{opacity:0.7;fill:#E2BA33;}
	.st45{opacity:0.6;fill:#7A43C3;}
	.st46{opacity:0.5;fill:#E2BA33;}
	.st47{opacity:0.4;fill:#E2BA33;}
	.st48{fill:#E2DA7E;}
	.st49{opacity:0.4;fill:#E2DA7E;}
	.st50{fill:#F2EF94;}
	.st51{opacity:0.4;fill:#FFFFFF;}
	.st52{opacity:0.5;fill:#CDCAC6;}
	.st53{fill:#6C41B1;}
	.st54{fill:#090704;}
	.st55{fill:#D8CFC0;}
	.st56{fill:#2A41E8;}
	.st57{opacity:0.6;fill:#D8CFC0;}
	.st58{fill:#FF822A;}
	.st59{opacity:0.5;fill:#FF822A;}
	.st60{fill:#A58F64;}
	.st61{opacity:0.5;fill:#A58F64;}
	.st62{fill:#561A91;}
	.st63{opacity:0.4;fill:#D8CFC0;}
	.st64{opacity:0.7;fill:#D8CFC0;}
	.st65{opacity:0.3;fill:#FF822A;}
	.st66{opacity:0.7;fill:#FF822A;}
	.st67{opacity:0.3;}
	.st68{fill:#E83C7D;}
	.st69{fill:#BF9726;}
	.st70{opacity:0.4;fill:#E83C7D;}
	.st71{fill:#767676;}
	.st72{opacity:0.5;fill:#E83C7D;}
	.st73{opacity:0.5;fill:#767676;}
	.st74{opacity:0.9;fill:#767676;}
	.st75{opacity:0.3;fill:#E83C7D;}
	.st76{opacity:0.4;fill:#7F3451;}
	.st77{opacity:0.4;fill:#BF9726;}
	.st78{opacity:0.7;fill:#BF9726;}
	.st79{opacity:0.6;fill:#E83C7D;}
	.st80{opacity:0.2;fill:#E83C7D;}
	.st81{fill:#7F3451;}
	.st82{fill:#968B22;}
	.st83{opacity:0.4;fill:#968B22;}
	.st84{fill:#FFEAA6;}
	.st85{fill:#1274C4;}
	.st86{fill:#D1D1D1;}
	.st87{opacity:0.3;fill:#1274C4;}
	.st88{opacity:0.6;fill:#D1D1D1;}
	.st89{opacity:0.5;fill:#1274C4;}
	.st90{fill:#0A3F6B;}
	.st91{fill:#E67E5B;}
	.st92{opacity:0.6;fill:#D46642;}
	.st93{opacity:0.6;fill:#1274C4;}
	.st94{opacity:0.4;fill:#001B6A;}
	.st95{opacity:0.3;fill:#D46642;}
	.st96{fill:#1065AB;}
	.st97{opacity:0.4;fill:#1274C4;}
	.st98{opacity:0.7;fill:#E67E5B;}
	.st99{fill:#C7C4BE;}
	.st100{fill:#EFEBE0;}
	.st101{opacity:0.3;fill:#C7C4BE;}
	.st102{opacity:0.5;fill:#D1D1D1;}
	.st103{opacity:0.9;fill:#D1D1D1;}
	.st104{fill:#0F64A8;}
	.st105{fill:#D1AB3E;}
	.st106{opacity:0.5;fill:#D1AB3E;}
	.st107{opacity:0.8;fill:#D1AB3E;}
	.st108{opacity:0.1;fill:#D1AB3E;}
	.st109{fill:#C16A23;}
	.st110{opacity:0.5;fill:#C16A23;}
	.st111{fill:#6DEC6E;}
	.st112{opacity:0.5;fill:#6DEC6E;}
	.st113{fill:#826315;}
	.st114{opacity:0.3;fill:#EC1C24;}
	.st115{opacity:0.4;fill:#826315;}
	.st116{fill:#C87C3D;}
	.st117{fill:#EE3A40;}
	.st118{fill:none;stroke:#1A1A1A;stroke-width:0.1469;stroke-linejoin:round;stroke-miterlimit:10;}
	.st119{fill:none;stroke:#CA7F42;stroke-width:0.1352;stroke-miterlimit:10;}
	.st120{opacity:0.5;fill:#FFFFFF;}
	.st121{fill:#C57330;}
	.st122{opacity:0.3;fill:#C57330;}
	.st123{opacity:0.5;fill:#8FF08F;}
	.st124{opacity:0.5;fill:#C57330;}
	.st125{fill:#8FF08F;}
	.st126{opacity:0.5;fill:#EE3A40;}
	.st127{opacity:0.3;fill:#EE3A40;}
	.st128{opacity:0.4;fill:#EE3A40;}
	.st129{opacity:0.2;fill:#EE3A40;}
	.st130{opacity:0.4;fill:#C57330;}
	.st131{opacity:0.4;fill:#D1AB3E;}
	.st132{opacity:0.6;fill:#D1AB3E;}
	.st133{opacity:0.9;fill:#D1AB3E;}
	.st134{fill:none;stroke:#1A1A1A;stroke-width:0.1469;stroke-miterlimit:10;}
	.st135{opacity:0.7;}
	.st136{fill:#F05459;}
	.st137{fill:#EADBE1;}
	.st138{fill:#D2B1BE;}
	.st139{fill:none;stroke:#EED3B0;stroke-width:0.1115;stroke-miterlimit:10;}
	.st140{opacity:0.5;fill:#D2B1BE;}
	.st141{fill:#561B32;}
	.st142{fill:#E10A52;}
	.st143{opacity:0.4;fill:#E10A52;}
	.st144{opacity:0.2;fill:#E10A52;}
	.st145{fill:#DEC5CF;}
	.st146{opacity:0.6;fill:#D2B1BE;}
	.st147{opacity:0.3;fill:#D2B1BE;}
	.st148{opacity:0.4;fill:#DEC5CF;}
	.st149{fill:#ECCEA7;}
	.st150{opacity:0.4;fill:#ECCEA7;}
	.st151{opacity:0.9;fill:#ECCEA7;}
	.st152{opacity:0.9;fill:#E1B375;}
	.st153{fill:#E1B375;}
	.st154{opacity:0.5;fill:#ECCEA7;}
	.st155{opacity:0.8;fill:#ECCEA7;}
	.st156{opacity:0.7;fill:#ECCEA7;}
	.st157{opacity:0.6;fill:#E10A52;}
	.st158{opacity:0.7;fill:#E10A52;}
	.st159{fill:#D89C4C;}
	.st160{opacity:0.8;fill:#D89C4C;}
	.st161{fill:#D5FEE3;}
	.st162{opacity:0.4;fill:#EFD7B7;}
	.st163{fill:#EBCCA2;}
	.st164{opacity:0.4;fill:#EBCCA2;}
	.st165{fill:#EDD1AD;}
	.st166{fill:url(#SVGID_1_);}
	.st167{opacity:0.3;fill:#FFFFFF;}
	.st168{fill:url(#SVGID_2_);}
	.st169{fill:#B1778D;}
	.st170{fill:url(#SVGID_3_);}
	.st171{opacity:0.2;}
	.st172{fill:#FFFFFF;}
	.st173{fill:url(#SVGID_4_);}
	.st174{fill:url(#SVGID_5_);}
	.st175{opacity:0.2;fill:url(#SVGID_6_);}
	.st176{opacity:0.4;fill:url(#SVGID_7_);}
	.st177{opacity:0.4;fill:url(#SVGID_8_);}
	.st178{clip-path:url(#SVGID_10_);fill:#764659;}
	.st179{clip-path:url(#SVGID_10_);fill:#78495B;}
	.st180{clip-path:url(#SVGID_10_);fill:#794B5D;}
	.st181{clip-path:url(#SVGID_10_);fill:#7D4F61;}
	.st182{clip-path:url(#SVGID_10_);fill:#7F5263;}
	.st183{clip-path:url(#SVGID_10_);fill:#805465;}
	.st184{clip-path:url(#SVGID_10_);fill:#825667;}
	.st185{clip-path:url(#SVGID_10_);fill:#845969;}
	.st186{clip-path:url(#SVGID_10_);fill:#855B6B;}
	.st187{clip-path:url(#SVGID_10_);fill:#875D6D;}
	.st188{clip-path:url(#SVGID_10_);fill:#895F70;}
	.st189{clip-path:url(#SVGID_10_);fill:#E0004B;}
	.st190{clip-path:url(#SVGID_10_);fill:#E0034D;}
	.st191{clip-path:url(#SVGID_10_);fill:#E10850;}
	.st192{clip-path:url(#SVGID_10_);fill:#E10A52;}
	.st193{clip-path:url(#SVGID_10_);fill:#E20F56;}
	.st194{clip-path:url(#SVGID_10_);fill:#E21258;}
	.st195{clip-path:url(#SVGID_10_);fill:#E3175B;}
	.st196{fill:url(#SVGID_11_);}
	.st197{fill:url(#SVGID_12_);}
	.st198{fill:url(#SVGID_13_);}
	.st199{opacity:0.2;fill:#FFFFFF;}
	.st200{fill:#2F2C1E;}
	.st201{fill:url(#SVGID_14_);}
	.st202{fill:url(#SVGID_15_);}
	.st203{opacity:0.1;fill:#FFFFFF;}
	.st204{fill:url(#SVGID_16_);}
	.st205{fill:url(#SVGID_17_);}
	.st206{opacity:0.2;fill:url(#SVGID_18_);}
	.st207{fill:url(#SVGID_19_);}
	.st208{fill:url(#SVGID_20_);}
	.st209{fill:url(#SVGID_21_);}
	.st210{opacity:0.2;fill:url(#SVGID_22_);}
	.st211{fill:url(#SVGID_23_);}
	.st212{fill:url(#SVGID_24_);}
	.st213{opacity:0.4;fill:url(#SVGID_25_);}
	.st214{opacity:0.4;fill:url(#SVGID_26_);}
	.st215{opacity:0.4;fill:#561B32;}
	.st216{fill:#E52968;}
	.st217{fill:none;stroke:#AC5773;stroke-width:3.185000e-02;stroke-miterlimit:10;}
	.st218{fill:none;stroke:#F7EBDB;stroke-width:3.166700e-02;stroke-miterlimit:10;}
	.st219{fill:#FBB03B;}
</style>
<g>
	<g>
		<g>
			<path class="st85" d="M5.5,91.4c-1.9,0.5-4.7,5.8,1.1,7.9c5.4,2,8.4-2.1,5.8-5.8C10.4,90.9,6.9,91,5.5,91.4z"/>
			<path class="st86" d="M7.3,91.4c-1.1,0.2-2.6,2.9,0.8,4.1c3.1,1.2,4.8-1,3.2-2.9C10.1,91.3,8.1,91.2,7.3,91.4z"/>
			<path class="st87" d="M13.3,97.2c-0.7,0.8-1.6,1.2-2.3,0.7c-1.6-1.1-3.2-1.7-6.2-2c-0.8-0.1-1.3-0.7-1.5-1.5
				c-0.2,1.5,0.6,3.3,3.5,4.4C10.2,100.1,12.6,99,13.3,97.2z"/>
		</g>
		<g>
			<path class="st85" d="M86.2,92.7c0,0,8.5,1.7,9.7,3.3c1.5,2-3.5,3.8-7,3.3c-3.6-0.4-5-0.5-5.1-0.2c-0.3,0.3-5.3,0.4-5.7,0
				c-0.4-1.7,0.4-6.6,0.5-7.1C81.8,93.2,86.2,92.7,86.2,92.7z"/>
			<path class="st87" d="M96,96c0.2,0.2,0.3,0.5,0.3,0.7c-0.3-0.4-0.8-0.6-1.2-0.8c-4-2.1-8.7-2.1-10.4-2.1c-0.2,0-0.5,0-0.6-0.2
				c-0.2-0.2-0.1-0.5,0.1-0.8c1.3,0,2.1-0.1,2.1-0.1S94.8,94.4,96,96z"/>
			<path class="st86" d="M92.8,94.3c0,0,0.8,1.1-2.3,1.2c-3.1,0.1-7.4-1.7-6.6-2.8S87.9,92.7,92.8,94.3z"/>
			<path class="st88" d="M87.3,92.6c-0.3,0.1-0.6,0.5-0.1,1.3c0.7,1.4,4.7,1.6,5.7,0.4c0.1,0.2,0.5,1.1-2.3,1.1
				c-3.1,0.1-7.4-1.7-6.6-2.8C84.4,92.1,85.5,92.1,87.3,92.6z"/>
			<path class="st89" d="M83.9,99.1c-0.3,0.3-5.3,0.4-5.7,0c-0.4-1.7,0.4-6.6,0.5-7.1c0.3,0.1,0.7,0.2,1,0.3l2,2.3
				c0,0-3.1,1.2-2.1,3.2c0.9,2.1,3-0.3,4.5,0c1.5,0.3,5.4,1.6,9.3,0.4c1.4-0.4,2.3-1,2.8-1.7c0.2,1.7-4.1,3.2-7.2,2.8
				C85.5,98.9,84,98.8,83.9,99.1z"/>
		</g>
		<path class="st90" d="M21.5,36c0,0-1,0.4,1.9,1.9c2.8,1.5,6.1,5.9,7.1,3.6C31.5,39.1,26.7,33.6,21.5,36z"/>
		<path class="st91" d="M24.1,33.1c0,0-4.7,6.5-1.4,10.6c3.3,4.1,9.9-1.4,10.9-6.1C34.6,33,27.8,29.1,24.1,33.1z"/>
		<path class="st92" d="M29.1,37.2c0,0-4.8-1-7.2,0.4c1-4.2,4.5-6.2,4.5-6.2L29.1,37.2z"/>
		<path class="st85" d="M32.1,18.3c0,0-6.5,5.8-10.5,17.7c5.6-2,9.4,3.7,12.3,3C39.7,33,32.1,18.3,32.1,18.3z"/>
		<path class="st87" d="M24.4,32.8c-1.3-1.2,2.3-7.7,2.3-7.8c-1.8,2.8-3.7,6.4-5.2,11c3.8-1.3,6.7,0.8,9.1,2.2
			C28.7,35.1,25.7,34,24.4,32.8z"/>
		<path class="st87" d="M4.3,92.1l-0.6,1c0,0,4.8,3.4,9.4,1.8c-1.4-2.6-1.7-3.8-1.7-3.8L4.3,92.1z"/>
		<path class="st85" d="M31,43.9c-3.3,2.2-12.2,9.7-15.4,14.2C12.5,62.6,5.9,88.4,5,91.4c0.7,2.6,5.8,4,8.2,2.4s12.7-18.9,13.3-25.2
			c0.6-6.3,19-11.6,22.1-16.9C51.6,46.5,44.1,35.2,31,43.9z"/>
		<path class="st87" d="M15.7,58.1C12.5,62.6,5.9,88.4,5,91.4c0.1,0.4,0.3,0.8,0.6,1.1c1.7-7.6,6.4-27.1,11.5-31.3
			c4.9-4,8.1-11.7,12.6-16.4C25.8,47.7,18.5,54.1,15.7,58.1z"/>
		<path class="st87" d="M45.6,50.7c0,0-9.5,8.9-18,11.9c-8,2.8-9.7,25.4-15.9,31.8c0.6-0.1,1.1-0.3,1.5-0.6
			c2.4-1.5,12.7-18.9,13.3-25.2c0.6-5.4,14.2-10.1,20-14.7L45.6,50.7z"/>
		<path class="st93" d="M78.4,95.5c0,0,5.4,1.1,8.9-2.9c-4-1.1-5.1-2.2-5.1-2.2l-3.7,3.1L78.4,95.5z"/>
		<path class="st85" d="M60.4,43.9c3.3,2.2,9.8,12.1,13,16.5c3.2,4.5,12.1,28,13,30.9c-0.7,2.6-5.8,4-8.2,2.4s-15-16.6-15.6-22.9
			c-0.6-6.3-16.7-14-19.7-19.2C39.8,46.5,47.3,35.2,60.4,43.9z"/>
		<path class="st87" d="M85.7,92.5c0.3-0.3,0.5-0.7,0.7-1.2c-0.9-2.9-9.8-26.5-13-30.9c-3.2-4.5-9.7-14.3-13-16.5
			c-1-0.7-2-1.2-2.9-1.7c3.8,3.9,11.8,14.3,15.1,21.8C75.7,71.1,82.7,85.8,85.7,92.5z"/>
		<path class="st87" d="M62.5,70.9c0.6,6.3,13.2,21.3,15.6,22.9c0.8,0.5,1.9,0.7,3.1,0.6c-8.3-6.6-12.7-28.3-17-28.8
			c-4.7-0.6-21-13.2-21-13.2l0,0C47.2,57.6,61.9,64.9,62.5,70.9z"/>
		<path class="st94" d="M64.2,48c-24,6.7-36.7-1.6-36.7-1.6l3.1-2.1l31.3,1L64.2,48z"/>
		<path class="st85" d="M30.1,43.2c-1.2,1.3-2.2,4.8,14.2,5.4c14.8,0.6,19.1-1.1,19.5-2.7c0.5-2.2-3-4.7-2.3-7.3
			c1.3-4.6,6.6-11.2,5.1-14.6c-2.3-5.2-8.7-10-18.6-10.5c-6.3-0.3-13.5,1.2-17.1,6.3c-2.3,3.3,0.6,11,1.3,18.9
			C32.3,40.3,31.5,41.6,30.1,43.2z"/>
		<g class="st67">
			<path class="st85" d="M61.7,42.2c-2.8,2.4-2,4.5-2.9,6c3.5-0.5,4.9-1.4,5-2.3c0.3-1.3-0.8-2.7-1.6-4.2
				C62,41.9,61.8,42.1,61.7,42.2z"/>
			<path class="st85" d="M61,26c0,0,1.6,4.3,2.1,8.5c0.6-1.1,1.2-2.2,1.7-3.3L61,26z"/>
		</g>
		<path class="st87" d="M38.1,38.8c-7-2.4,7-4.4,0.8-5.5C32.7,32.1,30,25,30,25l0,0c0.3,3.8,1.7,8.7,2.1,13.8
			c0.1,1.6-0.6,2.9-2.1,4.5c-1.2,1.3-2.2,4.8,14.2,5.4c1.1,0,2.2,0.1,3.2,0.1C53.9,44.1,44.7,41.1,38.1,38.8z"/>
		<g>
			<path class="st91" d="M44.2,13.5c0,0-3.4,7.7,3.7,8.8c5.8-0.2,6.5-6.7,4.3-8.9C50.1,11.1,44.2,13.5,44.2,13.5z"/>
			<path class="st95" d="M48,22.2c0,0-2-1.6-2.2-3.5c2.6,0.8,4.8-1.2,4.8-1.2l-6.3-2L43,17.8C43,17.8,44.9,22.1,48,22.2z"/>
			<path class="st96" d="M45.7,13.2c0,0-4,3.8,2.3,9c-3.5,1.5-4.7,3.8-4.7,3.8s-5.8-10.3,1.3-13.4C48.1,11.8,45.7,13.2,45.7,13.2z"
				/>
			<path class="st87" d="M47.9,22.2c-1.3-0.4-4.2,1.4-5.3-0.9c-2.6-5.1,1.1-7.4,1.2-7.6V13c-5.9,3.5-0.6,13-0.6,13
				S44.5,23.7,47.9,22.2z"/>
			<g>
				<path class="st96" d="M50.6,13.2c0,0,3.7,4.2-2.6,9c3,0.7,5,3.8,5,3.8s5.8-10.3-1.3-13.4C48.1,11.8,50.6,13.2,50.6,13.2z"/>
			</g>
			<path class="st97" d="M53,26c0,0,5.1-9-0.1-12.7c1.9,3.4,1,9.4,0,10c-1.1,0.7-4.6-1.4-4.6-1.4L48,22.2C50.9,22.9,53,26,53,26z"/>
			<path class="st91" d="M52.3,5.2c-1-1.1-2.3-1.6-3.7-1.6c-1.4-0.1-2.8,0.2-3.9,1.2c-2.2,2-2.8,8-0.8,11.4c0.7,1.2,2.3,2,3.8,2.1
				c1.5,0.1,3.1-0.6,4-1.7C53.9,13.7,54.2,7.4,52.3,5.2z"/>
			<g>
				<path class="st91" d="M54.3,9.4c-0.3-0.4-0.7-0.6-1.1-0.6c-0.4-0.1-0.9,0-1.2,0.3c-0.7,0.6-1.1,2.4-0.5,3.5
					c0.2,0.4,0.7,0.7,1.1,0.8c0.5,0.1,1-0.1,1.3-0.4C54.6,12.1,54.9,10.1,54.3,9.4z"/>
				<path class="st91" d="M42,9.2c0.3-0.3,0.7-0.5,1.2-0.5c0.4,0,0.9,0.1,1.2,0.4c0.7,0.6,0.8,2.5,0.2,3.6c-0.2,0.4-0.7,0.6-1.2,0.6
					c-0.5,0-1-0.2-1.2-0.5C41.4,11.9,41.3,9.9,42,9.2z"/>
			</g>
			<g>
				<path class="st98" d="M52.3,13.3c-0.3,0.5-1,0.6-1.4,0.3c-0.5-0.3-0.6-1-0.3-1.4c0.3-0.5,1-0.6,1.4-0.3
					C52.5,12.2,52.6,12.9,52.3,13.3z"/>
			</g>
			<g>
				<path class="st98" d="M45.7,13.2c-0.3,0.5-1,0.6-1.4,0.3c-0.5-0.3-0.6-1-0.3-1.4c0.3-0.5,1-0.6,1.4-0.3
					C45.9,12.1,46,12.7,45.7,13.2z"/>
			</g>
			<g>
				<path class="st4" d="M42.3,9.1c0,0,0.5-0.2,0.5,1.1c0,1.4,0,1.6,0.2,1.9c0.3,0.4,0.8,0.3,0.8,0c0-0.3,0.1-2.5,0.1-2.8
					c-0.1-0.4,0-2.5,1.6-3.5c1.9-1.2,9.3,2.8,8.8-0.5c-0.1-0.8-0.1-3.3-5.3-3.7c-2.8-0.2-5.8,1-6,3.5C41,6.2,42.3,9.1,42.3,9.1z"/>
				<path class="st4" d="M54.2,9.1c0,0,1.4-2.9-0.5-4c-0.1-1.6-1-2.3-2.3-2.7l-0.7,2.9c0.2,0.1,0.4,0.2,0.5,0.4
					c1.7,1.4,1.3,3.3,1.5,3.6c0.2,0.2,0.1,2.5,0,2.8c0,0.3,0.5,0.4,0.8,0c0.2-0.3,0.2-0.5,0.2-1.9C53.7,8.8,54.2,9.1,54.2,9.1z"/>
			</g>
		</g>
		<path class="st90" d="M62.9,44.2c0,0,0.2,0.9-4.2-0.6c-4.4-1.5-8.7-4.5-7.2-6.2C53.1,35.8,62.6,41.6,62.9,44.2z"/>
		<path class="st91" d="M54.9,34c0,0-2.5,3.2-3.6,4.6c-1.2,1.4-6.7,4.4-3.7,8.3c3,4,13.9-1.2,15.8-9.1C64.7,31.7,56.6,31.5,54.9,34z
			"/>
		<path class="st92" d="M51.1,46.9c-1.4,0-2.4,0.2-2.9,0.6c3.2,2.4,11-1,14.1-6.9l-2.2,0.9C60.1,41.5,59.6,47,51.1,46.9z"/>
		<path class="st92" d="M51.6,38.1c0,0,5.1,1.5,8.4,5.5c2.8-3.5,3.8-4,3.8-4L53,36.2L51.6,38.1z"/>
		<path class="st85" d="M66.8,24.9c0,0,1.5,9.1-3.8,19.3c-7.1-7.5-11.3-6.8-11.3-6.8S63.3,15.4,66.8,24.9z"/>
		<path class="st87" d="M61,42.4c0.6,0.5,1.3,1.1,2,1.7c3.8-7.4,4.1-14.1,4-17.3l-0.2-0.1C66.8,26.7,66.3,34.8,61,42.4z"/>
		<path class="st87" d="M60.1,25c-4.2,4.2-8.5,12.4-8.5,12.4s1-0.2,2.8,0.5C54.6,32.9,60.1,25,60.1,25L60.1,25z"/>
		<g>
			<g>
				<path class="st99" d="M44.9,42.1c0.2-1.2,1.1-2.3,2.1-3c0.9-0.5,3.2-1.3,3.8,0c0.6,1.3,0.1,2.9-0.6,4.1
					c-0.7,1.1-1.9,2.6-3.4,2.4c-0.8-0.1-1.5-0.7-1.8-1.4C44.8,43.6,44.7,42.8,44.9,42.1z"/>
				<path class="st100" d="M45.6,43.6c0,0.8-0.3,1.6,1.5,3.2c1.8,1.5,2.5,4.6,4.1,3.4c0.6,1.1,2.3,0.4,2.1-1.1
					c1.3,0.9,2.5-1.6,0.2-3.7c2.8,3.2,4.1,1.3,3.6,0.2c-0.5-1.1-4-3.2-4.2-4.2s2.9-0.1,3-1.4c0.1-1.3-1.5-2.7-5.9-1.2
					C46.6,39.9,45.5,42.1,45.6,43.6z"/>
			</g>
			<path class="st99" d="M52.9,41.4c-0.2-1,2.9-0.1,3-1.4c0-0.1,0-0.2,0-0.3c-0.4,0.2-1.1,0.3-2.5,0.5c-3.9,0.3,3.6,4.4,3.8,6.2l0,0
				c0-0.2,0-0.5-0.1-0.7C56.6,44.5,53.1,42.4,52.9,41.4z"/>
			<g class="st67">
				<path class="st99" d="M56.3,47.2c-2-0.6-3.3-3-3.3-3s-0.3,0.2-0.6,0.4c0.9,0.6,2,2.3,2.3,2.8c-0.1-0.5-0.3-1-0.7-1.5
					C55,46.9,55.8,47.2,56.3,47.2z"/>
				<path class="st99" d="M51.2,50.2c0.2,0.4,0.6,0.6,1,0.5l0,0c-0.7-0.3-2.5-4.2-2.5-4.3c0-0.1-0.3-0.3-0.7,0.1
					c1.2,1.9,1.7,3.1,1.8,3.8C51,50.3,51.1,50.2,51.2,50.2z"/>
				<path class="st99" d="M53.2,49.8c0.1-0.2,0.1-0.4,0.1-0.7c0.2,0.1,0.3,0.2,0.5,0.2c-1-0.6-2.3-4.2-2.3-4.2s0,0.4-0.8,0.7
					C51.2,46.1,52.6,48.6,53.2,49.8z"/>
			</g>
		</g>
		<path class="st91" d="M21.5,40.7c0,0-1,9.5,18.3,3.6c1.2-1.5-0.6-5.5-1.8-5.2C36.7,39.3,23.7,33.7,21.5,40.7z"/>
		<path class="st95" d="M38,39c-0.5,0.1-3.3-0.9-6.5-1.5c1.9,2.8,3.4,7.9-2,8.1c-6.1,0.2-7.6-2.9-7.9-4.9c0,0.8-0.1,9.1,18.3,3.5
			C41.1,42.8,39.2,38.8,38,39z"/>
		<g>
			<path class="st99" d="M34.2,42.8c0,0-0.9-2.6,0-4.2c1.1-2,5.8-1.6,6.5,2.1C41.4,44.4,34.3,43.8,34.2,42.8z"/>
			<path class="st100" d="M38.1,38.8c-0.1-0.7-0.5-2.6-1.8-2.3c-1.4,0.3-1.1,2.9-1.4,3.5c-0.4,1-1,2-1.6,3c-0.5,0.9-0.2,2,1.4,1.9
				c-1.1,0.9-0.1,2.7,1.2,2.1c-0.9,1.7,0.8,2.5,1.9,1.6c-0.1,2.2,2,2.4,2.2,0.2c0.2-2.7,3.6-4.3,1.1-7.2
				C40.5,38.9,38.5,38.8,38.1,38.8z"/>
			<path class="st101" d="M39.2,50.3c0.4-0.2,0.7-0.7,0.8-1.5c0.2-2.7,3.6-4.3,1.1-7.2c-0.6-2.6-2.6-2.7-3-2.7c0-0.1,0-0.2,0-0.3
				c-0.1,0.6-0.4,1.2-1.2,1.4c-1.6,0.4-0.6,1.4-1.6,2.6c-0.7,0.8-1.8,1.1-2.2,1.5c0.1,0.5,0.5,1,1.5,0.9c0.3-0.1,0.6-0.2,0.9-0.5
				c1.1-0.7,0.3,2-0.8,2.5c0.3,0.2,0.7,0.3,1.2,0.1c0,0,0,0,0,0.1c0.5-0.4,1-1.1,1.3-1.8c0.8-1.6,1.2,0.6,0.6,1.9
				c-0.2,0.5-0.8,1.3-1.8,1.5c0.4,0.5,1.3,0.5,1.9,0c0,0.1,0,0.1,0,0.2c0.4-0.6,0.7-1.2,0.9-1.3c0.6-0.3,1,0.4,0.5,2.6
				C39.2,50.1,39.2,50.2,39.2,50.3z"/>
		</g>
		<g>
			<g>
				<path class="st86" d="M76.1,74.2c0,0-6.7,4.2-11.7,2.4c-1.4-1-1.4-3-1.4-3s5.5,1.7,13.2-2.5C79.1,72,76.1,74.2,76.1,74.2z"/>
				<path class="st102" d="M63,73.6c0,0,5.5,1.7,13.2-2.5c3,0.9-0.1,3.1-0.1,3.1s-0.7,0.4-1.7,0.9c0,0,1.6-1.3,0.3-2
					c-1.4-0.7-4.9,1.4-8.2,1.3c-3.4-0.1-2.2,2.2,0.9,2.7c-1,0-2-0.1-2.9-0.5C63,75.6,63,73.6,63,73.6z"/>
			</g>
			<g>
				<path class="st86" d="M82.8,86.3c0,0-5.3,4.3-9.8,3.2c-1.3-0.7-1.5-2.4-1.5-2.4s4.9,0.9,11.1-3.5C85.2,84.1,82.8,86.3,82.8,86.3
					z"/>
				<path class="st102" d="M71.5,87.1c0,0,4.9,0.9,11.1-3.5c2.7,0.5,0.3,2.7,0.3,2.7s-0.5,0.4-1.4,1c0,0,1.3-1.3,0-1.8
					c-1.2-0.5-4,1.7-6.9,1.9c-2.9,0.2-1.7,2.1,1,2.2c-0.8,0.1-1.7,0.1-2.5-0.1C71.6,88.8,71.5,87.1,71.5,87.1z"/>
			</g>
		</g>
		<g>
			<g>
				<path class="st86" d="M12.2,75.4c0,0,6.9,3.8,11.8,1.7c1.4-1.1,1.2-3.1,1.2-3.1s-5.4,2.1-13.3-1.7C9,73.4,12.2,75.4,12.2,75.4z"
					/>
				<path class="st102" d="M25.3,74c0,0-5.4,2.1-13.3-1.7c-2.9,1.1,0.3,3.1,0.3,3.1s0.7,0.4,1.8,0.8c0,0-1.7-1.2-0.4-2
					c1.3-0.8,4.9,1.1,8.3,0.7c3.3-0.3,2.3,2.1-0.7,2.7c1-0.1,1.9-0.2,2.8-0.6C25.4,76,25.3,74,25.3,74z"/>
			</g>
			<g>
				<path class="st86" d="M6.3,88c0,0,5.6,4,10,2.6c1.3-0.8,1.4-2.5,1.4-2.5s-4.8,1.2-11.2-2.8C3.8,85.9,6.3,88,6.3,88z"/>
				<path class="st102" d="M17.6,88c0,0-4.8,1.2-11.2-2.8C3.8,85.9,6.3,88,6.3,88s0.5,0.4,1.4,0.9c0,0-1.3-1.2-0.1-1.7
					c1.2-0.5,4.1,1.4,7,1.4c2.9,0,1.8,2-0.9,2.3c0.8,0.1,1.7,0,2.5-0.3C17.6,89.8,17.6,88,17.6,88z"/>
			</g>
		</g>
		<g>
			<path class="st86" d="M86.7,89.6c0,0-8.5-24.3-10.3-26.4c-1.8-2.1-6.8-5.1-8.4-4.5c-2,0.8-1.7,4.5-1.3,7.5
				c0.3,2,13.9,27.1,15,27.4C82.7,93.9,87.6,91.6,86.7,89.6z"/>
			<path class="st102" d="M81.5,93.5C80,92.3,66.9,68.1,66.6,66.2c-0.1-0.5-0.1-0.9-0.1-1.4c0.1,1.7,1.3,3.8,2.6,3.5
				c1.5-0.3-0.8-5.4-0.8-5.4s2.8,4.8,3.6,4.3c0.8-0.5-1.5-6.1-1.5-6.3c0-0.2,2.8,5.8,4,5.7c1.1,0-0.2-3.9-0.1-4.1
				c0.1-0.1,1.9,4.8,2.8,3.9c0.9-0.9-1.8-4.3-1.8-4.3l0,0c0.4,0.3,0.7,0.6,1,1c1.6,1.8,7.5,18.2,9.7,24.4l0.1,0.4
				c0,0-6.5-17.8-7.6-16.9C77.4,72,84.7,89,84.7,89s-8.5-18.3-10-17.7c-1.5,0.6,2.9,7.9,7.7,19.7C72,70.6,70.8,72.3,71.2,73.9
				C72.1,76.5,78.3,87.9,81.5,93.5z"/>
			<path class="st86" d="M78.5,67.4c0,0-5.2-1.6-10,3.1c-0.3,0.6,0.1,2.3,1.2,2.2c2.8-2.6,7.1-3.7,9.8-2.9
				C79.8,68.3,78.5,67.4,78.5,67.4z"/>
			<path class="st103" d="M69.3,70.5c1.2-1.5,4.6-3.6,8.7-3c0.4,0.1,1.5,0.7,1,1.5c-0.6,0.9-4.4-1.3-9.2,2.9
				C69.2,72.3,68.6,71.4,69.3,70.5z"/>
		</g>
		<g>
			<path class="st86" d="M4.5,90.6c0,0,6.3-25.9,8-28.3c1.7-2.3,5.9-5.5,7.7-5c2.2,0.7,3,4,2.9,7.1c-0.1,2.1-11.7,29.3-12.8,29.7
				C9.2,94.6,3.8,92.8,4.5,90.6z"/>
			<path class="st102" d="M10.4,94.2c1.5-1.4,12.7-27.7,12.7-29.7c0-0.5,0-1-0.1-1.4c0.1,1.8-1,4.1-2.4,3.9
				c-1.6-0.2,0.3-5.6,0.3-5.6s-2.4,5.2-3.4,4.8c-0.9-0.5,0.9-6.4,0.9-6.6c0-0.2-2.3,6.2-3.5,6.3c-1.2,0.1-0.3-4.1-0.4-4.2
				c-0.1-0.1-1.5,5.1-2.6,4.3c-1-0.8,1.4-4.6,1.4-4.6l0,0c-0.4,0.4-0.7,0.7-0.9,1.1C11,64.3,6.6,81.8,5,88.5l0,0.4
				c0,0,4.9-19,6.2-18.2c1.3,0.8-4.6,19.1-4.6,19.1s7-19.7,8.6-19.3c1.6,0.4-2.2,8.5-6,21.1c8.9-22,10.3-20.4,10-18.7
				C18.5,75.7,13.1,88,10.4,94.2z"/>
			<path class="st86" d="M10.7,66.9c0,0,5.3-2.2,10.9,2.2c0.4,0.6,0.1,2.4-1,2.4c-3.2-2.4-7.9-3.1-10.6-2
				C9.5,68,10.7,66.9,10.7,66.9z"/>
			<path class="st103" d="M20.3,70.8c-5.5-3.9-9.3-1.3-9.9-2.1c-0.7-0.8,0.5-1.6,0.9-1.7c4.3-1.1,8,0.7,9.5,2.2
				C21.6,70,21,71,20.3,70.8z"/>
		</g>
		<g>
			<path class="st104" d="M41.3,7.2c0,0,5.7,4.5,13.8,0C48.5,5.1,41.3,7.2,41.3,7.2z"/>
			<path class="st85" d="M41.3,7.2c0,0,5.6,0.9,13.8,0.1C56.7-1,41.3-3.7,41.3,7.2z"/>
			<path class="st87" d="M41.3,7.2c0,0,0.8,0.1,2.3,0.3c-0.5-3.2,0.9-5.6,2.3-7.2C43.5,1,41.3,3.2,41.3,7.2z"/>
			<path class="st97" d="M55.1,7.3c0.7-3.7-1.9-6.2-5-7c1.6,1.4,2.9,3.7,1.7,7.3C52.8,7.5,54,7.4,55.1,7.3z"/>
		</g>
		<g>
			<g>
				<g>
					<g>
						<path class="st4" d="M48.3,19l-3.5-1l0,0l-3.1-3.2l0,0l-0.2-7.5l0.2,0l0.7,5.1l6-0.6l6,0.6L55,7.2l0.2,0l-0.2,7.5l-3.2,3.3
							L48.3,19z M44.9,17.8l3.4,1l3.4-1l3.1-3.2l0.1-6l-0.5,3.8l-0.1,0l-6.1-0.6l-6.1,0.6l-0.5-3.8l0.1,6L44.9,17.8z"/>
					</g>
					<g>
						<path class="st4" d="M44.7,17.9c0,0-1-3.2,0-5.8l0.1,0.1c-1,2.6,0,5.7,0,5.7L44.7,17.9z"/>
					</g>
					<g>
						<path class="st4" d="M51.8,17.9l-0.1,0c0,0,1-3.2,0-5.7l0.1-0.1C52.9,14.6,51.9,17.8,51.8,17.9z"/>
					</g>
					<g>
						<rect x="48.2" y="11.7" class="st4" width="0.2" height="7.1"/>
					</g>
				</g>
				<g>
					<polygon class="st4" points="41.8,14.6 41.6,14.6 42.1,12.3 42.3,12.3 					"/>
				</g>
				<g>
					
						<rect x="54.5" y="12.3" transform="matrix(0.9774 -0.2114 0.2114 0.9774 -1.6116 11.8481)" class="st4" width="0.2" height="2.4"/>
				</g>
			</g>
			<g>
				<path class="st4" d="M48.4,15c-3.8,0-6.4-1.9-6.5-1.9L42,13c0.1,0,6,4.2,12.6,0l0.1,0.1C52.4,14.5,50.3,15,48.4,15z"/>
			</g>
		</g>
	</g>
	<g>
		<path class="st4" d="M22.1,34.9c2.3-7,6.4-13.3,11.7-18.4C28.6,21.7,24.6,28,22.1,34.9z"/>
		<path class="st4" d="M29.8,26.4c1,3.6,1.6,7.3,1.7,11C31.2,33.7,30.7,30,29.8,26.4z"/>
		<path class="st4" d="M51.5,37.1C54.3,33,57.2,29,60.2,25C57.4,29.1,54.5,33.1,51.5,37.1z"/>
		<path class="st4" d="M53.8,38.1c1.6,0,3.2,0.8,4.4,1.8c1.2,1,2.3,2.3,3.2,3.6c-1.1-1.2-2.1-2.5-3.3-3.4
			C56.9,38.9,55.4,38.2,53.8,38.1z"/>
		<path class="st4" d="M57,15.3c1.9,1,3.6,2.2,5.3,3.5c0.8,0.7,1.6,1.4,2.2,2.3c0.6,0.8,1.1,1.9,1.2,2.9c-0.4-2.1-1.9-3.8-3.6-5.1
			C60.6,17.6,58.9,16.4,57,15.3z"/>
		<path class="st4" d="M63.5,42.2c1.9-4.4,3.5-9,4.5-13.7C67.1,33.2,65.6,37.8,63.5,42.2z"/>
		<path class="st4" d="M63.3,44.8c0.6,0.5,0.6,1.6,0,2C63.7,46.3,63.7,45.4,63.3,44.8z"/>
		<path class="st4" d="M64,47.4c1.6,1.9,3,3.9,4.4,5.9c0.7,1,1.4,2.1,2,3.1l1,1.6c0.3,0.5,0.7,1,0.8,1.7c-0.1-0.6-0.5-1.1-0.8-1.6
			l-1-1.6c-0.7-1-1.4-2.1-2.1-3.1C66.9,51.4,65.4,49.4,64,47.4z"/>
		<path class="st4" d="M32.3,47.3c1.2,0.4,2.4,0.8,3.6,1.2C34.7,48.4,33.4,48,32.3,47.3z"/>
		<path class="st4" d="M41.8,48.4c2.2,0.7,4.5,1,6.9,1C46.3,49.6,43.9,49.2,41.8,48.4z"/>
		<path class="st4" d="M55.3,49c2,0.1,3.9,0,5.9-0.2C59.2,49.2,57.2,49.3,55.3,49z"/>
		<path class="st4" d="M12.8,94.2c2.5-3.5,5.2-6.9,7.5-10.5c2.3-3.7,3.4-7.9,4.9-11.9c0.8-2,1.3-4.1,2.6-5.9c1.3-1.8,3.1-3,4.9-4.2
			l11-6.7l-11,6.8c-1.8,1.2-3.6,2.5-4.8,4.2c-1.3,1.8-1.8,3.9-2.5,5.9c-1.5,4-2.6,8.2-5,11.9C18,87.3,15.4,90.7,12.8,94.2z"/>
		<path class="st4" d="M15.2,58.1c2.9-3.8,6.2-7.2,9.9-10.2C21.6,51,18.3,54.4,15.2,58.1z"/>
		<path class="st4" d="M4.6,91.1c0.7-3.7,1.5-7.4,2.5-11c0.5-1.8,1-3.6,1.6-5.4c0.6-1.8,1.2-3.6,1.4-5.5c-0.1,1.9-0.7,3.7-1.3,5.5
			c-0.6,1.8-1.1,3.6-1.6,5.4C6.3,83.7,5.4,87.4,4.6,91.1z"/>
		<path class="st4" d="M11.3,66c0.2-1,0.5-2.1,1-3c0.3-0.5,0.6-0.9,1.1-1.2c0.4-0.3,0.8-0.7,1.3-1c1.8-1.2,3.5-2.4,5.3-3.6
			c-1.7,1.3-3.5,2.5-5.2,3.7c-0.5,0.3-0.8,0.6-1.3,1c-0.4,0.3-0.8,0.7-1.1,1.2C11.9,64,11.6,65,11.3,66z"/>
		<path class="st4" d="M6.6,90c2.5-6.1,4.7-12.2,6.6-18.5C11.5,77.8,9.2,84,6.6,90z"/>
		<path class="st4" d="M10.2,89.9c2.3-7,4.7-14,7.2-20.9C15.1,76,12.7,83,10.2,89.9z"/>
		<path class="st4" d="M12.3,90.4l2.2-4.9c0.7-1.6,1.4-3.3,2.1-4.9c1.4-3.3,2.8-6.6,4.3-9.8c-1.3,3.3-2.8,6.6-4.1,9.9
			C15.3,83.9,13.8,87.2,12.3,90.4z"/>
		<path class="st4" d="M20.3,57.1c1.6,1.8,2.6,4.1,2.9,6.5C22.7,61.3,21.7,59.1,20.3,57.1z"/>
		<path class="st4" d="M10.6,68.7c0.2,0.3,0.6,0.2,0.9,0.2c0.3,0,0.6,0,1,0c0.6,0,1.3,0.1,1.9,0.1c1.3,0.2,2.5,0.6,3.7,1.2
			c-1.2-0.5-2.4-0.8-3.7-1c-0.6-0.1-1.3-0.2-1.9-0.2c-0.3,0-0.6,0-1,0C11.2,69,10.8,69,10.6,68.7z"/>
		<path class="st4" d="M12.8,66.9c2.2-0.3,4.5,0,6.5,1C17.2,67.1,15,66.8,12.8,66.9z"/>
		<path class="st4" d="M63.1,73.7c2,0.4,4,0.5,6,0.3C67.1,74.4,65,74.3,63.1,73.7z"/>
		<path class="st4" d="M64.6,77.2c2.4,0.2,4.7-0.2,6.9-1.1C69.5,77.2,67,77.6,64.6,77.2z"/>
		<path class="st4" d="M68,70.5c1.6,2.1,2.9,4.4,3.9,6.9C70.8,75,69.5,72.8,68,70.5z"/>
		<path class="st4" d="M75.7,84.3c1.7,2.9,3.5,5.8,5.3,8.7C79,90.2,77.2,87.3,75.7,84.3z"/>
		<path class="st4" d="M71.6,87.6c1.2,0.2,2.4,0,3.6-0.4C74.1,87.9,72.8,88,71.6,87.6z"/>
		<path class="st4" d="M74.1,90.2c0.9-0.3,1.8-0.7,2.6-1.2C76,89.7,75.1,90.1,74.1,90.2z"/>
		<path class="st4" d="M66.4,65.8c-0.2-2.1,0.1-4.2,0.8-6.2C66.7,61.7,66.4,63.7,66.4,65.8z"/>
		<path class="st4" d="M67.8,58.9c1.7,0.1,3.3,0.7,4.8,1.3c0.8,0.3,1.5,0.7,2.3,1l1.1,0.6l0.5,0.3l0.3,0.2c0,0,0.1,0.1,0.1,0.1
			c0,0.1-0.1,0-0.1,0c0,0.1,0.1,0.1,0.1,0c0-0.1,0-0.1-0.1-0.1l-0.3-0.1L76,61.9l-1.1-0.5c-0.7-0.4-1.5-0.7-2.3-1
			C71.1,59.7,69.5,59.2,67.8,58.9z"/>
		<path class="st4" d="M78.6,69.4c2.1,5.1,4.1,10.3,6,15.5C82.5,79.8,80.5,74.6,78.6,69.4z"/>
		<path class="st4" d="M82.5,93c1.9,0.1,3.9-1,4.7-2.7C86.6,92.1,84.5,93.4,82.5,93z"/>
		<path class="st4" d="M70.8,71.6c1.2-0.7,2.4-1.3,3.7-1.9c1.3-0.5,2.7-0.9,4.1-0.8C75.8,69.1,73.3,70.4,70.8,71.6z"/>
		<path class="st4" d="M68.6,70.3c2.1-2,4.7-3.4,7.6-4C73.4,67.1,70.8,68.4,68.6,70.3z"/>
		<path class="st4" d="M78,95.1c-0.2,1.5-0.2,3,0,4.5l0,0c1.9,0.4,3.9,0.5,5.9,0.2l0,0.1c-0.1-0.1-0.1-0.3-0.2-0.5
			c0-0.1,0.1-0.4,0.3-0.4c0.3-0.1,0.6-0.1,0.9-0.1c0.6,0,1.2,0,1.8,0.1c1.2,0.1,2.4,0.2,3.6,0.2c1.2,0,2.4-0.1,3.5-0.4
			c0.6-0.2,1.1-0.4,1.6-0.7c0.3-0.2,0.5-0.3,0.7-0.5c0.2-0.2,0.6-0.4,0.4-0.7c0.2,0.3-0.2,0.5-0.4,0.7c-0.2,0.2-0.5,0.4-0.7,0.5
			c-0.5,0.3-1.1,0.6-1.6,0.8c-1.2,0.4-2.4,0.5-3.6,0.5c-1.2,0-2.4-0.1-3.6-0.2C86,99,85.4,99,84.8,99c-0.3,0-0.6,0-0.9,0.1
			c-0.2,0.1-0.2,0.5-0.1,0.7l0.1,0.1l-0.1,0c-2,0.3-4,0.2-5.9-0.2l0,0l0,0C77.8,98.1,77.9,96.6,78,95.1z"/>
		<path class="st4" d="M87.7,93c3.1,0.4,6.2,1.3,9,2.6C93.8,94.5,90.8,93.6,87.7,93z"/>
		<path class="st4" d="M3.6,93.3c0,0.9-0.1,1.9,0.4,2.8c0.5,0.8,1.3,1.3,2.2,1.7c1.7,0.8,3.8,0.8,5.5,0.2c-1.8,0.8-3.8,0.7-5.6,0
			c-0.9-0.4-1.7-1-2.2-1.8C3.4,95.2,3.5,94.2,3.6,93.3z"/>
		<path class="st4" d="M6.8,94.6c1.4,1.3,3.4,1.7,5.2,1.1C10.3,96.6,8,96.1,6.8,94.6z"/>
		<path class="st4" d="M21.5,41.3c0.8,2.3,2.9,3.9,5.2,4.3c1.2,0.2,2.4,0.2,3.5,0.1c0.6-0.1,1.2-0.2,1.7-0.4
			c0.6-0.2,1.2-0.3,1.7-0.6c-1,0.6-2.2,0.9-3.4,1.1c-1.2,0.2-2.4,0.2-3.6,0C24.4,45.3,22.1,43.7,21.5,41.3z"/>
		<path class="st4" d="M27.4,37.4c2.4,0.1,4.7,0.6,6.9,1.5C32,38.2,29.7,37.7,27.4,37.4z"/>
		<path class="st4" d="M34.4,41.6c-0.5,0.5-1,1.2-0.9,1.9c0,0.3,0.2,0.7,0.5,0.9c0.3,0.2,0.7,0.1,1,0.1l0.1,0l-0.1,0.1
			c-0.2,0.3-0.4,0.7-0.5,1c-0.1,0.4-0.2,0.7-0.2,1.1c0.1,0.4,0.4,0.6,0.8,0.7c0.3,0.1,0.8,0,1-0.2l0.1,0.1c-0.3,0.4-0.3,1.1,0.1,1.5
			c0.5,0.3,1.1,0.2,1.6-0.2l0.1-0.1l0,0.1c-0.1,0.6,0,1.3,0.5,1.6c0.5,0.2,1.3,0.1,1.6-0.4c-0.3,0.5-1.1,0.7-1.6,0.5
			c-0.3-0.1-0.5-0.4-0.5-0.7c-0.1-0.3-0.1-0.6,0-0.9l0.1,0c-0.5,0.3-1.1,0.5-1.7,0.2c-0.3-0.2-0.4-0.5-0.4-0.8
			c0-0.3,0.1-0.6,0.3-0.9l0.1,0.1c-0.3,0.3-0.8,0.4-1.1,0.3c-0.4-0.1-0.8-0.4-0.8-0.8c-0.1-0.4,0.1-0.8,0.2-1.2
			c0.1-0.4,0.3-0.7,0.5-1l0.1,0.1c-0.4,0.1-0.7,0.1-1.1-0.1c-0.3-0.2-0.5-0.6-0.5-0.9C33.4,42.7,33.9,42.1,34.4,41.6z"/>
		<path class="st4" d="M40.4,47.7c0.8-1.6,1.5-3.1,2.2-4.7C42.1,44.7,41.4,46.3,40.4,47.7z"/>
		<path class="st4" d="M37.9,48.2c0.3-0.9,0.7-1.8,1.2-2.6C38.8,46.5,38.4,47.4,37.9,48.2z"/>
		<path class="st4" d="M36.6,46.6c0.2-0.8,0.6-1.5,1-2.2C37.4,45.2,37,45.9,36.6,46.6z"/>
		<path class="st4" d="M35.4,44.5c0.4-0.6,1-1.2,1.5-1.7C36.5,43.5,36,44,35.4,44.5z"/>
		<path class="st4" d="M38.9,38.8c0.9,0.5,1.6,1.4,2,2.3c0.1,0.2,0.1,0.5,0.3,0.7c0.2,0.2,0.4,0.3,0.6,0.5c0.4,0.4,0.5,1,0.3,1.5
			c0.1-0.5-0.1-1-0.4-1.4c-0.2-0.2-0.4-0.3-0.6-0.5c-0.2-0.2-0.3-0.5-0.4-0.7C40.4,40.3,39.7,39.4,38.9,38.8z"/>
		<path class="st4" d="M34.9,40.8c-0.1-0.8-0.2-1.6-0.1-2.5c0.1-0.4,0.3-0.9,0.6-1.1c0.4-0.2,0.9-0.3,1.2,0.1
			c-0.3-0.3-0.8-0.2-1.1,0c-0.3,0.2-0.5,0.6-0.5,1C34.9,39.1,35,39.9,34.9,40.8z"/>
		<path class="st4" d="M47.6,47.2c0.5,0.7,1,1.4,1.6,2c0.3,0.3,0.6,0.6,0.9,0.9c0.3,0.3,0.7,0.6,1.1,0.2c-0.1,0.2-0.4,0.3-0.6,0.2
			c-0.2-0.1-0.4-0.2-0.6-0.3c-0.3-0.3-0.6-0.6-0.9-0.9C48.5,48.7,48,48,47.6,47.2z"/>
		<path class="st4" d="M49.5,46.9c1,1.4,1.8,2.9,2.6,4.4C51.2,49.9,50.3,48.4,49.5,46.9z"/>
		<path class="st4" d="M51.3,46.1c0.9,1.4,1.7,2.9,2.5,4.4C52.9,49,52.1,47.6,51.3,46.1z"/>
		<path class="st4" d="M52.9,45.3c1.2,0.7,2,2.1,1.8,3.5C54.6,47.4,54,46.2,52.9,45.3z"/>
		<path class="st4" d="M54.1,45.5c0.4,0.7,0.9,1.3,1.6,1.6c0.3,0.2,0.7,0.3,1.1,0.1c0.3-0.2,0.5-0.7,0.2-1c0.3,0.3,0.2,0.8-0.2,1.1
			c-0.4,0.2-0.8,0.1-1.2,0C55,46.9,54.4,46.3,54.1,45.5z"/>
		<path class="st4" d="M55.8,44.7c-0.8-1.2-1.9-2.3-3.1-3l-0.1,0l0.1-0.1c0.4-0.5,1.1-0.4,1.7-0.4c0.6,0,1.1,0.1,1.7,0.1l-1.7,0
			c-0.5,0-1.2,0-1.5,0.4l0-0.1C54,42.3,55.1,43.4,55.8,44.7z"/>
		<path class="st4" d="M45,44.1c0.3-2,1.7-3.7,3.4-4.7c1.8-1,3.8-1.4,5.8-1.2c-2-0.1-4,0.3-5.7,1.3C46.8,40.5,45.4,42.1,45,44.1z"/>
		<path class="st4" d="M58,45.4c0.5-0.5,1-0.9,1.5-1.4C59.2,44.6,58.6,45.1,58,45.4z"/>
		<path class="st4" d="M41.5,15.8c-0.3,0.8,0,1.7,0.1,2.6c0.1,0.9,0.2,1.7,0.4,2.6c0.4,1.7,1.1,3.4,2.3,4.6l0.2,0.3l-0.3-0.2
			c-0.1-0.1-0.2-0.2-0.1-0.4l0.2-0.3c0.1-0.2,0.3-0.4,0.4-0.5c0.3-0.3,0.6-0.6,1-0.9c0.7-0.6,1.4-1.1,2.1-1.7l-2,1.7
			c-0.3,0.3-0.6,0.6-0.9,0.9c-0.1,0.2-0.3,0.3-0.4,0.5c-0.1,0.2-0.3,0.4-0.1,0.5l-0.1,0.1c-1.3-1.3-2-3-2.4-4.7
			c-0.2-0.9-0.3-1.7-0.4-2.6l-0.1-1.3C41.3,16.6,41.3,16.2,41.5,15.8z"/>
		<path class="st4" d="M48.9,22.5c1.4,1,2.6,2.3,3.5,3.9C51.4,24.9,50.2,23.6,48.9,22.5z"/>
		<path class="st4" d="M53.7,17.5c0.7,2.5,0.7,5.3,0.1,7.8C54.2,22.7,54.2,20.1,53.7,17.5z"/>
		<path class="st4" d="M49,22.2c0.9-1.5,1.8-2.9,2.9-4.2C51,19.5,50.1,20.9,49,22.2z"/>
		<path class="st4" d="M41.1,7.2c-0.2-1.3,0.2-2.7,1-3.8c0.8-1.1,1.8-2,3-2.6c1.2-0.6,2.6-0.7,3.9-0.3c0.6,0.2,1.2,0.5,1.8,0.9
			c0.3,0.2,0.5,0.4,0.7,0.7l0.3,0.4C52,2.5,52,2.6,52,2.7c0,0.1-0.2,0.1-0.2,0c0,0.1,0.2,0.1,0.2,0c0-0.1,0-0.2-0.1-0.2l-0.3-0.4
			c-0.2-0.2-0.5-0.5-0.7-0.6c-0.5-0.4-1.1-0.7-1.8-0.9c-1.3-0.3-2.7-0.3-3.8,0.4c-1.2,0.6-2.2,1.5-3,2.5C41.5,4.5,41,5.8,41.1,7.2z"
			/>
		<path class="st4" d="M43.5,6.8c1.4,0.2,2.8,0.4,4.2,0.4c0.7,0,1.4,0,2.1,0l1.1-0.1l0.5,0c0.1,0,0.4-0.1,0.3-0.3
			c0.1,0.2-0.2,0.3-0.3,0.3l-0.5,0.1l-1.1,0.1c-0.7,0-1.4,0.1-2.1,0C46.3,7.2,44.8,7.1,43.5,6.8z"/>
		<path class="st4" d="M52.8,60.9c2.3,1.4,4.4,3.2,6.4,5.2c1,1,1.8,2.2,2.1,3.5c0.4,1.3,0.5,2.7,0.6,4.1c-0.2-1.4-0.3-2.7-0.7-4
			c-0.4-1.3-1.2-2.5-2.2-3.4C57.1,64.2,55,62.4,52.8,60.9z"/>
		<path class="st4" d="M65.5,78.5c2.8,2.5,5.3,5.2,7.4,8.2C70.6,83.9,68.1,81.2,65.5,78.5z"/>
		<path class="st4" d="M73.8,90.8c1.5,0.8,2.8,1.9,3.8,3.3C76.4,92.8,75.1,91.8,73.8,90.8z"/>
		<path class="st4" d="M22.6,35.8c2.4-0.3,4.8,0.1,7,1C27.3,36.1,25,35.7,22.6,35.8z"/>
	</g>
</g>
</svg>
