<svg enable-background="new 0 0 100 100" viewBox="0 0 100 100" xmlns="http://www.w3.org/2000/svg"><path d="m77.4 17.9s.8 5.8-4.7 4.9c-2.6-.9-2-3.4-1.8-5.2.5-1.8 6.5.3 6.5.3z" fill="#d1ab3e"/><path d="m71.8 15.9c-.3 0-.5.1-.7.3s-.3.5-.3.7c0 .4.1.9.4 1.3s.8.7 1.1 1.1c.3.5.3 1.1.8 1.5.2.2.5.3.7.3 1 .1 2.1-.4 2.6-1.2.5-.9.5-2-.1-2.8-.4-.6-1-.9-1.6-1.3-.5-.3-1-.6-1.6-.6-.6-.1-1.2.1-1.5.6" fill="#d1ab3e" opacity=".5"/><path d="m71.6 18.1c.4.7 1.2 1.2 1.6.5.3.6 1.2 1.1 1.8.5.3.8 1.7.5 1.9.1.4-.2.4.8.4.8s.4-2 0-2.7-5.7-.4-5.7-.4z" fill="#d1ab3e" opacity=".8"/><path d="m71.4 17.4c0 .1-.1.1-.1.2.2-.5.6-.9 1.1-1.2.2-.1.5-.2.7-.1s.3.4.3.7c0 .6-.1 1.1-.1 1.7 0 .2 0 .4.2.6s.4.3.7.5c.2.2.4.5.4.8s-.3.6-.6.5c-.2 0-.4-.2-.5-.3-.2-.2-.4-.4-.5-.7-.3-.6-.5-1.2-.9-1.7-.1-.2-.3-.3-.4-.5s-.1-.4 0-.6" fill="#d1ab3e" opacity=".1"/><path d="m75.9 21.1c-1.4.3-1 .8-.5 1.4 2.6-1 2.1-4.7 2.1-4.7s-.2-.1-.6-.2l-.1.2c-.2.1 1.2 2.8-.9 3.3z" fill="#d1ab3e" opacity=".5"/><path d="m61.4 9.7c-5.9-2.2-32.6-9.7-38.1-9.4-1.1.1-2.1.8-2.9 3.3-.6 1.8.2 4.4 1.1 4.9 4.9 2.6 31.2 9.1 37.6 9.4 0 0 1-.4 1.4-1 1.2-1.9 1.8-6.9.9-7.2z" fill="#c16a23"/><path d="m20.5 5.4c-.2-3.8.1-5.2 3.8-4.5s36.8 7.9 37.1 10.1c.3 2.1-.9 6.6-2.1 6.7s-38.6-12-38.6-12" fill="#c16a23" opacity=".5"/><path d="m77.7 18c-.1.6-.7 1-1.4.9l-17-3.7.5-2.2 17 3.7c.6.1 1 .7.9 1.3z" fill="#6dec6e"/><path d="m63.6 15.4c-5.6-.7-3.4-1.9-3.3-2.1h-.6l-.4 1.9 17 3.7c.6.1 1.2-.3 1.4-.9v-.1c-3.1-1-9.9-1.9-14.1-2.5z" fill="#6dec6e" opacity=".5"/><path d="m60.6 10.6c-5.9-2.2-32.9-9.7-38.3-9.3-1.1.1-1.9 2-2.3 3.8s-.4 3.9.5 4.4c4.9 2.6 32.2 8.2 38.5 8.6 1 0 2.6-7.1 1.6-7.5z" fill="#826315"/><path d="m60.6 10.6c-5.9-2.2-32.9-9.7-38.3-9.3-1.1.1-1.9 2-2.3 3.8-.3 1.4-.4 2.9 0 3.8.1-.9.3-1.8.7-2.6.9-1.9 2.7-3.3 4.8-3.3 1.2 0 2.4.4 3.6.9 8.3 3.4 16.5 7.9 25.5 8.6 1.2.1 2.5.2 3.3 1s.9 2 .8 3c0 .5-.1 1.1-.2 1.6h.7c.8 0 2.4-7.1 1.4-7.5z" fill="#ec1c24" opacity=".3"/><path d="m60.6 10.6c-5.9-2.2-32.9-9.7-38.3-9.3-.8 0-1.5 1.2-2 2.5 1.3-.2 2.6 0 3.8.5 1.8.9 3.2 2.5 5.1 3.1 3.3 1 6.7-1.5 10.1-1.1 3 .4 5.1 3 7.3 5 3.1 2.9 6.8 5 10.8 6.3.5.2 1 .3 1.6.4 1.1-.4 2.6-7 1.6-7.4z" fill="#ec1c24" opacity=".3"/><path d="m60.3 13.9c-16.1-2.7-39.2-9.3-40.1-9.6-.1.3-.2.5-.2.8-.4 1.8-.4 3.9.5 4.4 4.9 2.6 32.2 8.2 38.5 8.6.6 0 1.3-2.1 1.7-4.1-.1-.1-.2-.1-.4-.1z" fill="#826315" opacity=".4"/><g fill="#c87c3d" opacity=".5"><path d="m56.4 17.6c-4.8-1-9.7-1.9-14.6-3-6.5-1.6-13.7-3.1-20.8-5.4-.8-.3-1.6-.5-1.7-.5-.2 0 .4.2 1.2.5 3.6 1.4 7.6 2.4 11.7 3.4.5.1 1 .2 1.5.4.5.1.9.2 1.4.3 3.6.8 7.1 1.5 10.7 2.3 3.6.7 6.9 1.4 10.4 2.1.2 0 .3.1.3.1.1-.1 0-.1-.1-.2z"/><path d="m56.4 17.3c-4.8-1-9.7-1.9-14.6-3-6.5-1.6-13.7-3.1-20.8-5.4-.8-.3-1.6-.5-1.7-.5-.2 0 .4.2 1.2.5 3.6 1.4 7.6 2.4 11.7 3.4.5.1 1 .2 1.5.4.5.1.9.2 1.4.3 3.6.8 7.1 1.5 10.7 2.3 3.6.7 6.9 1.4 10.5 2.1.2 0 .3.1.3.1.1-.1 0-.2-.2-.2z"/><path d="m56.5 17c-4.9-1-9.7-1.9-14.6-3-6.5-1.6-13.7-3.1-20.7-5.4-.8-.3-1.6-.5-1.7-.5-.2 0 .4.2 1.2.5 3.6 1.4 7.6 2.4 11.7 3.4.5.1 1 .2 1.5.4.5.1.9.2 1.4.3 3.6.8 7 1.5 10.7 2.3 3.6.7 6.9 1.4 10.5 2.1.2 0 .3.1.3.1 0-.2-.1-.2-.3-.2z"/><path d="m56.6 16.6c-4.9-1-9.8-1.9-14.6-3-6.5-1.6-13.7-3.1-20.7-5.4-.8-.3-1.6-.5-1.7-.5-.2 0 .4.2 1.2.5 3.6 1.3 7.5 2.4 11.6 3.3.5.1 1 .2 1.5.4.5.1.9.2 1.4.3 3.6.8 7 1.5 10.6 2.3 3.6.7 6.9 1.4 10.5 2.1.2 0 .3.1.3.1.1 0 0 0-.1-.1z"/><path d="m56.6 16.3c-4.9-1-9.8-1.9-14.6-3-6.5-1.6-13.7-3.1-20.6-5.4-.8-.3-1.6-.5-1.7-.5-.2 0 .4.2 1.2.5 3.5 1.3 7.5 2.4 11.6 3.3.5.1 1 .2 1.5.4.5.1.9.2 1.4.3 3.6.8 7 1.5 10.6 2.3 3.6.7 6.9 1.4 10.5 2.1.2 0 .3.1.3.1.1 0 0 0-.2-.1z"/></g><g fill="#c87c3d" opacity=".5"><path d="m56.4 16.1c-4.8-1-9.7-1.9-14.6-3-6.5-1.6-13.7-3.1-20.8-5.4-.8-.3-1.6-.5-1.7-.5-.2 0 .4.2 1.2.5 3.6 1.4 7.6 2.4 11.7 3.4.5.1 1 .2 1.5.4.5.1.9.2 1.4.3 3.6.8 7.1 1.5 10.7 2.3 3.6.7 6.9 1.4 10.4 2.1.2 0 .3.1.3.1.1-.2 0-.2-.1-.2z"/><path d="m56.4 15.7c-4.8-1-9.7-1.9-14.6-3-6.5-1.6-13.7-3.1-20.8-5.4-.8-.3-1.6-.5-1.7-.5-.2 0 .4.2 1.2.5 3.6 1.4 7.6 2.4 11.7 3.4.5.1 1 .2 1.5.4.5.1.9.2 1.4.3 3.6.8 7.1 1.5 10.7 2.3 3.6.7 6.9 1.4 10.5 2.1.2 0 .3.1.3.1.1-.1 0-.1-.2-.2z"/><path d="m56.5 15.4c-4.9-1-9.7-1.9-14.6-3-6.5-1.6-13.7-3.1-20.7-5.4-.8-.3-1.6-.5-1.7-.5-.2 0 .4.2 1.2.5 3.6 1.4 7.6 2.4 11.7 3.3.5.1 1 .2 1.5.4.5.1.9.2 1.4.3 3.6.8 7 1.5 10.7 2.3 3.6.7 6.9 1.4 10.5 2.1.2 0 .3.1.3.1s-.1-.1-.3-.1z"/><path d="m56.6 15.1c-4.9-1-9.8-1.9-14.6-3-6.5-1.5-13.7-3.1-20.7-5.4-.8-.3-1.6-.5-1.7-.5-.2 0 .4.2 1.2.5 3.6 1.3 7.5 2.4 11.6 3.3.5.1 1 .2 1.5.4.5.1.9.2 1.4.3 3.6.8 7 1.5 10.6 2.3 3.6.7 6.9 1.4 10.5 2.1.2 0 .3.1.3.1.1-.1 0-.1-.1-.1z"/><path d="m56.6 14.7c-4.9-1-9.8-1.9-14.6-3-6.5-1.6-13.7-3.1-20.6-5.4-.8-.3-1.6-.5-1.7-.5-.2 0 .4.2 1.2.5 3.5 1.3 7.5 2.4 11.6 3.3.5.1 1 .2 1.5.4.5.1.9.2 1.4.3 3.6.8 7 1.5 10.6 2.3 3.6.7 6.9 1.4 10.5 2.1.2 0 .3.1.3.1.1 0 0 0-.2-.1z"/></g><g fill="#c87c3d" opacity=".5"><path d="m58.1 11.6c-4.6-1.6-9.5-2.8-14.2-4-6.4-1.8-13.6-3.5-20.9-4.6-.9-.1-1.7-.2-1.8-.2s.4.2 1.3.3c3.7.6 7.7 1.5 11.9 2.3l1.5.3c.5.1.9.2 1.4.3 3.6.8 7 1.7 10.6 2.6 3.5.9 6.9 1.8 10.2 3 .2.1.3.1.3.1s-.1 0-.3-.1z"/><path d="m58.2 11.3c-4.6-1.6-9.5-2.8-14.2-4-6.4-1.8-13.6-3.5-20.9-4.6-.9-.1-1.7-.2-1.8-.2-.2 0 .4.2 1.3.3 3.8.6 7.8 1.5 11.9 2.3.5.1 1 .2 1.5.3s.9.2 1.4.3c3.6.8 7 1.7 10.6 2.6 3.5.9 6.9 1.8 10.2 3 .2.1.3.1.3.1s-.1 0-.3-.1z"/><path d="m58.4 11c-4.7-1.6-9.5-2.8-14.3-4.1-6.4-1.8-13.6-3.5-20.9-4.6-.9-.1-1.7-.2-1.8-.2-.2 0 .4.2 1.3.3 3.8.6 7.8 1.5 11.9 2.3.5.1 1 .2 1.5.3s.9.2 1.4.3c3.6.8 7 1.7 10.6 2.6 3.5.9 6.9 1.8 10.2 3 .2.1.3.1.3.1 0 .1-.1.1-.2 0z"/><path d="m58.5 10.7c-4.7-1.6-9.5-2.8-14.3-4.1-6.4-1.8-13.6-3.5-21-4.6-.9-.1-1.7-.2-1.8-.2-.2 0 .4.2 1.3.3 3.8.6 7.8 1.5 11.9 2.3.5.1 1 .2 1.5.3s.9.2 1.4.3c3.6.8 7 1.7 10.6 2.6 3.5.9 6.9 1.8 10.3 3 .2.1.3.1.3.1 0 .1-.1 0-.2 0z"/><path d="m58.6 10.4c-4.8-1.7-9.6-2.8-14.4-4.1-6.5-1.8-13.6-3.5-21-4.6-.9-.1-1.7-.2-1.8-.2-.2 0 .4.2 1.3.3 3.8.6 7.8 1.5 12 2.3.5.1 1 .2 1.5.3s.9.2 1.4.3c3.6.8 7 1.7 10.6 2.6 3.5.9 6.9 1.8 10.3 3 .2.1.3.1.3.1 0 .1-.1 0-.2 0z"/></g><path d="m62.7 24.5s-.2.6 1.7 1.3c2.2.6 4.6.7 4.5-.6s-5-2.9-6.2-.7z" fill="#ee3a40"/><path d="m50.6 14.6c0 .1 1.2 1.7 1.4 3.2" fill="none" stroke="#1a1a1a" stroke-linejoin="round" stroke-miterlimit="10" stroke-width=".1469"/><path d="m45.3 21.3s-1-.3-2.4-4.7c2.2-1 2.9 2.6 2.4 4.7z" fill="#ee3a40"/><path d="m45.7 23.6s.4-.6 2.6-.6 2.5-.3 3.3-.1 1 1.3 1 1.3l-2.6 2.4-2.6.4s-1.9-2.6-1.7-3.4z" fill="#ee3a40"/><path d="m66.3 41.6s.4.4.9-1.4c.4-1.9 3.3-8.2 2.3-8.6-1-.5-4.9 5.5-3.2 10z" fill="#ee3a40"/><path d="m19.3 82.9s-2.4-1.8-3.8-1.6c-1.6.3-2 4.2-2.7 5s-2.1 3.9-1.4 5 6.1 1.2 6.8.6-.9-2-.9-2.5 1.1-2.4 1.5-2.8c-.1-.3-.2-2.2.5-3.7z" fill="#d1ab3e"/><path d="m15.2 90c-.5.1-1.2.9-1.8.6-.2-.1-.3-.3-.4-.5-.3-1.2.4-2.5 1-3.5.7-1.1 1.4-2.2 1.9-3.5.2-.5.3-1 .3-1.5v-.1c-.3-.1-.6-.1-.8-.1-1.6.3-2 4.2-2.7 5s-2.1 3.9-1.4 5 6.1 1.2 6.8.6c.2-.2.2-.5.1-.7-.6-1.2-1.8-1.6-3-1.3z" fill="#d1ab3e" opacity=".5"/><path d="m18.7 84.2s0 1.5-.8 2.6c-.7 1.1-1.1 1.6-1.7 2-1 .8-3 1.3-2.8 1.4s2.3-1.2 3.6-.6c.1.1.2.1.4.1-.1-.1-.1-.2-.1-.3 0-.5 1.1-2.4 1.5-2.8-.1-.3-.2-1.5.1-2.7z" fill="#d1ab3e"/><path d="m12.3 90.9c-1.3-1.4.7-4 1.1-4.8 1.2-2.9 2.2-4.2 2.7-4.7-.2 0-.4 0-.6 0-1.6.3-2 4.2-2.7 5s-2.1 3.9-1.4 5 6.1 1.2 6.8.6c.4-.3.1-.8-.2-1.3-2.7-1.9-4.9 1-5.7.2z" fill="#d1ab3e" opacity=".5"/><path d="m16.1 81.4s-1.7 2.6-2.3 4.6c-.5 1.2-2.3 3.3-1.4 4.3s2.8-1.6 5.4 0" fill="none" stroke="#ca7f42" stroke-miterlimit="10" stroke-width=".1352"/><path d="m19.3 82.9s-2.4-1.8-3.8-1.6c-.4.1-.7.4-1 .8 1.1-.2 2.6.4 3.4 2.5.3.8.6 1.3.8 1.7 0-.6 0-2.1.6-3.4z" fill="#d1ab3e" opacity=".5"/><path d="m18.9 85c-.2-.2-.9-.6-1.3 0-.5.6-1.2 2.3-2.6 4.7 1.7-.5 2.6.2 2.6.2s.1-.1 0-.5 1.5-2.2 1.7-2.6c0-.4-.2-1.5-.4-1.8z" fill="#d1ab3e"/><path d="m16.2 89.3c.6.1-.4-.1 0-1.3.4-1.3 1.6-3.2 2.4-2.5.4.3.5.9.6 1.4 0-.1.1-.1.1-.1.1-.4-.1-1.5-.3-1.8-.2-.2-.9-.6-1.3 0-.5.6-1.2 2.3-2.6 4.7-.2.1.5-.5 1.1-.4z" fill="#d1ab3e"/><path d="m49.3 89.4c1.2-.6 2.6-2 2.1-2.7-.3-.4-2-1-3.5-1.2-4-.5-9.9.2-10.1.6-.2.2 6.4 5.1 11.5 3.3z" fill="#d1ab3e"/><path d="m49.9 86.5s1.1.6 0 1.6-2.8 1.4-2.4.3 0 1 0 1 2-.1 3.1-1.5.7-1.6-.4-1.9c-1.1-.2-.3.5-.3.5z" fill="#d1ab3e"/><path d="m51.4 86.6s-.1-.1-.2-.1c.2.8-1.1 2-2.2 2.6-4.7 2-10-1.9-11.3-3-.1.3 6.5 5.1 11.5 3.3 1.3-.6 2.7-2 2.2-2.8z" fill="#fff" opacity=".5"/><path d="m62.6 32.1c2.2-1.6 5.9 0 7.3-.3.6-1.5 1.5-5.9 1.9-8.7 1.4-1.4 3.5-.6 4.1 0 0 3.8.7 11.7-1.3 14.1s-8.4 2.5-11.8 2.4-3.4-5.1-.2-7.5z" fill="#c57330"/><path d="m73 22.3-.4 1c2.6 3.8 2.5 10.1 1.5 11.6-1.1 1.6-.4 2.9-4.1 3-3.1.1-5.4-4.1-4-6.1.1-.2.2-.4.1-.4-.3 0-.6 0-.9 0-1.9.5-5.9 3.3-2.3 6.6.6.6 1.2 1.1 1.8 1.6 3.5 0 8.3-.4 10-2.4 2-2.4 1.3-10.3 1.3-14.1-.6-.5-1.8-1.1-3-.8z" fill="#c57330" opacity=".3"/><path d="m74.6 37.1c1.7-2.1 1.4-8.6 1.3-12.6-.8 0-1.3.4-.9.9 1.1 1.5.8 8.1-.4 10.8s-6.2 2.3-7.1 2c-.9-.4-3 0-3 0l-.5 1.3c3.5 0 8.8-.2 10.6-2.4z" fill="#c57330" opacity=".3"/><path d="m74.6 37.1c2-2.4 1.3-10.3 1.3-14.1-.4-.3-1.1-.7-2-.8l-2.5 2.9s1.4.6 2.8.8c.6.1 1.1.7 1.1 1.3.2 5.7.8 8.9-1.9 10.6-2.9 1.8-9.8 1-8.3-.8 1-1.2-1.1.8-1.8 2.5 3.6.1 9.4-.1 11.3-2.4z" fill="#8ff08f" opacity=".5"/><path d="m76 26.8c0-.2 0-.5 0-.7-.1-1.6-.3-2.8-.4-3.3-.1-.1-.2-.1-.4-.2-.8.3-2.7 1.2-3.5 1.3-.5 2.8-1.2 6.5-1.8 7.9-.5.1-1.3 0-2.2-.1l.2.9s2.3-.5 2.7.5.4-5.6 1.3-6.2c.8-.7 3 .2 4.1-.1z" fill="#c57330" opacity=".5"/><path d="m67.4 33.1c1.7-.9 2.8.6 3.3 1.2.6.6.3-.3 0-2.3-.2-2 1.6-6.9 2.2-7.2l-.4-2.1s-.1-.1-.2-.1c-.2.1-.4.3-.6.4-.4 2.9-1.3 7.3-1.9 8.7-.8.2-2.3-.2-3.9-.4 0 1.3.4 2.4 1.5 1.8z" fill="#c57330" opacity=".5"/><path d="m67 39.5s.9-5.7 2.8-7.7c-3.7.2-4.4-.6-4.5-.4s0 8.2 0 8.2z" fill="#8ff08f"/><path d="m71.4 21.1s-.7 2.8-.5 3.4c.3.6 4.9 1.5 5.5.7.5-.6-.3-3.6-.3-3.6z" fill="#d1ab3e"/><path d="m70.9 24.5c.1.1.4.3.8.4 0-1.9 2.5-3 1.5-3.1-.5-.1-1.2-.3-1.8-.7h-.1c.1 0-.7 2.8-.4 3.4z" fill="#d1ab3e" opacity=".5"/><path d="m70.9 24.5c.1.2 1 .5 2 .7-.5-1-.7-2.2-.5-2.9.1-.4.1-.7-.1-1.1l-1-.1c.1 0-.7 2.8-.4 3.4z" fill="#d1ab3e" opacity=".5"/><path d="m70.9 24.5c.1.3 1.4.7 2.8.9-.4-.7-2.5-1.9-2.1-2.7.5-.9.6-.5-.2-1.6s-.8 2.8-.5 3.4z" fill="#d1ab3e" opacity=".5"/><path d="m71.5 23.4c0-.2.1-.3.1-.5 0-.1 0-.2.1-.2.2-.4.3-.5.4-.6-.1-.1-.4-.4-.7-.8-.2.6-.7 2.7-.4 3.2.1.1.4.3.8.4-.4-.6-.4-1.1-.3-1.5z" fill="#ee3a40"/><path d="m76.5 25.2c.5-.6-.3-3.6-.3-3.6l-1.2-.1c-.5.5.9 1.3 1 2.4 0 .5-.2 1.1-.5 1.6.5 0 .8-.1 1-.3z" fill="#d1ab3e" opacity=".5"/><path d="m55 23.9c4.7.8 11.3 6.6 14.5 7.6-2 1.2-3.7 7.3-3.1 10.1-6.4-.4-14.3-5.3-15.4-7.8-2.5-5.5 2.6-10.1 4-9.9z" fill="#ee3a40"/><path d="m54 24.2-.1 2.6 6.8 1.4s.2-.8.4-1.7c-2.1-1.3-4.2-2.3-6.1-2.6-.2 0-.6.1-1 .3z" fill="#ee3a40" opacity=".5"/><path d="m66.7 33.2c-.1-1-1.5 3.2-2.5 2.7-1-.6-3.7-8.1-3.7-8.1l-.6 12.2c2.1.9 4.3 1.5 6.4 1.6-.1-.5-.1-1.1-.1-1.8-.4-.1-.7-.2-1-.2-.9-.1 1.6-5.4 1.5-6.4z" fill="#ee3a40" opacity=".5"/><path d="m64.5 39.6c-1.3-.6-2.8-5.1-2.9-5.3l.4 6.4c1.5.5 2.9.8 4.3.9-.3-1.4 0-3.8.7-5.8-.8-.2-1.1 4.3-2.5 3.8z" fill="#ee3a40" opacity=".5"/><path d="m66.3 41.6c-.1-.5-.1-1.1-.1-1.8-.3-.5-.1-1.3-.6-2.1-.7-1.2-.3 1.9-1.3 1.9s-3-4.8-3-4.9v5.8c1.7.6 3.4 1 5 1.1z" fill="#ee3a40"/><path d="m64.1 54.6s-.2 2.3 1.1 2.8 2.3.6 1.9 1.9c-.4 1.2 12.8 3.2 16.7 5.7 7.4 4.7-2.2 24.9-3.4 29.5-.3 1.7-5.8.5-6.6-.3s-.8-1.8-.2-2.4c.4-.4-.4-7.5 1.2-13.2.1-1.2.1-1.2 0-1.8-.4-1.7.6-2.5.6-3 .1-1-.9-1-2.9-.7-4.7.8-7.2 0-10.3-.2-4.1-.2-6.1-1.6-7.7-3.5-4.4-4.9 4.1-15.4 9.6-14.8z" fill="#ee3a40"/><path d="m78.4 69.1c-1.6-.7-3.5.8-5.2.3-1.3-.4-1.9-1.8-2.6-2.9-.2-.4-.5-.8-.9-1s-.8-.1-1.2 0c-2 .6-3.4 2.5-5 3.9-.7.6-1.5 1.1-2.3 1-1.3-.1-2.1-1.8-1.4-2.9l-3.1 3.8c1.3.8 3 1.3 5.3 1.4 3.1.2 5.6 1 10.3.2 2-.3 3.1-.3 2.9.7-.1.5-1 1.3-.6 3 .1.6.1.6 0 1.8-1.6 5.7-.8 12.8-1.2 13.2-.6.6-.7 1.6.2 2.4.3.2.9.5 1.8.7.4-.2.8-.4 1.1-.7 1-.9 1.6-2.2 1.3-3.5-.5-1.8-2.6-2.8-3.1-4.5-.3-1.1.1-2.4 1-3.2.5-.5 1.3-1 1.1-1.6-.1-.2-.2-.4-.3-.6-.8-1.2-.3-2.9.5-4.1s1.9-2.3 2.4-3.6c.6-1.3.3-3.1-1-3.8z" fill="#ee3a40" opacity=".3"/><path d="m83.7 64.9c-3.9-2.5-17-4.4-16.7-5.7.4-1.2-.6-1.4-1.9-1.9s-1.1-2.8-1.1-2.8c-.7-.1-1.4 0-2.1.3l.8 3c.6-.3 1.3-.5 2-.4s1.3.7 1.3 1.4-.7 1.2-1 1.9c0 .1-.1.2-.1.2 0 .1.2.2.3.3.2 0 .3 0 .4-.1 2-.7 3.7-.4 5.6.4.6.3 1.3.7 1.3 1.4 0 .2-.1.5.1.6.1.1.3 0 .5-.1 1-.5 2.4-.9 3.5-.5 1.1.5 2.2.9 3.4 1.3.4.1.8.2 1 .5.3.3.5.7.4 1-.2.6-.9.8-1.2 1.3-.2.5.2 1.2-.1 1.6-.1.2-.3.3-.4.4-.6.6-.3 1.6-.5 2.4-.1.5-.4 1-.5 1.6-.1 1.2.8 2.2 1.7 3 .4.4.9.8 1.5.9 1 .2 1.9-.5 2.6-1.3 1-1.3 1.6-2.9 1.9-4.5 0-2.7-.8-5-2.7-6.2z" fill="#ee3a40" opacity=".5"/><path d="m77.9 77.7c-.6-.6-1.6-.7-1.9-1.7-.3-.9.2-1.7 1.1-1.9.2-.1.4-.1.6-.2s.3-.3.3-.5c-.4-.1-.8-.1-1.2-.1s-.9-.2-1.1-.5c-.2-.4 0-.9.3-1.2s.7-.5 1-.8l.2-.2c0-.2-.1-.3-.3-.3-.9-.1-2 .7-2.8 1-.8.2-3.2.9-3.6-.1-.2-.6.6-1.4-.6-1.3-.7.1-1.3.4-1.9.5-1.2.2-2.5.4-3.7.6-.3 0-.7.1-.8-.2-.2-.3.1-.6.3-.9 1.1-1.1 2.2-2.3 3.3-3.4.6-.7 2.6-2.5 1.4-2.4-1.7.9-2.9 2.3-4.2 3.6-.5.6-1.3 1.6-2 1.9-1 .4-.7-.8-.7-1.4 0-.5 0-1 .1-1.4.1-.9.4-1.9.9-2.7l-4.9-2c-.8.7-1 1.9-1.3 3-.3 1.5-.9 3-1.7 4.3 1.6 1.8 3.6 3.2 7.7 3.5 3.1.2 5.6 1 10.3.2 2-.3 3.1-.3 2.9.7-.1.5-1 1.3-.6 3 .1.6.1.6 0 1.8-1.6 5.7-.8 12.8-1.2 13.2-.6.6-.7 1.6.2 2.4.3.3 1.1.6 2.1.8 0-.1 0-.2-.1-.2-.1-.1-.2-.1-.4-.2-.6-.1-1.2-.4-1.6-.8-.4-.5-.4-1.2 0-1.6.1-.1.3-.2.4-.4.2-.4-.2-.8-.1-1.2.1-.7 1.4-.8 1.8-1.4-1-1-1.7-2.2-1.7-3.6s.2-3 .8-4.4c.3-.5.7-1.1 1.3-1.3h1.9c-.2-.3-.1-.7 0-1.1-.3-.4-.2-.8-.5-1.1z" fill="#ee3a40" opacity=".5"/><path d="m77.5 73.8c-.6-.2-1.3.1-1.7-.3-.3-.4 0-1 .3-1.4s.7-.9.5-1.4c-.8 0-1.1 1.2-1.9 1.3-.3 0-.6-.1-.9-.2-1.3-.4-2.7.8-4.1.4-.6-.4.8-.8-.3-1.1-.8-.2-1.8.2-2.6.4-1 .2-2 .6-3 .9-1.5.5-.8-1.4-.4-2 .7-1.1 1.6-2 2.5-3 .2-.2.7-.7.7-.9 0-.8-2 1.3-2.1 1.4-1.1 1.2-2.1 2.5-3.2 3.7-.1.1-.3.2-.4.2-.9 0-.9-2.1-.8-2.6.1-1 .5-2.1 1.1-2.9l-.8-.7c.1-.3-.3-.5-.5-.5-.3 0-.5.2-.7.4-1.6 1.3-3.2 2.7-4.2 4.5 1.5 1.5 3.5 2.6 7.1 2.8 3.1.2 5.6 1 10.3.2 2-.3 3.1-.3 2.9.7-.1.5-1 1.3-.6 3 .1.6.1.6 0 1.8-1.6 5.7-.8 12.8-1.2 13.2-.6.6-.7 1.6.2 2.4l.2.2s0-.1-.1-.1c-.2-.4-.1-1 .3-1.2.2-.1.5-.1.5-.3.1-.2-.1-.4-.2-.5-.5-.6-.5-1.7.2-2.2.1-.1.2-.2.3-.3.2-.3-.1-.6-.2-.9-.7-1.2-.7-2.5-.6-3.8.1-1.1.2-2.2.5-3.2.2-.9.3-2.1.8-2.8.3-.4 1.3-1.1.9-1.7-.1-.2-.3-.3-.5-.4-.5-.5-.5-1.4 0-1.8s1.3-.3 1.8-.7c.1 0 .1-.1.1-.2.1-.3 0-.4-.2-.4z" fill="#ee3a40"/><path d="m74.7 76.6s2 1.3 7.9 1.6c.5 2.1.1 2.3.1 2.3s-6.8-.2-7.9-1.6-.1-2.3-.1-2.3z" fill="#d1ab3e"/><path d="m79.8 79.4-.4-1.4c-2-.3-3.3-.7-4-1 .6.3 1.8.9 2.1 1.4.4 1-2.5 1.9-3.2-.6 0 .3.2.7.5 1.1.6.8 2.9 1.2 4.8 1.4.2-.5.2-.9.2-.9z" fill="#d1ab3e"/><path d="m79.1 79.4-.3-1.5c-.2 0-.5-.1-.7-.1s.3 1.2-.7 1.9c-.2.1-.5.1-.8.2.6.1 1.3.3 1.9.4.3-.6.6-.9.6-.9z" fill="#d1ab3e"/><path d="m73.7 87.7s2 1.3 7.9 1.6c.5 2.1.1 1.6.1 1.6s-6.5.1-8-1.6c-.9-1 0-1.6 0-1.6z" fill="#d1ab3e"/><path d="m76.9 88.8c-.8-.2-1.4-.3-1.9-.5s1 .3.8 1.2c-.1.6-1.7.3-2.4-.3 0 .1.1.1.1.2.5.5 1.5.9 2.7 1.1.3-.5.6-1.2.7-1.7z" fill="#d1ab3e"/><path d="m74.1 88c-.3-.1-.4-.2-.4-.2s-1 .6-.2 1.6c.2.2.4.4.8.5-.1-.1-.2-.2-.3-.2-.2-.1-.4-.3-.5-.5s-.1-.5.1-.7c.1-.3.4-.3.5-.5z" fill="#ee3a40"/><path d="m75.1 90.2s1 .3.8-1.6c1.2.2 1.6.8 1.6.8l-1.2 1.2z" fill="#d1ab3e"/><path d="m47.8 55.9s-2.4 3.8-2.8 9.4c-.1 1.2-.8 3.5-.5 4.9.3 1.7-2.6 6.5-2.2 7.7.4 1.1-.5.6-1.3.9s-.1 1.2-1.1 1.5c-1.1.2-1.8-.8-9.8.6-5.9 1-9.7 1-10.7.4s-1.1.1-1.4.4c-1.5-1.3-1.6 4.6-.4 5.1 1.8.8 25.7 6.2 30.3 2.4 4.5-3.8 9.4-13.1 11.4-17.1s6-14.1 2.7-16.9c-3.4-2.8-12.9-1.4-14.2.7z" fill="#ee3a40"/><path d="m49.1 54.9c-.6.3-1.1.7-1.3 1 0 0-2.4 3.8-2.8 9.4-.1 1.2-.8 3.5-.5 4.9.3 1.7-2.6 6.5-2.2 7.7.4 1.1-.5.6-1.3.9s-.1 1.2-1.1 1.5c-1.1.2-1.8-.8-9.8.6-5.9 1-9.7 1-10.7.4s-1.1.1-1.4.4c-.9-.7-1.3.8-1.2 2.4 2.2.3 4.4 1 6.4 2s3.8 2.3 5.8 3.3c2.1.3 4.2.7 6.3.9 1-.2 1.8-.7 2.5-1.4.6-.6 1.1-1.5 1.7-2 1.4-1.2 3.6-1.1 5.3-1.7 2.8-1 4.7-4.2 4.2-7.2-.3-2-1.2-4 0-5.4.8-.9 2.1-.9 3.1-1.6s1.5-2 1.1-3.2c-.3-.9-.9-1.6-1.2-2.5-.4-1.4.3-3 1.5-3.9 1.1-.9 2.6-1.4 4-1.9l-7-3.7c-.5-.3-.9-.6-1.4-.9z" fill="#ee3a40" opacity=".3"/><path d="m47.8 89.2c4.5-3.8 9.4-13.1 11.4-17.1.4-.8.9-1.9 1.4-3.1-.1-.1-1.2 2.7-2.3 3.7-.5.5-1.1.8-1.4 1.5-.2.5-.2 1.1-.3 1.6s-.3 1.1-.8 1.4c-.3.1-.7.1-.9.4-.2.1-.2.4-.3.6-.5 1.5-.9 3-2 4.1-.7.7-1.7 1.2-2 2.2-.2.6-.1 1.3-.6 1.6-.3.2-.7.1-1.1.1s-.9.2-.9.6c0 .2.1.4 0 .5-.1.3-.4.4-.7.5-1.7.3-3.5-.6-4.4-2.1l-3.6 2.9c-.2.5.2 1.1.7 1.5.3.2.6.4.8.6 3.2-.1 5.8-.5 7-1.5z" fill="#ee3a40" opacity=".5"/><path d="m61.3 67.2c0-.1-.1-.1-.1-.2s-.2-.2-.3-.2-.2.1-.3.2c-.9 1-1.5 3-1.7 4.3-.2 1.4-1.5 2.1-2.1 3.4-.3.7-.3 1.4-.5 2.1-.1.4-.5 1-1 .9s-.3-.4-.5-.7-1.2-1.4-1.1-.3c.1.8.3 1.6.4 2.3v.7c0 .3-.2.5-.4.6s-.3.2-.4.3c-.3.5-.3.9-.3 1.3-.2 1.7-1.4 3-2.6 4.3-.3.4-.8.8-1.3.7-.2 0-.5-.2-.7 0-.1.1-.1.3-.2.4-.2.6-.9.9-1.5.9s-1.2-.3-1.7-.7c-.5-.4-1.2.2-.9.7.2.6.5 1.1.8 1.7.1.2.4.4.7.3.9-.2 1.7-.5 2.2-.9 4.5-3.8 9.4-13.1 11.4-17.1.6-1.3 1.4-3.1 2.1-5z" fill="#ee3a40" opacity=".5"/><path d="m59.5 70.2c-.6.8-1.5 2-2.9 2.6-1.3.6 1.2 2.3-.5 4.4s-1.8 1.4-1.8 2.9c0 .4-.2 1-.6 1.7 2.3-3.6 4.2-7.4 5.4-9.6.3-.6.6-1.2.9-2 .1-.2.1-.8-.5 0z" fill="#ee3a40"/><path d="m49.6 86.8c-1.2.1.1.6-2 1.5s-4.1-1.9-4.1-1.9-.1 3.5 1.6 3.9c1.2-.2 2.1-.5 2.7-1 1-.8 2-2 3-3.2-.5.4-.9.7-1.2.7z" fill="#ee3a40"/><path d="m49.5 67.9c1-.7 4.5-2.1 2.8-2.4-1.1 0-2.3-.1-3.4-.1-.3 0-.6 0-.8-.2-.6-.4-.4-1.4 0-2 1.5-2.1 4.2-3 6.8-3.7l-.5-1.5c-1.9 1.3-4.6 0-6.9.5-.4.1-.8.2-1.1.4-.6 1.6-1.2 3.8-1.4 6.4-.1 1.2-.8 3.5-.5 4.9.3 1.7-2.6 6.5-2.2 7.7.4 1.1-.5.6-1.3.9s-.1 1.2-1.1 1.5c-1.1.2-1.8-.8-9.8.6-5.9 1-9.7 1-10.7.4s-1.1.1-1.4.4c-.5-.5-.9-.1-1.1.7h1.1c3.6-.2 7.5-.5 11.1-.7 2.5.5 5.1-1.2 7.6-.7.5 0 1 0 1.4.2s.8.7.8 1.2c0 .6-.4 1.1-.4 1.6 0 .2 0 .4.1.5.2.2.6.1.8-.1s.3-.5.4-.7c.1-.4.3-.9.4-1.3.2-.6.6-1.3 1.2-1.1.4.1.6.5.8.8s.7.6 1 .4.1-.8-.1-1.1-.3-.5-.5-.8c-.1-.1-.1-.2-.1-.3s.1-.2.1-.3c.9-1.1 2.8-.6 3.9-1.4.1-.1.2-.2.2-.3 0-.3-.4-.3-.7-.3-2.5.3.6-2 .2-2.5-.2-.3-.8.5-1.4.6-.5.1-.9-.3-1-.8s.1-.9.3-1.4c1.2-2.4 3.1-4.4 5.4-6z" fill="#ee3a40" opacity=".5"/><path d="m45.1 76.1c.6-.7.4-1.9.6-2.8.4-2.3 2-4.3 4.1-5.1.3-.1.7-.2.9-.5.3-.5 0-1.1-.4-1.5s-1-.7-1.2-1.2c-.5-1 .2-2.1.9-2.9 1-1.2 2.1-2.4 3.6-2.7l-2-5c-.7.3-1.5.4-2.3.4-.6.3-1.1.6-1.3 1 0 0-2.4 3.8-2.8 9.4-.1 1.2-.8 3.5-.5 4.9.3 1.7-2.6 6.5-2.2 7.7.4 1.1-.5.6-1.3.9s-.1 1.2-1.1 1.5c-1.1.2-1.8-.8-9.8.6-5.9 1-9.7 1-10.7.4s-1.1.1-1.4.4c-.6-.5-.9 0-1.1.8.2-.1.4-.2.6-.2.9-.3 2.2-.3 2.6.6.2.4.2.8.4 1.1.3.6 1.2.8 1.8.4.5-.4.6-1 1-1.5.8-1 2.3-1.1 3.6-1 .6 0 1.4.2 1.5.8.1.3 0 .6 0 .8 0 .8 1.1 1.3 1.8 1 .8-.3 1.2-1.1 1.4-1.9.1-.4.2-.9.5-1.2.4-.4 1-.4 1.6-.2s1 .5 1.6.5c1.1.1 2.3-.6 3.2.1.2.2.4.5.7.5.8.3 1.6-1.2 2.4-.8.5.2.5 1 .8 1.4.5.6 1.7.3 1.7-.5 0-.7-.8-1.3-1-2s.3-1.5.9-1.9c.7-.4 1.5-.5 2.2-.5-.9-.2-1.8-.3-2.7-.6s.9-.6 1.4-1.2z" fill="#ee3a40" opacity=".5"/><path d="m48.6 60.8c.8 0 1.8.2 2.4-.4.5-.6.2-1.5-.4-2-.6-.4-1.4-.5-2.2-.4-.6 0-1.2.1-1.8.3-.7 1.7-1.4 4.1-1.6 7.1-.1 1.2-.8 3.5-.5 4.9.3 1.7-2.6 6.5-2.2 7.7.4 1.1-.5.6-1.3.9s-.1 1.2-1.1 1.5c-1.1.2-1.8-.8-9.8.6-5.9 1-9.7 1-10.7.4s-1.1.1-1.4.4c-.4-.3-.7-.2-.9.1h.3c.3.1.4.4.5.7v.1c.1.1.2 0 .3-.1.1-.2.1-.4.2-.6s.2-.4.4-.5c.1 0 .2 0 .4.1.3.1.5.2.8.3.2.1.3.2.4.3 0 .1-.1.3-.1.4-.2.3-.3.7-.2 1.1.2.1.4-.2.6-.4.3-.6.9-1.1 1.5-1.3.1 0 .3-.1.4 0 .2.2-.2.6-.1.8.2.1.4-.2.5-.4.2-.3.7-.4 1.1-.4.6-.1 1.2-.1 1.9-.2.2 0 .5-.1.7-.1.3 0 .5.1.7.1s.5-.1.7-.1.5.2.5.4c.2.3-.2.6.1.9.2.2.5.1.7-.1.4-.2.7-.6 1-1 .1-.2.2-.4.3-.5s.4-.2.6-.2c.1 0 .1.1.2.1.4.2.9 0 1.3-.2.5-.3 1.1-.4 1.6-.5 1-.1 2 .2 3.1.2.5 0 1-.1 1.6-.1.5 0 1.1.2 1.4.6.1.1.2.3.4.3s.3-.3.3-.5 0-.5.2-.5c.2-.1.4.1.6.3.2.3.3.6.5.9.1.1.2.2.3.1.1 0 .1-.1.1-.2 0-.6-.4-1.1-.5-1.7 0-.2 0-.4.1-.5.2-.2.5-.2.8-.1.2 0 .4 0 .6-.1.8-.5-.3-1.1-.5-1.6-.3-.8-.2-1.7.2-2.4.4-.8 1.1-1.4 1.3-2.3.2-.5.2-1 .4-1.4.5-1.2 2-1.9 2.1-3.2-.5-.2-1 .3-1.5.2-.3-.1-.4-.6-.3-1s.3-.7.5-1c.3-.8-.1-1.7-.1-2.5-.4-1.7 1-3.2 2.6-3.3z" fill="#ee3a40"/><path d="m45.6 61.2s5.8 1.1 10.1 0 8.4 0 11.3-2.8c-.6-2.8-19.5 2-20.9 1-1.3-1.2.5-2.3-.5 1.8z" fill="#ee3a40" opacity=".4"/><path d="m43.4 26.4c-2.2 1.4-4.5 5.5-2.6 10.4 2.5 6.5 5.5 9.7 5.1 12.4s-.5 3.3.7 4.2c1.3.9-.1 2.2-.5 2.9s-2.2 3.4-.7 4c2.7 1.2 17-.7 20.2-2.4 1.9-1 .7-2.5-.1-4.3s-1-21.5-6.1-27.1c-3.3-3.8-9.7-4-16-.1z" fill="#ee3a40"/><path d="m57.5 59.9c-.4 0-.8.1-1.2.1-.6 0-1.3-.2-1.6-.7-.4-.5-.3-1.2-.1-1.9.7-2.3 2.4-4.1 3.3-6.3.2-.5.4-1.2 0-1.6-.3-.3-.7-.4-1.2-.5-1.9-.1-3.7.8-5.5.5-.4-.1-.9-.2-1-.6-.2-.4 0-.8.2-1.1 1-1.8 2.5-3.1 4.1-4.5 1.5-1.3 3.1-2.7 4.6-4 .9-.8 1.9-1.6 2.6-2.6.1-.1.2-.2.2-.4 0-.4-.6-.5-1.1-.4-4 .9-8 2.5-12.1 2.4-.3 0-.5-.1-.8-.3-.5-.3-.9-.8-1.3-1.1-.9-.6-1.7-1.2-2.6-1.8-1.2-.8-2.5-1.5-3.8-2.2 0 1.2.2 2.5.7 3.9 2.5 6.5 5.5 9.7 5.1 12.4s-.5 3.3.7 4.2c1.3.9-.1 2.2-.5 2.9s-2.2 3.4-.7 4c1.5.7 7 .4 12-.4z" fill="#ee3a40" opacity=".3"/><path d="m51.4 27.8c.1.2.2.4.4.4.1 0 .2 0 .3-.1.5-.2 1.1-.6 1.5-.3s.4.8.4 1.3c0 .1 0 .2.1.2h.2c.5-.2.8-.8 1.3-.7.3.1.6.6.9.4.1 0 .1-.1.2-.1.4-.5.7-1.1.9-1.7-.3-.5-.6-.9-.9-1.3-2.6-2.9-7.4-3.1-12.2-.1-.6.4-1.2 1-1.6 1.8 0 .4 0 .7.3.9.3.3.8.2 1.2.1 1.7-.5 3.2-1.6 4.9-1.7.7 0 1.7.2 2.1.9z" fill="#ee3a40" opacity=".5"/><path d="m59.9 53.9c-.5-.5-1-.9-1.6-1-.8-.2-1.6-.1-2.4 0-.8 0-1.7-.2-2.1-.9-.3-.4-.3-1-.3-1.5.1-1 .4-1.9.8-2.7.3-.6.7-1.1.9-1.7s.1-1.4-.4-1.8c-1.2-.9-1.8.3-2.6.8-1 .6-2.4.6-3.5 0-1.6-.8-2.5-2.4-3.2-4s-1.2-3.3-2.1-4.8c-.8-1.2-2-2.1-3.3-2.4.1 1 .3 2 .7 3 2.5 6.5 5.5 9.7 5.1 12.4s-.5 3.3.7 4.2c1.3.9-.1 2.2-.5 2.9s-2.2 3.4-.7 4c2 .9 10.6 0 16.1-1.2.3-1.9-.3-3.9-1.6-5.3z" fill="#ee3a40" opacity=".2"/><path d="m65.6 53.6c-.8-1.6-1-17.6-4.7-24.9-.1 0-.1 0-.2 0-.7.1.8 2.4.6 3.1v.7c1.3 1.5 1.6 3.9.6 5.7-.1.3-.3.5-.4.8 0 .3.1.7.4.7h.5c.5.1.6.7.6 1.1-.1 2.4-.9 4.8-2.2 6.8-.6.9-1.3 1.8-1.8 2.8-.2.3-.3.8 0 1 .2.2.6.2.8.1 1.3-.4 2.1-1.7 3.3-2.3.2-.1.5-.2.6-.1s.2.2.2.4c.1.5 0 1.1 0 1.6s.2 1.1.7 1.4c.2.1.4.1.5.3s0 .4.1.6c0 .2.1.3.3.4.1-.1.1-.1.1-.2z" fill="#ee3a40" opacity=".3"/><path d="m62 31.2-.2.1c1 3.2 1.6 5.5-.4 8.2s-2.9 3.8-.7 3c2.2-.7 3.6-.4 3.3 1.8s-2.5 3.7-.9 4.3 1.7 2 1.5 4.2 1.8 1.2 1.2 3.3c-.2.7-.4 1.3-.6 1.9.2-.1.3-.1.4-.2 1.9-1 .7-2.5-.1-4.3-.6-1.3-.8-14.3-3.5-22.3z" fill="#ee3a40" opacity=".3"/><path d="m65.2 51.9c.1 1 .6 4.3-1.1 4.8-1.7.4-.4-3.2-1.2-3.1s-2.6 5.1-4 5.1c-1.4-.1 1.7-5.5 1-6.3s-1.1 2.3-3.7 5.4-10.8 2.6-7.2-1.7c3.5-4.3 7.5-9.1 6.7-10s-5.6 8.3-7.5 6.6-.9-3.7 2.4-7.4 7-5.8 2.8-3.7c-4.2 2-7.2 2-5.2 0s13.7-2.4 9.7-2.9c-3.9-.6-.9-4.7-1.2-6.7s-1.3.9-2.6 3.7-3.6 4-5.6 3c-2-1.1.9-2.8.9-3.6s-3.9 3.5-6.6 2.3c-2.3-1.1-2.6-3.7-2.6-4.4 0 1.2.2 2.5.7 3.9 2.5 6.5 5.5 9.7 5.1 12.4s-.5 3.3.7 4.2c1.3.9-.1 2.2-.5 2.9s-2.2 3.4-.7 4c2.7 1.2 17-.7 20.2-2.4 1.9-1 .7-2.5-.1-4.3-.1-.3-.2-.9-.4-1.8z" fill="#ee3a40" opacity=".5"/><path d="m49.4 60.7c0-.4-.1-.9-.6-1.1-.2-.1-.4-.3-.4-.5-.1-.4.3-.6.6-.8.2-.2.5-.5.3-.7s-.5-.1-.7-.2c-.3-.1-.5-.4-.5-.8 0-.3.1-.6.3-.9.6-1.4 1.3-2.8 1.9-4.2.1-.2.2-.6 0-.7-.1-.1-.2 0-.3 0-.8 0-1.7.5-2.3-.8-.1-.3-.2-.7-.2-1 .1-1.3 1.2-2.4 2.1-3.3.3-.3.7-.6 1-1 .4-.5-.3-1.3-.8-.8-.3.2-.5.5-.6.7-.5.5-2 2.2-2.1.5 0-.7.5-1.7.9-2.3.1-.2.3-.4.5-.6.3-.4-.3-.9-.7-.6-.3.3-.7.6-1.1.7-.3 0-.6 0-.8-.3-.4-.4-.2-.9 0-1.4.1-.4.2-.9-.1-1.2-.2-.2-.6-.2-.9-.2-1.4 0-2.8-.9-3.4-2.2l-.3.1c2.4 6.3 5.3 9.4 4.9 12-.4 2.7-.5 3.3.7 4.2 1.3.9-.1 2.2-.5 2.9s-2.2 3.4-.7 4c.5.5 1.9.6 3.8.5z" fill="#ee3a40" opacity=".5"/><path d="m50.5 20.5c0 1.7 1.7 3.1 2.1 4.8.2 1.3-5.5 1.1-6.1.1-.8-3.7-1.6-7.5-1.6-7.5s5.5 1.1 5.6 2.6z" fill="#c57330"/><path d="m52.5 25.5c-2.6.3-4.5-.6-4.6-1.5s.7-1.7.7-1.7l-3.2-1.8c.3 1.4.7 3.2 1 4.9.5.8 4.1 1.1 5.6.5.2-.1.3-.2.5-.4z" fill="#c57330" opacity=".5"/><path d="m46.4 25.4s.1.1.1.1c.7.1 2.7 0 2.7 0s-1.6-.5-2-1.5.3-1.5 1.6-1.3c-2.5-1.2-2.5-3.2-2.6-4-.4-1.8-.2-3.8-.2-3.9-1-.3-1.2 3.1-1.2 3.1s.9 3.8 1.6 7.5z" fill="#c57330" opacity=".5"/><path d="m45.7 23.6s1.9 2.6 6.8 1.9c-.2.9-.3 2.2-.3 2.2s-4.9.6-6.6-1.8c-.8-1.3.1-2.3.1-2.3z" fill="#ee3a40"/><path d="m45.8 24.8c-.2.8 0 1 .5.8s1.2-.2 2.6.5 2.1.2 2.8 1.1.6-.4.6-.4l-.8-.9s-2.5-.1-5.2-1.3c-.9-.6-.5.2-.5.2z" fill="#ee3a40" opacity=".5"/><path d="m45.9 24.9c.5-.8.6.6 4.8 1.1 1.2.1 1.5.8 1.2 1.7h.3s.1-1.3.3-2.2c-5 .7-6.8-1.9-6.8-1.9s-.9 1 0 2.3c.2.3.5.6.8.8l.1-.1s-1.2-.8-.7-1.7z" fill="#ee3a40"/><path d="m52 21.3c-.6 1.1-4.5 2-6 .7-1.5-1.2-2.7-4.9-2-6.8.7-1.8 4.1-2.7 5.7-1.7 1.7 1.1 3 6.6 2.3 7.8z" fill="#c57330"/><path d="m49.7 13.6c-.1-.1-.2-.1-.3-.1.8.5 1.3 1.4 1.6 2.3.4 1.2.3 2.4.3 3.6 0 .5 0 .9.2 1.3.1.2.2.4.3.5 0 .1.1.2.1.3.1-.1.1-.1.2-.2.6-1.2-.7-6.7-2.4-7.7z" fill="#c57330" opacity=".4"/><path d="m46.4 15.7-1-1.1s-1.3 1.1-1.6 1.4c-.2 2 .8 5 2.2 6.1.5.4 1.2.6 2 .6h.7.2c-1.9-1.9-2-3.2-2.2-4.1-.1-.9-.3-2.9-.3-2.9z" fill="#c57330"/><path d="m50.9 15.1c-.4-.7-.8-1.3-1.2-1.5-1.1-.7-2.9-.5-4.3.2-.1.1-.2.3-.4.4-.3.3-.8 1.3-1.3 2.3 0 1.9 1 4.6 2.2 5.5 1.1.9 3.5.7 4.9.1-1.2.4-2.6-.5-3-1.1s-1.1-3.5-.9-4c.3-.3 4-1.8 4-1.9z" fill="#c57330" opacity=".4"/><path d="m46.3 18.6c-.4-1.8-.2-3.8-.2-3.9-1-.3-1.7 4.1-1.7 4.1s.3 1.7 1.3 2.8c.1.1.3.3.4.4.5.4 1.2.6 2 .6h.7.1c-2.5-1.2-2.5-3.1-2.6-4z" fill="#c57330" opacity=".5"/><path d="m58.6 29.1s.6-.1 0 3.4c-.6 3.6-.4 7.5-1.3 7-1.2-.7-2.2-8.4 1.3-10.4z" fill="#ee3a40"/><path d="m53.2 30.6c2.3-1.5 7 .3 8.4 0 .1-.9 2.4-6.2 2.6-9.1 1.5-1.3 3.6-.5 4.2.2.5 3.2.8 12.2-1.2 14.4-2.2 2.3-10.9 2.2-14.3 1.9-3.3-.2-3-5.2.3-7.4z" fill="#c57330"/><path d="m54.6 38.1c4 .1 10.8 0 12.6-2 2-2.1 1.7-11.2 1.2-14.4-.6-.6-2.7-1.5-4.2-.2v.2c.6 3.4 2.1 7.1 1.7 12-.4 5.1-14.5 1.8-11.2-2.6.3-.4.5-.8.5-1.2-.7.1-1.4.2-1.9.6-1.2.8-1.9 1.9-2.3 3 1.2 1.9 2.5 3.4 3.6 4.6z" fill="#c57330" opacity=".3"/><path d="m67.3 36.1c1.7-1.8 1.7-8.6 1.4-12.6-1.2-.4-3.3-1.1-3.8-1.1-.7 0 .4-.6-.7-.1-.1.6-.2 1.2-.4 1.9h.1s3.6-.7 4.6 1.4c.9 2.1 0 8.6-1.5 10s-9.6 2.6-11.8 2.2c-.5-.1-1 0-1.4.2 3.6.3 11.4.2 13.5-1.9z" fill="#8ff08f" opacity=".5"/><path d="m67.3 36.1c2-2.1 1.7-11.2 1.2-14.4-.6-.6-2.7-1.5-4.2-.2-.2 2.9-2.6 8.1-2.6 9.1-1.3.3-5.5-1.3-7.9-.3l-.6 4.8c2.2-2.4 4.2-5.5 7.8-2.9s1.6-.1 1.6-2.2c-.1-1.8.8-5.7 3.3-5.6s2.8 4.4 2.3 7.7c-.5 3.2-1.8 5.1-4.8 5.5-3 .3-5.8.2-7.7-.4-1.4-.4-4-.7-3.7.6.3.2.7.3 1.1.3 3.2.2 12 .3 14.2-2z" fill="#c57330" opacity=".3"/><path d="m53.9 38.1c3.8.2 11.4.1 13.4-2s1.7-11.2 1.2-14.4c-.4-.4-1.4-.9-2.5-.8.2 1.1.7 2.4 1.5 3 2 1.7 1.2 10.7-.2 11.1-1.4.5-1.4 2.4-4.9 2.6s-6.6-1.5-6.6-1.5z" fill="#c57330" opacity=".5"/><path d="m68.8 24.7c-.2-.6-.5-1.3-.8-2-.2-.4-.3-1-.3-1.5-.9-.4-2.3-.6-3.4.4-.2 2.9-2.6 8.1-2.6 9.1-1.4.3-6.1-1.5-8.4 0 0 0 0 0-.1 0l2.8 2.4c.2-1.5 2.5-2.3 5.4-1.6 2.9.6 1.8.2 1.4-.7-.3-.8.8-5.6 1.8-6.3.8-.5 3.2.3 4.3 1.1-.1-.4-.1-.6-.1-.9z" fill="#c57330" opacity=".5"/><path d="m61.6 30.6c-.2 0-.4 0-.7 0 .3.3.6.6.9.9.1.1.3.3.5.3-.2-.4-.3-.9-.4-1.3 0-.3-.1-.6 0-1-.2.5-.3.9-.3 1.1z" fill="#c57330" opacity=".5"/><path d="m58.6 30.3s-1.3 3.6-.9 7.9c-3.4-.3-5.6-.9-5.6-.9l4.4-7.3z" fill="#8ff08f"/><path d="m44.8 27.3c3.5-1 10.6 1.3 13.9 1.8-1.7 1.5-2.2 7.9-1.1 10.5-6.3.7-13.7.3-15.3-4.3-2-5.8 1-7.6 2.5-8z" fill="#ee3a40"/><path d="m58.6 29.1c-3.2-.5-10.4-2.8-13.9-1.8-.9.2-2.3 1-2.9 2.8.4.1.9.1 1.3-.1 2.2-.7 4.2-2.1 6.4-2.2 1.1-.1 2.3.2 2.9 1.1.1.2.3.6.6.6.1 0 .2 0 .3-.1.6-.3 1.4-.8 2-.4.5.3.5 1.1.6 1.7 0 .1 0 .2.1.3h.2c.5-.3 1-.9 1.5-.9.4-.5.7-.8.9-1z" fill="#ee3a40" opacity=".5"/><path d="m53.6 29.3c0 .2 0 .5.2.6.3.1.5-.2.8-.4.4-.3 2.8-1.5 2.4.8-.3 2 .3 1.4.3 1.4.3-1.2.7-2.2 1.3-2.7-1.8-.3-4.7-1.1-7.6-1.6.5.1 1.1.2 1.6.5s.9.8 1 1.4z" fill="#ee3a40" opacity=".5"/><path d="m52.6 28c.8.5.7 2.5 1 2.2.2-.3 2-1.5 2.7-1.2s.5 1.6 1.1 1.7c.1 0 .2 0 .4-.1.2-.6.5-1.2.9-1.5-2.3-.3-6.6-1.6-10.2-2 0 0 3.3.4 4.1.9z" fill="#ee3a40"/><path d="m54 39.8c1.3-.2 2.7-.1 3.6-.3-.1-.2-.3-.8-.3-1.1-2.9-1-.2-4.6-.5-6.5-.3-2-1.3.9-2.6 3.7s-3.6 4-5.6 3c-2-1.1.9-2.8.9-3.6 0-.7-2.9 2.5-5.4 2.5 2 1.9 5.9 2.4 9.9 2.3z" fill="#ee3a40" opacity=".5"/><path d="m45.8 38.7c3.1 1.3 7.7 1.3 11.8.9-.1-.2-.1-.3-.2-.5-.3-.2-.6-.3-.9-.3s-.6.2-.9.1c-.5 0-.8-.4-1.1-.8 0-.1-.1-.1-.2-.2-.2-.1-.4.1-.5.3-.6.6-1.5.8-2.3.8s-1.7-.2-2.5-.1c-.3 0-.7.1-1 0h-.1c-.6-.3-1 .3-1.9-.2z" fill="#ee3a40"/><path d="m73.5 94s-.9 2.6-.1 3.3 3.7.6 4.2.7 4.1 2.2 6.7 2c2.6-.3 4.1-2.1 3.6-3.1-.5-.9-1.7-1.2-3.6-1.8s-3-2.3-4.5-2.5c-1.2-.2-1.8.3-1.7 1 .1.6.9 1.1.7 1.3-.2.3-3.1.1-5.3-.9z" fill="#d1ab3e"/><path d="m87.3 96.2c-.1.1-.3.1-.5.1-.4-.1-.7-.4-1.1-.6-1.1-.6-1.4.5-2 1.2-.7.9-2.3 1-3 .1-.5-.6-.7-1.5-1.5-1.6-.6-.1-1.1.5-1.8.6-.3.1-.6 0-.9-.1-.8-.2-1.6-.8-2.1-1.5-.3-.1-.7-.2-1-.4 0 0-.9 2.6-.1 3.3s3.7.6 4.2.7 4.1 2.2 6.7 2 4.1-2.1 3.6-3.1c0-.3-.3-.5-.5-.7z" fill="#d1ab3e" opacity=".4"/><path d="m73.7 94.1-.4.6s1.2 1.7 2.9 1.6 2.5-1.2 2.9-1.1c.4.2-.5-.2-.5-.2z" fill="#ee3a40" opacity=".4"/><path d="m84.3 100c1.8-.2 3.1-1.2 3.5-2.1-.6.7-1.6 1.4-3.5 1.5-4.2.2-6.1-2.3-7-2.3-2.8 0-3.8-.7-4.2-1.3-.1.6-.1 1.2.3 1.5.8.7 3.7.6 4.2.7.4.1 4.1 2.2 6.7 2z" fill="#d1ab3e" opacity=".6"/><path d="m73.6 96.1c-.2-1.1.3-1.9.3-1.9l-.4-.2s-.9 2.6-.1 3.3c.3.2.9.4 1.5.5 0 0-1.1-.6-1.3-1.7z" fill="#ee3a40"/><path d="m88.4 59.4c0-.2-1.7-.7-3.2.3-3.2 2.2-3.1 11.1-2.6 11.6.2.1 3.5-.3 5.8-11.9z" fill="#d1ab3e"/><path d="m74.8 94.7c3-12.2 5.7-26.8 7.9-32.2.6-1 5.8-4.3 6-2.8.7 3.6-3.1 22.2-7.7 33.4-4.8-1.9-2.3 1.7-3.4 2.3s-3.1.6-2.8-.7z" fill="#d1ab3e"/><path d="m75.3 95.7c-.4-1.4.2-3.2.5-4.5.5-2.5 1.2-4.9 1.8-7.4.8-3 1.4-6 2.2-9v-.1c.2-.7.4-1.4.7-2.1l-.1-1.2c0-.2-.1-.5-.1-.7-1.7 6.8-3.5 15.9-5.5 24-.1.5.1.8.5 1z" fill="#d1ab3e"/><path d="m81 90.8s-.2 1.4-1.2 1.5-.8-1.5-.8-1.5-.2 1.2-1 1.5c-.8.2-.6-1.3-.6-1.3s-1.1 4.4-1.9 4.1c-.6-.2-.4-1.3-.3-1.9-.1.5-.2 1-.4 1.5-.3 1.3 1.7 1.3 2.8.7s-1.4-4.2 3.4-2.3c.1-.2.1-.3.2-.5-.4.1-.2-1.8-.2-1.8z" fill="#d1ab3e"/><path d="m83.4 61.8c1.1.5-.7 4.2-1.8 9.2-2.4 11.3-5.4 25.1-5.8 24.8h.7c1.8-8.6 7-34.1 8.4-34.2 1.2-.1-3.6 20.9-6.6 31.2.1-.1.3-.1.6-.1 2.7-10.3 6.5-29.1 6.9-30.5.5-2 1.5-1 1.2.7-.7 4.6-4.1 23.4-6.8 30 .1 0 .3.1.4.1 4-12.1 6.3-32.3 8.2-31.1.1-1 0-1.7-.1-2.2-.2-1.2-3.7.8-5.3 2.1z" fill="#d1ab3e"/><path d="m79.2 75.4s.2-.7.7-.7c.6-.1 1.1.1.9 1 .7-1.3 1.9-1.1 1.8.1.5-1.8 2.3-1.6 1.9.1.8-2.2 2.1-1.1 1.8 0 .7-2.8.9-3.9.9-3.9l-7.6 1.3z" fill="#d1ab3e"/><path d="m84.1 63.1s1-3.4 1.3-.8c.2-1.6 1.8-2.6 2.3-1.6.5-.8.7-1.1 1-1.2-.7-1-5.4 2-6 3-2.2 5.4-4.9 20-7.9 32.2-.3 1.3 1.7 1.3 2.8.7.1 0 .1-.1.2-.2-.1.1-2.6.9-2.5-.8.1-1.9 5.4-26.1 7.7-31.5.7-1.5 1.1.2 1.1.2z" fill="#ee3a40"/><path d="m79.7 72.2s3.4 1 7.4-.4c.8.5.6 1.6-.4 2-2.3.8-5.7.8-7 .4-.8-.1-.9-1.5 0-2z" fill="#d1ab3e"/><path d="m86.6 73.9c1-.4 1.2-1.5.4-2-.1 0-.3.1-.4.1.2.1 1.1.5 0 1.3-1.2.8-7.2 1.1-7.2 0s3 0 6.3-.9c-.1-.1-.2-.1-.2-.1-3.3.7-5.8 0-5.8 0-.9.4-.8 1.8-.1 2 1.3.3 4.8.3 7-.4z" fill="#d1ab3e" opacity=".8"/><path d="m86.9 72.1c-2.3.8-5.6.7-7 .3-.2-.1-.4-.3-.5-.5-.1-.5.1-1.1.7-1.3 0 0 2.9.7 6.4-.2.3-.1.7-.2 1-.3.8.8.4 1.6-.6 2z" fill="#d1ab3e"/><path d="m86.9 72.1c-2.3.8-5.6.7-7 .3-.2-.1-.4-.3-.5-.5 1.5.7 6.6.5 7.3-.1.8-.6 0-1.2-.2-1.4.3-.1.7-.2 1-.3.8.8.4 1.6-.6 2z" fill="#d1ab3e" opacity=".8"/><path d="m81.8 65.2s-1 3.2-.4 3.6c.7.3 1.2-1.1 1.2-1.1s-.1 1.3.7 1.3c.8.1 1.1-1.2 1.1-1.2s-.1 1 .7 1.1 1.2-1 1.2-1 .2.7.9.6c.7-.2 1-1.7 1-1.7l-.5 3-7.2.1s.7-3.1 1.3-4.7z" fill="#d1ab3e"/><path d="m81.4 68s-.4.5.3.8.7-.4.7-.4.4 1.4 1.8.4c.3.5 1.7.4 2-.3.7.7 1.8-.4 1.8-.4l-.1 1.3h-7.1z" fill="#ee3a40"/><path d="m87.3 70.4c-2.3.8-5.7.7-7 .4-.5-.1-.5-1-.2-1.4.1-.2.3-.3.5-.3 0 0 .7.2 1.9.2 1.3 0 3.3-.1 5.3-.8.8.7.5 1.5-.5 1.9z" fill="#d1ab3e"/><path d="m87.3 70.4c-2.3.8-5.7.7-7 .4-.5-.1-.5-1-.2-1.4-.1.2-.4 1 1.1 1.3 1.7.4 6.1.1 6.6-1.1.5-1.3-1.4-.1-5.2-.4 1.3 0 3.3-.1 5.3-.8.7.8.4 1.6-.6 2z" fill="#d1ab3e" opacity=".8"/><path d="m31.4 80.6s-1 2.2-.5 8c-2 .8-2.3.4-2.3.4s-.7-6.7.5-8c1.3-1.2 2.3-.4 2.3-.4z" fill="#d1ab3e"/><path d="m29.4 86 1.4-.6c0-2 .2-3.3.4-4.1-.2.6-.6 1.9-1.1 2.3-.9.5-2.2-2.3.2-3.3-.3.1-.7.3-1.1.6-.7.7-.8 3-.7 4.9.5.3.9.2.9.2z" fill="#d1ab3e"/><path d="m29.1 81c-.3.3-.5 1-.6 1.9 0 0 .1 0 .2-.6s1.2-2.4 2.4-1c.1-.5.2-.7.2-.7s-.9-.8-2.2.4z" fill="#ee3a40"/><path d="m22.7 81.7s-1.1 1.8-1 7c-1.8.5-2 .2-2 .2s-.2-6 1-7 2-.2 2-.2z" fill="#d1ab3e"/><path d="m20.6 86.4 1.2-.4c.1-1.8.4-2.9.6-3.6-.2.5-.7 1.7-1.2 1.9-.8.4-1.8-2.1.4-2.9-.3 0-.6.2-1 .5-.6.6-.9 2.6-1 4.3.6.2 1 .2 1 .2z" fill="#d1ab3e"/><path d="m16.8 81.4-.4 1.2s-1.2-.3-1.5.7c-.3 1.1.4 3.1 1.3 3.5s1.3 1.7 1.3 2.6c.8-1.5 1.9-2.3 1.9-2.3l-1.8-3.1-.9-.7s.3-1.5.6-1.6c-.3-.1-.5-.3-.5-.3z" fill="#ee3a40" opacity=".5"/><path d="m16 82.9c10.2.5 19.7.2 25.3 1 .9.1 1.6.7 1.9 1.5 1 2.4 3.5 4.7 6.1 4-5.4 2.4-21.1 1.7-31.7-.7-.1-3-1-1.9-1.7-2.9-.8-.9-1.1-2.9.1-2.9z" fill="#d1ab3e"/><path d="m16 82.9c-1.2-.1-.9 2-.1 2.9.7 1 1.6-.1 1.7 2.9.4.1.7.2 1.1.2-.9-.3-1-1.6-.3-2.1-1.1-.3-2.6-1.1-1.5-2.3-1-.1-1.1-.8-.3-1.5-.2-.1-.4-.1-.6-.1z" fill="#d1ab3e"/><path d="m46 88.8c-16.2 1.5-24.7.4-28.4-.3v.3l1.5.3c10.8 1.8 20.4.5 27.2-.1-.1-.1-.2-.2-.3-.2z" fill="#d1ab3e"/><path d="m44.2 87.1c-.1-.1-.1-.2-.2-.2-9.5.9-19.9.9-27.1-.3.2.1.3.2.4.5 7.8 1.2 18.5 1 26.9 0z" fill="#d1ab3e"/><path d="m43 85c-.2-.3-.5-.3-.9-.3-4.5.1-9 .2-13.5.1-3.4-.1-6.8-.2-10.2-.4-.6 0-1.2-.2-1.8-.2-.6-.2-1-.5-1.3-.8-.1.2-.1.4-.1.6v.1.1.1.1.1.1c0 .1 0 .1.1.2 0 .1 1.3.1 1.4.1.7 0 1.4.1 2 .1 1.8.1 3.7.2 5.5.2 4.7.1 9.4.2 14.1.1 1.6-.1 3.1-.2 4.7-.3z" fill="#d1ab3e"/><path d="m15.2 83.6c1.2-.7 2-.4 3.2-.4 2.3 0 4.5.2 6.8.3 2.8.2 5.5.2 8.3.4h.1c.6.1 1.3.1 1.9.2l1-.4c.2-.1.4-.2.6-.3-6.3-.3-13.7-.3-21.1-.7-.5.2-.7.5-.8.9z" fill="#d1ab3e"/><path d="m32.8 83.4s.6 0 .8.6c.2.5.1 1.1-.7 1.1 1.3.4 1.3 2.4.3 2.6 1.6.1 1.7 1.8.2 1.8 2.1.4 1.4 1.1.4 1 2.6.1 3.5.1 3.5.1l-2.5-7.2z" fill="#d1ab3e"/><path d="m15.2 83.9c.1-.2.3-.5 1.1-.6 1.6-.2 16.7.3 17.1.5.4.3.2 1.1-.5 1.5 1 .2 1.3 1.9.6 2.5.9.1 1.3 1 .5 1.8.8-.2 1.3.9.6 1.3h.5c1.3-.1 1.5 0 1.5 0l-2.7-7.4s0 0-.1 0c-5.1-.2-11.4-.2-18-.5-.3-.1-.6.3-.6.9z" fill="#ee3a40"/><path d="m35.7 83.3s-.3 3.5 1.6 7.1c-.3.9-1.3.9-1.8 0-1.1-2.1-1.7-5.5-1.6-6.8 0-.7 1.3-1.1 1.8-.3z" fill="#d1ab3e"/><path d="m35.5 90.4c.5.9 1.5.9 1.8 0-.1-.1-.1-.3-.2-.4-.1.2-.3 1.2-1.2.3-1-1-2.2-6.8-1.2-7s.5 2.9 1.9 6c0-.1.1-.2.1-.3-1.2-3.1-1-5.7-1-5.7-.5-.8-1.7-.4-1.8.3-.1 1.4.5 4.8 1.6 6.8z" fill="#d1ab3e" opacity=".8"/><path d="m37 90.3c-1.1-2.1-1.6-5.4-1.5-6.8 0-.2.2-.4.3-.5.4-.2 1-.2 1.2.4 0 0-.1 3 1.3 6.2.1.3.3.6.4.9-.4 1-1.1.7-1.7-.2z" fill="#d1ab3e"/><path d="m37 90.3c-1.1-2.1-1.6-5.4-1.5-6.8 0-.2.2-.4.3-.5-.4 1.6.7 6.6 1.4 7.2.7.7 1.1-.2 1.2-.5.1.3.3.6.4.9-.5.9-1.2.6-1.8-.3z" fill="#d1ab3e" opacity=".8"/><path d="m41.7 84s-2.5-.5-2.6.3c-.2.7 1.2 1 1.2 1s-1.1.2-1.1.9c.1.8 1.2.9 1.2.9s-.9.1-.8.9 1.1.9 1.1.9-.6.3-.3 1 1.7.6 1.7.6l-2.7.1-1.4-7c-.1 0 2.1.2 3.7.4z" fill="#d1ab3e"/><path d="m38.6 90.5c-1.1-2.1-1.7-5.4-1.6-6.8 0-.5.8-.7 1.2-.5.2.1.3.2.4.4 0 0 0 .7.1 1.9.2 1.3.6 3.2 1.6 5.1-.4.9-1.2.8-1.7-.1z" fill="#d1ab3e"/><path d="m38.6 90.5c-1.1-2.1-1.7-5.4-1.6-6.8 0-.5.8-.7 1.2-.5-.2-.1-.9-.2-1 1.3 0 1.7.9 6 2.1 6.2s-.2-1.4-.6-5.2c.2 1.3.6 3.2 1.6 5.1-.4.9-1.2.8-1.7-.1z" fill="#d1ab3e" opacity=".8"/><path d="m65.6 57.9c1-.5 1.1-1.1 1-1.9.2 1.1-1.6 1.7-2.4 1.9-.2.1-.6.1-.8-.1-.3-.3 0-1.7-.6-1.5-.1 0-.2.1-.3.2-.6.5-1.1 1-1.8 1.5-.5.4-1.3 1-2 1-.3.1-.7.1-1-.1-.4-.3-.4-1.1-1.1-1.1-.3 0-.5.1-.8.2-.7.4-1.3 1.1-2.1 1.4-.4.1-.8.1-1.1-.2-.4-.4-.2-.9-.9-.8-.4 0-.7.3-1.1.5-.7.3-1.4.5-2.1.8-.7.2-2.1.6-2.5-.4-.2-.4.1-.9.3-1.3 1.1-1.8 2-3.7 2.9-5.6.1-.1.1-.2.1-.4 0-.4-.5-.5-.9-.4-.3.1-.7.3-1 .3-.8-.1-1-1-1-1.8 0-1.3-.1-2.5-.1-3.8 0-.9-.1-1.9-.7-2.6-.5-.6-1.3-.9-1.5-1.6-.3-.8.3-1.7-.1-2.4-.2-.4-.7-.6-1.2-.9-1.1-.6-2-1.6-2.5-2.7.1.2.1.4.2.7 2.5 6.5 5.5 9.7 5.1 12.4s-.5 3.3.7 4.2c1.3.9-.1 2.2-.5 2.9s-2.2 3.4-.7 4c3 1.2 17.4-.6 20.5-2.4z" fill="#ee3a40"/><path d="m43.2 85.4c-.3-.8-1-1.3-1.9-1.5.3.1 1 .6 1.9 2.4.5 1 1.3 1.9 2.2 2.6.5.3.9.5 1.3.7.5.2 1.1.2 1.6.1.3-.1.6-.2.8-.3-2.4.7-4.8-1.6-5.9-4z" fill="#fff" opacity=".5"/><path d="m75.4 77c-.5-.2-.7-.3-.7-.3s-1 .9.1 2.3l.3.3c-.8-2.3.3-2.3.3-2.3z" fill="#ee3a40"/><path d="m20.7 81.9c-.2.2-.3.4-.4.8.1-.2.5-.9 1.2-.9s.9.5 1 .6c.2-.5.3-.7.3-.7s-.9-.8-2.1.2z" fill="#ee3a40"/><path d="m33.9 84.4s-.2-.7.6-1.1.9.2 1.1 1.7c.2 1.4.3 3.6 1.6 5.7-.8-1.7-1.5-4.3-1.4-6.1s1.2-1.5 1.3-.3c.1 1.3.5 4.4 1.7 6.4-1.2-2.7-1.7-6.4-1.2-7.1s.9-.9 1.1 1.6 1.8 5.2 1.8 5.2-.3-1 0-1.3c-1.3-.6-.9-1.9-.5-2-1.2-.2-.9-2.2-.4-2.1-1.2-.8.1-1.4.1-1.4l-.9-.1s-.1-.6-1-.6c-.5 0-.7.4-.7.4s-.2-.6-1.1-.3c-.4.1-.4.3-.4.3s-.4-.7-1.3-.3c-.4.1-.7.6-.4 1.4z" fill="#ee3a40"/><path d="m39.1 84s3.1.2 3.5.6c-.7-.8-3.5-.8-3.5-.8" fill="#ee3a40"/><path d="m81.5 69.1s-1.1.3-.7 1.1c.4.9 5 .7 6.7 0-2.8 1.1-6.3.5-7.2.8-.8.3-1.6 2.1 6 1.2-3 .8-6.1.2-6.6.9-.5.6.7 1.9 6.7.6-3.9 1.1-7.2 1.1-7.3-.2-.1-1 .6-1.4.6-1.4s-.5-.7.1-1.3c.1-.1.2-.2.4-.3-.6-.5-.2-1.5.4-1.5s.9.1.9.1z" fill="#ee3a40"/><path d="m78.8 95s3.9.8 4.5.9c1 .2 1.3-.7.8-.9-1-.5-3.9-3.2-5.4-2.5-1.7.7-.5 2 .1 2.5z" fill="#d1ab3e"/><path d="m84.1 94.9c-.1 0-.2-.1-.3-.1.3.9-2.9.8-4.6-.2-1.8-1.1-.9-2-.9-2-1.1.8-.1 1.9.4 2.3 0 0 3.9.8 4.5.9 1.1.2 1.4-.7.9-.9z" fill="#d1ab3e" opacity=".9"/><path d="m73.1 95.8s2.1 1.3 4.3 1c1.2 0 2.6 2.6 6.9 2.2 4-.3 3.2-2.5 3.2-2.5" fill="none" stroke="#ca7f42" stroke-miterlimit="10" stroke-width=".1352"/><path d="m52.5 25.5s-.2-1.9-1.2-2.6c1.8-.2 3.4 2 3 4.5-.8-1.7-1.8-1.9-1.8-1.9z" fill="#ee3a40"/><path d="m56.4 28.3c0-.2 0-.4.1-.6-.1-.2-.9-1.6-2.5-1.9 0 .1 1.2.3 2.4 2.5z" fill="#ee3a40"/><path d="m51.3 22.9c.2.2.4.4.5.6.5-.1 1.6.8 2 2.1.2.8.3 1.2.3 1.6 0 0 .1.2.1.3.5-2.7-1.1-4.8-2.9-4.6z" fill="#ee3a40"/><path d="m45.6 18.8c.3.9.4 1.8-.2 2-.8.2-1.6-.5-1.9-1.4s-.1-1.7.6-1.9c.6-.1 1.2.5 1.5 1.3z" fill="#c57330"/><path d="m45.6 18.8c-.2-.8-.8-1.3-1.4-1.3 0 0 .1 0 .1.1.4.3.6.8.6 1.3 0 .7-.3 1.4.1 2h.4c.6-.2.4-1.2.2-2.1z" fill="#c57330" opacity=".5"/><path d="m45 20.9s-.7-.2-.5-1.1-.3-2.3-.3-2.3 1.3.3 1.5 1.8-.1 1.5-.7 1.6z" fill="#c57330" opacity=".5"/><path d="m43.9 17.6s.6-.3.9.4.4 1.4.6 1.4.7.2.7 0-1-2-.9-2.6.8-.5.8-1.8c-.1-1.2 1.3.2 3.5-.5 2.4-.8.4-1.8.1-2.5-1.5-.9-5.4-.7-5.9 2.4-1.7.9-.6 3.1.2 3.2z" fill="#ee3a40"/><path d="m47.1 16.2s3.4-1.2 5.4-1.8-.9-1.3-4.2 0-1.2 1.8-1.2 1.8z" fill="#ee3a40"/><path d="m53.1 13.9c-.3.4-1.9.7-1.9.7l-1-.8-3.8 2c.1.3.7.4.7.4s3.4-1.2 5.4-1.8c.7-.2.8-.4.6-.5z" fill="#ee3a40" opacity=".4"/><path d="m43.1 18.6s7.1-4.6 8.2-4c-1.5-4.3-6-4.2-8.2-1.5-1.9 2.4 0 5.5 0 5.5z" fill="#ee3a40"/><path d="m46.7 16.4c-.7-.2-1.5-.4-2.5-.9-1.4-.6-1.4-1.6-1-2.5 0 0 0 0-.1.1-1.9 2.4-.1 5.5-.1 5.5s1.8-1.1 3.7-2.2z" fill="#ee3a40" opacity=".4"/><path d="m43.1 18.6s7.1-4.6 8.2-4c-.7-1.8-1.8-2.9-3.2-3.3.9 1.1 1.5 2.5.4 2.8-2 .6-3.7 3.2-5 2.8-.9-.2-.9-2.1-.5-3.7-1.7 2.4.1 5.4.1 5.4z" fill="#ee3a40" opacity=".4"/><path d="m43.9 16.8c0 .1 1.6 1.6 1.7 2.8 0 .9.5 2.3.8 2.8s4.5.5 5.2 0 .1-3.4-.1-3.5c-1 .5-3.8.9-4.1.9-.2 0-2.3-3.6-2.3-3.6" fill="none" stroke="#1a1a1a" stroke-miterlimit="10" stroke-width=".1469"/><path d="m51.6 18.8s.3-.4.4-1.1c.5 1.8.5 2.8.4 3.2-.2.9-.6 1.3-.6 1.3" fill="none" stroke="#1a1a1a" stroke-linejoin="round" stroke-miterlimit="10" stroke-width=".1469"/><path d="m47.6 19.7s-.5 1.1-1 2.7" fill="none" stroke="#1a1a1a" stroke-linejoin="round" stroke-miterlimit="10" stroke-width=".1469"/><path d="m49.3 19.4s.3 1.1.1 3.3" fill="none" stroke="#1a1a1a" stroke-linejoin="round" stroke-miterlimit="10" stroke-width=".1469"/><path d="m45.7 19.6s.6-.5 1.2-.8" fill="none" stroke="#1a1a1a" stroke-linejoin="round" stroke-miterlimit="10" stroke-width=".1469"/><path d="m47.3 20.4s4.1 0 4.6-.4c.4-.3.3-1.4.3-1.4" fill="none" stroke="#1a1a1a" stroke-linejoin="round" stroke-miterlimit="10" stroke-width=".1469"/><path d="m47 21.4s4.6.2 5.1-.2c.4-.3.4-1.4.4-1.4" fill="none" stroke="#1a1a1a" stroke-linejoin="round" stroke-miterlimit="10" stroke-width=".1469"/><path d="m43.3 16h2.5v.7h-2.5z" fill="#1a1a1a" transform="matrix(.8437 -.5368 .5368 .8437 -1.8167 26.4965)"/><path d="m45.3 18.5c.3.6.8 1.8.2 2.1s-1.5-.7-1.8-1.3-.5-1.5.1-1.8 1.2.4 1.5 1z" fill="#1a1a1a"/><path d="m51.8 23.6s1.1.2 1.5 1.3c.4.8 1.1 2.2.9 2.2 0 0 0-2.2-1.5-3.8-.4-.5-.9 0-.9 0z" fill="#ee3a40" opacity=".5"/><path d="m50.9 13.7s.3.6-3.6 2.3c2.9-1.1 4.2-1.9 3.6-2.3z" fill="#ee3a40" opacity=".4"/><path d="m43.9 14.3c0 .2-.1.3-.3.3s-.3-.1-.3-.3.1-.3.3-.3.3.1.3.3z" fill="#1a1a1a"/><path d="m47.9 8.7c.1.2.1.4 0 .5s-.3 0-.4-.2-.1-.4 0-.5.3 0 .4.2z" fill="#1a1a1a"/><path d="m49.1 8.1c.1.2.1.4 0 .5s-.3 0-.4-.2-.1-.4 0-.5.3 0 .4.2z" fill="#1a1a1a"/><path d="m50 39.7s-2.9.9-4.7 2.1-2.3-1.5-1.2-1.2c1 .3 3.9-.7 2.7-.9-1.3-.2-2.9-1.8-2.2-1.8.7-.1 1.6.9 2.3 1 .8 0 3.1.8 3.1.8z" fill="#ee3a40"/><path d="m63.2 16s-.2-2.2 0-3.2c.2-.9 1.7-1.3 1.7.6.3-1.3 1.7-1 1.8.3.4-1.3 1.6-.8 1.8-.1.6-.5 1.6-.3 1.6 1.3s-.2 3.7-1.2 5.2c-.7 1 .1 4.5 0 5.2-.9-1.6-5.2-2.1-6.2-.7.6-2.2 1.5-3.3 1.2-3.9-.2-.5-2.4-4.2-2.7-5 .7 0 2 .3 2 .3z" fill="#d1ab3e"/><path d="m70.1 15.2-.1.6c0 .1-.7 3.6-1.5 4.2-.6.5-.3 2.7-1.2 4 .8.3 1.4.6 1.7 1.2.1-.7-.7-4.2 0-5.2.8-1.4 1-3.2 1.1-4.8z" fill="#d1ab3e" opacity=".5"/><path d="m70.1 14.8c0-.4-.1-.8-.2-1 0 .1.3 4-.7 5s-1.8 1.2-1.4 1.7 1 3.2.9 4.3c.1.1.2.2.2.3.1-.7-.7-4.2 0-5.2 1-1.4 1.2-3.5 1.2-5.1z" fill="#d1ab3e" opacity=".5"/><path d="m64.9 13.4c0-.9-.3-1.3-.7-1.4.4.3.5 1 .5 1.8.1 1.2 0 2 .2 1.9.1-.1 0-2 .3-2.9-.2.1-.3.3-.3.6z" fill="#ee3a40"/><path d="m66.5 14.2c.1 1.2 0 2 .1 1.9s.1-2 .3-2.9c-.1.1-.2.3-.3.5 0-.4-.2-.7-.4-.8.2.3.3.7.3 1.3z" fill="#ee3a40"/><path d="m68.5 13.5c0-.2-.2-.4-.4-.5.1.4.2.8.2 1.3.1 1.2 0 2 .1 1.9s.1-1.9.3-2.9c0 .1-.1.1-.2.2z" fill="#ee3a40"/><path d="m63.2 16s-1.3-.3-1.9-.4c.3.8 2.4 4.5 2.7 5 .2.5-.7 1.7-1.2 3.9.2-.2.4-.4.8-.5.7-1.5 2.4-3.4 1.6-3.6-1.1-.3-1.6-.9-2.3-2-.6-1.1-.8-2.2 0-2.1s1.2-.1.8-.5c-.5-.4-.4-3-.4-3-.4 1-.1 3.2-.1 3.2z" fill="#d1ab3e" opacity=".5"/><path d="m64.7 20.6c-.9-.3-1.4-1.7-2.3-3.3-.8-1.5.2-1.5.2-1.5-.4-.1-1-.2-1.4-.3.3.8 2.4 4.5 2.7 5 .2.5-.7 1.7-1.2 3.9.1-.2.3-.3.5-.4.3-1.5 2.2-3.1 1.5-3.4z" fill="#d1ab3e" opacity=".5"/><path d="m71.5 14.7c-.2.8-.3 3.2-.2 3.6s1.2.4 1.5.2.7-3 .7-3.6c-.1-.7-1.8-.8-2-.2z" fill="#d1ab3e"/><path d="m71.6 17.7c-.1-.2.2-2.5.4-3.1.4-.3 1 .1 1 .3s-.2 2.8-.3 3c.1.3-1 0-1.1-.2z" fill="#d1ab3e" opacity=".8"/><path d="m71.7 17.7c-.1-.2.2-2.4.4-3 .4-.3.9.1.9.3s-.3 2.6-.3 2.8c-.1.2-.9 0-1-.1z" fill="#d1ab3e"/><path d="m72.8 15.1c.1.1-.1 1.9-.3 2.3-.4.2-.6.1-.6 0s.2-2.2.3-2.4c-.1-.2.5 0 .6.1z" fill="#d1ab3e" opacity=".4"/><path d="m71.6 18.6c-.1-1.4 0-2.9.4-4.3-.2.1-.4.2-.4.4-.2.7-.3 2.6-.3 3.3l.1.5c.1.1.1.1.2.1z" fill="#ee3a40"/><path d="m71.3 16.9s1.1 1.2 1.2 1.7c-.2.1-.4 0-.4 0z" fill="#ee3a40"/><path d="m72.8 18.5c.3-.2.7-3 .7-3.6 0-.3-.2-.4-.5-.6.3.8.1 2.4-.4 4.2 0 .1.1.1.2 0z" fill="#d1ab3e" opacity=".5"/><path d="m73.4 14.9c-.1.8.2 3.4.3 3.8s1.1.3 1.3-.1c.2-.3.4-3.1.3-3.6-.2-.8-1.8-.8-1.9-.1z" fill="#d1ab3e"/><path d="m75 18.6c.2-.3.4-3.1.3-3.6-.1-.3-.4-.5-.7-.5.6.9.6 3.2.2 4.4.1-.2.1-.2.2-.3z" fill="#d1ab3e" opacity=".5"/><path d="m73.8 14.5c-.2.1-.4.2-.4.4-.1.8.2 3.4.3 3.8 0 .1.2.2.4.2-.6-.8-.6-3.6-.3-4.4z" fill="#ee3a40"/><path d="m75.3 15c-.1.8 0 3.3.1 3.7s1.1.3 1.3-.1c.2-.3.6-3 .5-3.5-.1-.7-1.8-.8-1.9-.1z" fill="#d1ab3e"/><path d="m76.4 18.8c.1-.1.2-.1.2-.2.2-.3.6-3 .5-3.5 0-.2-.2-.4-.4-.5.3.8.3 2.1-.3 4.2z" fill="#d1ab3e" opacity=".5"/><path d="m75.8 18.9c-.5-.3-.6-3.3-.3-4.2-.1.1-.2.2-.2.3-.1.8 0 3.3.1 3.7.1.1.2.2.4.2z" fill="#ee3a40"/><path d="m77.2 15.4c-.2.6-.2 2.7-.1 3.1.1.3.9.3 1 0 .2-.3.6-2.5.5-2.9 0-.7-1.3-.7-1.4-.2z" fill="#d1ab3e"/><path d="m78.7 15.6c0-.2-.3-.4-.5-.5.5.9.1 2.8-.2 3.5.1 0 .1-.1.2-.1.1-.3.6-2.5.5-2.9z" fill="#d1ab3e" opacity=".5"/><path d="m77.7 15c-.3 0-.5.1-.5.3-.2.7-.2 2.8-.1 3.2 0 .2.2.2.4.2-.6-.4-.3-3.3.2-3.7z" fill="#ee3a40"/><path d="m72.5 19s-1.6-3.7-2.6-2.8c-.4.4.1 2.2.4 3.3.5 2.1 1.3 3.1 2.5 2.8 1.4-.5-.3-3.3-.3-3.3z" fill="#d1ab3e"/><path d="m72.7 22.4c.3-.1.5-.3.5-.5-1.1-.1-2.6-1.1-2.9-2 .5 1.8 1.3 2.7 2.4 2.5z" fill="#d1ab3e" opacity=".5"/><path d="m72.5 22.4c.3-1.1-.6-2-1.6-2.9-.5-.5-.9-1.2-1.1-2 .1.7.3 1.5.5 2.1.4 1.9 1.1 2.9 2.2 2.8z" fill="#d1ab3e" opacity=".5"/><path d="m73.3 21.1c-.1-.9-.8-2-.8-2s-1.6-3.6-2.6-2.8c.8 0 1.6.9 1.6 1.7-.1 1-.5 1 .3 1.2.8 0 1.3.9 1.5 1.9z" fill="#d1ab3e" opacity=".8"/><path d="m71.9 22.3c.3-.5.2-.3-.8-1.7-1.2-1.6-1-4.3-1-4.5-.1 0-.1.1-.2.1-.4.4.1 2.2.4 3.3.3 1.6.8 2.5 1.6 2.8z" fill="#d1ab3e" opacity=".5"/><path d="m70.5 19.8c-1.1-3.1-.7-3.4-.3-3.7-.1 0-.2.1-.3.1-.4.4.1 2.2.4 3.3.4 1.7 1 2.6 1.8 2.8.1-.1.1-.2 0-.3-.5-.3-1.3-1.4-1.6-2.2z" fill="#ee3a40"/><path d="m64.3 17c.2-.2 3.6 0 4.5.4.4 1-.1 2.4-.3 2.4-.3.1-4.1-.1-4.4-.1-.5 0-.1-2.5.2-2.7z" fill="#d1ab3e" opacity=".8"/><path d="m64.3 17.1c.2-.2 3.5 0 4.3.4.4.9 0 2.2-.3 2.2s-3.7-.3-4.1-.4c-.3 0-.1-2 .1-2.2z" fill="#d1ab3e"/><path d="m64.4 17.3c.2-.1 3.3 0 4.1.3.4.7 0 1.8-.3 1.9-.2 0-3.5-.3-3.9-.3-.3 0-.1-1.8.1-1.9z" fill="#d1ab3e" opacity=".4"/><path d="m63.5 15.9c-.1-.2-.3-2.8-.2-3.4.4-.4 1-.1 1.1.1 0 .2.3 3.1.3 3.4s-1.1.1-1.2-.1z" fill="#d1ab3e" opacity=".8"/><path d="m63.6 15.9c-.1-.2-.3-2.7-.2-3.3.3-.3.9-.1 1 .1 0 .2.2 2.9.2 3.1-.1.3-.9.2-1 .1z" fill="#d1ab3e"/><path d="m65.2 16c-.1-.1-.2-2.5 0-3.1.4-.3 1 0 1.1.2 0 .2.1 2.8.1 3.1 0 .1-1.1-.1-1.2-.2z" fill="#d1ab3e" opacity=".8"/><path d="m65.3 15.9c-.1-.1-.2-2.4 0-3 .4-.3.9 0 1 .2v2.8c0 .2-.9.2-1 0z" fill="#d1ab3e"/><path d="m66.9 16.2c-.1-.2.1-2.5.3-3.1.4-.3 1 .1 1 .3s-.1 2.8-.1 3.1c-.1.2-1.2-.1-1.2-.3z" fill="#d1ab3e" opacity=".8"/><path d="m66.9 16.2c-.1-.2 0-2.4.2-3 .4-.3.9.1.9.2 0 .2-.2 2.6-.2 2.8.1.3-.8.1-.9 0z" fill="#d1ab3e"/><path d="m68.4 16.6c-.1-.2.1-2.5.3-3.1.4-.3 1 .1 1 .3s-.1 2.8-.1 3.1c-.1.2-1.1-.1-1.2-.3z" fill="#d1ab3e" opacity=".8"/><path d="m68.5 16.6c-.1-.2 0-2.4.2-3 .4-.3.9.1.9.2 0 .2-.2 2.6-.2 2.8 0 .3-.9.1-.9 0z" fill="#d1ab3e"/><path d="m68.9 25.1c0-.2 0-.5-.1-1-.8-.6-2-1.1-4-1.3-.5 0-1.7.1-1.5-.2-.2.5-.4 1.1-.6 1.8 1-1.3 5.3-.8 6.2.7z" fill="#d1ab3e" opacity=".5"/><path d="m64.2 12.9c.1.1.3 2.1.1 2.6-.4.2-.6.2-.6.1 0-.2-.2-2.5-.2-2.7s.6-.1.7 0z" fill="#d1ab3e" opacity=".4"/><path d="m66 13c.1.1.3 2.1.1 2.6-.4.2-.6.2-.6.1 0-.2-.2-2.5-.2-2.7 0-.3.6-.2.7 0z" fill="#d1ab3e" opacity=".4"/><path d="m67.9 13.3c.1.1.1 2.1-.1 2.6-.4.2-.6.2-.6 0s.1-2.5.1-2.7c-.1-.2.5 0 .6.1z" fill="#d1ab3e" opacity=".4"/><path d="m69.3 13.8c.1.1.1 2.1-.1 2.6-.4.2-.6.2-.6 0s.1-2.5.1-2.7c-.1-.2.5-.1.6.1z" fill="#d1ab3e" opacity=".4"/><path d="m64.1 20.3c-.6-.5-2.3-3.9-2.3-4.3 0-.1 0-.2 0-.3-.2 0-.4-.1-.5-.1.3.8 2.4 4.5 2.7 5 .2.5-.7 1.7-1.2 3.9.1-.1.2-.2.3-.3.2-1 .5-2 1-2.4.6-.6.7-1 0-1.5z" fill="#ee3a40"/><path d="m15.8 81.6c.3.1.5.3.8.6 0 0 .1.1.1.1.1 0 .2-.1.3-.2s.2-.3.1-.5c0 0-.1-.1-.1-.1-.4-.2-.8-.3-1.3-.3-.2 0-.8.1-.8.4.3 0 .6-.1.9 0z" fill="#ee3a40"/><path d="m73.9 17.8c-.1-.1-.1-2.5.1-3.1.4-.3 1 0 1 .2v3c.1.3-1 .1-1.1-.1z" fill="#d1ab3e" opacity=".8"/><path d="m73.9 17.8c-.1-.1-.1-2.4.1-3 .4-.3.9 0 .9.2s-.1 2.6-.1 2.8c.1.2-.8.1-.9 0z" fill="#d1ab3e"/><path d="m74.8 15.1c.1.1.1 1.9-.1 2.3-.4.2-.6.2-.6 0 0-.1 0-2.3 0-2.4s.6 0 .7.1z" fill="#d1ab3e" opacity=".4"/><path d="m75.6 18.1c-.1-.1-.1-2.5.1-3.1.4-.3 1 0 1 .2v3c.1.3-1 .1-1.1-.1z" fill="#d1ab3e" opacity=".8"/><path d="m75.7 18c-.1-.1-.1-2.4.1-3 .4-.3.9 0 .9.2s-.1 2.6-.1 2.8c0 .3-.9.2-.9 0z" fill="#d1ab3e"/><path d="m76.5 15.4c.1.1.1 1.9-.1 2.3-.4.2-.6.2-.6 0 0-.1 0-2.3 0-2.4s.6 0 .7.1z" fill="#d1ab3e" opacity=".4"/><path d="m77.3 17.9c0-.1.2-2 .4-2.4.3-.2.8.1.8.2s-.2 2.2-.3 2.4-.9-.1-.9-.2z" fill="#d1ab3e" opacity=".8"/><path d="m77.3 17.8c0-.1.2-1.9.3-2.3.3-.2.7.1.7.2s-.3 2-.3 2.2-.6.1-.7-.1z" fill="#d1ab3e"/><path d="m78.2 15.9c0 .1-.1 1.5-.3 1.8-.3.1-.5.1-.5 0s.2-1.8.3-1.9c0-.2.5 0 .5.1z" fill="#d1ab3e" opacity=".4"/><path d="m45.4 16c0 .1-.1.2-.2.2s-.2-.1-.2-.2.1-.2.2-.2.2.1.2.2z" fill="#ee3a40"/><path d="m44.1 16.8c0 .1-.1.2-.2.2s-.2-.1-.2-.2.1-.2.2-.2c.2 0 .2.1.2.2z" fill="#ee3a40"/><g fill="#c87c3d" opacity=".5"><path d="m60.4 10.7c-2.2-1-4.6-1.7-7-2.4s-4.8-1.4-7.2-2c-6.6-1.8-13.8-3.6-21.2-4.8-.9-.1-1.7-.2-1.8-.2-.2 0 .4.2 1.3.3 3.8.7 7.9 1.6 12 2.5l1.5.3c.5.1 1 .2 1.4.3 3.7.9 7.1 1.7 10.7 2.7 3.5 1 7 1.9 10.1 3.3.1.1.3.1.3.1.1.1 0 0-.1-.1z"/><path d="m60.5 10.4c-2.2-1-4.7-1.7-7.1-2.4s-4.8-1.4-7.2-2c-6.5-1.8-13.8-3.6-21.2-4.8-.8-.1-1.6-.2-1.8-.2s.4.2 1.3.3c3.8.7 7.9 1.6 12.1 2.5.5.1 1 .2 1.5.3s1 .2 1.4.3c3.7.9 7.1 1.7 10.7 2.7 3.5 1 7 1.9 10.2 3.3.1.1.3.1.3.1.1.1 0 0-.2-.1z"/><path d="m60.7 10.1c-2.3-1-4.7-1.7-7.1-2.5-2.4-.7-4.8-1.4-7.3-2-6.5-1.8-13.8-3.6-21.2-4.8-.9-.1-1.7-.2-1.8-.2-.2 0 .4.2 1.3.3 3.8.7 7.9 1.6 12.1 2.5.5.1 1 .2 1.5.3s1 .2 1.4.3c3.7.9 7.1 1.7 10.7 2.7 3.5 1 7 1.9 10.3 3.3.2.1.3.1.3.1 0 .2-.1.1-.2 0z"/><path d="m60.8 9.8c-2.3-1.1-4.8-1.8-7.2-2.5s-4.8-1.4-7.3-2c-6.5-1.8-13.8-3.6-21.2-4.8-.9-.1-1.7-.2-1.8-.2-.2 0 .4.2 1.3.3 3.8.7 7.9 1.6 12.1 2.5.5.1 1 .2 1.5.3s1 .2 1.4.3c3.7.9 7.1 1.7 10.7 2.7 3.5 1 7 1.9 10.3 3.4.3.1.4.2.5.2 0 0-.1-.1-.3-.2z"/><path d="m61 9.5c-2.4-1.1-4.8-1.8-7.2-2.5s-4.8-1.4-7.3-2c-6.5-1.8-13.8-3.6-21.3-4.8-.9-.1-1.7-.2-1.8-.2-.2 0 .4.2 1.3.3 3.8.7 7.9 1.6 12.1 2.5.5.1 1 .2 1.5.4.5.1 1 .2 1.4.3 3.7.9 7.1 1.7 10.7 2.7s7 1.9 10.4 3.4c.2.1.3.1.3.1.1 0 0-.1-.1-.2z"/></g><g fill="#ee3a40"><path d="m55.6 59.6c.4.1.6-.4.8-.6l.6-.9c.4-.6.7-1.3 1.1-1.9.8-1.3 1.4-2.6 2.2-3.9-.6 1.4-1.3 2.7-2 4-.4.6-.8 1.3-1.2 1.9l-.6.9c-.3.2-.5.7-.9.5z"/><path d="m45.9 58.2-.1.5c1.4-1.8 2.9-3.5 4.3-5.2 1.5-1.7 2.9-3.4 4.5-5.1-1.4 1.8-2.9 3.5-4.3 5.2-1.5 1.7-2.9 3.4-4.5 5.1z"/><path d="m46.2 51.5c.9-1.3 1.8-2.5 2.7-3.7 1-1.2 1.9-2.4 2.9-3.6-.9 1.3-1.8 2.5-2.7 3.7s-1.9 2.4-2.9 3.6z"/><path d="m45.5 46.4c.3-.9.7-1.7 1.1-2.5.5-.8 1-1.6 1.6-2.3-.5.8-1 1.6-1.4 2.4-.5.7-.9 1.6-1.3 2.4z"/><path d="m50.3 60c.6-.7 1.3-1.5 1.8-2.2.6-.7 1.2-1.5 1.8-2.3-.4.9-1 1.6-1.6 2.4-.6.7-1.2 1.4-2 2.1z"/><path d="m44.9 68.5c.6.3 1.3.1 1.9-.1l1.8-.9c1.2-.6 2.2-1.5 3.2-2.4-.9 1-1.9 1.9-3.1 2.6-.6.3-1.2.6-1.8.9-.6.2-1.4.3-2-.1z"/><path d="m42.7 78.5c1.2.3 2.4.3 3.5 0-1.1.5-2.5.5-3.5 0z"/><path d="m41.9 80.1c.4 1 1 1.9 1.9 2.5-1-.4-1.8-1.4-1.9-2.5z"/><path d="m40.6 80.5c.1.5 0 .9-.1 1.4-.1.4-.2.9-.5 1.3.1-.5.2-.9.2-1.3.2-.5.3-.9.4-1.4z"/><path d="m32.2 81.2c-.2.3-.3.5-.5.8-.2.2-.3.5-.4.8 0-.3.1-.6.2-.9.2-.3.4-.6.7-.7z"/><path d="m69.6 71.8c.3-.4.7-.8 1.1-1.2s.8-.8 1.2-1.1c-.3.4-.7.8-1.1 1.2s-.7.8-1.2 1.1z"/><path d="m66 54.6c-.4-.2-.6-.6-.9-.9-.2-.4-.4-.7-.4-1.2.2.4.4.7.6 1.1.2.3.5.6.7 1z"/><path d="m63.5 38c.1.2 0 .4 0 .7-.1.2-.2.4-.4.5.1-.2.2-.4.2-.6.1-.2.1-.4.2-.6z"/><path d="m54.5 39.4c-.3-.7-.4-1.4-.5-2.1 0-.7.1-1.5.4-2.1-.1.7-.2 1.4-.2 2.1s.1 1.4.3 2.1z"/><path d="m47.4 39.3c0-.8.3-1.7.6-2.4.4-.8.8-1.5 1.5-2.1-.5.7-1 1.4-1.3 2.1-.4.7-.6 1.6-.8 2.4z"/><path d="m54.4 29.3c-.2.2-.4.3-.6.5-.3.1-.5.3-.8.3.2-.2.4-.3.6-.5.3-.1.5-.3.8-.3z"/><path d="m51 85.3c.1-.7.2-1.3.3-2s.2-1.3.3-2c.1.7 0 1.4-.1 2.1-.1.5-.2 1.2-.5 1.9z"/><path d="m54.9 79.8c-.1-.7-.1-1.4-.1-2.1s0-1.4.1-2.1c.1.7.1 1.4.1 2.1s0 1.4-.1 2.1z"/><path d="m59.5 71.7c.2-.7.5-1.3.8-2 .3-.6.7-1.2 1.1-1.8-.3.6-.6 1.2-.9 1.9-.4.6-.6 1.3-1 1.9z"/><path d="m69.1 72.7c.6-.5 1.2-.9 1.9-1.3s1.3-.8 2-1.1c-.6.5-1.2.9-1.9 1.3s-1.3.8-2 1.1z"/><path d="m75.7 82.8c-.3-.4-.5-.9-.7-1.4s-.4-1-.5-1.5c.3.4.5.9.7 1.4s.4 1 .5 1.5z"/><path d="m74.8 79.4c.4.3.7.6 1.1.8.3.3.7.5 1.1.8-.4-.1-.8-.4-1.2-.7-.3-.2-.7-.5-1-.9z"/><path d="m73.7 87.7c.3-.1.7-.2 1-.3.4-.1.7-.2 1-.3-.3.2-.6.4-1 .5-.3.1-.7.2-1 .1z"/><path d="m73.7 91.2c.3.3.6.6 1 .8.3.3.7.5 1 .9-.4-.2-.8-.4-1.1-.7-.4-.3-.7-.6-.9-1z"/><path d="m67 58.3c-.3.5-.8.9-1.2 1.2-.5.3-1 .6-1.6.7.5-.3 1-.6 1.4-.9.6-.3 1-.7 1.4-1z"/><path d="m45.3 68.7c.2-.6.6-1.1.9-1.7.4-.5.7-1.1 1.1-1.6-.2.6-.6 1.1-.9 1.7-.4.6-.7 1.2-1.1 1.6z"/><path d="m47.4 26.9c-.6.1-1.2.2-1.8.5-.6.2-1.1.5-1.7.8.4-.5 1-.7 1.6-1 .7-.2 1.3-.3 1.9-.3z"/><path d="m54.2 29.2c-.5.4-1 .7-1.5 1.2-.5.4-.9.9-1.3 1.4.2-.6.7-1.1 1.1-1.6.5-.3 1.1-.7 1.7-1z"/><path d="m57.4 29.8c-.3.3-.5.6-.7 1-.3.3-.4.7-.6 1 0-.4.2-.8.4-1.2.3-.3.5-.6.9-.8z"/><path d="m54.2 38.4c.1-.4.2-.6.3-1 .2-.3.3-.6.5-.9 0 .3-.2.6-.3 1-.2.4-.3.7-.5.9z"/><path d="m57.5 24.7c.3.3.5.6.7.9.2.4.3.7.4 1.1-.2-.3-.3-.7-.6-1-.1-.3-.3-.6-.5-1z"/><path d="m59 25.6c.1.2.1.4.1.5 0 .2 0 .4-.1.5-.1-.2-.1-.4-.1-.5s0-.3.1-.5z"/></g><g fill="#f05459" opacity=".7"><path d="m64.2 60c.4-.2.7-.3 1.1-.4.6 0 1.2-.2 1.7-.4.1 0 .1-.1.1-.1 0-.1-.1-.1-.1-.1-.3 0-.7.1-1 .2h-.1s-.1 0-.1.1c-.3.1-.5.2-.8.3-.4.1-.3.1-.8.4-.1-.1-.1 0 0 0-.1 0 0 0 0 0z"/><path d="m64.3 60.3c.4-.2.7-.3 1.1-.4.6 0 1.1-.1 1.7-.4.1 0 .1-.1.1-.1 0-.1-.1-.1-.1-.1-.3 0-.6.1-.9.2h-.1s-.1 0-.1.1c-.3.1-.5.2-.8.3-.4.2-.4.1-.9.4z"/><path d="m64.5 60.6c.4-.2.7-.3 1.1-.4.6 0 1.1-.1 1.6-.4.1 0 .1-.1.1-.1 0-.1-.1-.1-.1-.1-.3 0-.6.1-.9.2h-.1-.1c-.3.1-.5.2-.8.3-.4.3-.3.3-.8.5z"/><path d="m64.7 60.9c.3-.2.7-.3 1.1-.4.5 0 1.1-.1 1.6-.3.1 0 .1-.1.1-.1 0-.1-.1-.1-.1-.1-.3 0-.6 0-.9.2h-.1-.1c-.3.1-.5.2-.8.3-.4.2-.4.2-.8.4-.1 0-.1 0 0 0z"/><path d="m64.8 61.2c.3-.1.7-.3 1-.4.5 0 1.1-.1 1.6-.3.1 0 .1-.1.1-.1 0-.1-.1-.1-.1-.1-.3 0-.6 0-.9.2h-.1-.1c-.3.1-.5.2-.8.3-.3.2-.2.2-.7.4z"/><path d="m56.8 49.1c-1.2 1.4-2.4 2.8-3.7 4.1-1.8 1.7-3.8 3.6-5.7 5.5-.2.3-.4.5-.4.6s.2 0 .4-.3c1.1-.9 2.2-1.9 3.3-3.1l.4-.4c.1-.1.2-.3.4-.4 1-1 1.8-2 2.7-3 .9-.9 1.7-1.9 2.6-3 0 0 .1 0 0 0z"/><path d="m56.5 48.9c-1.2 1.4-2.4 2.8-3.6 4.1-1.8 1.7-3.8 3.6-5.7 5.5-.2.2-.4.4-.4.5s.2 0 .4-.3c1.1-.9 2.2-1.9 3.3-3.1l.4-.4c.1-.1.2-.3.4-.4 1-1 1.8-1.9 2.7-2.9.8-1 1.7-1.9 2.5-3 .1 0 .1 0 0 0 .1-.1 0 0 0 0z"/><path d="m56.2 48.7c-1.2 1.4-2.4 2.8-3.6 4.1-1.8 1.7-3.7 3.6-5.7 5.5-.2.2-.4.4-.4.5s.2 0 .4-.2c1.1-.9 2.2-1.9 3.3-3.1.2-.2.3-.3.4-.4s.2-.3.4-.4c1-1 1.8-1.9 2.7-2.9.9-1.1 1.7-2.1 2.5-3.1.1 0 .1 0 0 0 .1-.1.1-.1 0 0z"/><path d="m56 48.5c-1.2 1.4-2.4 2.8-3.6 4.1-1.8 1.7-3.7 3.5-5.7 5.4-.2.2-.4.4-.4.5s.2 0 .4-.2c1.1-.9 2.2-1.9 3.2-3.1l.4-.4c.1-.1.2-.3.4-.4 1-1 1.8-1.9 2.7-2.9s1.7-2 2.6-3c0-.1 0-.1 0 0z"/><path d="m55.7 48.2c-1.2 1.4-2.4 2.8-3.6 4.1-1.8 1.7-3.7 3.5-5.6 5.4-.2.2-.4.4-.4.5s.2 0 .4-.2c1.1-.9 2.2-1.9 3.2-3l.4-.4c.1-.1.2-.3.4-.4 1-1 1.8-1.9 2.7-2.9.8-1 1.6-2 2.5-3.1 0 0 .1 0 0 0z"/><path d="m57.1 50.7c-1 1.3-2.1 2.6-3.2 3.8-3 2.9-3.8 3.7-5.1 5-.2.2-.4.4-.4.5s.2 0 .4-.2c1-.8 2-1.8 2.9-2.8.2-.2.2-.3.4-.4.1-.1.2-.2.3-.4.9-.9 1.6-1.8 2.4-2.7s1.5-1.8 2.3-2.8c0 0 .1 0 0 0z"/><path d="m56.8 50.5c-1 1.3-2.1 2.6-3.2 3.8-3 2.9-3.8 3.7-5.1 5-.2.2-.4.4-.4.5s.2 0 .4-.2c1-.8 2-1.7 2.9-2.8.2-.2.2-.3.4-.4.1-.1.2-.2.3-.4.9-.9 1.6-1.8 2.4-2.7s1.6-1.8 2.3-2.8c0 0 .1 0 0 0z"/><path d="m56.5 50.3c-1 1.3-2.1 2.6-3.2 3.8-1.6 1.5-3.3 3.2-5.1 5-.2.2-.4.4-.4.5s.2 0 .4-.2c1-.8 2-1.7 2.9-2.8.2-.2.2-.3.4-.4.1-.1.2-.2.3-.4.9-.9 1.6-1.8 2.4-2.7.9-.9 1.6-1.8 2.3-2.8.1 0 .1 0 0 0 .1-.1.1 0 0 0z"/><path d="m56.2 50.1c-1 1.3-2.1 2.6-3.2 3.7-1.6 1.5-3.3 3.2-5.1 5-.2.2-.4.4-.4.5s.2 0 .4-.2c1-.8 2-1.7 2.9-2.8.2-.2.2-.3.4-.4.1-.1.2-.2.3-.4.9-.9 1.6-1.8 2.4-2.7.9-.9 1.6-1.8 2.3-2.7.1 0 .1-.1 0 0 .1-.1.1-.1 0 0z"/><path d="m56 49.9c-1 1.3-2.1 2.5-3.2 3.7-1.6 1.5-3.3 3.2-5 4.9-.2.2-.4.4-.4.5s.2 0 .4-.2c1-.8 2-1.7 2.9-2.8.2-.2.2-.3.4-.4.1-.1.2-.2.3-.4.8-.9 1.6-1.8 2.4-2.7.7-.8 1.4-1.7 2.2-2.6 0-.1 0-.1 0 0z"/><path d="m58.9 50.1c-.6 1.3-1.3 2.5-2 3.7-2.2 3-2.7 3.6-3.6 4.8-.2.1-.3.3-.3.4s.2 0 .3-.2c.8-.8 1.5-1.7 2.1-2.7.1-.2.2-.3.3-.4s.1-.2.2-.3c.6-.9 1.1-1.7 1.6-2.6s1-1.8 1.4-2.7c0-.1 0-.1 0 0z"/><path d="m58.6 49.9c-.6 1.2-1.3 2.5-2 3.6-2.2 2.9-2.7 3.6-3.6 4.8-.2.2-.3.4-.3.4 0 .1.2 0 .3-.2.8-.8 1.5-1.7 2.1-2.7.1-.2.2-.2.2-.4.1-.1.1-.2.2-.3.6-.9 1.1-1.7 1.6-2.6.6-.8 1-1.7 1.5-2.6 0-.1 0 0 0 0z"/><path d="m58.2 49.8c-.6 1.2-1.3 2.5-2 3.6-2.2 2.9-2.7 3.5-3.6 4.7-.2.2-.3.4-.3.4 0 .1.2 0 .3-.2.8-.8 1.5-1.6 2.1-2.6.1-.2.2-.2.2-.4.1-.1.1-.2.2-.3.6-.8 1.1-1.7 1.6-2.6.7-.9 1.1-1.7 1.5-2.6.1 0 .1-.1 0 0 .1-.1.1-.1 0 0z"/><path d="m57.9 49.6c-.6 1.2-1.2 2.4-2 3.6-2.2 2.9-2.6 3.5-3.5 4.7-.2.2-.3.4-.2.4 0 .1.2 0 .3-.2.7-.8 1.5-1.6 2.1-2.6.1-.2.2-.2.2-.3.1-.1.1-.2.2-.3.6-.8 1.1-1.7 1.6-2.6s.9-1.8 1.3-2.7c.1 0 .1 0 0 0 .1-.1 0 0 0 0z"/><path d="m57.6 49.5c-.6 1.2-1.2 2.4-2 3.5-2.2 2.9-2.6 3.5-3.5 4.7-.2.2-.3.4-.2.4 0 .1.2 0 .3-.2.7-.7 1.4-1.6 2.1-2.6.1-.2.2-.2.2-.3.1-.1.1-.2.2-.3.6-.8 1-1.7 1.6-2.5.4-1 .9-1.8 1.3-2.7 0-.1 0-.1 0 0z"/><path d="m59.4 51.7c-.4.8-.9 1.7-1.4 2.5-.8 1-1.6 2.1-2.4 3.3-.1.1-.2.3-.1.3 0 .1.1 0 .2-.1.5-.5 1-1.2 1.4-1.9.1-.1.1-.2.2-.2 0 0 .1-.2.1-.2.4-.6.7-1.2 1-1.8.4-.6.7-1.2 1-1.9z"/><path d="m59 51.6c-.4.8-.9 1.7-1.4 2.5-.8 1-1.6 2.1-2.4 3.3-.1.1-.2.3-.1.3 0 .1.1 0 .2-.1.5-.5 1-1.2 1.4-1.9.1-.1.1-.2.2-.2 0 0 .1-.2.1-.2.4-.6.7-1.2 1-1.8.5-.7.7-1.3 1-1.9.1 0 .1 0 0 0 .1-.1 0 0 0 0z"/><path d="m58.7 51.4c-.4.8-.8 1.7-1.3 2.4-.8 1-1.6 2.1-2.3 3.3-.1.1-.2.3-.1.3 0 .1.1 0 .2-.1.5-.5 1-1.1 1.3-1.8.1-.1.1-.2.2-.2 0 0 .1-.2.1-.2.4-.6.7-1.2 1-1.8.3-.7.6-1.2.9-1.9 0 0 .1 0 0 0z"/><path d="m58.4 51.3c-.4.8-.8 1.6-1.3 2.4-.8 1-1.6 2.1-2.3 3.2-.1.1-.2.3-.1.3 0 .1.1 0 .2-.1.5-.5 1-1.1 1.3-1.8.1-.1.1-.2.2-.2 0 0 .1-.2.1-.2.4-.6.7-1.2 1-1.7.3-.7.6-1.3.9-1.9 0-.1 0 0 0 0z"/><path d="m58.1 51.1c-.4.8-.8 1.6-1.3 2.4-.8 1-1.6 2.1-2.3 3.2-.1.1-.2.3-.1.3 0 .1.1 0 .2-.1.5-.5 1-1.1 1.3-1.8.1-.1.1-.2.1-.2s.1-.2.1-.2c.4-.6.7-1.1 1-1.7.4-.7.7-1.3 1-1.9z"/><path d="m62.3 50.9c-.3 1-.6 2.1-.9 3.1-1.3 2.7-1.5 3.1-2 4.1-.1.2-.1.3-.1.4s.1 0 .2-.2c.5-.7.9-1.5 1.2-2.3.1-.2.1-.2.1-.3s.1-.2.1-.3c.3-.7.5-1.5.8-2.2.2-.8.4-1.6.6-2.3 0-.1 0-.1 0 0z"/><path d="m61.9 50.8c-.3 1-.5 2-.9 3-1.3 2.7-1.5 3.1-2 4.1-.1.2-.1.3-.1.4s.1 0 .2-.2c.5-.7.9-1.5 1.2-2.3.1-.2.1-.2.1-.3s.1-.2.1-.3c.3-.7.5-1.4.8-2.2.3-.7.5-1.5.6-2.2.1 0 .1 0 0 0 0-.1 0 0 0 0z"/><path d="m61.6 50.7c-.3 1-.5 2-.9 3-1.3 2.7-1.5 3.1-2 4-.1.2-.1.3-.1.4s.1 0 .2-.2c.5-.7.9-1.4 1.2-2.3.1-.2.1-.2.1-.3s.1-.2.1-.3c.3-.7.5-1.4.8-2.2.2-.6.4-1.3.6-2.1z"/><path d="m61.2 50.6c-.2 1-.5 2-.9 3-.6 1.3-1.3 2.6-1.9 4-.1.2-.1.3-.1.4s.1 0 .2-.2c.5-.7.9-1.4 1.2-2.2.1-.2.1-.2.1-.3s.1-.2.1-.3c.3-.7.5-1.4.8-2.1.2-.8.4-1.5.5-2.3.1 0 .1 0 0 0z"/><path d="m60.9 50.6c-.2 1-.5 2-.9 2.9-.6 1.2-1.3 2.6-1.9 3.9-.1.2-.1.3-.1.4s.1 0 .2-.2c.5-.6.9-1.4 1.1-2.2.1-.2.1-.2.1-.3s.1-.2.1-.3c.3-.7.5-1.4.8-2.1.2-.7.4-1.4.6-2.1 0-.1 0-.1 0 0z"/><path d="m64.1 50.6c-.2 1-.5 2.1-.9 3.1-.7 1.3-1.4 2.6-2.2 3.9-.1.1-.2.3-.2.4s.1 0 .2-.2c.6-.6 1-1.4 1.4-2.2.1-.2.1-.2.1-.3s.1-.2.1-.3c.3-.7.6-1.4.8-2.2.4-.7.6-1.4.7-2.2z"/><path d="m63.7 50.6c-.2 1-.5 2-.9 3-.7 1.2-1.4 2.6-2.2 3.9-.1.1-.2.3-.1.4 0 .1.1 0 .2-.2.5-.6 1-1.3 1.4-2.1.1-.2.1-.2.1-.3s.1-.2.1-.3c.3-.7.6-1.4.8-2.1.3-.8.5-1.6.6-2.3.1 0 .1-.1 0 0 0-.1 0 0 0 0z"/><path d="m63.4 50.5c-.2 1-.5 2-.8 2.9-.6 1.2-1.4 2.5-2.2 3.8-.1.1-.2.3-.1.3 0 .1.1 0 .2-.2.5-.6 1-1.3 1.3-2.1.1-.1.1-.2.1-.3s.1-.2.1-.3c.3-.7.6-1.4.8-2.1.3-.5.5-1.2.6-2z"/><path d="m63 50.5c-.2 1-.4 2-.8 2.9-.6 1.2-1.3 2.5-2.1 3.7-.1.1-.2.3-.1.3 0 .1.1 0 .2-.2.5-.6 1-1.3 1.3-2.1.1-.1.1-.2.1-.3s.1-.2.1-.3c.3-.7.6-1.3.8-2 .3-.6.4-1.3.5-2 .1 0 .1-.1 0 0 0-.1 0-.1 0 0z"/><path d="m62.7 50.4c-.2 1-.4 1.9-.8 2.8-.6 1.2-1.3 2.4-2.1 3.6-.1.1-.2.3-.1.3 0 .1.1 0 .2-.1.5-.6 1-1.2 1.3-2 .1-.1.1-.2.1-.3s.1-.2.1-.3c.3-.7.5-1.3.8-2 .2-.6.4-1.3.5-2z"/><path d="m65.2 52.3c-.1.6-.2 1.2-.3 1.8-.3.8-.6 1.7-.8 2.6v.2s.1 0 .2-.1c.2-.4.4-.9.5-1.5 0-.1 0-.1 0-.2s0-.1 0-.2c.1-.5.2-.9.3-1.3 0-.5 0-.6.1-1.3 0-.1 0 0 0 0z"/><path d="m64.8 52.2c-.1.6-.2 1.2-.3 1.8-.3.8-.6 1.6-.8 2.5v.2s.1 0 .2-.1c.2-.4.4-.9.5-1.4 0-.1 0-.1 0-.2s0-.1 0-.2c.1-.4.2-.9.3-1.3 0-.4 0-.5.1-1.3.1 0 .1 0 0 0z"/><path d="m64.5 52.2c-.1.6-.2 1.2-.3 1.8-.3.8-.6 1.6-.8 2.5v.2s.1 0 .2-.1c.2-.4.4-.9.5-1.4 0-.1 0-.1 0-.2s0-.1 0-.2c.1-.4.2-.9.3-1.3 0-.5 0-.6.1-1.3z"/><path d="m64.1 52.2c-.1.6-.2 1.2-.3 1.8-.3.8-.6 1.6-.8 2.4v.2s.1 0 .2-.1c.2-.4.4-.9.5-1.4 0-.1 0-.1 0-.2s0-.1 0-.2c.1-.4.2-.9.3-1.3 0-.4 0-.5.1-1.2.1 0 .1-.1 0 0 0-.1 0-.1 0 0z"/><path d="m63.8 52.1c-.1.6-.2 1.2-.3 1.7-.3.7-.6 1.6-.8 2.4v.2s.1 0 .1-.1c.2-.4.4-.9.5-1.4 0-.1 0-.1 0-.2s0-.1 0-.2c.1-.4.2-.8.3-1.3.1-.3.1-.4.2-1.1z"/><path d="m53.7 48.9c-.6.7-1.1 1.3-1.7 1.9-.9.8-1.8 1.7-2.5 2.7-.1.1-.2.2-.1.3 0 .1.1 0 .2-.1.5-.4 1-1 1.4-1.6l.2-.2.2-.2c.4-.5.8-1 1.2-1.4.3-.5.7-.9 1.1-1.4.1 0 .1 0 0 0z"/><path d="m53.5 48.7c-.6.7-1.1 1.3-1.7 1.9-.9.8-1.8 1.7-2.5 2.7-.1.1-.2.2-.1.3 0 .1.1 0 .2-.1.5-.4 1-1 1.4-1.6.1-.1.1-.1.2-.2s.1-.1.2-.2c.4-.5.8-1 1.2-1.4.3-.5.7-.9 1.1-1.4 0-.1 0-.1 0 0z"/><path d="m53.2 48.4c-.6.7-1.1 1.3-1.7 1.9-.9.8-1.8 1.7-2.5 2.7-.1.1-.2.2-.1.3 0 .1.1 0 .2-.1.5-.4 1-1 1.4-1.6l.2-.2.2-.2c.4-.5.8-1 1.2-1.4.3-.4.7-.9 1.1-1.4z"/><path d="m52.9 48.2c-.6.7-1.1 1.3-1.7 1.9-.9.8-1.8 1.7-2.5 2.7-.1.1-.2.2-.1.3 0 .1.1 0 .2-.1.5-.4 1-1 1.4-1.6l.2-.2.2-.2c.4-.5.8-1 1.2-1.4.3-.4.7-.9 1.1-1.4z"/><path d="m52.6 48c-.6.7-1.1 1.3-1.7 1.9-.9.8-1.8 1.7-2.5 2.7-.1.1-.2.2-.1.3 0 .1.1 0 .2-.1.5-.4 1-1 1.4-1.6l.2-.2.2-.2c.4-.5.8-1 1.2-1.4.3-.5.7-.9 1.1-1.4.1 0 .1 0 0 0z"/><path d="m53.3 46.6c-.7.7-1.3 1.4-2 2.1-1 .9-2 1.9-2.9 3-.1.1-.2.3-.2.3 0 .1.1 0 .2-.1.6-.5 1.1-1.1 1.6-1.7.1-.1.1-.1.2-.2 0 0 .1-.1.2-.2.7-.7.9-1 1.4-1.6.6-.6.8-.9 1.5-1.6 0-.1 0 0 0 0z"/><path d="m53 46.4c-.7.7-1.3 1.4-2 2.1-1 .9-2 1.9-2.9 3-.1.1-.2.3-.2.3 0 .1.1 0 .2-.1.6-.5 1.1-1.1 1.6-1.7.1-.1.1-.1.2-.2 0 0 .1-.1.2-.2.7-.7.9-1 1.4-1.6.6-.6.9-.9 1.5-1.6.1 0 .1-.1 0 0 .1-.1 0-.1 0 0z"/><path d="m52.7 46.1c-.7.7-1.3 1.4-2 2.1-1 .8-2 1.9-2.9 3-.1.1-.2.3-.2.3 0 .1.1 0 .2-.1.6-.5 1.1-1.1 1.6-1.7.1-.1.1-.1.2-.2 0 0 .1-.1.2-.2.6-.7.9-1 1.4-1.6.7-.6.9-.8 1.5-1.6.1 0 .1 0 0 0z"/><path d="m52.5 45.9c-.7.7-1.3 1.4-2 2.1-1 .8-2 1.9-2.9 3-.1.1-.2.3-.2.3 0 .1.1 0 .2-.1.6-.5 1.1-1.1 1.6-1.7.1-.1.1-.1.2-.2 0 0 .1-.1.2-.2.6-.7.9-1 1.4-1.6.6-.6.8-.8 1.5-1.6z"/><path d="m52.2 45.7c-.6.7-1.3 1.4-2 2.1-1 .8-2 1.9-2.9 3-.1.1-.2.3-.2.3 0 .1.1 0 .2-.1.6-.5 1.1-1.1 1.6-1.7l.2-.2s.1-.1.2-.2c.6-.7.8-1 1.4-1.6s.8-.9 1.5-1.6c0-.1 0 0 0 0z"/><path d="m51.9 43.3c-.5.8-1 1.5-1.5 2.3-.8.9-1.6 2-2.3 3.2-.1.1-.1.2-.1.3 0 0 .1 0 .2-.1.5-.5.9-1.2 1.3-1.8 0-.1.1-.2.2-.2 0 0 .1-.2.1-.2.5-.8.6-1 1.1-1.7.3-.7.5-1 1-1.8z"/><path d="m51.6 43.1c-.5.8-1 1.5-1.5 2.3-.8.9-1.6 2-2.3 3.2-.1.1-.1.3-.1.3s.1 0 .2-.1c.5-.5.9-1.2 1.3-1.8 0-.1.1-.2.2-.2 0 0 .1-.2.1-.2.5-.8.7-1 1.1-1.7.3-.7.5-1 1-1.8 0 0 .1 0 0 0z"/><path d="m51.3 42.9c-.5.8-1 1.5-1.5 2.3-.8.9-1.6 2.1-2.3 3.2-.1.1-.1.3-.1.3s.1 0 .2-.2c.5-.5.9-1.2 1.3-1.9 0-.1.1-.2.2-.2 0 0 .1-.2.1-.2.5-.8.7-1 1.1-1.7.3-.5.5-.8 1-1.6.1 0 .1 0 0 0z"/><path d="m51 42.7c-.5.8-1 1.5-1.5 2.3-.8.9-1.6 2.1-2.3 3.3-.1.1-.1.3-.1.3s.1 0 .2-.2c.5-.6.9-1.2 1.3-1.9 0-.1.1-.2.2-.2 0 0 .1-.2.1-.2.5-.8.7-1 1.1-1.7.3-.6.5-.9 1-1.7.1 0 .1 0 0 0z"/><path d="m50.7 42.5c-.5.8-1 1.6-1.5 2.3-.8.9-1.6 2.1-2.3 3.3-.1.1-.1.3-.1.3s.1 0 .2-.2c.5-.6.9-1.2 1.3-1.9 0-.1.1-.2.2-.2 0 0 .1-.2.1-.2.5-.8.7-1 1.1-1.7.4-.6.5-.9 1-1.7.1 0 .1 0 0 0z"/><path d="m53.7 39.8c-.9.8-1.8 1.6-2.7 2.5-.6.5-1.2 1.2-1.8 1.9-.3.3-.6.7-.8 1.1-.1.2-.2.4-.4.6-.1.2-.3.4-.3.5s0 .2.1.1c.1 0 .1 0 .1-.1 0 0 .1-.1.3-.3.2-.3.3-.4.4-.6.3-.5.4-.6.9-1.2.1-.1.2-.2.2-.3.1-.1.1-.2.2-.3.6-.7 1.1-1.3 1.8-2s1.4-1.3 2-1.9c.1 0 .1 0 0 0z"/><path d="m53.5 39.5c-1 .8-1.8 1.6-2.7 2.5-1.2 1.1-2.5 2.6-3.3 4.1-.1.2 0 .3.1.3s0-.1.1-.2c.1-.2.5-.7.8-1.1.3-.5.4-.6.9-1.3.1-.1.2-.2.2-.3.1-.1.1-.2.2-.3.6-.7 1.2-1.4 1.8-2 .6-.5 1.2-1.1 1.9-1.7 0 .1.1 0 0 0z"/><path d="m53.3 39.3c-1 .8-1.9 1.7-2.7 2.5-1.3 1.1-2.5 2.5-3.4 4.2-.1.3 0 .5.1.5s0-.1.1-.3c.5-.8 1.2-1.6 1.7-2.5.1-.1.2-.2.2-.3.1-.1.1-.2.2-.3.6-.7 1.2-1.4 1.8-2s1.3-1.2 2-1.8c0-.1 0-.1 0 0z"/><path d="m53 39c-1 .8-1.9 1.7-2.8 2.6-.6.6-1.3 1.2-1.9 1.9-.3.4-.6.7-.8 1.1-.1.2-.3.4-.4.6s-.3.4-.4.7 0 .7.1.7 0-.2.1-.5.3-.5.4-.7c.2-.3.3-.5.5-.6.3-.5.5-.6.9-1.3.1-.1.2-.2.2-.3.1-.1.1-.2.2-.3.6-.7 1.2-1.4 1.9-2.1.7-.6 1.3-1.2 2-1.8.1 0 .1 0 0 0z"/><path d="m52.8 38.7c-1 .8-1.9 1.7-2.8 2.6-.7.6-1.3 1.2-1.9 2-.3.4-.6.7-.9 1.1-.1.2-.3.4-.4.6s-.3.4-.4.8c-.2.4 0 .9.1.9.1.1 0-.2.1-.6.1-.5.3-.7.5-.9.2-.3.3-.5.5-.6.4-.5.5-.7.9-1.3.1-.1.2-.2.2-.3.1-.1.1-.2.2-.3.6-.7 1.2-1.4 1.9-2.1.6-.7 1.3-1.3 2-1.9.1 0 .1 0 0 0z"/><path d="m51.9 34.3c-.3.7-.7 1.3-1.1 2-.7.8-1.4 1.6-2 2.5-.1.1-.1.2-.1.3s.1 0 .2-.1c.4-.4.8-.9 1.2-1.4 0-.1.1-.1.1-.2s.1-.1.1-.2c.3-.5.6-.9.9-1.4s.5-1 .7-1.5c.1 0 .1 0 0 0 .1-.1 0-.1 0 0z"/><path d="m51.6 34.1c-.3.7-.7 1.3-1.1 1.9-.7.8-1.3 1.6-2 2.5-.1.1-.1.2-.1.3s.1 0 .2-.1c.4-.4.8-.9 1.1-1.4 0-.1.1-.1.1-.2.2 0 .2-.1.2-.1.3-.5.6-.9.8-1.4.4-.5.6-1 .8-1.5z"/><path d="m51.3 34c-.3.7-.7 1.3-1.1 1.9-.7.8-1.3 1.6-1.9 2.5-.1.1-.1.2-.1.3s.1 0 .2-.1c.4-.4.8-.8 1.1-1.4 0-.1.1-.1.1-.2s.1-.1.1-.2c.3-.4.6-.9.8-1.4.3-.5.6-.9.8-1.4 0-.1 0-.1 0 0z"/><path d="m51 33.8c-.3.6-.7 1.3-1.1 1.9-.7.7-1.3 1.6-1.9 2.4-.1.1-.1.2-.1.3 0 0 .1 0 .2-.1.4-.4.8-.8 1.1-1.4 0-.1.1-.1.1-.2s.1-.1.1-.2c.3-.4.6-.9.8-1.4.3-.3.5-.8.8-1.3z"/><path d="m50.6 33.7c-.3.6-.6 1.3-1 1.8-.6.7-1.3 1.5-1.9 2.4-.1.1-.1.2-.1.3 0 0 .1 0 .2-.1.4-.4.8-.8 1.1-1.3 0-.1.1-.1.1-.2s.1-.1.1-.2c.3-.4.5-.9.8-1.3.3-.5.5-1 .7-1.4.1 0 .1 0 0 0 .1-.1 0 0 0 0z"/><path d="m54.1 33.1c-.4.8-.8 1.5-1.2 2.2-.7.9-1.4 1.9-2.1 3-.1.1-.1.3-.1.3 0 .1.1 0 .2-.1.5-.5.9-1.1 1.2-1.7.1-.1.1-.2.1-.2 0-.1.1-.1.1-.2.3-.5.6-1.1.9-1.6.4-.6.5-.8.9-1.7z"/><path d="m53.8 33c-.4.8-.8 1.5-1.2 2.2-.7.9-1.4 1.9-2.1 3-.1.1-.1.3-.1.3 0 .1.1 0 .2-.1.4-.5.9-1 1.2-1.7.1-.1.1-.2.1-.2 0-.1.1-.1.1-.2.3-.5.6-1.1.9-1.6.4-.7.5-.9.9-1.7z"/><path d="m53.5 32.8c-.4.7-.8 1.5-1.2 2.2-.7.9-1.4 1.9-2 3-.1.1-.1.2-.1.3s.1 0 .2-.1c.4-.5.8-1 1.2-1.7.1-.1.1-.2.1-.2 0-.1.1-.1.1-.2.3-.5.6-1.1.9-1.6.3-.6.4-.8.8-1.7z"/><path d="m53.1 32.7c-.4.7-.7 1.5-1.2 2.2-.7.9-1.4 1.9-2 2.9-.1.1-.1.2-.1.3 0 0 .1 0 .2-.1.4-.5.8-1 1.2-1.7 0-.1.1-.1.1-.2s.1-.1.1-.2c.3-.5.6-1 .9-1.6s.4-.8.8-1.6c.1 0 .1 0 0 0z"/><path d="m52.8 32.5c-.4.7-.7 1.5-1.2 2.2-.7.9-1.4 1.9-2 2.9-.1.1-.1.2-.1.3 0 0 .1 0 .2-.1.4-.5.8-1 1.2-1.6 0-.1.1-.1.1-.2s.1-.1.1-.2c.3-.5.6-1 .9-1.6s.4-.8.8-1.7z"/><path d="m54.6 36.2c-.2.4-.3.9-.6 1.2-.4.5-.9.9-1.2 1.5-.1.1-.1.1 0 .2h.2c.3-.2.6-.5.7-.8 0 0 .1-.1.1-.1s0-.1.1-.1c.2-.3.3-.6.5-.9-.1-.4.1-.7.2-1z"/><path d="m54.2 36.1c-.2.4-.3.8-.6 1.2-.4.4-.8.9-1.2 1.4-.1.1-.1.1 0 .2h.2c.3-.2.5-.5.7-.8 0 0 .1-.1.1-.1s0-.1.1-.1c.2-.3.3-.6.5-.8 0-.4.1-.7.2-1z"/><path d="m53.9 36c-.1.4-.3.8-.5 1.1-.4.4-.8.9-1.2 1.3-.1 0-.1.1 0 .2h.2c.3-.2.5-.4.7-.8 0 0 .1-.1.1-.1s0-.1.1-.1c.2-.3.3-.5.4-.8 0-.3.1-.5.2-.8z"/><path d="m53.5 35.9c-.1.4-.3.7-.5 1.1-.4.4-.8.8-1.1 1.3 0 0-.1.1 0 .2h.2c.3-.2.5-.4.7-.7 0 0 0-.1.1-.1 0 0 0-.1.1-.1.2-.2.3-.5.4-.8 0-.4 0-.6.1-.9.1 0 .1 0 0 0z"/><path d="m53.2 35.8c-.1.4-.3.7-.5 1-.4.4-.8.8-1.1 1.2 0 0-.1.1 0 .2h.1c.3-.1.5-.4.6-.7 0 0 0-.1.1-.1v-.1c.2-.2.3-.5.4-.7.2-.3.3-.6.4-.8 0-.1 0 0 0 0z"/><path d="m46.7 30.3c.7-.3 1.5-.5 2.2-.7 1.1-.2 2.2-.4 3.3-.7.1 0 .3-.1.3-.1 0-.1-.1-.1-.2-.1-.6 0-1.3.2-1.9.4-.1 0-.2 0-.2.1-.1 0-.1.1-.2.1-.6.2-1.1.4-1.6.5-.7.1-.9.1-1.7.5 0-.1 0-.1 0 0z"/><path d="m46.8 30.6c.7-.3 1.5-.5 2.2-.7 1.1-.2 2.2-.4 3.3-.7.1 0 .2-.1.3-.1 0-.1-.1-.1-.2-.1-.6 0-1.2.2-1.9.4-.1 0-.2 0-.2.1-.1 0-.1.1-.2.1-.6.2-1.1.3-1.6.5-.7.1-.8.2-1.7.5z"/><path d="m47 30.9c.7-.3 1.5-.5 2.2-.7 1-.1 2.2-.4 3.3-.7.1 0 .2-.1.3-.1 0-.1-.1-.1-.2-.1-.6 0-1.2.2-1.9.4-.1 0-.2 0-.2.1-.1 0-.1.1-.2.1-.6.2-1.1.3-1.6.5-.7.1-.9.2-1.7.5-.1 0 0 0 0 0z"/><path d="m47.1 31.2c.7-.3 1.4-.5 2.2-.7 1-.1 2.1-.4 3.2-.7.1 0 .2-.1.3-.1 0-.1-.1-.1-.2-.1-.6 0-1.2.2-1.8.4-.1 0-.2 0-.2.1-.1 0-.1.1-.2.1-.6.1-1.1.3-1.6.5-.7.2-.9.2-1.7.5 0 .1 0 .1 0 0z"/><path d="m47.2 31.6c.7-.3 1.4-.5 2.2-.7 1-.1 2.1-.4 3.2-.7.1 0 .2-.1.2-.1 0-.1-.1-.1-.2-.1-.6 0-1.2.2-1.8.4-.1 0-.1 0-.2.1-.1 0-.1.1-.2.1-.6.1-1.1.3-1.6.5-.6.1-.8.2-1.6.5z"/><path d="m46.9 28.5c.7-.2 1.4-.3 2.2-.4 1 .1 2.1.1 3.2.1.1 0 .2 0 .3-.1 0-.1-.1-.1-.2-.1-.6-.2-1.2-.2-1.8-.1-.1 0-.2 0-.2 0-.1 0-.1 0-.2 0-.6 0-1.1.1-1.6.2-.7.1-1.2.3-1.7.4z"/><path d="m47 28.9c.7-.2 1.4-.3 2.1-.4 1 .1 2 .1 3.1.1.1 0 .2 0 .3-.1 0-.1-.1-.1-.2-.1-.5-.2-1.1-.2-1.8-.1-.1 0-.2 0-.2 0-.1 0-.1 0-.2 0-.5 0-1 .1-1.6.2-.5.1-1 .2-1.5.4 0-.1 0-.1 0 0z"/><path d="m47.1 29.2c.7-.2 1.4-.3 2.1-.4 1 .1 2 .1 3 .1.1 0 .2 0 .3-.1 0-.1-.1-.1-.2-.1-.5-.2-1.1-.2-1.7-.1-.1 0-.2 0-.2 0-.1 0-.1 0-.2 0-.5 0-1 .1-1.5.2-.6.1-1.1.2-1.6.4z"/><path d="m47.2 29.5c.7-.2 1.3-.3 2-.3.9.1 1.9.1 2.9.1.1 0 .2 0 .3-.1 0-.1-.1-.1-.2-.1-.5-.2-1.1-.2-1.7-.1-.1 0-.2 0-.2 0-.1 0-.1 0-.2 0-.5 0-1 .1-1.5.2s-.9.2-1.4.3z"/><path d="m47.3 29.9c.6-.2 1.3-.3 2-.3.9.1 1.9.1 2.9.1.1 0 .2 0 .2-.1s0-.1-.2-.1c-.5-.2-1.1-.2-1.6-.1-.1 0-.1 0-.2 0s-.1 0-.2 0c-.5 0-1 .1-1.5.2-.5 0-.9.1-1.4.3 0-.1 0 0 0 0z"/></g><g fill="#f05459" opacity=".6"><path d="m49.8 68.9c-.9 1-1.8 2.2-2.5 3.3-1.2 1.5-2.2 3.4-2.8 5.4-.1.2-.1.5-.1.5 0 .1.1-.1.2-.3.9-1.9.9-2.1 1.4-3.1.1-.1.1-.3.2-.4 0-.1.1-.2.2-.4.5-.9 1-1.8 1.6-2.6.5-.8 1.1-1.6 1.8-2.4z"/><path d="m49.5 68.7c-.9 1.1-1.8 2.2-2.6 3.4-1.2 1.5-2.2 3.4-2.9 5.4-.1.2-.1.5-.1.5 0 .1.1-.1.2-.3.9-1.9.9-2.1 1.4-3.2.1-.1.1-.3.2-.4 0-.1.1-.2.2-.4.5-.9 1-1.8 1.6-2.6.7-.8 1.3-1.6 2-2.4 0-.1 0-.1 0 0z"/><path d="m49.2 68.4c-1 1.1-1.8 2.2-2.6 3.4-1.2 1.5-2.2 3.5-2.9 5.5-.1.2-.1.5-.1.5 0 .1.1-.1.2-.3.9-1.9 1-2.1 1.4-3.2.1-.1.1-.3.2-.4 0-.1.1-.2.2-.4.5-.9 1-1.8 1.6-2.7.7-.8 1.3-1.6 2-2.4.1 0 .1 0 0 0z"/><path d="m48.9 68.2c-1 1.1-1.8 2.3-2.6 3.5-1.2 1.6-2.3 3.5-2.9 5.6-.1.2-.1.5-.1.5 0 .1.1-.1.2-.3.9-2 1-2.1 1.5-3.2.1-.1.1-.3.2-.4 0-.1.1-.3.2-.4.5-.9 1-1.8 1.7-2.7.5-1 1.2-1.8 1.8-2.6.1 0 .1 0 0 0z"/><path d="m48.7 68c-1 1.1-1.9 2.3-2.7 3.5-1.2 1.6-2.3 3.5-3 5.6-.1.2-.1.5-.1.5 0 .1.1-.1.2-.3.9-2 1-2.2 1.5-3.3.1-.1.1-.3.2-.4 0-.1.1-.3.2-.4.5-1 1.1-1.9 1.7-2.7.6-.9 1.3-1.7 2-2.5 0-.1 0-.1 0 0z"/><path d="m48.7 61.8c-.7.4-1.3 1.1-1.6 1.9-.6 1-.6 2.6-.1 4 0 .2.1.3.2.3s.1-.1 0-.3c-.1-.7-.3-1.5-.3-2.3 0-.1 0-.2 0-.3s0-.2 0-.3c.1-.7.2-1.3.5-1.8.4-.5.8-.9 1.3-1.2 0 0 .1 0 0 0z"/><path d="m48.5 61.5c-.8.4-1.4 1.2-1.8 2.1-.6 1.1-.6 2.8-.1 4.2 0 .2.1.3.2.3s.1-.1 0-.3c-.1-.8-.3-1.6-.4-2.4 0-.1 0-.2 0-.3s0-.2 0-.3c.1-.7.2-1.4.6-2 .5-.5 1-1 1.5-1.3.1 0 .1 0 0 0z"/><path d="m48.4 61.2c-.9.5-1.5 1.3-1.9 2.3-.7 1.2-.6 3-.1 4.4 0 .2.1.3.2.3s.1-.1 0-.3c-.2-.8-.3-1.6-.4-2.5 0-.1 0-.2 0-.3s0-.2 0-.3c.1-.8.3-1.5.6-2.1.4-.6.9-1.2 1.6-1.5z"/><path d="m48.2 60.9c-1 .5-1.7 1.4-2.1 2.5-.7 1.3-.6 3.2-.1 4.7.1.2.1.3.2.3s.1-.1 0-.3c-.2-.8-.3-1.7-.4-2.6 0-.1 0-.2 0-.3s0-.2 0-.3c.1-.8.3-1.6.7-2.3.5-.8 1-1.3 1.7-1.7 0 0 .1 0 0 0 .1-.1 0-.1 0 0z"/><path d="m48 60.5c-1.1.6-1.8 1.6-2.3 2.6-.7 1.5-.7 3.3-.1 4.9.1.2.2.3.2.4.1 0 .1-.1 0-.3-.2-.8-.3-1.7-.4-2.7 0-.1 0-.2 0-.4 0-.1 0-.2 0-.3.1-.8.3-1.7.7-2.4.6-.7 1.2-1.3 1.9-1.8.1.1.1 0 0 0 .1 0 .1 0 0 0z"/><path d="m42.6 84.4c-.4-.3-.7-.6-1-1-.3-.6-.6-1.2-.9-1.8 0-.1-.1-.1-.1-.1-.1 0-.1.1 0 .2.1.4.2.7.5 1 0 0 0 .1.1.1 0 0 .1.1.1.1.2.3.4.5.7.8 0 .3.3.5.6.7z"/><path d="m42.8 84.1c-.3-.3-.7-.6-.9-.9-.3-.6-.5-1.1-.9-1.7 0-.1-.1-.1-.1-.1-.1 0-.1.1-.1.2.1.4.2.7.5 1 0 0 0 .1.1.1 0 0 .1.1.1.1.2.3.4.5.6.7s.4.4.7.6z"/><path d="m43 83.8c-.3-.3-.6-.6-.9-.9-.2-.6-.5-1.1-.8-1.6 0-.1-.1-.1-.1-.1-.1 0-.1.1-.1.1 0 .3.2.7.4.9 0 0 0 .1.1.1 0 0 .1.1.1.1.2.3.4.5.6.7.2.3.5.5.7.7z"/><path d="m43.2 83.5c-.3-.3-.6-.5-.8-.9-.2-.5-.5-1-.8-1.5 0-.1-.1-.1-.1-.1-.1 0-.1.1-.1.1 0 .3.2.6.4.9 0 0 0 .1.1.1 0 0 .1.1.1.1.2.3.4.4.6.7s.4.4.6.6z"/><path d="m43.4 83.2c-.3-.2-.6-.5-.8-.8-.2-.5-.4-1-.7-1.4 0-.1-.1-.1-.1-.1-.1 0-.1.1-.1.1 0 .3.2.6.4.8 0 0 0 .1.1.1 0 0 .1.1.1.1.2.2.3.4.5.6.2.3.4.5.6.6 0 .1 0 .1 0 0z"/><path d="m44.4 83.6c-.4-.4-.9-.8-1.2-1.2-.3-.7-.7-1.4-1-2.2 0-.1-.1-.2-.1-.2-.1 0-.1.1-.1.2 0 .4.2.9.5 1.3 0 0 .1.1.1.2 0 0 .1.1.1.1.2.4.5.7.8 1 .2.3.5.5.9.8-.1 0 0 0 0 0z"/><path d="m44.6 83.3c-.4-.3-.8-.7-1.1-1.2-.7-1.5-.7-1.6-.9-2.1 0-.1-.1-.2-.1-.2-.1 0-.1.1-.1.2 0 .4.2.9.4 1.2 0 0 0 .1.1.1 0 0 .1.1.1.1.2.3.5.6.7.9.3.5.5.7.9 1z"/><path d="m44.8 83c-.4-.3-.8-.7-1-1.1-.6-1.4-.6-1.5-.8-2 0-.1-.1-.1-.1-.1-.1 0-.1.1-.1.2 0 .4.2.8.4 1.2 0 0 0 .1.1.1 0 0 .1.1.1.1.2.3.4.6.7.9.1.2.4.5.7.7z"/><path d="m45 82.7c-.4-.3-.7-.6-1-1-.6-1.3-.6-1.4-.8-1.8 0-.1-.1-.1-.1-.1-.1 0-.1.1-.1.1 0 .4.1.8.4 1.1 0 0 0 .1.1.1 0 0 .1.1.1.1.2.3.4.6.6.8.2.3.5.5.8.7z"/><path d="m45.2 82.4c-.3-.3-.7-.6-.9-1-.2-.6-.5-1.2-.7-1.7 0-.1-.1-.1-.1-.1-.1 0-.1.1-.1.1 0 .4.1.7.4 1 0 0 0 .1.1.1 0 0 .1.1.1.1.2.3.4.5.6.8.1.3.3.5.6.7z"/><path d="m30.9 81.1c1-.2 1.9-.4 2.9-.5 1.3 0 2.8.1 4.2.2h.4s-.1-.1-.2-.1c-.7-.2-1.6-.3-2.4-.2-.2 0-.2 0-.3 0s-.2 0-.3 0c-.7 0-1.4.1-2.2.2-.8 0-1.4.2-2.1.4-.1-.1-.1-.1 0 0-.1 0-.1 0 0 0z"/><path d="m31 81.4c.9-.2 1.9-.4 2.8-.5 1.3 0 2.7.1 4.1.2h.4s-.1-.1-.2-.1c-.7-.2-1.5-.3-2.4-.2-.2 0-.2 0-.3 0s-.2 0-.3 0c-.7 0-1.4.1-2.1.2s-1.4.2-2 .4c-.1 0-.1 0 0 0z"/><path d="m31.1 81.8c.9-.2 1.9-.4 2.8-.5 1.3 0 2.7.1 4.1.2h.3s-.1-.1-.2-.1c-.7-.2-1.5-.3-2.3-.2-.2 0-.2 0-.3 0s-.2 0-.3 0c-.7 0-1.4.1-2.1.2-.7 0-1.4.2-2 .4-.1-.1-.1-.1 0 0-.1 0-.1 0 0 0z"/><path d="m31.1 82.1c.9-.2 1.8-.4 2.7-.5 1.3.1 2.6.1 4 .2h.3s-.1-.1-.2-.1c-.7-.2-1.5-.3-2.3-.2-.2 0-.2 0-.3 0s-.2 0-.3 0c-.7 0-1.3.1-2 .2-.6.1-1.2.2-1.9.4z"/><path d="m31.2 82.4c.9-.2 1.8-.4 2.7-.4 2.6.1 3 .2 3.9.2h.3s-.1-.1-.2-.1c-.7-.2-1.4-.3-2.2-.2-.2 0-.2 0-.3 0s-.2 0-.3 0c-.7 0-1.3.1-2 .2-.6 0-1.2.2-1.9.3z"/><path d="m65.9 64.8c-.6 1-1.3 1.9-1.9 2.9-1 1.2-2.1 2.5-3.1 3.9-.1.2-.2.3-.2.4s.1 0 .3-.2c.6-.6 1.2-1.4 1.8-2.2.1-.1.2-.2.2-.3s.1-.2.2-.3c.5-.7 1-1.4 1.4-2.1.5-.7.7-1.1 1.3-2.1.1 0 .1 0 0 0z"/><path d="m65.6 64.6c-.6 1-1.2 1.9-1.9 2.8-1 1.2-2.1 2.5-3.1 3.9-.1.2-.2.3-.2.4s.1 0 .3-.2c.6-.6 1.2-1.4 1.8-2.2.1-.1.2-.2.2-.3s.1-.2.2-.3c.5-.7 1-1.4 1.4-2.1.5-.6.7-1 1.3-2 .1.1.1 0 0 0 .1 0 .1 0 0 0z"/><path d="m65.3 64.5c-.6 1-1.2 1.9-1.9 2.8-1 1.2-2.1 2.5-3.1 3.9-.1.2-.2.3-.2.4s.1 0 .3-.2c.6-.6 1.2-1.4 1.7-2.2.1-.1.2-.2.2-.3s.1-.2.2-.3c.5-.7.9-1.4 1.4-2.1.6-.7.8-1.1 1.4-2 .1 0 .1-.1 0 0 .1-.1.1-.1 0 0z"/><path d="m65 64.3c-.6 1-1.2 1.9-1.9 2.8-1 1.2-2.1 2.5-3.1 3.8-.1.2-.2.3-.2.4s.1 0 .3-.2c.6-.6 1.2-1.4 1.7-2.2.1-.1.2-.2.2-.3s.1-.2.2-.3c.5-.7.9-1.4 1.4-2 .6-.7.8-1.1 1.4-2 .1 0 .1-.1 0 0 .1-.1 0-.1 0 0z"/><path d="m64.7 64.1c-.6 1-1.2 1.9-1.9 2.8-1 1.1-2.1 2.5-3 3.8-.1.2-.2.3-.2.4s.1 0 .3-.2c.6-.6 1.2-1.4 1.7-2.2.1-.1.2-.2.2-.3s.1-.2.2-.3c.5-.7.9-1.3 1.4-2s.7-1.1 1.3-2c.1 0 .1 0 0 0 .1-.1 0 0 0 0z"/><path d="m70.4 65.4c-.8.8-1.6 1.7-2.4 2.5-1.2 1.1-2.3 2.4-3.3 3.9-.1.2-.2.3-.2.4s.1 0 .3-.2c.6-.7 1.2-1.4 1.8-2.2.1-.1.2-.2.2-.3s.1-.2.2-.3c.6-.7 1.1-1.3 1.7-2 .5-.5 1.1-1.1 1.7-1.8z"/><path d="m70.1 65.2c-.8.8-1.6 1.7-2.4 2.6-1.2 1.1-2.3 2.4-3.3 3.9-.1.2-.2.3-.2.4s.1 0 .3-.2c.6-.7 1.2-1.4 1.8-2.3.1-.1.2-.2.2-.3s.1-.2.2-.3c.6-.7 1.1-1.3 1.7-2 .6-.6 1.1-1.2 1.7-1.8 0 0 .1 0 0 0z"/><path d="m69.9 65c-.8.8-1.6 1.7-2.5 2.6-1.2 1.1-2.4 2.4-3.3 3.9-.1.2-.2.3-.2.4s.1 0 .3-.2c.6-.7 1.2-1.4 1.8-2.3.1-.1.2-.2.2-.3s.1-.2.2-.3c.6-.7 1.1-1.3 1.7-2 .6-.6 1.2-1.2 1.8-1.8 0-.1 0-.1 0 0z"/><path d="m69.6 64.7c-.8.8-1.7 1.7-2.5 2.6-1.2 1.1-2.4 2.4-3.4 3.9-.1.2-.2.3-.2.4s.1 0 .3-.2c.6-.7 1.2-1.5 1.8-2.3.1-.1.2-.2.2-.3s.1-.2.2-.3c.6-.7 1.1-1.3 1.7-2 .7-.5 1.3-1.2 1.9-1.8 0 0 .1 0 0 0z"/><path d="m69.3 64.5c-.9.8-1.7 1.7-2.5 2.6-1.2 1.1-2.4 2.5-3.4 4-.1.2-.2.4-.2.4 0 .1.1 0 .3-.2.6-.7 1.2-1.5 1.8-2.3.1-.1.2-.2.2-.3s.1-.2.2-.3c.6-.7 1.1-1.3 1.7-2 .8-.7 1.3-1.3 1.9-1.9.1 0 .1-.1 0 0 .1-.1.1-.1 0 0z"/><path d="m72 67.6c-.9.6-1.8 1.3-2.8 1.8-1.4.7-2.8 1.5-4.2 2.4-.2.1-.3.2-.3.3s.1 0 .3-.1c.8-.3 1.6-.8 2.4-1.3.2-.1.2-.1.3-.2.1 0 .2-.1.3-.2.7-.4 1.4-.9 2-1.3.7-.5 1.1-.7 2-1.4z"/><path d="m71.8 67.3c-.9.6-1.8 1.3-2.8 1.8-1.3.7-2.8 1.5-4.2 2.4-.2.1-.3.2-.3.3s.1 0 .3-.1c.8-.3 1.6-.8 2.4-1.3.2-.1.2-.1.3-.2.1 0 .2-.1.3-.2.7-.4 1.3-.9 2-1.3.7-.5 1.1-.7 2-1.4z"/><path d="m71.5 67c-.9.6-1.8 1.3-2.7 1.8-1.3.7-2.8 1.5-4.1 2.3-.2.1-.3.2-.3.3s.1 0 .3-.1c.8-.3 1.6-.8 2.4-1.3.1-.1.2-.1.3-.2.1 0 .2-.1.3-.2.7-.4 1.3-.9 2-1.3.6-.4 1-.6 1.8-1.3.1.1.1 0 0 0 .1 0 .1 0 0 0z"/><path d="m71.3 66.8c-.9.6-1.8 1.3-2.7 1.8-1.3.7-2.7 1.5-4.1 2.3-.2.1-.3.2-.3.3s.1 0 .3-.1c.8-.3 1.6-.8 2.3-1.3.1-.1.2-.1.3-.2.1 0 .2-.1.3-.2.7-.4 1.3-.9 2-1.3s1.1-.7 1.9-1.3c.1 0 .1 0 0 0 .1-.1.1-.1 0 0z"/><path d="m71.1 66.5c-.9.6-1.8 1.3-2.7 1.8-1.3.7-2.7 1.5-4.1 2.3-.2.1-.3.2-.3.3s.1 0 .3-.1c.8-.3 1.6-.8 2.3-1.3.1-.1.2-.1.3-.2.1 0 .2-.1.3-.2.7-.4 1.3-.9 2-1.3s1-.7 1.9-1.3c.1 0 .1 0 0 0 .1-.1 0 0 0 0z"/><path d="m74 68.8c-.8.6-1.7 1.1-2.7 1.5-1.3.4-2.7.8-4.1 1.3-.2 0-.3.1-.3.2s.1.1.3 0c.7-.1 1.5-.3 2.3-.7.2-.1.2-.1.3-.1s.2-.1.3-.1c.7-.3 1.4-.6 2-.9.7-.4 1.3-.8 1.9-1.2 0 0 .1 0 0 0 .1-.1 0-.1 0 0z"/><path d="m73.8 68.5c-.8.6-1.7 1.1-2.6 1.5-1.3.4-2.7.8-4 1.3-.2 0-.3.1-.3.2s.1.1.3 0c.7-.1 1.5-.3 2.3-.7.2-.1.2-.1.3-.1s.2-.1.3-.1c.7-.2 1.3-.6 2-.9.5-.4 1.1-.8 1.7-1.2 0-.1 0 0 0 0z"/><path d="m73.6 68.2c-.8.6-1.6 1.1-2.5 1.4-1.3.4-2.6.8-4 1.3-.2 0-.3.1-.3.2s.1.1.3 0c.7-.1 1.5-.3 2.3-.7.2-.1.2-.1.3-.1s.2-.1.3-.1c.7-.2 1.3-.5 2-.9.4-.3 1-.7 1.6-1.1z"/><path d="m73.3 67.9c-.8.6-1.6 1-2.5 1.4-1.2.4-2.6.7-4 1.2-.2 0-.3.1-.3.2s.1.1.3 0c.7-.1 1.5-.3 2.3-.7.2-.1.2-.1.3-.1s.2-.1.3-.1c.7-.2 1.3-.5 1.9-.9.6-.2 1.2-.6 1.7-1 .1 0 .1 0 0 0z"/><path d="m73.1 67.6c-.7.5-1.6 1-2.4 1.4-1.2.4-2.6.7-3.9 1.2-.2 0-.3.1-.3.2s.1.1.3 0c.7-.1 1.5-.3 2.3-.7.1-.1.2-.1.3-.1s.2-.1.3-.1c.7-.2 1.3-.5 1.9-.8.5-.3 1-.7 1.5-1.1.1 0 .1 0 0 0z"/><path d="m77 69.4c-.6.4-1.2.8-1.8 1.2-.9.4-1.8.9-2.6 1.6-.1.1-.2.2-.2.2 0 .1.1 0 .2 0 .5-.2 1-.5 1.4-.9.1 0 .1-.1.2-.1s.1-.1.2-.1c.7-.5.7-.5 1.3-.9.6-.5.7-.5 1.3-1 .1 0 .1 0 0 0z"/><path d="m76.8 69.1c-.6.4-1.1.8-1.7 1.2-.9.4-1.8.9-2.6 1.6-.1.1-.2.2-.2.2 0 .1.1 0 .2 0 .5-.2 1-.5 1.4-.9.1 0 .1-.1.2-.1s.1-.1.2-.1c.7-.5.7-.5 1.2-.9s.6-.5 1.3-1z"/><path d="m76.6 68.8c-.6.4-1.1.8-1.7 1.1-.9.4-1.7.9-2.5 1.6-.1.1-.2.2-.2.2 0 .1.1 0 .2 0 .5-.2 1-.5 1.4-.9.1 0 .1-.1.2-.1s.1-.1.2-.1c.7-.5.7-.5 1.2-.9.4-.3.5-.4 1.2-.9z"/><path d="m76.4 68.5c-.6.4-1.1.8-1.7 1.1-.9.4-1.7.9-2.5 1.5-.1.1-.2.2-.2.2 0 .1.1 0 .2 0 .5-.2 1-.5 1.4-.9.1 0 .1-.1.2-.1s.1-.1.2-.1c.7-.5.7-.5 1.2-.9.4-.2.5-.3 1.2-.8z"/><path d="m76.1 68.3c-.6.4-1.1.8-1.7 1.1-.9.4-1.7.9-2.5 1.5-.1.1-.2.2-.2.2 0 .1.1 0 .2 0 .5-.2 1-.5 1.4-.9.1 0 .1-.1.2-.1s.1-.1.2-.1c.7-.5.7-.5 1.2-.9.5-.3.6-.4 1.2-.8.1 0 .1 0 0 0 .1-.1 0-.1 0 0z"/><path d="m78.1 71.4c-.2.2-.5.5-.7.7-.4.2-.8.5-1.1.8 0 0-.1.1 0 .1 0 0 .1.1.1 0 .2-.1.5-.3.6-.5 0 0 0 0 .1-.1 0 0 0-.1.1-.1.2-.2.3-.3.5-.5.1 0 .3-.2.4-.4.1 0 .1 0 0 0z"/><path d="m77.9 71.2c-.2.2-.5.4-.7.6-.4.2-.8.4-1.1.8 0 0-.1.1 0 .1 0 0 .1.1.1 0 .2-.1.4-.3.6-.5 0 0 0 0 .1-.1 0 0 0-.1.1-.1.2-.2.3-.3.5-.5.1 0 .2-.1.4-.3z"/><path d="m77.6 71c-.2.2-.4.4-.7.6-.4.2-.8.4-1.1.8 0 0-.1.1 0 .1 0 0 .1.1.1 0 .2-.1.4-.3.6-.5 0 0 0 0 .1-.1 0 0 0-.1.1-.1l.5-.5c.1 0 .2-.1.4-.3z"/><path d="m77.3 70.8c-.2.2-.4.4-.7.6-.4.2-.8.4-1 .8v.1s.1.1.1 0c.2-.1.4-.2.6-.5 0 0 0 0 .1-.1 0 0 0-.1.1-.1.2-.1.3-.3.5-.5 0 0 .2-.2.3-.3z"/><path d="m77 70.5c-.2.2-.4.4-.7.6-.4.1-.8.4-1 .7v.1s.1.1.1 0c.2-.1.4-.2.6-.4 0 0 0 0 .1-.1 0 0 0-.1.1-.1.2-.1.3-.3.5-.5 0 0 .2-.1.3-.3.1.1.1 0 0 0z"/><path d="m78.1 75.6c-.3.1-.6.2-.8.2-.4-.1-.8-.2-1.2-.1 0 0-.1 0-.1.1s0 .1.1.1c.2.1.5.2.7.1h.1.1c.2 0 .4-.1.6-.1.2-.1.3-.2.5-.3.1.1.1.1 0 0 .1.1.1 0 0 0z"/><path d="m78 75.3c-.3.1-.5.1-.8.1-.4-.1-.7-.2-1.1-.1 0 0-.1 0-.1.1s0 .1.1.1c.2.1.4.2.6.1h.1.1c.2 0 .4-.1.6-.1s.3-.1.5-.2z"/><path d="m77.9 75c-.2.1-.5.1-.7.1-.4-.1-.7-.2-1-.2 0 0-.1 0-.1.1s0 .1.1.1c.2.1.4.2.6.1h.1.1c.2 0 .4-.1.5-.1s.2-.1.4-.1z"/><path d="m77.8 74.6c-.2.1-.4.1-.7.1-.3-.1-.6-.2-.9-.2 0 0-.1 0-.1.1v.1c.2.1.4.2.5.1h.1.1c.2 0 .3 0 .5-.1.2.1.3 0 .5-.1 0 .1 0 .1 0 0z"/><path d="m77.6 74.3c-.2.1-.4.1-.6.1-.3-.1-.6-.2-.8-.2 0 0-.1 0-.1.1v.1c.1.1.3.2.5.1h.1.1c.2 0 .3 0 .4-.1.2 0 .3 0 .4-.1 0 0 .1 0 0 0z"/><path d="m76 81.8c-.1-.1-.2-.2-.3-.3-.1-.3-.2-.4-.4-.5h-.1v.1c0 .1.1.2.3.3.1.1.2.1.3.2 0 .1.1.1.2.2z"/><path d="m76.2 81.5c-.1-.1-.2-.2-.3-.3-.1-.3-.2-.4-.4-.5h-.1v.1c0 .1.1.2.3.3.1.1.2.1.3.2 0 .1.1.1.2.2z"/><path d="m76.4 81.1c-.1-.1-.2-.2-.3-.3-.1-.3-.2-.4-.4-.5h-.1v.1c0 .1.1.2.3.3.1.1.2.1.3.2 0 .2.1.2.2.2-.1.1 0 .1 0 0 0 .1 0 .1 0 0z"/><path d="m76.5 80.8c-.1-.1-.2-.2-.3-.3-.1-.3-.2-.4-.4-.5h-.1v.1c0 .1.1.2.3.3.1.1.2.1.3.2s.2.2.2.2c0 .1 0 .1 0 0 0 .1.1 0 0 0z"/><path d="m76.7 80.5c-.1-.1-.2-.2-.3-.3-.1-.3-.2-.4-.4-.5h-.1v.1c0 .1.1.2.3.3.1.1.2.1.3.2 0 .1.1.2.2.2 0 .1 0 .1 0 0z"/><path d="m76 83.5c-.2-.1-.4-.3-.5-.4-.1-.3-.4-.6-.7-.7h-.1v.1c.1.2.2.3.4.4h.1.1c.1.1.3.2.4.3 0 .2.1.3.3.3 0 .1 0 .1 0 0z"/><path d="m76.2 83.2c-.2-.1-.4-.3-.5-.4-.1-.3-.4-.6-.7-.7h-.1v.1c.1.2.2.3.4.4h.1.1c.1.1.3.2.4.3 0 .2.1.3.3.3-.1.1 0 .1 0 0 0 .1 0 .1 0 0z"/><path d="m76.4 82.9c-.2-.1-.4-.3-.5-.4-.1-.3-.4-.6-.7-.7h-.1v.1c.1.2.2.3.4.4h.1.1c.1.1.3.2.4.3 0 .2.1.3.3.3-.1.1-.1.1 0 0 0 .1 0 .1 0 0z"/><path d="m76.6 82.6c-.2-.1-.4-.3-.5-.4-.1-.3-.4-.6-.7-.7h-.1v.1c.1.2.2.3.4.4h.1.1c.1.1.3.2.4.3 0 .2.1.3.3.3-.1.1-.1.1 0 0 0 .1 0 .1 0 0z"/><path d="m76.7 82.3c-.2-.1-.4-.3-.5-.4-.1-.3-.4-.6-.7-.7h-.1v.1c.1.2.2.3.4.4h.1.1c.1.1.3.2.4.3.1.2.2.3.3.3 0 .1 0 .1 0 0 0 .1.1.1 0 0z"/><path d="m75.7 86c-.2-.1-.5-.2-.7-.4-.2-.3-.4-.6-.7-.9h-.1s-.1.1 0 .1c.1.2.2.4.4.5 0 0 0 0 .1.1h.1c.1.1.3.2.5.3 0 .2.2.2.4.3-.1 0 0 0 0 0z"/><path d="m75.8 85.7c-.2-.1-.4-.2-.6-.4-.2-.3-.4-.6-.6-.8h-.1s-.1.1 0 .1c.1.2.2.4.4.5 0 0 0 0 .1.1h.1c.1.1.3.2.4.3 0 0 .1.1.3.2z"/><path d="m75.9 85.3c-.2-.1-.4-.2-.6-.4-.1-.3-.3-.6-.6-.7h-.1s-.1.1 0 .1c0 .2.2.3.3.4h.1.1c.1.1.3.2.4.3.1.2.3.3.4.3 0 .1 0 .1 0 0z"/><path d="m76 85c-.2-.1-.4-.2-.5-.3-.1-.3-.3-.5-.5-.7h-.1s-.1.1 0 .1c0 .2.1.3.3.4h.1c.1.1.2.2.4.2.1.2.2.2.3.3z"/><path d="m76.2 84.7c-.2-.1-.3-.2-.4-.3-.1-.3-.2-.5-.4-.6h-.1s-.1.1 0 .1c0 .2.1.3.3.4.1.1.2.1.3.2 0 .1.1.1.3.2-.1 0 0 0 0 0z"/><path d="m75.4 88.2c-.2-.1-.4-.1-.6-.2-.2-.3-.4-.5-.6-.6h-.1s-.1.1 0 .1c.1.2.2.3.4.4h.1.1c.1.1.3.1.4.2-.1.1.1.1.3.1 0 .1 0 .1 0 0z"/><path d="m75.4 87.9c-.2 0-.4-.1-.5-.2-.2-.3-.3-.5-.5-.6h-.1s-.1.1 0 .1c0 .2.1.3.3.3h.1c.1.1.2.1.4.2 0 .2.2.2.3.2z"/><path d="m75.5 87.5c-.2 0-.3-.1-.4-.2-.1-.3-.2-.4-.4-.5h-.1s-.1.1 0 .1c0 .2.1.3.3.3.1.1.2.1.3.1 0 .2.1.2.3.2 0 .1 0 .1 0 0z"/><path d="m75.5 87.2c-.1 0-.3-.1-.4-.2-.1-.2-.2-.4-.3-.4 0 0 0 0-.1 0 0 0-.1.1 0 .1 0 .1.1.2.2.3.1.1.2.1.3.1.1.1.2.1.3.1z"/><path d="m75.6 86.8c-.1 0-.2-.1-.3-.2-.1-.2-.1-.4-.2-.4 0 0 0 0-.1 0 0 0-.1.1-.1.1 0 .1 0 .2.1.2.1.1.1.1.2.1.2.2.3.2.4.2 0 .1 0 .1 0 0z"/><path d="m53.8 76.8c0 .7 0 1.4-.1 2.1-.2 1-.3 2-.2 3.1 0 .1 0 .2.1.3.1 0 .1-.1.1-.2.1-.5.1-1.1.1-1.7 0-.1 0-.1 0-.2s0-.1 0-.2c0-.5 0-1 0-1.6s0-1.1 0-1.6c0-.1 0 0 0 0z"/><path d="m53.4 76.8c0 .7 0 1.4-.1 2.1-.2 1-.3 2-.2 3.1 0 .1 0 .2.1.3.1 0 .1-.1.1-.2.1-.5.1-1.1.1-1.7 0-.1 0-.1 0-.2s0-.1 0-.2c0-.5 0-1 0-1.6s0-1.1 0-1.6c.1 0 .1 0 0 0 0-.1 0 0 0 0z"/><path d="m53.1 76.8c0 .7 0 1.4-.1 2.1-.2 1-.3 2-.2 3.1 0 .1 0 .2.1.3.1 0 .1-.1.1-.2.1-.5.1-1.1.1-1.7 0-.1 0-.1 0-.2s0-.1 0-.2c0-.5 0-1 0-1.6s0-1.1 0-1.6c0-.1 0 0 0 0z"/><path d="m52.7 76.8c0 .7 0 1.4-.1 2.1-.2 1-.3 2-.2 3.1 0 .1 0 .2.1.3.1 0 .1-.1.1-.2.1-.5.1-1.1.1-1.7 0-.1 0-.1 0-.2s0-.1 0-.2c0-.5 0-1 0-1.6s0-1.1 0-1.6c0-.1 0 0 0 0z"/><path d="m52.4 76.8c0 .7 0 1.4-.1 2.1-.2 1-.3 2-.2 3.1 0 .1 0 .2.1.3.1 0 .1-.1.1-.2.1-.5.1-1.1.1-1.7 0-.1 0-.1 0-.2s0-.1 0-.2c0-.5 0-1 0-1.6s0-1.1 0-1.6c0-.1 0 0 0 0z"/><path d="m57.6 71c-.1.7-.1 1.3-.2 2-.3.9-.4 1.9-.4 2.9 0 .1 0 .2.1.3.1 0 .1-.1.1-.2.1-.5.2-1.1.2-1.6 0-.1 0-.1 0-.2s0-.1 0-.2c.1-.8.1-.8.1-1.5 0-.6 0-.7.1-1.5 0-.1 0 0 0 0z"/><path d="m57.2 71c-.1.7-.1 1.3-.2 2-.3.9-.4 1.9-.4 2.9 0 .1 0 .2.1.3.1 0 .1-.1.1-.2.1-.5.2-1.1.2-1.6 0-.1 0-.1 0-.2s0-.1 0-.2c.1-.8.1-.8.1-1.5 0-.6 0-.7.1-1.5 0-.1 0-.1 0 0z"/><path d="m56.8 70.9c-.1.7-.1 1.3-.2 2-.3.9-.4 1.9-.4 2.9 0 .1 0 .2.1.3.1 0 .1-.1.1-.2.1-.5.2-1.1.2-1.6 0-.1 0-.1 0-.2s0-.1 0-.2c.1-.8.1-.8.1-1.5.1-.5.1-.7.1-1.5.1 0 .1 0 0 0z"/><path d="m56.5 70.9c-.1.7-.1 1.3-.2 2-.3.9-.4 1.9-.4 2.9 0 .1 0 .2.1.3.1 0 .1-.1.1-.2.1-.5.2-1.1.2-1.6 0-.1 0-.1 0-.2s0-.1 0-.2c.1-.8.1-.8.1-1.5 0-.6 0-.7.1-1.5z"/><path d="m56.1 70.9c-.1.7-.1 1.3-.2 2-.3.9-.4 1.9-.4 2.8 0 .1 0 .2.1.2s.1-.1.1-.2c.1-.5.2-1 .2-1.6 0-.1 0-.1 0-.2s0-.1 0-.2c.1-.7.1-.7.1-1.4.1-.5.1-.6.1-1.4.1 0 .1 0 0 0z"/></g></svg>