<svg enable-background="new 0 0 100 100" viewBox="0 0 100 100" xmlns="http://www.w3.org/2000/svg"><path d="m37.6 23.4c-.4 0 0 1 .6 2.3s2.9 1.6 4 2c0-1.8-1.5-4-4.6-4.3z" fill="#b2a740"/><path d="m38 24.9c-.1 0-.2-.1-.3-.3s-.1-.4 0-.5c.1-.2.3-.3.5-.3s.4 0 .6.1c.3.1.6.3.8.6.1.2.3.4.2.6 0 .1-.1.2-.2.3s-.3.2-.4.2-.2 0-.3 0c-.2-.1-.4-.3-.5-.5z" fill="#b2a740" opacity=".6"/><path d="m57.4 21.2v.2c0 .7-1.4 1.7-1.1 2s1.3.7 1.5.5c.1-.1.6-.9 1.1-1.6-.5-.3-1-.7-1.5-1.1z" fill="#fff203"/><path d="m58.7 22.2c-.4.8-1.3 1.6-1.8 1.6.4.1.7.2.8.2.1-.1.6-.9 1.1-1.6 0-.1-.1-.1-.1-.2z" fill="#fff203" opacity=".5"/><circle cx="56.9" cy="23" fill="#1a1a1a" r=".4"/><path d="m56.5 25.9c0-1.2.2-3.1.2-3.1.1 0-.1 2-.2 3.1.1 0 .1 0 0 0z" fill="#1a1a1a"/><path d="m51.5 32.2s-.3.3-1.4 2.1-3.2 3.5-1.6 4.4 3.1-.2 3.5-1.1c.5-.8.9-5.8-.5-5.4z" fill="#a799e6"/><path d="m40.5 31.4s.1.1.7-.3 2.3-2.6 2-2.6-2.3 1.9-2.7 2.9z" fill="#9e996a"/><path d="m34.4 28.6c-.1-.4.5-.6 1.8 0s2.1 1.9 2.4 3c-1.8.2-4-2.4-4.2-3z" fill="#b2a740"/><path d="m47.5 37.1c3 2.9 10.7 1.7 12.5 1 2.6-1 3.4-6.7-2.9-6-1.3.1-4 .6-5.4.8z" fill="#cdb3ed"/><path d="m51.6 32.9c-3.4-1.9-8.4-3.7-10.6-5.7-1.2-.2-2.5 1.4-1.7 2.5.6.9 8.4 9 12.5 9.5z" fill="#cdb3ed"/><path d="m51.6 32.9s.2 1.1-2.8 4.9c1.7 1.6 2.3 1.3 2.3 1.3l1.1-6.4z" fill="#cdb3ed" opacity=".6"/><path d="m51.5 32.2s1.5.3-2 6.5c2.1 1.1 11.8-.5 11.9-.6s-1.7-7.8-1.7-7.8z" fill="#fff203"/><path d="m57.9 31.1c.5.1.7-.1.7-.5l-7.2 1.6s.5.1.2 1.3c1.8-1.1 5-2.6 6.3-2.4z" fill="#fff203" opacity=".3"/><path d="m50.8 37.4c-2.9-.2-7.4-3.9-8.4-5.6-1.1-1.7-.1-2.3-.1-2.3l-1.4-1.5c-.3-.1-.7-.2-1-.2-.1 0-.4.4-.9 1.1 0 .3.1.5.2.8.6.9 8.4 9 12.5 9.5v-1.8c-.3 0-.6 0-.9 0z" fill="#cdb3ed" opacity=".5"/><path d="m38.6 29.9s.9.9 1.9 1.5c1.6-2.1 2.7-2.9 2.7-2.9l-2.2-1.9z" fill="#b2a740"/><path d="m43.2 28.5-1.4-1.2c-.1.2-.1.4-.3.6-.8 1.1.1-.2.6.2s-1 2.9-1.6 2.9-1-.6-.8-1.2c.2-.5-.2.1-1.1.2.2.2 1 1 1.9 1.5 1.6-2.2 2.7-3 2.7-3z" fill="#9e996a" opacity=".4"/><path d="m36.4 28.4c0 .1 1.2 2 3.2 1.7s3.3-3 .1-4.4c-3.5-1.4-3.3 2.7-3.3 2.7z" fill="#b2a740"/><g fill="#9e996a" opacity=".4"><path d="m41.6 27.8s-.1.1-.1.1c-.6.8-.3.4.1.2 0-.1 0-.2 0-.3z"/><path d="m38 29.9c.4.2 1 .3 1.6.2h.1c0-.1 0-.2.1-.3.2-.6-.5.5-1.8.1z"/></g><path d="m36.9 27.6c0 .2-.6 1.6 1.3 1.7 1.9 0 3-2.6 1.8-3.1-1.3-.6-2.7.1-3.1 1.4z" fill="#b2a740" opacity=".6"/><path d="m40.3 25.4c-.5-.5-1.1-1-1-1.7 0 .3-.2.5-.1.9.1.7.3.8.1 1.5-.2.6-.7 1.1-1.2 1.5-.5.3-1.2.5-1.7.8-.4.2-.4.6.1.8.2.1.5.1.7 0s.4-.3.3-.5c.3.1.7-.1.8-.4 0-.1 0-.1.1-.2h.1c.5-.1.8-.4 1-.8.3-.5.4-.3.9-.5.2-.1.3-.5.2-.7 0-.3-.1-.5-.3-.7z" fill="#b2a740" opacity=".6"/><path d="m39.9 32.6s.2 0-.4.9-2.1 2.4-2.2 1.9 1.3-2.6 2.6-2.8z" fill="#9e996a"/><path d="m64.9 93.8s2.2 3.4 2.1 3.8-1.2 1.6-.7 2.1 2.9.2 3.7-1-.6-4.6-.6-5.2.1-2.7-.5-3.1c-.5-.4-3.5 0-3.7.3.3 1.3-.2 2.9-.3 3.1z" fill="#fff203"/><path d="m66.9 97.9s.3.3.6-.4 0-3.5-1-3.7-.8 1.6.3 3.3c.2.5.1.8.1.8z" fill="#b2a740"/><path d="m66.5 93.9c-.7-.1-.8.7-.4 1.9.1-.3.5-1 1-.5s.5 2.4-.1 2.6v.1s.3.3.6-.4c.2-.8-.1-3.5-1.1-3.7z" fill="#b2a740" opacity=".6"/><path d="m68.9 90.4c-.5-.4-3.5 0-3.7.3 0 .1 0 .2.1.3 1.1-.3 2.9-.3 3.2 1.1.4 1.6-.5 1.3.6 3.1 1.1 1.9 1.2 3.9-1.2 4.3-.7.1-1.3.1-1.7 0 0 .1.1.2.1.2.5.5 2.9.2 3.7-1s-.6-4.6-.6-5.2c-.1-.7 0-2.7-.5-3.1z" fill="#fff203" opacity=".5"/><path d="m32.5 88.2s-.8 1.5-1.8 2.8c-.8 1.1-1.9 1.9-1.9 2.4 0 1.5 3.1.6 4.7-.8 1.6-1.5 2.3-2.1 2.5-2 .3.1 2.8-1.7 2.9-2.1-.4-1-2.6-3.2-2.8-3.4-1.1 1.7-3.6 3.1-3.6 3.1z" fill="#fff203"/><path d="m29.8 91.8s-.5.7.5.6c1 0 3-2.1 2.9-3-.1-.8-1.3-.6-1.6-.3-.3.4-1.6 2.6-1.8 2.7z" fill="#b2a740"/><path d="m29.9 92.4h.4c1 0 3-2.1 2.9-3-.1-.8-1.3-.6-1.6-.3 0 0-.1.1-.1.1.6-.2 1.2 0 1 1-.2 1.1-1.7 2-2.6 2.2z" fill="#b2a740" opacity=".5"/><path d="m36.1 90.6c.3.1 2.8-1.7 2.9-2.1-.4-1-2.6-3.2-2.8-3.4-.1.2-.3.4-.4.5l-.2 1.9s2-.5 2.3.9-1.6.9-2.3 1.6c-.6.7-2.1 2.8-4.6 3.6-.9.3-1.5.3-2 .2.5 1 3.2.1 4.7-1.2 1.5-1.5 2.2-2.1 2.4-2z" fill="#fff203" opacity=".5"/><path d="m32.7 88.1c.1.1 3.2 1.4 4.9-1.2-1.7-2-2.7-2.2-2.7-2.2z" fill="#fff203" opacity=".5"/><path d="m58.2 25.3s.7 3.8 0 4.8c-.6 1-2.6 1.6-2.9 2.1s4.2 3.6 7 3.5c1-1.6 1.7-3.1 3-4.1-.5-.6-2.6-2-3.4-5.9-1.6-3.3-3.9-1.4-3.7-.4z" fill="#cdb3ed"/><path d="m62.4 35.7c1-1.5 1.6-2.9 2.8-3.9-.1-.1-.1-.3-.2-.4-.6-.5-1.8-2-2.6-3.9l-.6-.4s1.9 2.3.2 7c-1.1 1.1-3.1-1.3-4.6-3.2-.8.6-1.9 1-2.2 1.4-.2.4 4.3 3.5 7.2 3.4z" fill="#cdb3ed" opacity=".4"/><path d="m60.6 27.5s-.8 1.3-2.1 1.1c-.1-2.5.1-4 0-3.8 0 .3 2.1 2.7 2.1 2.7z" fill="#cdb3ed" opacity=".7"/><path d="m61.6 27.2c-1.4.7-4.1.8-4.8-.6s.5-5.4 1.9-6.1 3.8 0 4.6 1.4c.7 1.4-.2 4.5-1.7 5.3z" fill="#cdb3ed"/><path d="m57.4 20.3s-1 1.1.5 1.4c.3.7 1.4.8 2 .3.7.3.4 1.3 1 1.4.6.2-.1 1.7-.4 1.7-.2.1.3.5.6.4.4 0 1.4-1.8 1.8-1.2s-.6 1.9-.9 2.3c.1.8.5 1.1.5 1.1s2.3-1.9 2.2-4-2.4-2.4-2.4-2.4-2.7-3.8-4.9-1z" fill="#1a1a1a"/><path d="m57.2 24.4c.1-.4 0-.8-.3-.9-.1.5-.2 1-.3 1.4.3 0 .5-.2.6-.5z" fill="#cdb3ed" opacity=".7"/><path d="m60.5 25.3c-.2.4-.6.6-1 .5-.4-.2-.6-.6-.5-1 .2-.4.6-.6 1-.5.5.1.7.6.5 1z" fill="#cdb3ed" opacity=".7"/><path d="m60.8 21.4s.7 1.4.7 2.2c0 .7-1.4 1.7-1.1 2s1.3.7 1.5.5c.2-.1 1.4-2.5 2.5-2.2z" fill="#fff203"/><path d="m60.9 21.6c.1.3.4.9.5 1.3.2-.1.6-.1 1.2.3 1.1.8-.9 2.7-1.6 2.7.4.1.7.2.8.2.2-.1 1.4-2.5 2.5-2.2l-3.2-2.4c0 .1-.1.1-.2.1z" fill="#fff203" opacity=".5"/><path d="m57 20.6s4.1 1.1 7.9 4c1.6-4.2-1.8-6.5-4-6.6-1.5-.1-3 .9-3.6 2.3-.3-.2-.3.3-.3.3z" fill="#fff203"/><path d="m58.7 21.2c1.5.6 4 1.7 6.2 3.4.9-2.3.1-4.2-.9-5.3.6 1 .9 2.2-.1 3.2-.9.6-2.1-.6-5.2-1.3z" fill="#fff203" opacity=".5"/><path d="m61.5 18c-.2 0-.4 0-.5 0-1.5-.1-3 .9-3.6 2.3-.4-.2-.4.3-.4.3s.5.1 1.4.5c0-.8.3-2.7 3.1-3.1z" fill="#fff203" opacity=".6"/><path d="m50.7 52.8c-.7 5.5-4.9 18.4-1.5 25.2 3.5 6.7 13.9 14 15 15.4 1.2 1.3 4-1.7 3.1-4.2-.7-1.9-3.2-7.3-8.5-12.7-3.8-4 3.5-11.5 2.4-20.5-.4-4.2-7.1-3.7-10.5-3.2z" fill="#fff203"/><path d="m65.6 93.5c0-.1 0-.2-.1-.2-.7-3.2-7-11-13-16.3s-1.8-16.2-1.8-16.2l-1.3-1.6c-1.3 6.2-2.7 14.1-.2 18.9 3.5 6.7 13.9 14 15 15.4.4.2.9.2 1.4 0z" fill="#fff203" opacity=".3"/><path d="m66.7 92.5c.7-.9 1.1-2.2.7-3.4-.7-1.9-3.2-7.3-8.5-12.7-3.9-3.9 3.4-11.4 2.3-20.4-.1-.8-.4-1.5-.9-2-1.2-.4-2.3-.7-2.6-.8l-4.6 1.8s7.8 4.9 5.6 10.9c-2.3 5.9-4.4 6.9-.7 11.1s9.3 10.1 8.7 15.5z" fill="#fff203" opacity=".5"/><path d="m54.6 50.5c-5 0-22.2 4.9-24.3 12.1-1.9 7.9 1.7 22.4 1.7 24.3s4.4 1.4 5.4-1.2c.8-2 1.8-10.2 1.2-18.3 3.6-2.9 12.3-2.8 18.2-8.1-.3-2.7.4-6.2-2.2-8.8z" fill="#fff203"/><path d="m48.3 53.1c2 .2 2.3-.7 1.7-2-7 1.5-18.1 5.8-19.7 11.4-1.9 8 1.7 22.5 1.7 24.4 0 .9.9 1.2 2.1 1.1.1-.5.3-1.3.4-2.5.3-4.4-2.3-20.7-1.4-23.3s9.5-9.6 15.2-9.1z" fill="#fff203" opacity=".3"/><path d="m37.7 65.3c-3.1.5-.4 2.6 0 11.7.3 7-1.2 9.6-1.8 10.5.7-.4 1.3-1 1.5-1.7.8-2 1.8-10.2 1.2-18.3 3.1-2.5 9.8-2.8 15.3-6.1-4.4 2.1-13.6 3.4-16.2 3.9z" fill="#fff203" opacity=".5"/><path d="m55.9 83.5s4-1.8 4.7-4.7c0-1-1-1.5-1-1.5s-.9 3-5.2 5.2c-.5 1.7 1.5 1 1.5 1z" fill="#b2a740"/><path d="m59.6 77.3s-.9 3-5.2 5.2c-.5 1.7 1.4.9 1.4.9s.4-.2 1-.5c0 0-1.1.3-1-.5.2-.8 2.2-1.8 3.2-3.4s1.7-.3.9 1.2c.3-.5.6-.9.7-1.5 0-.9-1-1.4-1-1.4z" fill="#b2a740" opacity=".5"/><path d="m63.7 92.6s3.1-1.4 3.6-3.6c0-.8-.5-1.3-.5-1.3s-.9 2.4-4.2 4.2c-.4 1.3 1.1.7 1.1.7z" fill="#b2a740"/><path d="m62.6 91.9c-.4 1.3 1.1.7 1.1.7s.6-.3 1.2-.7c0 0-.7 0-.7-.5s2.2-2.1 2.5-2.6c.2-.3.4 0 .5.5 0-.1.1-.2.1-.3 0-.8-.5-1.3-.5-1.3s-.9 2.5-4.2 4.2z" fill="#b2a740" opacity=".5"/><path d="m65.6 93.3s-9.6-11.9-12.1-14.3c-2.7-2.6-5-4-5.5-3.7-.4.3.2 3.5 2.5 6.5 1.9 2.5 13.4 11.6 14.1 12.3.5.2 1-.8 1-.8z" fill="#b2a740"/><g fill="#b2a740" opacity=".6"><path d="m63.9 91.9c.8.8 1.3 1.4 1.3 1.4s-.4-.6-1.3-1.4z"/><path d="m64.5 93.5c.1.1.1.1.1.1s0 0-.1-.1z"/><path d="m55.1 80.7-3.2 2.6c2 1.9 5.3 4.7 8 6.9s-7-5.8-6.5-6.3c.4-.4 9.9 8.4 11.1 9.5-1.2-1.1-10.4-9.8-10.1-10.5.3-.6 6.7 5.9 9.5 8.9-2.7-2.8-8.4-8.8-8.2-9.2.3-.5 9.8 10.6 9.8 10.6s-6.8-8.4-10.4-12.5z"/><path d="m52.5 80.5c-.1 1.4-1.2.9-1.2.9s.4.8-.3 1.1c.5.5 1.2 1.2 2.1 2 0-.3.1-1.1 1-.6.1-1.4.7-1.6 1.2-1-.2-.7.5-.8 1-.7-.8-.9-1.5-1.8-2.1-2.4 0-.2-.5 1.2-1.7.7z" opacity=".5"/></g><path d="m48 75.2c-.1 0-.1.2-.1.4.2-.1 1.4-.4 4.7 3.2 1.5 1.4-.1 2-3-1.4 3.8 4.8 2.1 4.8-.2 1.6.8 1.5 2.4 3.6 1.3 3.1.3.3.7.7 1.1 1.2.2-.1.3-.1.5-.3.7-.4 1.8-1.4 2.8-2.3-.7-.8-1.2-1.4-1.6-1.7-2.7-2.6-5-4.1-5.5-3.8z" fill="#b2a740" opacity=".6"/><path d="m52.1 83.6c1.2-.4 3.7-2.2 3.3-2.9-.7-1.3-3.5 1.2-4.4 1.8-.6.3 0 1.5 1.1 1.1z" fill="#b2a740"/><path d="m51 82.5c-.1 0-.1.1-.2.2.1-.2 3.9-2.7 4.2-2.1.3.5-.5 1.7-2.4 2.6-1.1.5-1.6.4-1.8.2.2.3.6.6 1.2.3 1.2-.4 3.7-2.2 3.3-2.9-.5-1.4-3.3 1.1-4.3 1.7z" fill="#b2a740" opacity=".6"/><path d="m32.7 85s3.6.5 5.3-1.3c.4-.7.2-1.5.2-1.5s-2.2 1.7-6.2 1.4c-1 1.1.7 1.4.7 1.4z" fill="#b2a740"/><path d="m32.1 83.7c-1.1 1 .6 1.3.6 1.3s.6.1 1.5 0c0 0-.7-.4-.4-.9s3.2-.7 3.8-1c.3-.2.3.3.2.7.1-.1.2-.1.2-.2.4-.7.2-1.5.2-1.5s-2.1 1.9-6.1 1.6z" fill="#b2a740" opacity=".5"/><path d="m33.2 73.2s3.9.5 5.8-1.4c.4-.8 0-1.7 0-1.7s-2.1 2-6.5 1.7c-1.2 1.1.7 1.4.7 1.4z" fill="#b2a740"/><path d="m39 70.2s-2.1 2-6.5 1.7c-1.2 1.1.7 1.4.7 1.4s.4 0 1 .1c0 0-1-.3-.5-.9s2.5-.4 4-1.2 1.5.5.2 1.4c.4-.2.9-.5 1.2-.8.3-.8-.1-1.7-.1-1.7z" fill="#b2a740" opacity=".5"/><path d="m33.5 88.2s-.3-16.3-.8-20c-.6-3.9-1.6-6.7-2.2-6.7-.6-.1-2.1 3.1-2.2 7.1-.1 3.4 3.7 18.6 3.9 19.6.3.6 1.3 0 1.3 0z" fill="#b2a740"/><g fill="#b2a740" opacity=".6"><path d="m33.1 86c.1 1.2.2 2 .2 2s-.1-.8-.2-2z"/><path d="m32.5 87.7v.2s0-.1 0-.2z"/><path d="m32.9 70.7-4.4.1c.4 2.9 1.4 7.4 2.2 11.1s-2.1-9.5-1.4-9.5c.6 0 2.9 13.6 3.2 15.3-.3-1.7-2.4-15.1-1.7-15.5.6-.3 1.8 9.4 2.2 13.8-.4-4.1-1.3-13-.9-13.1.6-.2 1.3 15.4 1.3 15.4s-.1-11.7-.5-17.6z"/><path d="m30.9 68.8c-1 1.1-1.6-.1-1.6-.1s-.2 1-.9.7c.1.8.2 1.8.4 3 .2-.3.8-.9 1.2.2 1-1.1 1.6-.9 1.7 0 .3-.7.9-.3 1.3 0-.1-1.3-.1-2.5-.2-3.4 0 0-1.2.9-1.9-.4z" opacity=".5"/></g><path d="m30.5 61.5c-.1 0-.2.1-.3.2.2.1 1.5.6 1.9 5.8.3 2.1-1.4 1.6-1.6-3.2.1 6.5-1.4 5.4-1.2 1.2-.3 1.8-.3 4.7-1 3.4 0 .5.1 1 .2 1.7.2 0 .4.1.6.1.8.1 2.5 0 3.9-.1-.1-1.1-.1-2-.2-2.5-.7-3.8-1.7-6.6-2.3-6.6z" fill="#b2a740" opacity=".6"/><path d="m28.5 71.3c1.3.4 4.6.6 4.7-.3.3-1.6-3.8-1.2-4.9-1.4-.7-.1-1 1.3.2 1.7z" fill="#b2a740"/><path d="m28.3 69.6c-.1 0-.2 0-.3 0 .2-.1 5 .3 5 1-.1.7-1.6 1.1-3.7.6-1.3-.3-1.6-.7-1.6-1 0 .4.2.9.8 1.1 1.3.4 4.6.6 4.7-.3.4-1.6-3.7-1.2-4.9-1.4z" fill="#b2a740" opacity=".6"/><path d="m63.6 29s1.3 1.5 2.1 3.4c-2.1-.1-3.3-2.1-3.3-2.1z" fill="#fff203"/><path d="m62.8 28.1s.5.7-4.2 1.8c-1.8 1.4-1.6 2.3-1.6 2.4s6.5-1.4 6.8-2.9c.1-1.3-1-1.3-1-1.3z" fill="#a799e6"/><path d="m47.5 51.9-1.4.4s7 7.3 15.1 8.1c.9-5-1.1-8.2-1.1-8.2z" fill="#fff203" opacity=".7"/><path d="m54.6 33.5c-3.5 5.2-4.3 9.7-7.2 17.3-3.5 2.6 12.5 7.7 14 8.6 1.6.8 2.2-3.5 4.8-19.8 1.9-12-7.5-12.2-11.6-6.1z" fill="#fff203"/><path d="m49.6 51.9c-.7-.9.8-7.9 2.2-13.2-1.5 3.4-2.5 7-4.4 12-.9.6-.5 1.5.5 2.3 1.5 0 2.5 0 1.7-1.1z" fill="#fff203" opacity=".3"/><path d="m66.3 39.4c.1-.9.2-1.7.2-2.4-.2.3 0 6.1-10.5 11.6-4.8 2.5-3.3 4.3-5 6.3 4 2 9.5 3.9 10.4 4.3 1.6.9 2.2-3.4 4.9-19.8z" fill="#fff203" opacity=".5"/><path d="m49.5 37.3s-.4-.1.6 2.1 2 6.2 3 5.6c1.5-.9.3-9.2-3.6-7.7z" fill="#a799e6"/><path d="m53.5 34.4c-1 .9-2.8 2.5-3.9 3.5-3.4-1.9-8.4-3.3-10.6-5.3-1.2-.2-2.5 1.4-1.7 2.5.6.9 8.4 9 12.5 9.5s8.6-5.4 9.7-7.1c1.4-2.3-1.2-7.4-6-3.1z" fill="#cdb3ed"/><path d="m56.6 40.5s-2.2 3.4-5.4 3.1c-1.4-1.4-2.7-.2-3.6-.3-.8-.1-5.3-2.9-7.7-5.8-2.5-2.9-.9-4.1-.9-4.1l-1.4-.2c-.5.5-.7 1.3-.3 1.9.6.9 8.4 9 12.5 9.5 2.2.3 4.5-1.3 6.4-3.1.2-.6.4-1 .4-1z" fill="#cdb3ed" opacity=".6"/><path d="m49.8 37.7s1.9-.2 3.2 6.2c1.9-1 2.5-1.5 2.5-1.5l-4.5-5.6z" fill="#cdb3ed" opacity=".6"/><path d="m58.7 30.1c-3.7 1.7-8.5 6.9-9.2 7.2 3.3 0 4.1 7 3.6 7.7 5.5-1.5 8.8-4.4 10.5-6.6 2.6-3.4-1.1-10-4.9-8.3z" fill="#fff203"/><path d="m50.7 37.6c.4-.2 1-.1 2 1 2 2.2-3-3.3 6.1-8.5-3.7 1.7-8.5 6.9-9.2 7.2.3 0 .7.1 1.1.3z" fill="#fff203" opacity=".3"/><path d="m63.6 38.3c.1-.2.2-.3.3-.5-2.4 3.7-8.3 5.1-10.7 5.5.1.8 0 1.4-.1 1.6 5.5-1.4 8.8-4.3 10.5-6.6z" fill="#fff203" opacity=".5"/><path d="m42.9 25.5c3.5-3.2 15.1-16.3 16.5-20.2.7-1.9-.2-3.8-1.3-4.5-1.2-.8-2.7-.1-3.3.4-3.4 2.4-14.3 15.7-16.6 19.9 0 0-.1.8.2 1.3.8 1.5 3.9 3.6 4.5 3.1z" fill="#8a604f"/><path d="m58.1.8c-.1-.1-.2-.1-.2-.1-.7 0-1.4 0-2 0-.5.1-.9.3-1.1.5-.5.3-1 .8-1.7 1.5l3.9 2.8s1.9-.8 1.4 1.2-11.7 14.9-14.1 17.3c-1 1-1.4.8-.6-.3-.2-1.3-1.2-3.7-.1-5.8.7-1.2 0-2.3-1.1-2.9-1.9 2.5-3.5 4.7-4.3 6 0 0-.1.8.2 1.3.9 1.5 4 3.6 4.6 3.1 3.4-3.1 15-16.2 16.4-20.1.6-1.9-.2-3.7-1.3-4.5z" fill="#8a604f" opacity=".4"/><path d="m41.1 23.2-1-.8-7 8.7c-.1 0-.2 0-.3.1s-.1.3.1.5l.7.6c.1.1.3.1.5-.1.1-.1.1-.2.1-.3z" fill="#774632"/><path d="m40.3 23.6s-4.5 6.1-6.3 8.2c-.4.5-.5.3-.5.3l.1.1c.1.1.3.1.5-.1.1-.1.1-.2.1-.3l6.7-8.3z" fill="#8a604f" opacity=".4"/><path d="m40 22.3-.3.4c.3 1.6-3.7 6.1-5.4 8.2-.5.5-.8.8-1.1 1l.3.3c.1.1.3.1.5-.1.1-.1.1-.2.1-.3l7-8.7z" fill="#8a604f" opacity=".4"/><path d="m42.6 24.7c3.5-3.2 14.9-16.3 16.4-20.1.6-1.5.2-2.8-.9-3.7-1.1-.9-2.9-1-3.6-.6-3.4 2.4-14.7 16.9-16.4 20.8-.3.7 4 4.1 4.5 3.6z" fill="#774632"/><path d="m58.1.8c-1.1-.9-2.9-1-3.6-.6 0 0-.1.1-.1.1 1.3.3 2.5 1.3 3.3 2.5 2 2.8-11.4 18.9-15.3 19.6-2.7.5-3.6-1.3-3.9-2.3-.2.4-.4.7-.5 1-.3.7 3.9 4.2 4.5 3.6 3.6-3.2 15-16.3 16.5-20.1.5-1.5.2-2.9-.9-3.8z" fill="#8a604f" opacity=".4"/><path d="m35.6 34.5s.8.5 1.7 1c1.4-2.3 2.6-2.8 2.6-2.8s-1.4-1.2-1.7-1.4c-.3-.4-2.6 3.2-2.6 3.2z" fill="#b2a740"/><path d="m37.4 31.9c-.8 1-1.8 2.6-1.8 2.6s.8.5 1.7 1c.9-1.5 1.7-2.3 2.2-2.6-1 .5-2 2.1-2.6 1.8s.6-.9 1.2-2.2c.5-.9-.7-.6-.7-.6z" fill="#b2a740" opacity=".6"/><path d="m32.8 33.1s1.3 1.4 2.8 1.5c.9.1 3.2-2.8 2.8-3.3-.5-.5-1.7-1.5-1.7-1.5z" fill="#b2a740"/><path d="m33.9 32.3c-.6-.4-1.2-.8-1.7-1.6-.4-.6-1.4.3-.4 1.4 1.6 2 2.8.7 2.1.2z" fill="#b2a740"/><path d="m33.9 32.3c-.6-.4-1.2-.8-1.7-1.6-.2-.3-.5-.2-.7 0 .2 0 .4.3 1.2 1.2.2.2.5.4.7.5s.3.2.4.2.1.1.2 0 0-.2-.1-.3z" fill="#b2a740" opacity=".6"/><path d="m34.9 31.6c-.7-.5-1.3-.9-1.9-1.8-.5-.7-1.6.4-.5 1.6 1.7 2.1 3.1.7 2.4.2z" fill="#b2a740"/><path d="m34.9 31.6c-.7-.5-1.3-.9-1.9-1.8-.2-.2-.4-.3-.6-.2.2.2.5.8 1.4 1.6.2.2.4.3.6.5.1.1.6.3.7.3s-.1-.3-.2-.4z" fill="#b2a740" opacity=".6"/><path d="m35.9 30.7c-.7-.5-1.4-1-2.1-1.9-.5-.7-1.7.4-.5 1.8 1.9 2.2 3.3.7 2.6.1z" fill="#b2a740"/><path d="m33.3 28.6c.2 1 1.1 1.9 2.4 2.5.1 0 .3.1.3-.1 0-.1-.1-.2-.2-.3-.7-.5-1.4-1-2.1-1.9 0-.2-.2-.3-.4-.2z" fill="#b2a740" opacity=".6"/><path d="m36.7 29.8c-.7-.5-1.4-1-2.1-1.9-.5-.7-1.7.4-.5 1.8 1.9 2.2 3.4.7 2.6.1z" fill="#b2a740"/><path d="m41.7 27.5c.2.1.3.1.5.2 0-.6-.2-1.2-.6-1.7.2.2.4.8.1 1.5z" fill="#9e996a" opacity=".4"/><path d="m37 28.1c-.6-.5-1.1-.8-1.6-1.6-.4-.6-1.4.3-.5 1.4 1.5 1.9 2.7.7 2.1.2z" fill="#b2a740"/><path d="m37 28.1c-.6-.5-1.1-.8-1.6-1.6-.2-.3-.5-.2-.7 0 .2 0 .3.3 1.1 1.2.4.5.9.8 1.3 1 .1-.3.1-.5-.1-.6z" fill="#b2a740" opacity=".6"/><path d="m38 27.4c-.7-.5-1.3-1-1.8-1.9-.4-.7-1.6.3-.6 1.6 1.7 2.2 3.1.8 2.4.3z" fill="#b2a740"/><path d="m38 27.4c-.7-.5-1.3-1-1.8-1.9-.1-.2-.4-.3-.5-.2.2.2.5.8 1.3 1.6s1 1 1 1.2c.2-.1.3-.5 0-.7z" fill="#b2a740" opacity=".6"/><path d="m39 26.6c-.7-.6-1.4-1-2-2-.5-.8-1.7.3-.6 1.7 1.8 2.3 3.4.9 2.6.3z" fill="#b2a740"/><path d="m36.6 24.3c.2 1.1 1.1 2.1 2.6 2.7 0-.2 0-.3-.2-.5-.7-.6-1.4-1-2-2-.1-.1-.2-.2-.4-.2z" fill="#b2a740" opacity=".6"/><path d="m39.9 25.7c-.7-.6-1.4-1-2-2-.5-.8-1.7.3-.6 1.7 1.8 2.4 3.4.9 2.6.3z" fill="#b2a740"/><path d="m61 26.4h-1.5c-1.1 0-3.1-.8-3.3-1.1s.4-.8.4-.9h.1v.1c-.2.1-.6.5-.4.7.2.3 2.1 1.1 3.3 1.1l1.4.1.8-1.2-.7-.1h-1.5c-1.1 0-3.1-.8-3.3-1.1s.4-.8.4-.9h.1v.1c-.2.1-.6.5-.4.7.2.3 2.1 1.1 3.3 1.1h1.5l.8.2z" fill="#1a1a1a"/><path d="m59.4 27.6c-1.1 0-3-.7-3.2-1s.4-.8.4-.9h.1v.1c-.2.1-.6.5-.4.7.1.4 2 1.1 3.1 1.1.7-.1 1.3-.2 1.5-.2l1-2-.1-.2s0 0 0-.1h.1l.1.2-1.1 2.1c0 .1-.7.2-1.5.2z" fill="#1a1a1a"/><path d="m60.8 27.5c-.1 0-.1 0 0 0l-.2-1.2.2-1.6-.2 1.6z" fill="#1a1a1a"/><circle cx="61.9" cy="25.2" fill="#1a1a1a" r=".5"/><path d="m58.8 27.7c.1-1.2.3-2.9.3-2.9.1.1-.2 1.7-.3 2.9z" fill="#1a1a1a"/><path d="m56.7 27.2c.2-1.2.7-2.8.7-2.8h.1v.1c0-.1-.5 1.5-.8 2.7.1 0 .1 0 0 0z" fill="#1a1a1a"/><path d="m38.7 24.6c-.3 0-.5-.1-.7-.1-.1 0-.1 0-.2 0s-.1.1-.2.2c-.2.7.8 1.1 1.4 1.3.3.1.7.2 1 .4.4.2.7.5 1.1.9s.8-.4.8-.7c0-.4-.3-.9-.6-1.2-.6-.6-1.7-.7-2.6-.8z" fill="#b2a740"/><g fill="#1a1a1a"><path d="m32.2 60.9c1.4-2.4 3.7-4.1 6-5.4 2.4-1.3 4.9-2.4 7.5-3.3-2.5 1-5.1 2.1-7.4 3.4s-4.6 3-6.1 5.3z"/><path d="m38.6 84c.5-2.2.8-4.3 1-6.6.2-2.2.2-4.4.4-6.6 0 2.2-.1 4.4-.2 6.6-.3 2.3-.6 4.5-1.2 6.6z"/><path d="m33.7 85.8c-.6-2.5-1.2-5.1-1.8-7.6-.5-2.6-1.1-5.1-1.6-7.7.6 2.5 1.2 5.1 1.8 7.6.6 2.6 1.1 5.1 1.6 7.7z"/><path d="m35.1 86c-.2-2.6-.3-5.1-.4-7.7s-.2-5.1-.2-7.7c.2 2.6.3 5.1.4 7.7.1 2.5.2 5.1.2 7.7z"/><path d="m30.1 69.7c1.4.6 2.9.7 4.3.2-1.3.7-3 .6-4.3-.2z"/><path d="m30 68.1c.7.1 1.4.3 2.1.3.7.1 1.4 0 2.1-.1-.7.2-1.4.3-2.1.3-.7-.1-1.5-.2-2.1-.5z"/><path d="m33.3 62.2c.2.6.3 1.2.5 1.9.1.6.2 1.3.3 1.9-.2-.6-.3-1.2-.5-1.9-.1-.6-.3-1.2-.3-1.9z"/><path d="m35.1 81.4c.5-.2 1.1-.3 1.6-.4s1.1-.3 1.6-.5c-.5.3-1 .5-1.6.6-.5.1-1 .3-1.6.3z"/><path d="m35.4 83.1c.4-.2.8-.4 1.2-.6s.8-.3 1.3-.5c-.4.2-.8.4-1.2.6s-.8.4-1.3.5z"/><path d="m36.2 72.2c.3-.1.7-.2 1-.3.4-.1.7-.2 1.1-.3-.3.2-.7.3-1 .5-.4-.1-.8 0-1.1.1z"/><path d="m35.8 70.4c.3-.2.5-.3.8-.4s.6-.2.9-.2c-.2.2-.5.3-.8.4-.4 0-.6.1-.9.2z"/><path d="m40.3 66c1.5-.7 3.1-1.2 4.7-1.8s3.1-1.2 4.7-1.7c-1.5.7-3.1 1.2-4.7 1.8-1.6.5-3.2 1.1-4.7 1.7z"/><path d="m49.8 54.1c1.8.8 3.6 1.7 5.5 2.4 1.8.7 3.8 1.2 5.8 1.4-2 0-4-.5-5.8-1.2-1.9-.7-3.7-1.6-5.5-2.6z"/><path d="m30.4 91 1.2-2.1c.4-.7.8-1.3 1.3-2-.4.7-.8 1.4-1.2 2.1s-.8 1.3-1.3 2z"/><path d="m31.6 91.3c.7-.3 1.4-.6 2-1 .7-.3 1.3-.8 1.9-1.2-.5.5-1.2.9-1.8 1.3-.7.3-1.4.7-2.1.9z"/><path d="m37 88c.4 0 .7-.1 1.1-.3.3-.1.6-.4.9-.6-.2.4-.5.6-.8.8-.4.1-.8.2-1.2.1z"/><path d="m38.4 85c.2.1.2.1.3.3-.1 0-.3-.1-.3-.3z"/><path d="m47.6 50.2c.3-.9.6-1.7.9-2.5s.7-1.7 1-2.5c-.3.9-.6 1.7-.9 2.5s-.6 1.6-1 2.5z"/><path d="m62.8 58.5c.5-2.6 1.1-5.2 1.5-7.8.5-2.6.8-5.2 1.1-7.8-.2 2.6-.6 5.3-1 7.9s-.9 5.1-1.6 7.7z"/><path d="m53.2 45.3c1.7-.7 3.4-1.4 5.1-2.2s3.3-1.7 4.8-2.7c-1.4 1.2-3.1 2-4.7 2.9-1.7.8-3.4 1.4-5.2 2z"/><path d="m60.5 29.4 1.2-.6c.4-.2.8-.5 1.2-.7-.3.3-.7.6-1.1.8s-.8.4-1.3.5z"/><path d="m64.7 30.3c.6 1 1 2.1 1.4 3.3.2.6.3 1.1.5 1.7.1.6.2 1.2.1 1.8 0-.6-.1-1.2-.2-1.7-.1-.6-.3-1.1-.5-1.7-.4-1.2-.8-2.3-1.3-3.4z"/><path d="m50.1 36.7c1-.9 2-1.7 3-2.6 1-.8 2-1.7 3.1-2.5-1 .9-2 1.7-3 2.6-1.1.8-2.1 1.7-3.1 2.5z"/><path d="m48.2 74.9c-.3-1.7-.4-3.4-.4-5 .1-1.7.2-3.4.6-5-.2 1.7-.4 3.3-.4 5s.1 3.4.2 5z"/><path d="m48.7 79.3c.4.4.7.9 1.1 1.3.3.4.7.8 1.1 1.3-.5-.3-.8-.8-1.2-1.2s-.8-.9-1-1.4z"/><path d="m52.7 78.1 1.2 1.2c.4.4.8.8 1.2 1.2.5.2.8.6.9 1.1-.2-.4-.5-.8-.9-1-.4-.4-.8-.8-1.2-1.2-.5-.4-.9-.8-1.2-1.3z"/><path d="m57.7 83.6c1.2 1.2 2.3 2.4 3.5 3.6 1.1 1.3 2.2 2.6 3.2 3.9-1.1-1.3-2.2-2.6-3.3-3.8s-2.2-2.5-3.4-3.7z"/><path d="m57 82.6c.5-.2.7-.6 1.1-.9.3-.4.6-.7.9-1.1.6-.7 1.1-1.5 1.7-2.3-.4.9-1 1.6-1.5 2.4-.3.4-.6.7-.9 1.1-.5.3-.9.7-1.3.8z"/><path d="m64.8 90.6c.3-.5.6-.9.8-1.3.3-.4.5-.9.8-1.3-.2.5-.4 1-.7 1.4-.2.4-.5.8-.9 1.2z"/><path d="m65.5 91.6c.2-.3.4-.6.6-1 .2-.3.4-.6.7-.9-.2.3-.4.6-.6 1-.2.3-.4.6-.7.9z"/><path d="m54.7 85.7c1.3 1 2.5 2.1 3.8 3.1 1.2 1.1 2.5 2.1 3.7 3.3-1.3-1-2.5-2.1-3.8-3.1-1.2-1.1-2.5-2.2-3.7-3.3z"/><path d="m51.7 84.2c.6-.4 1.2-.8 1.7-1.2.6-.4 1.2-.7 1.8-1.1-.6.4-1.2.8-1.7 1.2-.6.3-1.2.7-1.8 1.1z"/><path d="m50.4 82.7c.6-.5 1.3-1 1.9-1.5.7-.4 1.3-.9 2-1.4-.6.5-1.3 1-1.9 1.5s-1.3.9-2 1.4z"/><path d="m65.9 95.1c.3.5.5 1 .8 1.5.2.5.5 1 .6 1.5-.3-.5-.5-1-.8-1.5-.2-.5-.5-1-.6-1.5z"/><path d="m66.1 99.7c1 .2 2.1.1 3-.5-.8.8-2.1 1-3 .5z"/><path d="m69.4 94.3c.2.3.4.6.6.9.1.3.3.6.4.9-.2-.3-.4-.6-.6-.9-.1-.3-.3-.6-.4-.9z"/><path d="m66.8 90.2c.9 0 1.8.4 2.7.3h.1v.1c0 1-.1 2-.2 3 0-1 0-2 0-3l.1.1c-1 0-1.8-.4-2.7-.5z"/><path d="m66.9 94c.3.2.4.4.6.7.1.3.2.6.3.9.1.6.2 1.2.1 1.8-.1-.6-.1-1.2-.3-1.8-.1-.5-.3-1.1-.7-1.6z"/><path d="m57.8 71.6c.5-1.7 1.1-3.3 1.6-5 .6-1.7 1-3.4 1.5-5.1-.4 1.7-.9 3.4-1.4 5.1s-1 3.4-1.7 5z"/><path d="m51.6 34.6c0-.4 0-.8 0-1.2s-.1-.8-.2-1.2v-.1h.1c.6-.2 1.3-.3 2-.4s1.3-.1 2-.4c-.6.3-1.3.4-1.9.5-.7.1-1.3.2-1.9.4v-.1c0 .9 0 1.7-.1 2.5z"/><path d="m32.1 31c.2.2.4.5.6.7s.4.4.7.6c-.3-.1-.5-.3-.8-.5-.2-.2-.4-.5-.5-.8z"/><path d="m32.8 30.4c.2.2.5.5.7.7s.5.4.7.7c-.3-.1-.6-.3-.8-.5-.2-.3-.4-.6-.6-.9z"/><path d="m33.6 29.5c.3.2.5.5.8.7.2.2.5.4.8.7-.3-.1-.6-.3-.9-.5-.3-.4-.6-.6-.7-.9z"/><path d="m34.7 28.3c.3.2.6.4.8.6s.5.5.7.7c-.3-.2-.6-.4-.8-.6-.3-.2-.5-.4-.7-.7z"/><path d="m37.5 35.2c.3-.5.7-1 1-1.5.2-.2.4-.4.7-.6.1-.1.3-.2.4-.2.2 0 .3 0 .4.1-.3-.2-.6 0-.8.2s-.4.4-.6.6c-.4.4-.7 1-1.1 1.4z"/><path d="m35.7 34.6c.3.1.5.2.7.3.2.2.5.3.7.5-.3-.1-.5-.2-.7-.3-.3-.2-.5-.3-.7-.5z"/><path d="m37.7 29.7c.5.5.7 1.1 1.1 1.7.3.6.7 1.1 1.3 1.4-.6-.2-1.1-.8-1.4-1.4-.4-.6-.7-1.1-1-1.7z"/><path d="m38.6 30.2c.3.1.6.3.9.5s.5.5.7.8c-.3-.2-.5-.4-.8-.6-.2-.4-.5-.5-.8-.7z"/><path d="m40.9 31.1c.7-.8 1.5-1.6 2.3-2.4v.1c-.3-.3-.6-.7-.8-1.1-.2-.5-.2-.9-.4-1.3-.4-.8-1-1.5-1.7-2.1.8.5 1.4 1.2 1.8 2 .2.4.2.9.4 1.3s.5.7.8 1.1c-.8.9-1.6 1.7-2.4 2.4z"/><path d="m36.9 24.7c.4.4.7.9 1.1 1.3.3.5.7.9 1.1 1.2-.6-.2-.9-.7-1.3-1.1-.3-.4-.6-.9-.9-1.4z"/><path d="m38.7 24.7c-.2-.1-.3-.2-.4-.4s-.2-.3-.3-.5c.3.2.5.5.7.9z"/><path d="m36.1 25.2c.3.9.8 1.8 1.6 2.4-.9-.4-1.5-1.4-1.6-2.4z"/><path d="m35.3 26.1c.2 1 .8 2 1.6 2.6-.9-.5-1.5-1.5-1.6-2.6z"/><path d="m34.6 26.9c.4.8 1 1.5 1.7 2 .3.3.7.5 1.2.6l.6.2.6.3c-.4-.2-.8-.3-1.2-.5-.4-.1-.9-.3-1.2-.6-.8-.4-1.4-1.1-1.7-2z"/><path d="m39.5 18.6c1.7-2.5 3.5-4.9 5.3-7.2 1.9-2.3 3.8-4.6 5.8-6.8-1.9 2.3-3.9 4.5-5.7 6.9-1.9 2.3-3.7 4.7-5.4 7.1z"/><path d="m44.5 23.9c2.2-2.8 4.4-5.5 6.7-8.3 2.3-2.7 4.5-5.5 6.8-8.2-2.2 2.8-4.4 5.5-6.7 8.3-2.2 2.7-4.5 5.5-6.8 8.2z"/><path d="m44.8 22.2c2-2.6 4-5.1 6-7.7 2-2.5 4-5.1 6.1-7.6-2 2.6-4 5.1-6 7.7-2.1 2.5-4.1 5.1-6.1 7.6z"/><path d="m58.4 20.8c.6.2 1.3.5 1.9.7.6.3 1.2.5 1.8.8-.6-.2-1.3-.5-1.9-.7s-1.2-.5-1.8-.8z"/><path d="m59.5 19.5c1-.3 2.1-.6 3.2-.2 1 .4 1.7 1.4 2 2.4-.4-1-1-1.9-2-2.3-1.1-.3-2.2 0-3.2.1z"/><path d="m56.8 80.9c.5-.5 1.1-1 1.5-1.6.5-.5.9-1.2 1.4-1.8-.3.7-.8 1.3-1.2 1.9-.5.6-1.1 1.1-1.7 1.5z"/><path d="m50.7 37.9c.6.3 1 .7 1.4 1.2.3.5.6 1.1.8 1.7.4 1.2.7 2.4.8 3.6-.2-1.2-.4-2.4-.9-3.6-.5-1-1-2.2-2.1-2.9z"/><path d="m40.1 37.9c1 1 2.1 2 3.3 2.9s2.4 1.6 3.7 2.3c-1.4-.5-2.6-1.3-3.8-2.1-1.2-1-2.3-2-3.2-3.1z"/><path d="m42.6 34.6c1 .4 2 .9 3 1.4l3 1.5c-1-.4-2-.9-3-1.4s-2.1-1-3-1.5z"/><path d="m41.3 25.5c-.5-.4-1.1-.5-1.6-.6l-1.8-.2c-.2 0-.3.4-.1.6.1.2.4.4.6.5.5.3 1.1.4 1.6.7-.6-.2-1.1-.3-1.7-.6-.3-.1-.5-.3-.7-.6-.1-.2-.2-.8.2-.8l1.8.2c.7.2 1.3.4 1.7.8z"/><path d="m45.6 30c.8.3 1.6.6 2.5 1 .8.4 1.6.7 2.4 1.1-.8-.3-1.6-.6-2.5-1-.8-.3-1.7-.7-2.4-1.1z"/></g></svg>