<svg enable-background="new 0 0 100 100" viewBox="0 0 100 100" xmlns="http://www.w3.org/2000/svg"><path d="m5.5 91.4c-1.9.5-4.7 5.8 1.1 7.9 5.4 2 8.4-2.1 5.8-5.8-2-2.6-5.5-2.5-6.9-2.1z" fill="#1274c4"/><path d="m7.3 91.4c-1.1.2-2.6 2.9.8 4.1 3.1 1.2 4.8-1 3.2-2.9-1.2-1.3-3.2-1.4-4-1.2z" fill="#d1d1d1"/><path d="m13.3 97.2c-.7.8-1.6 1.2-2.3.7-1.6-1.1-3.2-1.7-6.2-2-.8-.1-1.3-.7-1.5-1.5-.2 1.5.6 3.3 3.5 4.4 3.4 1.3 5.8.2 6.5-1.6z" fill="#1274c4" opacity=".3"/><path d="m86.2 92.7s8.5 1.7 9.7 3.3c1.5 2-3.5 3.8-7 3.3-3.6-.4-5-.5-5.1-.2-.3.3-5.3.4-5.7 0-.4-1.7.4-6.6.5-7.1 3.2 1.2 7.6.7 7.6.7z" fill="#1274c4"/><path d="m96 96c.2.2.3.5.3.7-.3-.4-.8-.6-1.2-.8-4-2.1-8.7-2.1-10.4-2.1-.2 0-.5 0-.6-.2-.2-.2-.1-.5.1-.8 1.3 0 2.1-.1 2.1-.1s8.5 1.7 9.7 3.3z" fill="#1274c4" opacity=".3"/><path d="m92.8 94.3s.8 1.1-2.3 1.2-7.4-1.7-6.6-2.8 4 0 8.9 1.6z" fill="#d1d1d1"/><path d="m87.3 92.6c-.3.1-.6.5-.1 1.3.7 1.4 4.7 1.6 5.7.4.1.2.5 1.1-2.3 1.1-3.1.1-7.4-1.7-6.6-2.8.4-.5 1.5-.5 3.3 0z" fill="#d1d1d1" opacity=".6"/><path d="m83.9 99.1c-.3.3-5.3.4-5.7 0-.4-1.7.4-6.6.5-7.1.3.1.7.2 1 .3l2 2.3s-3.1 1.2-2.1 3.2c.9 2.1 3-.3 4.5 0s5.4 1.6 9.3.4c1.4-.4 2.3-1 2.8-1.7.2 1.7-4.1 3.2-7.2 2.8-3.5-.4-5-.5-5.1-.2z" fill="#1274c4" opacity=".5"/><path d="m21.5 36s-1 .4 1.9 1.9c2.8 1.5 6.1 5.9 7.1 3.6 1-2.4-3.8-7.9-9-5.5z" fill="#0a3f6b"/><path d="m24.1 33.1s-4.7 6.5-1.4 10.6 9.9-1.4 10.9-6.1c1-4.6-5.8-8.5-9.5-4.5z" fill="#e67e5b"/><path d="m29.1 37.2s-4.8-1-7.2.4c1-4.2 4.5-6.2 4.5-6.2z" fill="#d46642" opacity=".6"/><path d="m32.1 18.3s-6.5 5.8-10.5 17.7c5.6-2 9.4 3.7 12.3 3 5.8-6-1.8-20.7-1.8-20.7z" fill="#1274c4"/><path d="m24.4 32.8c-1.3-1.2 2.3-7.7 2.3-7.8-1.8 2.8-3.7 6.4-5.2 11 3.8-1.3 6.7.8 9.1 2.2-1.9-3.1-4.9-4.2-6.2-5.4z" fill="#1274c4" opacity=".3"/><path d="m4.3 92.1-.6 1s4.8 3.4 9.4 1.8c-1.4-2.6-1.7-3.8-1.7-3.8z" fill="#1274c4" opacity=".3"/><path d="m31 43.9c-3.3 2.2-12.2 9.7-15.4 14.2-3.1 4.5-9.7 30.3-10.6 33.3.7 2.6 5.8 4 8.2 2.4s12.7-18.9 13.3-25.2 19-11.6 22.1-16.9c3-5.2-4.5-16.5-17.6-7.8z" fill="#1274c4"/><path d="m15.7 58.1c-3.2 4.5-9.8 30.3-10.7 33.3.1.4.3.8.6 1.1 1.7-7.6 6.4-27.1 11.5-31.3 4.9-4 8.1-11.7 12.6-16.4-3.9 2.9-11.2 9.3-14 13.3z" fill="#1274c4" opacity=".3"/><path d="m45.6 50.7s-9.5 8.9-18 11.9c-8 2.8-9.7 25.4-15.9 31.8.6-.1 1.1-.3 1.5-.6 2.4-1.5 12.7-18.9 13.3-25.2.6-5.4 14.2-10.1 20-14.7z" fill="#1274c4" opacity=".3"/><path d="m78.4 95.5s5.4 1.1 8.9-2.9c-4-1.1-5.1-2.2-5.1-2.2l-3.7 3.1z" fill="#1274c4" opacity=".6"/><path d="m60.4 43.9c3.3 2.2 9.8 12.1 13 16.5 3.2 4.5 12.1 28 13 30.9-.7 2.6-5.8 4-8.2 2.4s-15-16.6-15.6-22.9-16.7-14-19.7-19.2c-3.1-5.1 4.4-16.4 17.5-7.7z" fill="#1274c4"/><path d="m85.7 92.5c.3-.3.5-.7.7-1.2-.9-2.9-9.8-26.5-13-30.9-3.2-4.5-9.7-14.3-13-16.5-1-.7-2-1.2-2.9-1.7 3.8 3.9 11.8 14.3 15.1 21.8 3.1 7.1 10.1 21.8 13.1 28.5z" fill="#1274c4" opacity=".3"/><path d="m62.5 70.9c.6 6.3 13.2 21.3 15.6 22.9.8.5 1.9.7 3.1.6-8.3-6.6-12.7-28.3-17-28.8-4.7-.6-21-13.2-21-13.2 4 5.2 18.7 12.5 19.3 18.5z" fill="#1274c4" opacity=".3"/><path d="m64.2 48c-24 6.7-36.7-1.6-36.7-1.6l3.1-2.1 31.3 1z" fill="#001b6a" opacity=".4"/><path d="m30.1 43.2c-1.2 1.3-2.2 4.8 14.2 5.4 14.8.6 19.1-1.1 19.5-2.7.5-2.2-3-4.7-2.3-7.3 1.3-4.6 6.6-11.2 5.1-14.6-2.3-5.2-8.7-10-18.6-10.5-6.3-.3-13.5 1.2-17.1 6.3-2.3 3.3.6 11 1.3 18.9.1 1.6-.7 2.9-2.1 4.5z" fill="#1274c4"/><g fill="#1274c4" opacity=".3"><path d="m61.7 42.2c-2.8 2.4-2 4.5-2.9 6 3.5-.5 4.9-1.4 5-2.3.3-1.3-.8-2.7-1.6-4.2-.2.2-.4.4-.5.5z"/><path d="m61 26s1.6 4.3 2.1 8.5c.6-1.1 1.2-2.2 1.7-3.3z"/></g><path d="m38.1 38.8c-7-2.4 7-4.4.8-5.5-6.2-1.2-8.9-8.3-8.9-8.3.3 3.8 1.7 8.7 2.1 13.8.1 1.6-.6 2.9-2.1 4.5-1.2 1.3-2.2 4.8 14.2 5.4 1.1 0 2.2.1 3.2.1 6.5-4.7-2.7-7.7-9.3-10z" fill="#1274c4" opacity=".3"/><path d="m44.2 13.5s-3.4 7.7 3.7 8.8c5.8-.2 6.5-6.7 4.3-8.9-2.1-2.3-8 .1-8 .1z" fill="#e67e5b"/><path d="m48 22.2s-2-1.6-2.2-3.5c2.6.8 4.8-1.2 4.8-1.2l-6.3-2-1.3 2.3s1.9 4.3 5 4.4z" fill="#d46642" opacity=".3"/><path d="m45.7 13.2s-4 3.8 2.3 9c-3.5 1.5-4.7 3.8-4.7 3.8s-5.8-10.3 1.3-13.4c3.5-.8 1.1.6 1.1.6z" fill="#1065ab"/><path d="m47.9 22.2c-1.3-.4-4.2 1.4-5.3-.9-2.6-5.1 1.1-7.4 1.2-7.6v-.7c-5.9 3.5-.6 13-.6 13s1.3-2.3 4.7-3.8z" fill="#1274c4" opacity=".3"/><path d="m50.6 13.2s3.7 4.2-2.6 9c3 .7 5 3.8 5 3.8s5.8-10.3-1.3-13.4c-3.6-.8-1.1.6-1.1.6z" fill="#1065ab"/><path d="m53 26s5.1-9-.1-12.7c1.9 3.4 1 9.4 0 10-1.1.7-4.6-1.4-4.6-1.4l-.3.3c2.9.7 5 3.8 5 3.8z" fill="#1274c4" opacity=".4"/><path d="m52.3 5.2c-1-1.1-2.3-1.6-3.7-1.6-1.4-.1-2.8.2-3.9 1.2-2.2 2-2.8 8-.8 11.4.7 1.2 2.3 2 3.8 2.1s3.1-.6 4-1.7c2.2-2.9 2.5-9.2.6-11.4z" fill="#e67e5b"/><path d="m54.3 9.4c-.3-.4-.7-.6-1.1-.6-.4-.1-.9 0-1.2.3-.7.6-1.1 2.4-.5 3.5.2.4.7.7 1.1.8.5.1 1-.1 1.3-.4.7-.9 1-2.9.4-3.6z" fill="#e67e5b"/><path d="m42 9.2c.3-.3.7-.5 1.2-.5.4 0 .9.1 1.2.4.7.6.8 2.5.2 3.6-.2.4-.7.6-1.2.6s-1-.2-1.2-.5c-.8-.9-.9-2.9-.2-3.6z" fill="#e67e5b"/><path d="m52.3 13.3c-.3.5-1 .6-1.4.3-.5-.3-.6-1-.3-1.4.3-.5 1-.6 1.4-.3.5.3.6 1 .3 1.4z" fill="#e67e5b" opacity=".7"/><path d="m45.7 13.2c-.3.5-1 .6-1.4.3-.5-.3-.6-1-.3-1.4.3-.5 1-.6 1.4-.3.5.3.6.9.3 1.4z" fill="#e67e5b" opacity=".7"/><path d="m42.3 9.1s.5-.2.5 1.1c0 1.4 0 1.6.2 1.9.3.4.8.3.8 0s.1-2.5.1-2.8c-.1-.4 0-2.5 1.6-3.5 1.9-1.2 9.3 2.8 8.8-.5-.1-.8-.1-3.3-5.3-3.7-2.8-.2-5.8 1-6 3.5-2 1.1-.7 4-.7 4z" fill="#1a1a1a"/><path d="m54.2 9.1s1.4-2.9-.5-4c-.1-1.6-1-2.3-2.3-2.7l-.7 2.9c.2.1.4.2.5.4 1.7 1.4 1.3 3.3 1.5 3.6.2.2.1 2.5 0 2.8 0 .3.5.4.8 0 .2-.3.2-.5.2-1.9s.5-1.1.5-1.1z" fill="#1a1a1a"/><path d="m62.9 44.2s.2.9-4.2-.6-8.7-4.5-7.2-6.2c1.6-1.6 11.1 4.2 11.4 6.8z" fill="#0a3f6b"/><path d="m54.9 34s-2.5 3.2-3.6 4.6c-1.2 1.4-6.7 4.4-3.7 8.3 3 4 13.9-1.2 15.8-9.1 1.3-6.1-6.8-6.3-8.5-3.8z" fill="#e67e5b"/><path d="m51.1 46.9c-1.4 0-2.4.2-2.9.6 3.2 2.4 11-1 14.1-6.9l-2.2.9s-.5 5.5-9 5.4z" fill="#d46642" opacity=".6"/><path d="m51.6 38.1s5.1 1.5 8.4 5.5c2.8-3.5 3.8-4 3.8-4l-10.8-3.4z" fill="#d46642" opacity=".6"/><path d="m66.8 24.9s1.5 9.1-3.8 19.3c-7.1-7.5-11.3-6.8-11.3-6.8s11.6-22 15.1-12.5z" fill="#1274c4"/><path d="m61 42.4c.6.5 1.3 1.1 2 1.7 3.8-7.4 4.1-14.1 4-17.3l-.2-.1s-.5 8.1-5.8 15.7z" fill="#1274c4" opacity=".3"/><path d="m60.1 25c-4.2 4.2-8.5 12.4-8.5 12.4s1-.2 2.8.5c.2-5 5.7-12.9 5.7-12.9z" fill="#1274c4" opacity=".3"/><path d="m44.9 42.1c.2-1.2 1.1-2.3 2.1-3 .9-.5 3.2-1.3 3.8 0s.1 2.9-.6 4.1c-.7 1.1-1.9 2.6-3.4 2.4-.8-.1-1.5-.7-1.8-1.4-.2-.6-.3-1.4-.1-2.1z" fill="#c7c4be"/><path d="m45.6 43.6c0 .8-.3 1.6 1.5 3.2 1.8 1.5 2.5 4.6 4.1 3.4.6 1.1 2.3.4 2.1-1.1 1.3.9 2.5-1.6.2-3.7 2.8 3.2 4.1 1.3 3.6.2s-4-3.2-4.2-4.2 2.9-.1 3-1.4-1.5-2.7-5.9-1.2c-3.4 1.1-4.5 3.3-4.4 4.8z" fill="#efebe0"/><path d="m52.9 41.4c-.2-1 2.9-.1 3-1.4 0-.1 0-.2 0-.3-.4.2-1.1.3-2.5.5-3.9.3 3.6 4.4 3.8 6.2 0-.2 0-.5-.1-.7-.5-1.2-4-3.3-4.2-4.3z" fill="#c7c4be"/><g fill="#c7c4be" opacity=".3"><path d="m56.3 47.2c-2-.6-3.3-3-3.3-3s-.3.2-.6.4c.9.6 2 2.3 2.3 2.8-.1-.5-.3-1-.7-1.5 1 1 1.8 1.3 2.3 1.3z"/><path d="m51.2 50.2c.2.4.6.6 1 .5-.7-.3-2.5-4.2-2.5-4.3s-.3-.3-.7.1c1.2 1.9 1.7 3.1 1.8 3.8.2 0 .3-.1.4-.1z"/><path d="m53.2 49.8c.1-.2.1-.4.1-.7.2.1.3.2.5.2-1-.6-2.3-4.2-2.3-4.2s0 .4-.8.7c.5.3 1.9 2.8 2.5 4z"/></g><path d="m21.5 40.7s-1 9.5 18.3 3.6c1.2-1.5-.6-5.5-1.8-5.2-1.3.2-14.3-5.4-16.5 1.6z" fill="#e67e5b"/><path d="m38 39c-.5.1-3.3-.9-6.5-1.5 1.9 2.8 3.4 7.9-2 8.1-6.1.2-7.6-2.9-7.9-4.9 0 .8-.1 9.1 18.3 3.5 1.2-1.4-.7-5.4-1.9-5.2z" fill="#d46642" opacity=".3"/><path d="m34.2 42.8s-.9-2.6 0-4.2c1.1-2 5.8-1.6 6.5 2.1s-6.4 3.1-6.5 2.1z" fill="#c7c4be"/><path d="m38.1 38.8c-.1-.7-.5-2.6-1.8-2.3-1.4.3-1.1 2.9-1.4 3.5-.4 1-1 2-1.6 3-.5.9-.2 2 1.4 1.9-1.1.9-.1 2.7 1.2 2.1-.9 1.7.8 2.5 1.9 1.6-.1 2.2 2 2.4 2.2.2.2-2.7 3.6-4.3 1.1-7.2-.6-2.7-2.6-2.8-3-2.8z" fill="#efebe0"/><path d="m39.2 50.3c.4-.2.7-.7.8-1.5.2-2.7 3.6-4.3 1.1-7.2-.6-2.6-2.6-2.7-3-2.7 0-.1 0-.2 0-.3-.1.6-.4 1.2-1.2 1.4-1.6.4-.6 1.4-1.6 2.6-.7.8-1.8 1.1-2.2 1.5.1.5.5 1 1.5.9.3-.1.6-.2.9-.5 1.1-.7.3 2-.8 2.5.3.2.7.3 1.2.1v.1c.5-.4 1-1.1 1.3-1.8.8-1.6 1.2.6.6 1.9-.2.5-.8 1.3-1.8 1.5.4.5 1.3.5 1.9 0v.2c.4-.6.7-1.2.9-1.3.6-.3 1 .4.5 2.6-.1-.2-.1-.1-.1 0z" fill="#c7c4be" opacity=".3"/><path d="m76.1 74.2s-6.7 4.2-11.7 2.4c-1.4-1-1.4-3-1.4-3s5.5 1.7 13.2-2.5c2.9.9-.1 3.1-.1 3.1z" fill="#d1d1d1"/><path d="m63 73.6s5.5 1.7 13.2-2.5c3 .9-.1 3.1-.1 3.1s-.7.4-1.7.9c0 0 1.6-1.3.3-2-1.4-.7-4.9 1.4-8.2 1.3-3.4-.1-2.2 2.2.9 2.7-1 0-2-.1-2.9-.5-1.5-1-1.5-3-1.5-3z" fill="#d1d1d1" opacity=".5"/><path d="m82.8 86.3s-5.3 4.3-9.8 3.2c-1.3-.7-1.5-2.4-1.5-2.4s4.9.9 11.1-3.5c2.6.5.2 2.7.2 2.7z" fill="#d1d1d1"/><path d="m71.5 87.1s4.9.9 11.1-3.5c2.7.5.3 2.7.3 2.7s-.5.4-1.4 1c0 0 1.3-1.3 0-1.8-1.2-.5-4 1.7-6.9 1.9s-1.7 2.1 1 2.2c-.8.1-1.7.1-2.5-.1-1.5-.7-1.6-2.4-1.6-2.4z" fill="#d1d1d1" opacity=".5"/><path d="m12.2 75.4s6.9 3.8 11.8 1.7c1.4-1.1 1.2-3.1 1.2-3.1s-5.4 2.1-13.3-1.7c-2.9 1.1.3 3.1.3 3.1z" fill="#d1d1d1"/><path d="m25.3 74s-5.4 2.1-13.3-1.7c-2.9 1.1.3 3.1.3 3.1s.7.4 1.8.8c0 0-1.7-1.2-.4-2s4.9 1.1 8.3.7c3.3-.3 2.3 2.1-.7 2.7 1-.1 1.9-.2 2.8-.6 1.3-1 1.2-3 1.2-3z" fill="#d1d1d1" opacity=".5"/><path d="m6.3 88s5.6 4 10 2.6c1.3-.8 1.4-2.5 1.4-2.5s-4.8 1.2-11.2-2.8c-2.7.6-.2 2.7-.2 2.7z" fill="#d1d1d1"/><path d="m17.6 88s-4.8 1.2-11.2-2.8c-2.6.7-.1 2.8-.1 2.8s.5.4 1.4.9c0 0-1.3-1.2-.1-1.7s4.1 1.4 7 1.4 1.8 2-.9 2.3c.8.1 1.7 0 2.5-.3 1.4-.8 1.4-2.6 1.4-2.6z" fill="#d1d1d1" opacity=".5"/><path d="m86.7 89.6s-8.5-24.3-10.3-26.4-6.8-5.1-8.4-4.5c-2 .8-1.7 4.5-1.3 7.5.3 2 13.9 27.1 15 27.4 1 .3 5.9-2 5-4z" fill="#d1d1d1"/><path d="m81.5 93.5c-1.5-1.2-14.6-25.4-14.9-27.3-.1-.5-.1-.9-.1-1.4.1 1.7 1.3 3.8 2.6 3.5 1.5-.3-.8-5.4-.8-5.4s2.8 4.8 3.6 4.3-1.5-6.1-1.5-6.3 2.8 5.8 4 5.7c1.1 0-.2-3.9-.1-4.1.1-.1 1.9 4.8 2.8 3.9s-1.8-4.3-1.8-4.3c.4.3.7.6 1 1 1.6 1.8 7.5 18.2 9.7 24.4l.1.4s-6.5-17.8-7.6-16.9c-1.1 1 6.2 18 6.2 18s-8.5-18.3-10-17.7 2.9 7.9 7.7 19.7c-10.4-20.4-11.6-18.7-11.2-17.1.9 2.6 7.1 14 10.3 19.6z" fill="#d1d1d1" opacity=".5"/><path d="m78.5 67.4s-5.2-1.6-10 3.1c-.3.6.1 2.3 1.2 2.2 2.8-2.6 7.1-3.7 9.8-2.9.3-1.5-1-2.4-1-2.4z" fill="#d1d1d1"/><path d="m69.3 70.5c1.2-1.5 4.6-3.6 8.7-3 .4.1 1.5.7 1 1.5-.6.9-4.4-1.3-9.2 2.9-.6.4-1.2-.5-.5-1.4z" fill="#d1d1d1" opacity=".9"/><path d="m4.5 90.6s6.3-25.9 8-28.3c1.7-2.3 5.9-5.5 7.7-5 2.2.7 3 4 2.9 7.1-.1 2.1-11.7 29.3-12.8 29.7-1.1.5-6.5-1.3-5.8-3.5z" fill="#d1d1d1"/><path d="m10.4 94.2c1.5-1.4 12.7-27.7 12.7-29.7 0-.5 0-1-.1-1.4.1 1.8-1 4.1-2.4 3.9-1.6-.2.3-5.6.3-5.6s-2.4 5.2-3.4 4.8c-.9-.5.9-6.4.9-6.6s-2.3 6.2-3.5 6.3-.3-4.1-.4-4.2-1.5 5.1-2.6 4.3c-1-.8 1.4-4.6 1.4-4.6-.4.4-.7.7-.9 1.1-1.4 1.8-5.8 19.3-7.4 26v.4s4.9-19 6.2-18.2-4.6 19.1-4.6 19.1 7-19.7 8.6-19.3-2.2 8.5-6 21.1c8.9-22 10.3-20.4 10-18.7-.7 2.8-6.1 15.1-8.8 21.3z" fill="#d1d1d1" opacity=".5"/><path d="m10.7 66.9s5.3-2.2 10.9 2.2c.4.6.1 2.4-1 2.4-3.2-2.4-7.9-3.1-10.6-2-.5-1.5.7-2.6.7-2.6z" fill="#d1d1d1"/><path d="m20.3 70.8c-5.5-3.9-9.3-1.3-9.9-2.1-.7-.8.5-1.6.9-1.7 4.3-1.1 8 .7 9.5 2.2.8.8.2 1.8-.5 1.6z" fill="#d1d1d1" opacity=".9"/><path d="m41.3 7.2s5.7 4.5 13.8 0c-6.6-2.1-13.8 0-13.8 0z" fill="#0f64a8"/><path d="m41.3 7.2s5.6.9 13.8.1c1.6-8.3-13.8-11-13.8-.1z" fill="#1274c4"/><path d="m41.3 7.2s.8.1 2.3.3c-.5-3.2.9-5.6 2.3-7.2-2.4.7-4.6 2.9-4.6 6.9z" fill="#1274c4" opacity=".3"/><path d="m55.1 7.3c.7-3.7-1.9-6.2-5-7 1.6 1.4 2.9 3.7 1.7 7.3 1-.1 2.2-.2 3.3-.3z" fill="#1274c4" opacity=".4"/><g fill="#1a1a1a"><path d="m48.3 19-3.5-1-3.1-3.2-.2-7.5h.2l.7 5.1 6-.6 6 .6.6-5.2h.2l-.2 7.5-3.2 3.3zm-3.4-1.2 3.4 1 3.4-1 3.1-3.2.1-6-.5 3.8h-.1l-6.1-.6-6.1.6-.5-3.8.1 6z"/><path d="m44.7 17.9s-1-3.2 0-5.8l.1.1c-1 2.6 0 5.7 0 5.7z"/><path d="m51.8 17.9h-.1s1-3.2 0-5.7l.1-.1c1.1 2.5.1 5.7 0 5.8z"/><path d="m48.2 11.7h.2v7.1h-.2z"/><path d="m41.8 14.6h-.2l.5-2.3h.2z"/><path d="m54.5 12.3h.2v2.4h-.2z" transform="matrix(.9774 -.2114 .2114 .9774 -1.6116 11.8481)"/><path d="m48.4 15c-3.8 0-6.4-1.9-6.5-1.9l.1-.1c.1 0 6 4.2 12.6 0l.1.1c-2.3 1.4-4.4 1.9-6.3 1.9z"/><path d="m22.1 34.9c2.3-7 6.4-13.3 11.7-18.4-5.2 5.2-9.2 11.5-11.7 18.4z"/><path d="m29.8 26.4c1 3.6 1.6 7.3 1.7 11-.3-3.7-.8-7.4-1.7-11z"/><path d="m51.5 37.1c2.8-4.1 5.7-8.1 8.7-12.1-2.8 4.1-5.7 8.1-8.7 12.1z"/><path d="m53.8 38.1c1.6 0 3.2.8 4.4 1.8s2.3 2.3 3.2 3.6c-1.1-1.2-2.1-2.5-3.3-3.4-1.2-1.2-2.7-1.9-4.3-2z"/><path d="m57 15.3c1.9 1 3.6 2.2 5.3 3.5.8.7 1.6 1.4 2.2 2.3.6.8 1.1 1.9 1.2 2.9-.4-2.1-1.9-3.8-3.6-5.1-1.5-1.3-3.2-2.5-5.1-3.6z"/><path d="m63.5 42.2c1.9-4.4 3.5-9 4.5-13.7-.9 4.7-2.4 9.3-4.5 13.7z"/><path d="m63.3 44.8c.6.5.6 1.6 0 2 .4-.5.4-1.4 0-2z"/><path d="m64 47.4c1.6 1.9 3 3.9 4.4 5.9.7 1 1.4 2.1 2 3.1l1 1.6c.3.5.7 1 .8 1.7-.1-.6-.5-1.1-.8-1.6l-1-1.6c-.7-1-1.4-2.1-2.1-3.1-1.4-2-2.9-4-4.3-6z"/><path d="m32.3 47.3c1.2.4 2.4.8 3.6 1.2-1.2-.1-2.5-.5-3.6-1.2z"/><path d="m41.8 48.4c2.2.7 4.5 1 6.9 1-2.4.2-4.8-.2-6.9-1z"/><path d="m55.3 49c2 .1 3.9 0 5.9-.2-2 .4-4 .5-5.9.2z"/><path d="m12.8 94.2c2.5-3.5 5.2-6.9 7.5-10.5 2.3-3.7 3.4-7.9 4.9-11.9.8-2 1.3-4.1 2.6-5.9s3.1-3 4.9-4.2l11-6.7-11 6.8c-1.8 1.2-3.6 2.5-4.8 4.2-1.3 1.8-1.8 3.9-2.5 5.9-1.5 4-2.6 8.2-5 11.9-2.4 3.5-5 6.9-7.6 10.4z"/><path d="m15.2 58.1c2.9-3.8 6.2-7.2 9.9-10.2-3.5 3.1-6.8 6.5-9.9 10.2z"/><path d="m4.6 91.1c.7-3.7 1.5-7.4 2.5-11 .5-1.8 1-3.6 1.6-5.4s1.2-3.6 1.4-5.5c-.1 1.9-.7 3.7-1.3 5.5s-1.1 3.6-1.6 5.4c-.9 3.6-1.8 7.3-2.6 11z"/><path d="m11.3 66c.2-1 .5-2.1 1-3 .3-.5.6-.9 1.1-1.2.4-.3.8-.7 1.3-1 1.8-1.2 3.5-2.4 5.3-3.6-1.7 1.3-3.5 2.5-5.2 3.7-.5.3-.8.6-1.3 1-.4.3-.8.7-1.1 1.2-.5.9-.8 1.9-1.1 2.9z"/><path d="m6.6 90c2.5-6.1 4.7-12.2 6.6-18.5-1.7 6.3-4 12.5-6.6 18.5z"/><path d="m10.2 89.9c2.3-7 4.7-14 7.2-20.9-2.3 7-4.7 14-7.2 20.9z"/><path d="m12.3 90.4 2.2-4.9c.7-1.6 1.4-3.3 2.1-4.9 1.4-3.3 2.8-6.6 4.3-9.8-1.3 3.3-2.8 6.6-4.1 9.9-1.5 3.2-3 6.5-4.5 9.7z"/><path d="m20.3 57.1c1.6 1.8 2.6 4.1 2.9 6.5-.5-2.3-1.5-4.5-2.9-6.5z"/><path d="m10.6 68.7c.2.3.6.2.9.2h1c.6 0 1.3.1 1.9.1 1.3.2 2.5.6 3.7 1.2-1.2-.5-2.4-.8-3.7-1-.6-.1-1.3-.2-1.9-.2-.3 0-.6 0-1 0-.3 0-.7 0-.9-.3z"/><path d="m12.8 66.9c2.2-.3 4.5 0 6.5 1-2.1-.8-4.3-1.1-6.5-1z"/><path d="m63.1 73.7c2 .4 4 .5 6 .3-2 .4-4.1.3-6-.3z"/><path d="m64.6 77.2c2.4.2 4.7-.2 6.9-1.1-2 1.1-4.5 1.5-6.9 1.1z"/><path d="m68 70.5c1.6 2.1 2.9 4.4 3.9 6.9-1.1-2.4-2.4-4.6-3.9-6.9z"/><path d="m75.7 84.3c1.7 2.9 3.5 5.8 5.3 8.7-2-2.8-3.8-5.7-5.3-8.7z"/><path d="m71.6 87.6c1.2.2 2.4 0 3.6-.4-1.1.7-2.4.8-3.6.4z"/><path d="m74.1 90.2c.9-.3 1.8-.7 2.6-1.2-.7.7-1.6 1.1-2.6 1.2z"/><path d="m66.4 65.8c-.2-2.1.1-4.2.8-6.2-.5 2.1-.8 4.1-.8 6.2z"/><path d="m67.8 58.9c1.7.1 3.3.7 4.8 1.3.8.3 1.5.7 2.3 1l1.1.6.5.3.3.2s.1.1.1.1c0 .1-.1 0-.1 0 0 .1.1.1.1 0s0-.1-.1-.1l-.3-.1-.5-.3-1.1-.5c-.7-.4-1.5-.7-2.3-1-1.5-.7-3.1-1.2-4.8-1.5z"/><path d="m78.6 69.4c2.1 5.1 4.1 10.3 6 15.5-2.1-5.1-4.1-10.3-6-15.5z"/><path d="m82.5 93c1.9.1 3.9-1 4.7-2.7-.6 1.8-2.7 3.1-4.7 2.7z"/><path d="m70.8 71.6c1.2-.7 2.4-1.3 3.7-1.9 1.3-.5 2.7-.9 4.1-.8-2.8.2-5.3 1.5-7.8 2.7z"/><path d="m68.6 70.3c2.1-2 4.7-3.4 7.6-4-2.8.8-5.4 2.1-7.6 4z"/><path d="m78 95.1c-.2 1.5-.2 3 0 4.5 1.9.4 3.9.5 5.9.2v.1c-.1-.1-.1-.3-.2-.5 0-.1.1-.4.3-.4.3-.1.6-.1.9-.1.6 0 1.2 0 1.8.1 1.2.1 2.4.2 3.6.2s2.4-.1 3.5-.4c.6-.2 1.1-.4 1.6-.7.3-.2.5-.3.7-.5s.6-.4.4-.7c.2.3-.2.5-.4.7s-.5.4-.7.5c-.5.3-1.1.6-1.6.8-1.2.4-2.4.5-3.6.5s-2.4-.1-3.6-.2c-.6-.2-1.2-.2-1.8-.2-.3 0-.6 0-.9.1-.2.1-.2.5-.1.7l.1.1h-.1c-2 .3-4 .2-5.9-.2-.1-1.6 0-3.1.1-4.6z"/><path d="m87.7 93c3.1.4 6.2 1.3 9 2.6-2.9-1.1-5.9-2-9-2.6z"/><path d="m3.6 93.3c0 .9-.1 1.9.4 2.8.5.8 1.3 1.3 2.2 1.7 1.7.8 3.8.8 5.5.2-1.8.8-3.8.7-5.6 0-.9-.4-1.7-1-2.2-1.8-.5-1-.4-2-.3-2.9z"/><path d="m6.8 94.6c1.4 1.3 3.4 1.7 5.2 1.1-1.7.9-4 .4-5.2-1.1z"/><path d="m21.5 41.3c.8 2.3 2.9 3.9 5.2 4.3 1.2.2 2.4.2 3.5.1.6-.1 1.2-.2 1.7-.4.6-.2 1.2-.3 1.7-.6-1 .6-2.2.9-3.4 1.1s-2.4.2-3.6 0c-2.2-.5-4.5-2.1-5.1-4.5z"/><path d="m27.4 37.4c2.4.1 4.7.6 6.9 1.5-2.3-.7-4.6-1.2-6.9-1.5z"/><path d="m34.4 41.6c-.5.5-1 1.2-.9 1.9 0 .3.2.7.5.9s.7.1 1 .1h.1l-.1.1c-.2.3-.4.7-.5 1-.1.4-.2.7-.2 1.1.1.4.4.6.8.7.3.1.8 0 1-.2l.1.1c-.3.4-.3 1.1.1 1.5.5.3 1.1.2 1.6-.2l.1-.1v.1c-.1.6 0 1.3.5 1.6.5.2 1.3.1 1.6-.4-.3.5-1.1.7-1.6.5-.3-.1-.5-.4-.5-.7-.1-.3-.1-.6 0-.9h.1c-.5.3-1.1.5-1.7.2-.3-.2-.4-.5-.4-.8s.1-.6.3-.9l.1.1c-.3.3-.8.4-1.1.3-.4-.1-.8-.4-.8-.8-.1-.4.1-.8.2-1.2s.3-.7.5-1l.1.1c-.4.1-.7.1-1.1-.1-.3-.2-.5-.6-.5-.9-.3-1 .2-1.6.7-2.1z"/><path d="m40.4 47.7c.8-1.6 1.5-3.1 2.2-4.7-.5 1.7-1.2 3.3-2.2 4.7z"/><path d="m37.9 48.2c.3-.9.7-1.8 1.2-2.6-.3.9-.7 1.8-1.2 2.6z"/><path d="m36.6 46.6c.2-.8.6-1.5 1-2.2-.2.8-.6 1.5-1 2.2z"/><path d="m35.4 44.5c.4-.6 1-1.2 1.5-1.7-.4.7-.9 1.2-1.5 1.7z"/><path d="m38.9 38.8c.9.5 1.6 1.4 2 2.3.1.2.1.5.3.7s.4.3.6.5c.4.4.5 1 .3 1.5.1-.5-.1-1-.4-1.4-.2-.2-.4-.3-.6-.5s-.3-.5-.4-.7c-.3-.9-1-1.8-1.8-2.4z"/><path d="m34.9 40.8c-.1-.8-.2-1.6-.1-2.5.1-.4.3-.9.6-1.1.4-.2.9-.3 1.2.1-.3-.3-.8-.2-1.1 0s-.5.6-.5 1c-.1.8 0 1.6-.1 2.5z"/><path d="m47.6 47.2c.5.7 1 1.4 1.6 2l.9.9c.3.3.7.6 1.1.2-.1.2-.4.3-.6.2s-.4-.2-.6-.3c-.3-.3-.6-.6-.9-.9-.6-.6-1.1-1.3-1.5-2.1z"/><path d="m49.5 46.9c1 1.4 1.8 2.9 2.6 4.4-.9-1.4-1.8-2.9-2.6-4.4z"/><path d="m51.3 46.1c.9 1.4 1.7 2.9 2.5 4.4-.9-1.5-1.7-2.9-2.5-4.4z"/><path d="m52.9 45.3c1.2.7 2 2.1 1.8 3.5-.1-1.4-.7-2.6-1.8-3.5z"/><path d="m54.1 45.5c.4.7.9 1.3 1.6 1.6.3.2.7.3 1.1.1.3-.2.5-.7.2-1 .3.3.2.8-.2 1.1-.4.2-.8.1-1.2 0-.6-.4-1.2-1-1.5-1.8z"/><path d="m55.8 44.7c-.8-1.2-1.9-2.3-3.1-3h-.1l.1-.1c.4-.5 1.1-.4 1.7-.4s1.1.1 1.7.1h-1.7c-.5 0-1.2 0-1.5.4v-.1c1.1.7 2.2 1.8 2.9 3.1z"/><path d="m45 44.1c.3-2 1.7-3.7 3.4-4.7 1.8-1 3.8-1.4 5.8-1.2-2-.1-4 .3-5.7 1.3s-3.1 2.6-3.5 4.6z"/><path d="m58 45.4c.5-.5 1-.9 1.5-1.4-.3.6-.9 1.1-1.5 1.4z"/><path d="m41.5 15.8c-.3.8 0 1.7.1 2.6s.2 1.7.4 2.6c.4 1.7 1.1 3.4 2.3 4.6l.2.3-.3-.2c-.1-.1-.2-.2-.1-.4l.2-.3c.1-.2.3-.4.4-.5.3-.3.6-.6 1-.9.7-.6 1.4-1.1 2.1-1.7l-2 1.7c-.3.3-.6.6-.9.9-.1.2-.3.3-.4.5s-.3.4-.1.5l-.1.1c-1.3-1.3-2-3-2.4-4.7-.2-.9-.3-1.7-.4-2.6l-.1-1.3c-.1-.4-.1-.8.1-1.2z"/><path d="m48.9 22.5c1.4 1 2.6 2.3 3.5 3.9-1-1.5-2.2-2.8-3.5-3.9z"/><path d="m53.7 17.5c.7 2.5.7 5.3.1 7.8.4-2.6.4-5.2-.1-7.8z"/><path d="m49 22.2c.9-1.5 1.8-2.9 2.9-4.2-.9 1.5-1.8 2.9-2.9 4.2z"/><path d="m41.1 7.2c-.2-1.3.2-2.7 1-3.8s1.8-2 3-2.6 2.6-.7 3.9-.3c.6.2 1.2.5 1.8.9.3.2.5.4.7.7l.3.4c.2 0 .2.1.2.2s-.2.1-.2 0c0 .1.2.1.2 0s0-.2-.1-.2l-.3-.4c-.2-.2-.5-.5-.7-.6-.5-.4-1.1-.7-1.8-.9-1.3-.3-2.7-.3-3.8.4-1.2.6-2.2 1.5-3 2.5s-1.3 2.3-1.2 3.7z"/><path d="m43.5 6.8c1.4.2 2.8.4 4.2.4h2.1l1.1-.1h.5c.1 0 .4-.1.3-.3.1.2-.2.3-.3.3l-.5.1-1.1.1c-.7 0-1.4.1-2.1 0-1.4-.1-2.9-.2-4.2-.5z"/><path d="m52.8 60.9c2.3 1.4 4.4 3.2 6.4 5.2 1 1 1.8 2.2 2.1 3.5.4 1.3.5 2.7.6 4.1-.2-1.4-.3-2.7-.7-4s-1.2-2.5-2.2-3.4c-1.9-2.1-4-3.9-6.2-5.4z"/><path d="m65.5 78.5c2.8 2.5 5.3 5.2 7.4 8.2-2.3-2.8-4.8-5.5-7.4-8.2z"/><path d="m73.8 90.8c1.5.8 2.8 1.9 3.8 3.3-1.2-1.3-2.5-2.3-3.8-3.3z"/><path d="m22.6 35.8c2.4-.3 4.8.1 7 1-2.3-.7-4.6-1.1-7-1z"/></g></svg>