<svg enable-background="new 0 0 100 100" viewBox="0 0 100 100" xmlns="http://www.w3.org/2000/svg"><path d="m87 90.9s2.5 4.9 2.4 5.4-1.8 2-1.2 2.8 3.9.5 5-1c1.2-1.6-.3-6.3-.2-7.2 0-.8.4-3.6-.3-4.2-.6-.6-4.7-.3-5 0 .3 1.8-.6 3.9-.7 4.2z" fill="#7a43c3"/><path d="m89.2 96.7s.3.4.8-.5.4-4.7-1-5.1-1.3 2.1 0 4.5c.4.7.2 1.1.2 1.1z" fill="#cdcac6"/><path d="m89.1 91.1c-1-.3-1.2.9-.8 2.5.1-.3.8-1.2 1.4-.5.7.7.5 3.4-.4 3.4v.1s.3.4.8-.5c.5-.8.4-4.6-1-5z" fill="#cdcac6" opacity=".6"/><path d="m92.8 86.7c-.6-.6-4.7-.3-5 0v.5c1.6-.3 3.9-.1 4.2 1.8.4 2.2-.8 1.7.5 4.3s1.2 5.3-2.1 5.6c-1 .1-1.8 0-2.3-.2 0 .1.1.2.1.3.6.8 3.9.5 5-1 1.2-1.6-.3-6.3-.2-7.2.1-.7.4-3.5-.2-4.1z" fill="#7a43c3" opacity=".5"/><path d="m9.4 92.4s-7.3 1.4-8.4 2.8c-1.3 1.7 3 3.3 6 2.9 3.1-.4 4.3-.4 4.4-.2.3.3 4.6.4 4.9 0 .4-1.5-.4-5.7-.4-6.1-2.6 1-6.5.6-6.5.6z" fill="#7a43c3"/><path d="m1 95.2c-.2.2-.2.4-.2.6.3-.3.7-.5 1-.7 3.5-1.8 7.5-1.8 8.9-1.8.2 0 .4 0 .6-.2s.1-.5-.1-.7c-1.1 0-1.8-.1-1.8-.1s-7.3 1.5-8.4 2.9z" fill="#7a43c3" opacity=".3"/><path d="m3.7 93.7s-.7.9 2 1 6.4-1.5 5.7-2.4-3.4.1-7.7 1.4z" fill="#cdcac6"/><path d="m8.5 92.3c.3.1.5.4.1 1.1-.6 1.2-4.1 1.3-4.9.4-.1.2-.4.9 2 1 2.7.1 6.4-1.5 5.7-2.4-.4-.6-1.4-.5-2.9-.1z" fill="#cdcac6" opacity=".6"/><path d="m11.4 97.9c.3.3 4.6.4 4.9 0 .4-1.5-.4-5.7-.4-6.1-.3.1-.6.2-.9.2l-1.7 2s2.7 1 1.8 2.8c-.8 1.8-2.6-.3-3.9 0s-4.6 1.4-8 .4c-1.2-.3-2-.9-2.4-1.5-.2 1.5 3.5 2.7 6.2 2.4 3.1-.4 4.3-.5 4.4-.2z" fill="#7a43c3" opacity=".5"/><path d="m68.2 39.2s.8.6-1.3 2.3c-2 1.7-9.4 7.5-8.5 4.8s7.4-8 9.8-7.1z" fill="#543961"/><path d="m65.1 36s4.5 6.6 6.2 9.8c1.9 3.1.2 6.2-6.2 3.6-6.4-2.5-8-10.5-6.9-12.2 1-1.6 3.2-5.7 6.9-1.2z" fill="#e2ba33"/><path d="m67.9 40.3c-.9-1.3-1.7-2.6-2.2-3.3l-6.7 3s-.2 1.1-.4 2.4c1 2.7 3 5.7 6.5 7.1.1.1.3.1.4.2-.9-1.8-2-4.6-1.6-6.2.6-2.8 4-3.2 4-3.2z" fill="#e2ba33" opacity=".7"/><path d="m52.2 26.1s8 2.3 16 13.1c-3.1.1-8.3 7.9-11.4 7.3-6.7-.5-4.6-20.4-4.6-20.4z" fill="#7a43c3"/><path d="m66.5 38.6c-.2-1.1-1.2.5-3.3 0s-4.5-6.4-4.5-6.4l-2.6 7.1c.3 1.3.2 4.5.4 7.1h.3c2.5.4 6.4-4.5 9.4-6.5.2-.4.4-.9.3-1.3z" fill="#7a43c3" opacity=".6"/><path d="m88.1 86.6c-2.8-2-16.7-6.3-25.3-6.9-.1-7 3.2-17.2.4-21.7-4-6.5-14-3.5-14.6 1.6-.8 8-2.9 23.1 3.9 31.9 10.7 3.2 32.1 1.2 34.7 1.3 2.7.1 4-4 .9-6.2z" fill="#7a43c3"/><path d="m87.3 92.8c1 .1 1.8-.5 2.2-1.4-26.6-6.3-31.2-2-33.5-3.3s-9.3-16.5-3.5-22c.9-.9-4.3-2.8-4.3-2.8-.9 8.4-1.6 20.6 4.3 28.2 10.8 3.2 32.2 1.1 34.8 1.3z" fill="#7a43c3" opacity=".3"/><path d="m61.5 81.5c.1 0 .2.1.3.1h.1c.1 0 .2 0 .2.1h.1c.1 0 .2 0 .3.1h.1c.1 0 .2 0 .3.1h.1.1c6.5 1.3 21.2 2.2 26.4 6.2-.3-.5-.7-1.1-1.4-1.5-2.8-2-16.7-6.3-25.3-6.9-.1-3.9.9-8.8 1.3-13.1l-1.6 2.7s-.6 7.9-2.6 10.9c-.1.1-.1.2-.1.3 0 .3.5.6 1.3.9.2.1.3.1.4.1z" fill="#7a43c3" opacity=".5"/><path d="m35.6 31c-1.9 2.1-11.7 12.3 11.3 34.9 7.3 2 17.1-.7 17.4-3.3.2-2.5-1.5-28.6-8.5-34.5-6.5-5.4-16-1.6-20.2 2.9z" fill="#7a43c3"/><path d="m57.9 30.8.2.4c1.9 3.8 4.7 13.1-1.8 22.2-3.2 4.5-8.3 6.7-12.9 8.9 1.1 1.2 2.2 2.4 3.5 3.6 7.3 2 17.1-.7 17.4-3.3.2-2.3-1.1-23.1-6.4-31.8z" fill="#7a43c3" opacity=".5"/><path d="m33 46.1c1.6 4.9 5.3 11 12.8 18.6 7.4-.3 16.2-2 14.1-9.1-21 2-26.5-8.3-26.9-9.5z" fill="#7a43c3" opacity=".6"/><path d="m9.2 92.8c.1.2 3.9 3 7.1 2.2-.4-3.6-1.2-4.6-1.2-4.6z" fill="#7a43c3" opacity=".5"/><path d="m63.9 55.3c-8.1.9-28.1-.5-36.5 6.8s-16.1 26.5-17.6 28.6 3.9 5.1 7.1 3c2.5-1.6 9.6-9.2 15.4-18.6 4.3-7 20.9-2.9 28.4-4.1 6.2-1.1 5.2-11.1 3.2-15.7z" fill="#7a43c3"/><path d="m65.4 62.3c-.1-2.6-.7-5.2-1.5-7-2.4.3-5.8.3-9.7.5.3 0 9.7-.7 11.2 6.5z" fill="#7a43c3" opacity=".5"/><path d="m48.9 56.1c-8 .5-16.7 1.8-21.5 6-8.4 7.3-16.1 26.5-17.6 28.6-.8 1.2.4 2.6 2.3 3.3 3.9-5.8 7.3-11.9 10.8-17.9 1.6-2.8 3.1-5.7 5-8.3 3.4-4.8 8.8-7.6 14.2-9.5 2.2-.8 4.6-1.3 6.8-2.2z" fill="#7a43c3" opacity=".3"/><path d="m59.8 71.1c-7.5.7-22.5-3-26.4-2.2-4.6.9-.5 2.7-7.6 14.3-3.9 6.4-8.5 9.6-11.8 11.3 1 0 2-.2 2.8-.7 2.5-1.6 9.6-9.2 15.4-18.6 4.2-6.9 19.7-3.3 27.6-4.1z" fill="#7a43c3" opacity=".5"/><path d="m41.5 52.7s.4.4 2.6-1.2 6.3-7.2 5.5-8.1c-.9-.8-8.7 3.7-8.1 9.3z" fill="#543961"/><path d="m45.5 41.3s3.5 3.1 5.5 4.3c5.8-1.4 15.7.4 20.6-1.2 1.7.4 2.5 3.4.8 4.4-1.3.8-16.7 6-22.8 5.8s-14.3-6.9-15.2-9.7c-1-2.8 3.6-9.4 11.1-3.6z" fill="#e2ba33"/><path d="m47.2 54.1c.8.2 1.6.3 2.4.4 1.1 0 2.5-.1 4-.3-1.4-1.9-4.7-1-6.4-.1z" fill="#e2ba33" opacity=".5"/><path d="m66.9 45c-5.1.2-11.6-.5-16 .6-1.4-.9-3.6-2.7-4.8-3.7-.4 0-.7 0-.7 0l-.9.2 1.6 4.1s2.6-1.6 5.2.4c2.9-1.3 12.4-2.1 13.3.4.6 1.9.5 3.2 1.3 3.9.7-.2 1.3-.4 1.9-.6.1-1.8-.7-4.8-.9-5.3z" fill="#e2ba33" opacity=".5"/><path d="m50.2 45.1c-2-1.4-4.7-3.8-4.7-3.8-7.5-5.7-12.1.8-11.1 3.6.6 1.7 3.8 4.8 7.6 7 1.1-1.9 6-4.4 8.2-6.8z" fill="#e2ba33" opacity=".5"/><path d="m33.5 35.4c-3.1 3.1-3.5 13.2 8 17.2-.7-1.9 6.2-5.9 8.1-9.2-5.5-5.6-13.4-10.7-16.1-8z" fill="#7a43c3"/><path d="m43.4 49.6c2-1.9 5-4.2 6.1-6.2-3-3.1-6.7-6-9.9-7.5.3.2 5.3 4.2 5.9 6.8.5 1.8-.3 5-2.1 6.9z" fill="#7a43c3" opacity=".5"/><path d="m43.4 49.6c-.4.4-.7.6-2.1.9-1.9.4-5.5-.4-7.7-3.4 1.5 2.2 4.1 4.2 7.9 5.5-.3-.7.6-1.7 1.9-3z" fill="#7a43c3" opacity=".6"/><path d="m35.3 21.9s2.7 4.6 2.3 6.1-2.5 3.2-2.7 4c-.2.7 7 2.6 10.6 1.1.4-2.2.4-5 1.1-6.8.2-.5-.1-1-.5-1.1-1.4-.4-3.6-1-5.8-4.5-3.7-3.6-5.7 0-5 1.2z" fill="#e2ba33"/><path d="m45.6 33.1c.5-2.4.3-5.5 1.4-7.4-.1-.1-.3-.3-.4-.5-1-.3-2.9-.6-4.8-2.7l-.1.1s2.5 1.7 2.7 8.5c-.8 1.9-4.5-.2-7.3-1.9-.8 1.1-2 2.2-2.1 2.7-.2.8 6.9 2.7 10.6 1.2z" fill="#e2ba33" opacity=".4"/><path d="m39.4 23.6s-.4 1.9-2.1 2.4c-1.4-3.1-1.8-5.1-1.7-4.8 0 .3 3.8 2.4 3.8 2.4z" fill="#e2ba33" opacity=".7"/><path d="m40.6 22.6c-1.4 1.6-4.8 3-6.4 1.5-1.6-1.4-1.9-7.1-.5-8.7s4.8-1.8 6.5-.4c1.5 1.5 1.8 6 .4 7.6z" fill="#e2ba33"/><path d="m33.7 23.6s.5-.2.8-.1.9.5.9.8c0 .4-.8.4-.8.4s-.6-.2-.9-1.1z" fill="#7a43c3"/><path d="m34.6 23.7 3.6-4.2.5.8-3.5 4z" fill="#7a43c3"/><circle cx="35.5" cy="20.7" fill="#e2ba33" opacity=".7" r="1.1"/><path d="m33 16.9s.6.9 2.2-.1 2.3 0 2.8 1.1-.7 3-.3 3.2.9.1 1.1-.1 0-2.1.8-2.5c.8-.5 1.6 1.4.8 3-.1 1.2 1.8 1.4 1.8 1.4s1.5-4 .3-6.2c1.3-3.7-3.2-5.5-6.7-3.2-2.9-2.2-4.6 2.4-2.8 3.4z" fill="#1a1a1a"/><path d="m82.6 41.1c3.9-5.8 15.9-28.5 16.5-34.6.3-3-1.6-5.3-3.4-6-2-.7-3.8.8-4.6 1.7-4 4.7-14.9 27.5-16.9 34.4 0 0 .1 1.2.7 1.8 1.9 1.8 7.1 3.7 7.7 2.7z" fill="#e2da7e"/><path d="m95.7.5c-.1 0-.3-.1-.4-.1-1 .2-2 .4-2.9.6-.6.4-1.1.8-1.4 1.2-.5.6-1.2 1.6-1.9 2.8l6.5 2.7s2.5-1.8 2.4 1.2c0 3-11.4 25.4-14 29.8-1.1 1.8-1.7 1.6-1-.2-.8-1.8-3-4.9-2.1-8.3.5-2-.8-3.3-2.6-3.7-1.9 4.2-3.4 8-4 10.1 0 0 .1 1.2.7 1.8 1.8 1.8 7 3.7 7.7 2.8 3.9-5.8 15.9-28.5 16.5-34.6.2-3-1.6-5.4-3.5-6.1z" fill="#e2da7e" opacity=".4"/><path d="m79.2 38.4-1.8-.8-7 14.9c-.1 0-.3.1-.3.3-.1.2 0 .5.2.6l1.2.6c.2.1.5 0 .6-.2.1-.1.1-.3 0-.4z" fill="#f2ef94"/><path d="m78.2 39.3s-4.4 10.3-6.2 14c-.4.8-.7.6-.7.6l.2.1c.2.1.5 0 .6-.2.1-.1.1-.3 0-.4l6.8-14.4z" fill="#e2da7e" opacity=".4"/><path d="m77.4 37.6-.3.6c1 2.2-3.2 10.1-4.9 13.6-.5.9-.9 1.5-1.2 1.8l.6.3c.2.1.5 0 .6-.2.1-.1.1-.3 0-.4l7-14.9z" fill="#e2da7e" opacity=".4"/><path d="m82 40.1c3.9-5.8 15.5-28.5 16.4-34.6.3-2.3-.7-4.2-2.6-5-1.9-.9-4.6-.5-5.3.4-4 4.7-15.2 29.4-16.2 35.6-.2 1.1 7 4.6 7.7 3.6z" fill="#f2ef94"/><path d="m95.7.5c-1.9-.9-4.6-.5-5.3.4 0 0-.1.1-.1.2 2 0 4 .9 5.6 2.4 3.8 3.4-9.7 31.1-15 33.5-3.7 1.7-5.6-.6-6.3-2-.2.6-.3 1.1-.3 1.5-.2 1.2 7.1 4.6 7.7 3.6 3.9-5.8 15.5-28.5 16.4-34.6.2-2.3-.8-4.1-2.7-5z" fill="#e2da7e" opacity=".4"/><path d="m90.4.9c-4 4.7-15.2 29.4-16.2 35.6-.1.5 1.4 1.6 3.1 2.4 0 0 9.2-25.1 18.3-38.4-1.8-.9-4.4-.5-5.2.4z" fill="#e2da7e" opacity=".4"/><path d="m70.7 53.1s-3.4-1.3-3.7-3.3c-.3-2.1 2.4-5.9 5.1-3.6 2.7 2.2 1.2 6.3-1.4 6.9z" fill="#e2ba33"/><path d="m73.8 53.8c-1.1-.3-2-.6-3.1-1.4-.9-.6-1.8 1.1.1 2.2 3.1 1.8 4.1-.5 3-.8z" fill="#cdcac6"/><path d="m73.8 53.8c-1.1-.3-2-.6-3.1-1.4-.4-.3-.8-.1-.9.3.3-.1.6.2 2.2 1.1.9.5 1.7.6 2.3.6 0-.3-.2-.5-.5-.6z" fill="#cdcac6" opacity=".6"/><path d="m74.8 52.3c-1.2-.4-2.2-.6-3.5-1.5-1-.7-2 1.3.1 2.5 3.4 2 4.6-.6 3.4-1z" fill="#cdcac6"/><path d="m74.8 52.3c-1.2-.4-2.2-.6-3.5-1.5-.3-.2-.6-.2-.9 0 .3.1 1.1.9 2.7 1.5s1.9.8 2 1.1c.2-.5.1-1-.3-1.1z" fill="#cdcac6" opacity=".6"/><path d="m75.7 50.6c-1.3-.4-2.4-.7-3.8-1.7-1.1-.8-2.2 1.4.1 2.7 3.8 2.2 5-.6 3.7-1z" fill="#cdcac6"/><path d="m71.2 48.8c.9 1.4 2.7 2.3 5.1 2.3 0-.2-.2-.4-.5-.5-1.3-.4-2.4-.7-3.8-1.7-.4-.2-.6-.2-.8-.1z" fill="#cdcac6" opacity=".6"/><path d="m76.5 48.9c-1.3-.4-2.4-.7-3.8-1.7-1.1-.8-2.2 1.4.1 2.7 3.7 2.3 5-.6 3.7-1z" fill="#cdcac6"/><path d="m78.3 44.3c1.4-1.9-3-3.2-4.8-2.7s-2.4 1.1-4 3c0 0-1.4-.8-2.8.3-1.4 1.6-.9 6.1.2 6.3 1 .1 2.1-.6 2.3-.8 1 .1 2.2.4 4.3-1.9 2 1.2 4.3 1.1 3.8-.1 1.1-.1 1.4-1.3.6-2 .9.1 1.4-1 .4-2.1z" fill="#cdcac6"/><path d="m78.5 43.3c-.5-1.3-3.6-2.1-5-1.6-1.8.5-2.4 1.1-4 3 0 0-1.4-.8-2.8.3-.1.1-.2.3-.3.4.4-.2.8-.3 1.2-.4.5 0 1.1.1 1.4.6.1.1.1.3.2.3.2.1.4-.1.5-.3.7-1.4 1.9-2.7 3.3-3.5 1.9-1 4.3-.1 5.5 1.2z" fill="#fff" opacity=".4"/><path d="m74.7 43.1s3.9 1.7 4 1.9c-.1-.2-.2-.4-.4-.6 0 0 .1-.1.1-.1z" fill="#cdcac6" opacity=".6"/><path d="m78.3 46.9c-.1-.2-.2-.3-.3-.4.1 0 .3 0 .4-.1-1.5-.4-3.6-1.5-3.6-1.5z" fill="#cdcac6" opacity=".6"/><path d="m77.3 48.5c.4 0 .7-.2.9-.5-.9.1-2.3-.6-4.3-1.6.9.6 3.4 2.1 3.4 2.1z" fill="#cdcac6" opacity=".6"/><path d="m73.5 48.5c1.4.8 2.9 1.1 3.6.7-1.9.7-3.4-1.3-3.8-1.2-.3.1-4 2.1-4.1-2.1-.1 2.8-.8 4.9-2.3 4.4s-.4-5.1-.4-5.2c-1.1 1.8-.6 5.9.4 6s2.1-.6 2.3-.8c1 .2 2.3.5 4.3-1.8z" fill="#cdcac6" opacity=".6"/><path d="m69.3 89.4s2-5.3.1-8.7c-.9-.9-2.2-.5-2.2-.5s1.9 3.6 0 9.6c1 2.1 2.1-.4 2.1-.4z" fill="#cdcac6"/><path d="m67.1 80.2s1.9 3.6 0 9.6c1.1 2 2.2-.4 2.2-.4s.2-.5.4-1.4c0 0-.7 1.3-1.4.4s.3-3.7-.3-6.1 1.3-1.9 2 .3c-.1-.7-.4-1.4-.7-2-.9-.8-2.2-.4-2.2-.4z" fill="#cdcac6" opacity=".5"/><path d="m85.4 92.7s1.8-4.7.1-7.6c-.8-.8-1.9-.8-1.9-.8s1.6 3.5-.1 8.8c.9 1.8 1.9-.4 1.9-.4z" fill="#cdcac6"/><path d="m83.5 93.2c.9 1.7 1.9-.4 1.9-.4s.3-.8.6-2c0 0-.8.8-1.3.2-.6-.6.2-4.5 0-5.4-.1-.5.5-.4 1 0-.1-.1-.1-.3-.2-.4-.8-.8-1.9-.8-1.9-.8s1.6 3.4-.1 8.8z" fill="#cdcac6" opacity=".5"/><path d="m89.1 91.4s-22.3-2.5-27.5-2.4c-5.5.1-9.4 1-9.6 1.8s3.9 3.4 9.3 4.2c4.6.7 26.1-1.8 27.6-1.8.9-.2.2-1.8.2-1.8z" fill="#cdcac6"/><g fill="#cdcac6" opacity=".6"><path d="m86 91.6c1.7 0 2.8.1 2.8.1s-1.1 0-2.8-.1z"/><path d="m88.3 92.7h.3s-.2 0-.3 0z"/><path d="m65.1 89.1-.7 6.1c4-.1 10.3-.6 15.6-1.1s-13.4 1.1-13.3.2 19.1-1.5 21.6-1.6c-2.4.1-21.1.6-21.5-.4-.4-.9 13.2-.8 19.2-.7-5.7-.1-18-.5-18.1-1.1-.2-.8 21.2.9 21.2.9s-15.9-1.8-24-2.3z"/><path d="m62.1 91.6c1.4 1.6-.4 2.2-.4 2.2s1.3.5.8 1.4c1.1 0 2.5 0 4.2-.1-.3-.3-1.1-1.2.4-1.7-1.3-1.6-1-2.4.3-2.4-.9-.5-.3-1.3.3-1.8-1.8-.1-3.4-.2-4.7-.2 0 0 1 1.9-.9 2.6z" opacity=".5"/></g><path d="m52 90.8c0 .1.1.3.2.5.1-.3 1.1-1.9 8.3-1.5 3 0 2 2.2-4.7 1.6 9 1 7.2 2.9 1.5 1.8 2.4.7 6.3 1.3 4.5 1.9.6.1 1.4.1 2.4.1.1-.2.2-.5.2-.8.2-1.1.4-3.4.5-5.3-1.3-.1-2.5-.1-3.3-.1-5.5 0-9.4 1-9.6 1.8z" fill="#cdcac6" opacity=".6"/><path d="m65 95.2c.8-1.7 1.6-6.2.4-6.5-2.1-.7-2.3 4.9-2.8 6.5-.1 1 1.7 1.6 2.4 0z" fill="#cdcac6"/><path d="m62.7 95.2v.4c-.1-.3 1.3-6.9 2.2-6.6.9.2 1.2 2.3.2 5.2-.6 1.7-1.3 2.1-1.7 2.1.5.1 1.2-.1 1.6-.9.8-1.7 1.6-6.2.4-6.5-2-.9-2.3 4.7-2.7 6.3z" fill="#cdcac6" opacity=".6"/><path d="m37.1 28.6s-2.9 3.6-3.3 4.8c2.1 1.8 9.3 2.3 11.8-.2-2.7-1.1-8.5-4.6-8.5-4.6z" fill="#7a43c3"/><path d="m36.9 29.8s1.7 3.9 3.7 5.9c1.3-2 1.3-3.3 5-2.5-3.9-1.7-8.4-5-8.4-5z" fill="#7a43c3" opacity=".5"/><path d="m37.3 26s-1.1.4-.8 2.5c.3 2 2.1 4.4 3.9 6.2 1.1-1.7 1.5-2.2 2.1-2.2.7 0 3 .6 3 .6s-6.2-3-8.2-7.1z" fill="#7a43c3"/><path d="m37.3 26s-.1 0-.1.1c.1.7 1.2 4.8 5.4 6.5.7 0 3 .6 3 .6s-6.3-3.1-8.3-7.2z" fill="#7a43c3" opacity=".5"/><path d="m42.5 32.6c-1.2 0-2.7 1.2-4.5-1.6-2.4-3.8-.8-5-.8-5s-1.1.4-.8 2.5c.3 2 2.1 4.4 3.9 6.2 1.1-1.6 1.6-2.1 2.2-2.1z" fill="#7a43c3" opacity=".6"/><path d="m45.6 33.1s1-2.7 2-3.1c.9-.3 3.3-.3 3.3-.3s-1.1-1.7-3.8-4.2c-2.4 1.2-1.5 7.6-1.5 7.6z" fill="#7a43c3" opacity=".5"/><path d="m42.4 23.2s2 1.4 3.1 9.9c.8-1.7.6-3.6 1.5-3.7s3-.1 3-.1-4.8-7.3-7.6-6.1z" fill="#7a43c3"/><path d="m45.6 33.1c.2-.5.4-1 .5-1.5-.5-7.1-3.6-8.4-3.6-8.4s2 1.4 3.1 9.9z" fill="#7a43c3" opacity=".5"/><path d="m50.1 29.3s-4.7-7.2-7.5-6.1c.2 0 2.9-.2 4.6 4.5.3 1.1-.6.4-.8 2.9v.1c.2-.7.3-1.2.8-1.2.8-.2 2.9-.2 2.9-.2z" fill="#7a43c3" opacity=".6"/><path d="m12.1 88.9s3.7 3.4 7 2.8c1-.5 1.4-1.4 1.4-1.4s-3.8.2-8.2-3.4c-1.9.3-.2 2-.2 2z" fill="#cdcac6"/><path d="m12.4 87c-2 .2-.3 2-.3 2s.7.6 1.7 1.3c0 0-.4-1 .3-1.3s4.1 1.8 5 1.9c.5.1.2.6-.4 1 .1 0 .3 0 .4-.1 1-.5 1.4-1.4 1.4-1.4s-3.8.1-8.1-3.4z" fill="#cdcac6" opacity=".5"/><path d="m22 76.1s4 3.7 7.7 3.1c1.1-.5 1.3-1.9 1.3-1.9s-3.9.5-8.7-3.4c-2.1.3-.3 2.2-.3 2.2z" fill="#cdcac6"/><path d="m31 77.3s-3.9.5-8.7-3.4c-2.1.3-.3 2.1-.3 2.1s.4.4 1.1.8c0 0-.9-1.1.1-1.4s3.1 1.5 5.5 1.9c2.3.3 1.2 1.8-.9 1.7.7.1 1.3.2 2 0 .9-.4 1.2-1.7 1.2-1.7z" fill="#cdcac6" opacity=".5"/><path d="m10.4 93.2s12.7-18.6 15.1-23.1c2.5-4.9 3.5-8.8 2.9-9.3s-4.8 1.8-8.1 6.2c-2.9 3.7-10.8 23.8-11.5 25.1-.1.9 1.6 1.1 1.6 1.1z" fill="#cdcac6"/><g fill="#cdcac6" opacity=".6"><path d="m11.6 90.3c-.8 1.5-1.4 2.5-1.4 2.5s.6-1 1.4-2.5z"/><path d="m9.6 91.8c-.1.1-.1.2-.1.2s0 0 .1-.2z"/><path d="m23.7 73.1-5.1-3.4c-1.8 3.6-4.3 9.4-6.4 14.3s5.3-12.3 6.1-11.8c.7.5-7.7 17.6-8.7 19.8 1.1-2.2 9.4-18.9 10.5-18.7 1 .1-5.5 12-8.5 17.3 2.8-4.9 8.9-15.6 9.5-15.5.9.2-10.8 18.3-10.8 18.3s9.2-13.4 13.4-20.3z"/><path d="m22.9 69.3c-2.1.4-1.7-1.3-1.7-1.3s-1 .9-1.6.1c-.6.9-1.2 2.2-1.9 3.7.5-.1 1.6-.4 1.3 1.2 2-.4 2.5.2 2 1.3.9-.5 1.3.3 1.5 1.1 1-1.6 1.8-2.9 2.5-4-.2-.1-2.3-.1-2.1-2.1z" opacity=".5"/></g><path d="m28.4 60.7c-.1-.1-.3-.1-.6 0 .2.3 1.2 1.8-2.6 8.1-1.4 2.6-2.9.7.8-4.9-5.1 7.4-5.9 5-2.3.5-1.8 1.8-4.1 5-3.8 3.1-.3.5-.7 1.2-1.2 2.1.1.2.3.4.6.6.9.7 2.8 2 4.4 3 .8-1.3 1.4-2.3 1.8-3 2.5-5 3.5-8.9 2.9-9.5z" fill="#cdcac6" opacity=".6"/><path d="m18.3 70.1c1.1 1.5 4.7 4.3 5.6 3.5 1.6-1.5-3.2-4.4-4.4-5.5-.8-.7-2.2.6-1.2 2z" fill="#cdcac6"/><path d="m19.4 68.1c-.1-.1-.2-.2-.3-.2.3 0 5.4 4.4 4.8 5-.6.7-2.7 0-4.7-2.3-1.2-1.4-1.2-2.1-1-2.5-.4.4-.5 1.1 0 1.9 1.1 1.5 4.7 4.3 5.6 3.5 1.7-1.4-3.2-4.3-4.4-5.4z" fill="#cdcac6" opacity=".6"/><path d="m35.8 15.6c0 .1 1.6 1.5 1.9 2.5s-1 2.8-.5 3.1 1.9.2 2.1 0 .6-3.9 2.1-3.9z" fill="#7a43c3"/><path d="m36.1 15.9c.3.3.9.9 1.3 1.5.2-.3.7-.5 1.6-.2 1.8.6.1 3.9-.7 4.2.5 0 1.1-.1 1.1-.2.2-.2.6-3.9 2.1-3.9l-5.2-1.5c-.1 0-.2 0-.2.1z" fill="#7a43c3" opacity=".5"/><path d="m31.6 16.5s5.4-.5 11.6 1.2c.1-6.1-5.1-7.4-7.9-6.4-2 .7-3.4 2.5-3.4 4.6-.5 0-.3.6-.3.6z" fill="#7a43c3"/><path d="m34 16.4c2.2 0 5.6.3 9.2 1.3 0-3.4-1.5-5.3-3.4-6.2 1.2 1 2.1 2.4 1.4 4.1-.9 1.2-3 .2-7.2.8z" fill="#7a43c3" opacity=".5"/><path d="m36 11.1c-.2 0-.5.1-.7.2-2 .7-3.4 2.5-3.4 4.6-.5 0-.3.6-.3.6s.8-.1 2-.1c-.4-1-.9-3.6 2.4-5.3z" fill="#7a43c3" opacity=".6"/><path d="m34.2 25.9c-.3 0-1.6-1.4-1.8-1.7-.4-.9-.4-2.9-.4-3v-.1h.1c1.5-.2 4-.6 4.2-.4.1.1.1.3.1 1 0 .5.1 1.2.2 1.4.1.1.4.4.7.7.5.5.7.7.7.8-.2.2-3.6 1.3-3.8 1.3zm-2-4.7c0 .3 0 2.1.4 2.9.1.3 1.4 1.6 1.7 1.6s3.2-1 3.6-1.2c-.1-.1-.4-.5-.7-.7-.3-.3-.6-.6-.7-.7-.1-.2-.2-.7-.2-1.4 0-.4 0-.8-.1-.9 0 0 0 0-.1 0-.5 0-2.6.2-3.9.4z" fill="#090704"/><path d="m33.1 24.9-.1-.1 3.7-1.5 2.1-2.8h-.9l-1.5 1.7h-.1l-4.1.6v-.1l4.1-.6 1.5-1.7h1.3l-.1.1-2.2 2.9z" fill="#090704"/><path d="m39.1 20.4c0 .4-.3.7-.7.7s-.7-.3-.7-.7.3-.7.7-.7c.3 0 .7.3.7.7z" fill="#090704"/><g fill="#1a1a1a"><path d="m10.5 92.9c2.8-4.4 5.8-8.7 8.6-13.1 2.9-4.3 5.8-8.8 7.6-13.7-.8 2.5-1.9 4.9-3.2 7.2s-2.7 4.5-4.1 6.7c-3 4.3-5.9 8.6-8.9 12.9z"/><path d="m16.4 94.2c3.2-2.6 5.9-5.8 8.4-9.1 2.5-3.2 4.9-6.7 7.6-9.7-2.6 3.2-5 6.6-7.5 9.9-2.5 3.2-5.1 6.4-8.5 8.9z"/><path d="m74.3 36.8c1.4-6.4 3.8-12.6 6.7-18.6 2.9-5.9 6.2-11.6 9.5-17.3-3.1 5.8-6.4 11.5-9.3 17.4-3 6-5.3 12.2-6.9 18.5z"/><path d="m82 41.1c2.2-4.6 4.6-9.1 6.8-13.7 2.4-4.5 4.6-9.1 7.1-13.6-2.2 4.6-4.6 9.1-6.8 13.7-2.4 4.5-4.6 9-7.1 13.6z"/><path d="m83 40.5c3.1-5.1 6-10.4 8.6-15.8 2.7-5.3 5.1-10.8 7.2-16.5-1.8 5.7-4.3 11.2-7 16.6s-5.5 10.7-8.8 15.7z"/><path d="m33.3 47.1c1.1 1.2 2.3 2.3 3.6 3.2s2.8 1.6 4.2 2.3c-1.5-.5-3-1.3-4.4-2.2-1.2-.8-2.4-1.9-3.4-3.3z"/><path d="m42.5 37.5 3.9 2.7c1.2 1 2.5 1.9 3.7 2.9-1.3-.9-2.6-1.8-3.9-2.7-1.2-.9-2.5-1.9-3.7-2.9z"/><path d="m18.4 70.1c.7.6 1.4 1.3 2.2 1.8.8.6 1.6 1 2.5 1.5-.9-.3-1.8-.8-2.6-1.3-.8-.6-1.5-1.2-2.1-2z"/><path d="m19.9 68.7c.8.4 1.5.9 2.2 1.4s1.4 1 2.1 1.6c-.8-.4-1.5-.9-2.2-1.4s-1.5-1-2.1-1.6z"/><path d="m23 69c.4-.9 1-1.8 1.4-2.6.5-.8 1-1.7 1.6-2.5-.4.9-1 1.8-1.4 2.6-.6.9-1 1.7-1.6 2.5z"/><path d="m21.4 68.1c.3-.7.6-1.3 1-2 .4-.6.8-1.3 1.4-1.8-.9 1.3-1.6 2.6-2.4 3.8z"/><path d="m10.5 90.6c1.4-3.2 2.8-6.4 4.2-9.7 1.5-3.2 2.9-6.4 4.4-9.6-1.4 3.2-2.8 6.4-4.2 9.7-1.4 3.2-2.8 6.5-4.4 9.6z"/><path d="m10.1 92.4c1.7-3.3 3.5-6.6 5.2-9.9 1.8-3.2 3.5-6.5 5.4-9.7-1.7 3.3-3.5 6.6-5.2 9.9-1.8 3.2-3.5 6.4-5.4 9.7z"/><path d="m47.4 71.5c1.4-.2 2.8-.3 4.2-.4 1.4 0 2.8 0 4.2.2-1.4 0-2.8 0-4.2 0-1.4.1-2.8.2-4.2.2z"/><path d="m49.2 82.2c.2.9.4 1.8.8 2.7.2.9.6 1.7.9 2.6-.5-.8-.8-1.7-1.2-2.5-.2-.9-.4-1.8-.5-2.8z"/><path d="m52.4 91.5c1.4.8 2.8 1.6 4.3 2.3s3 1.3 4.5 1.8c-1.6-.3-3.1-.9-4.6-1.6s-2.9-1.5-4.2-2.5z"/><path d="m63.3 90.6c-.1.9-.3 1.8-.5 2.7s-.4 1.7-.7 2.6c.1-.9.3-1.8.5-2.7s.4-1.7.7-2.6z"/><path d="m65.1 94.5c0-.3.1-.6.2-.9s.2-.6.4-.8c0 .3-.1.6-.2.9-.1.2-.2.5-.4.8z"/><path d="m65.1 95.9c2.7-1.4 5.8-1.4 8.7-1.4s5.9 0 8.7-1c-2.7 1.2-5.8 1.2-8.7 1.2s-5.9 0-8.7 1.2z"/><path d="m87.8 93.3c.3.3.4.7.6 1.1.1.4.2.8.2 1.2-.2-.4-.2-.8-.4-1.1-.1-.4-.3-.8-.4-1.2z"/><path d="m89 97.7c-.4 0-.7.4-.9.7-.1.4 0 .8.3 1 .2.3.6.4 1 .4s.8-.2 1.1-.5c-.2.3-.6.6-1.1.6-.4.1-.9-.1-1.2-.4s-.4-.8-.2-1.2.6-.7 1-.6z"/><path d="m92.4 90.6c.6 1 1 2.2 1.3 3.3.2 1.2.4 2.3.3 3.5-.1-1.2-.3-2.3-.6-3.5-.1-1.1-.5-2.2-1-3.3z"/><path d="m65 81c2.7.1 5.3.4 7.9.8s5.2.8 7.8 1.5c-2.6-.4-5.2-.9-7.9-1.2-2.5-.5-5.2-.8-7.8-1.1z"/><path d="m60 70.9c1.5-.2 2.8-.9 3.7-2-.6 1.3-2.2 2.2-3.7 2z"/><path d="m50.5 55.5c1-.2 1.9-.2 2.9-.3 1 0 1.9-.1 2.9-.1-1 .2-1.9.2-2.9.3-.9 0-1.9.1-2.9.1z"/><path d="m53.6 45.1c1.5-.2 2.9-.3 4.4-.4s2.9-.2 4.4-.2c-1.5.2-2.9.3-4.4.4-1.4 0-2.9.2-4.4.2z"/><path d="m58.9 29.7c1.4 1.2 2.8 2.4 4.2 3.6 1.4 1.3 2.8 2.5 4.1 3.8-1.4-1.2-2.8-2.4-4.2-3.6s-2.8-2.4-4.1-3.8z"/><path d="m59 33.5c.7 1.2 1.2 2.5 1.7 3.8.4 1.3.9 2.6 1.2 3.9-.5-1.3-.9-2.6-1.4-3.9-.5-1.2-1.1-2.5-1.5-3.8z"/><path d="m67.9 40.3c.5.5.8 1.2 1.1 1.8.3.7.5 1.3.6 2-.3-.7-.5-1.3-.9-1.9-.2-.6-.5-1.2-.8-1.9z"/><path d="m69.1 50.2c.8 0 1.6-.2 2.4-.5.7-.3 1.5-.7 1.9-1.4v-.1h.1c.7.4 1.4.9 2.2.9-.8.1-1.6-.4-2.3-.8h.1c-.4.8-1.2 1.2-2 1.5-.7.3-1.6.5-2.4.4z"/><path d="m74.7 47.2c.5.1 1 .3 1.4.4.5.2.9.4 1.4.6-.5-.1-1-.3-1.4-.4-.5-.2-1-.4-1.4-.6z"/><path d="m75.1 45.3c.6.1 1.2.4 1.7.7s1.1.6 1.5 1.1c-.6-.3-1.1-.6-1.6-.9s-1.1-.5-1.6-.9z"/><path d="m75.3 43.8c.5 0 .9.2 1.4.3.4.2.9.3 1.3.5-.5 0-.9-.2-1.4-.3s-.9-.2-1.3-.5z"/><path d="m69.6 44.5c.6-.6 1.1-1.2 1.7-1.7s1.3-1 2.1-1.2c.8-.1 1.6-.1 2.4.1.8.1 1.5.6 2.2 1.1-.7-.3-1.4-.8-2.2-.9-.8-.2-1.6-.2-2.4-.1s-1.5.5-2.1 1c-.5.6-1.1 1.1-1.7 1.7z"/><path d="m71.3 51.1c1.1.6 2.3 1 3.6 1-1.2.3-2.7-.1-3.6-1z"/><path d="m72.7 50.5c.5.1 1 .2 1.5.3.5.2 1 .3 1.4.6-.5-.1-1-.2-1.5-.3-.4-.3-.9-.4-1.4-.6z"/><path d="m71 52.9c1.1.5 2.2.8 3.4.7-1.2.3-2.5.1-3.4-.7z"/><path d="m69.9 53.5c1.3.7 2.6 1.1 4 1.2-1.4.1-2.9-.3-4-1.2z"/><path d="m31.5 41.7c-.1-1.8.3-3.6.8-5.3.6-1.7 1.3-3.3 2.2-4.9-.7 1.7-1.5 3.3-2 5-.6 1.7-.9 3.4-1 5.2z"/><path d="m40.2 34.8c-.5-.3-.8-.7-1.2-1.2-.3-.4-.7-.9-1-1.3-.6-1-1.2-1.9-1.6-3 .6 1 1.1 1.9 1.8 2.8.3.5.6.9.9 1.4.3.4.6.9 1.1 1.3z"/><path d="m41.6 30.5c1.3.9 2.7 1.6 4 2.5l-.1.1c-.5-2.7-.6-5.5-1.8-7.9.7 1.2 1.1 2.5 1.3 3.9.3 1.3.4 2.7.6 4v.2l-.2-.1c-1.2-.9-2.6-1.6-3.8-2.7z"/><path d="m44.7 23.7c1.1.6 2 1.4 2.9 2.3.8.9 1.6 1.9 2.2 3-.7-1-1.5-2-2.4-2.8-.7-1-1.7-1.7-2.7-2.5z"/><path d="m31.8 15.4c.4-2.1 2.4-3.8 4.5-4 2.2-.2 4.4 1.1 5.2 3.2-.9-1.9-3.1-3.1-5.1-2.9-2.2.1-4 1.7-4.6 3.7z"/><path d="m31.5 16.6c1.4-.1 2.8-.1 4.2-.1s2.8 0 4.2.1c-1.4.1-2.8.1-4.2.1-1.3-.1-2.8 0-4.2-.1z"/><path d="m39.5 21.1c0-.4.1-.8.2-1.3.1-.4.1-.8.3-1.3.1-.4.5-.8 1-.9.4-.1.9 0 1.2.3-.7-.5-1.8-.1-2 .7s-.4 1.7-.7 2.5z"/><path d="m37.2 20.4c.1-.5.2-.9.3-1.4s.2-.9.3-1.4c.1.5 0 1-.1 1.4-.1.5-.3 1-.5 1.4z"/><path d="m40.2 34.7c.2-.3.5-.6.7-.9.3-.2.5-.5.9-.7-.2.3-.5.6-.7.9-.3.2-.6.5-.9.7z"/><path d="m41.8 52.6c.1-1 .6-1.9 1.2-2.7.7-.8 1.5-1.4 2.3-2s1.6-1.1 2.3-1.8 1.3-1.5 1.6-2.5c-.2 1-.8 1.9-1.5 2.6s-1.5 1.3-2.3 1.9-1.6 1.2-2.3 1.9c-.6.8-1.2 1.7-1.3 2.6z"/><path d="m55.1 54c1.8-.4 3.6-.7 5.3-1.3 1.8-.5 3.5-1.1 5.2-1.8-1.6.8-3.4 1.5-5.1 2-1.8.5-3.6.9-5.4 1.1z"/><path d="m29.3 61.2c3.1-1.7 6.4-2.9 9.8-3.8 3.4-.8 7-1.2 10.5-1.1-3.5.1-7 .5-10.4 1.4-3.5.8-6.8 2-9.9 3.5z"/><path d="m51.7 90.1c-1.8-2.4-2.8-5.4-3.4-8.3-.3-1.5-.4-3-.5-4.5s-.1-3-.2-4.5c.2 1.5.3 3 .4 4.5s.2 3 .5 4.5c.6 2.8 1.7 5.7 3.2 8.3z"/><path d="m22.5 76.8c.9.5 1.7 1.1 2.6 1.5.9.5 1.8.8 2.7 1.2-1-.2-1.9-.6-2.8-1-.9-.5-1.8-1-2.5-1.7z"/><path d="m24.4 75.4c.9.2 1.8.5 2.6.8.9.3 1.8.5 2.6.8-.9-.1-1.8-.3-2.7-.6-.8-.3-1.6-.5-2.5-1z"/><path d="m23.5 76.5c.6.3 1.1.7 1.8.9.6.3 1.2.5 1.8.8-.7-.1-1.3-.4-1.9-.6-.6-.3-1.2-.6-1.7-1.1z"/><path d="m14.4 89.9c1.3.9 2.8 1.3 4.4 1.2-1.6.4-3.3-.1-4.4-1.2z"/><path d="m14 90.2c1.2 1.2 2.8 1.9 4.5 2-1.7.3-3.6-.5-4.5-2z"/><path d="m15.5 89.5c.6.1 1.2.3 1.7.5.6.2 1.1.4 1.7.7-.6-.1-1.2-.3-1.7-.5-.6-.3-1.2-.4-1.7-.7z"/><path d="m3.8 94.7c1.1-.1 2.1-.1 3.2-.2s2.1-.3 3.2-.5c-1 .4-2.1.6-3.1.8-1.1 0-2.2 0-3.3-.1z"/><path d="m1.5 95.5c.4 1 1.4 1.4 2.4 1.8 1 .3 2 .5 3 .5 2.1.1 4.1-.3 6.2-.4-2.1.3-4.2.6-6.3.6-1 0-2.1-.2-3.1-.6-.9-.3-2-.8-2.2-1.9z"/><path d="m14.5 98.1c.6-.1 1.2-.3 1.8-.3l-.1.1c0-.6 0-1.2.1-1.8.1.6.1 1.2.1 1.8v.1h-.1c-.5 0-1.1.2-1.8.1z"/><path d="m62.3 43.4c.7-.8 1.5-1.6 2.3-2.3s1.6-1.4 2.6-2l-2.4 2.2z"/><path d="m63.3 71.7c0 1.4-.1 2.8-.2 4.2s-.2 2.8-.4 4.1c0-1.4.1-2.8.2-4.2.1-1.3.2-2.7.4-4.1z"/><path d="m54.1 89.4c2-.4 4-.6 6-.7 2 0 4.1.1 6 .5-2-.2-4-.3-6-.3-2 .1-4 .3-6 .5z"/><path d="m67.6 89.1c.2-1 .3-2 .4-3s0-2 0-3c.3 1 .3 2 .3 3-.2 1-.4 2-.7 3z"/><path d="m70.3 83.4c.2 1 .2 2 .2 3-.1 1-.2 2-.6 3 .2-1 .3-2 .4-3 0-1 0-2 0-3z"/><path d="m83.9 86.4c.3.7.5 1.5.6 2.3 0 .8.1 1.6-.1 2.4 0-.8 0-1.6-.2-2.3 0-.9-.2-1.6-.3-2.4z"/><path d="m85.9 87.2c.2.4.2.9.3 1.4 0 .5.1.9.1 1.4-.2-.5-.2-.9-.3-1.4 0-.4-.1-.9-.1-1.4z"/><path d="m82.5 90.8c1.2-.1 2.4 0 3.6.2 1.2.3 2.3.6 3.4 1.1-1.1-.4-2.3-.7-3.4-.9-1.3-.3-2.5-.4-3.6-.4z"/><path d="m83.4 84.5c.6 0 1.1.2 1.6.4s1 .4 1.5.8c-.5-.2-1-.4-1.6-.6-.5-.3-1-.4-1.5-.6z"/><path d="m88.4 86.8c.8-.5 2-.6 2.8-.1-1-.2-1.9-.1-2.8.1z"/><path d="m59.8 35.4c.6 1.5 1 3 1.4 4.5.3 1.6.7 3.1.8 4.7-.3-1.6-.6-3.1-1-4.6-.3-1.6-.8-3.1-1.2-4.6z"/><path d="m47.9 25.8c1.8.1 3.6.5 5.4 1.1 1.7.7 3.4 1.5 4.8 2.6-1.6-.9-3.2-1.8-4.9-2.4s-3.4-1-5.3-1.3z"/><path d="m34.4 24.3c.6.1 1.1.3 1.7.3.6.1 1.1.1 1.7.1-.6.2-1.1.2-1.7.1s-1.2-.2-1.7-.5z"/><path d="m35.5 23.9c.2-.4.5-.7.8-1.1.3-.3.6-.6.9-.9-.2.4-.5.7-.8 1.1-.3.3-.6.6-.9.9z"/><path d="m34.5 23.6c.2-.3.5-.6.7-.9.3-.2.5-.5.9-.7-.2.3-.5.6-.7.9-.3.2-.5.5-.9.7z"/><path d="m37.3 26.1c.5.7 1.1 1.5 1.7 2.1.6.7 1.2 1.3 1.9 2-.8-.5-1.4-1.1-2-1.8-.7-.8-1.2-1.5-1.6-2.3z"/><path d="m66.3 50.6c-1-1.7-.9-3.9.1-5.5-.7 1.7-.7 3.7-.1 5.5z"/><path d="m69.1 50.1c-.1-.7-.1-1.4-.2-2.1.1-.7.1-1.4.3-2.1v2.1c-.1.7-.1 1.4-.1 2.1z"/><path d="m67.9 51.4c.4.1.7.4 1.1.6.3.3.7.5.9.8-.4-.1-.7-.4-1.1-.6-.3-.3-.6-.5-.9-.8z"/><path d="m75.5 41.6c.1-.5.3-.9.5-1.4.2-.4.4-.9.7-1.3-.1.5-.3.9-.5 1.4s-.4.9-.7 1.3z"/><path d="m77.5 42.1c.1-.4.2-.7.3-1.1.2-.3.3-.7.6-1-.1.4-.2.7-.3 1.1-.3.3-.4.7-.6 1z"/><path d="m78.9 40.6c.6.1 1.2.4 1.9.5.3.1.6.1.9.1s.6 0 .9-.2c-.2.2-.6.3-.9.3s-.7 0-1-.1c-.6 0-1.2-.2-1.8-.6z"/></g></svg>