<svg enable-background="new 0 0 100 100" viewBox="0 0 100 100" xmlns="http://www.w3.org/2000/svg"><path d="m52.6 14.2s-.1-1.3 1.8-3.2 4.4-3 5.8-1.7c1.3 1.3-7.2 8.1-7.6 4.9z" fill="#e83c7d"/><path d="m48.1 28.2s-.4.3 1.6 2.2c2 2 3.9 5.9 4.2 4.6.3-1.2-2.7-9.3-5.8-6.8z" fill="#e83c7d"/><path d="m49.4 23.4c-.1.1-.6 5.5-1.9 7.9-1.7 3.1-4.5 3.5-4.8 4.5-.5 1.7.8 3.6 2.4 3 1.1-.4 4.8-.1 7.1-2.2 1-.9 2.1-3.5 1.7-4.9-.6-2.7-2.3-10.5-4.5-8.3z" fill="#bf9726"/><path d="m63.9 91.7s-3.4 3.7-.8 5.3 5.9-2.5 4.5-4.9-3.7-.4-3.7-.4z" fill="#e83c7d"/><path d="m67.6 94.7c.2-1 0-1.9-.7-1.5-1.6.8-2.1 3.8-3.7 3.2-1.5-.6-.8-2.3-.8-2.5-.5 1.1-.6 2.3.7 3.1 1.7 1 3.8-.5 4.5-2.3z" fill="#e83c7d" opacity=".4"/><path d="m63.2 93.9c0 .3.1.7.3.9.1.1.3.1.4.1.5.1.9-.1 1.3-.4s.6-.7.8-1.1c.2-.6.3-1.3.1-2-.3-1.1-1.5-.4-1.9.2-.6.7-1 1.6-1 2.3z" fill="#767676"/><path d="m59.7 40.3c1.5 6.1 1.9 15 2.1 21.7.2 11 .6 22 3 29 1.4 2 5.7 2.3 6.8-.4s5.2-48.5 1.1-53.9" fill="#e83c7d"/><path d="m73.1 77.4c.1-1.3.2-2.7.3-4.1-.7-2.3-2.2-4.6-2.2-4.6s-1.5 6.1-4.7 5.4-4.3-16.4-4.1-23.5 2.2-6.6 2.4-6.6l-4.1-4-1 .3c1.5 6.1 1.9 15 2.1 21.7.1 5.7.3 11.3.7 16.4.9.4 1.8.8 2.4 1.2 1.2.7 5.9.1 8.2-2.2z" fill="#e83c7d" opacity=".5"/><path d="m64.1 91.7c-.3.3-.5.8-.7 1.2-.1.4.2.8.5 1 .4.3 1.1.6 1.6.3.2-.2.3-.5.4-.8.2-.6.3-1.3.1-2-.3-1.1-1.4-.4-1.9.3z" fill="#767676" opacity=".5"/><path d="m61.2 74.3s.2-1.3 1.4-.8c1.5-.8 2.3-.1 2.3-.1s1.3-.5 2.2.2c1.4-.9 2.8 0 2.8.4-.1 1.2-1.2 1.5-1.9 1.5-.8.1-6.8-1.2-6.8-1.2z" fill="#1a1a1a"/><path d="m61.2 74.1s1.7-.4 4.7-.1c1.3.1 2.9.7 4.7 1.1-1.9 13.1-2.8 19-2.8 19s-3.6.1-4.3-2.4c-.7-2.6-2.4-16.9-2.3-17.6z" fill="#767676"/><path d="m69 80.7s.9-1.6-.5-1.6c-1.4-.1-1-3-.9-3.2 0 .3-.5 3.4-2 3.2-1.5-.1-1.4-3.5-1.4-3.6s-.2 3.6-1.4 3.5c-1.1-.1-1.6-3.6-1.6-3.6.2 2 .7 6.3 1.2 10-.1-1 0-1.7.2-1.8.5-.2.9 4.4 1.4 7-.4-2.5-.1-7 .7-7.2 1.4-.3 1.4 9.4 1.4 9.4s0-9.8.9-9.6.2 9.4.2 9.4z" fill="#767676" opacity=".5"/><path d="m61.5 80.9s4 2.3 9.2-.3c.4-.3.5-1.6-.3-1.7-2.9 1.3-6.8 1.1-8.8 0-.8 1-.1 2-.1 2z" fill="#767676"/><path d="m70.8 80.6c.4-.3.5-1.6-.3-1.7-2.9 1.3-6.8 1.1-8.8 0-.9 1-.1 2-.1 2s3.9 2.3 9.2-.3zm-9.1-.3c-.3-.6 0-.8.3-.8 1.4.4 3.7.7 4.5.7 1.3 0 2.2.5 1.1 1.2-1.3.6-5.4-.2-5.9-1.1z" fill="#767676" opacity=".9"/><path d="m75.6 32.5c-2.1-2.6-8.3-2.6-9.7 3.9-1.2 5.9 7 12.6 5.4 27.2-.9 15.6-4.5 28.3-4.7 30.4.4 1.1 4.9 1.9 6.3.5 1.1-2.2 8.8-21.8 10.5-31.3 1.6-9.3 3.5-16.8-7.8-30.7z" fill="#e83c7d"/><path d="m75.6 32.5c-.6-.7-1.5-1.2-2.5-1.5l-1.8 3.1 1.2 5.8s6.1-3.3 4.9-.7-3.5 3.3-.9 3.2 4.8.4 6.4 6.8.5 14.2-3.5 16-6 5.8-.9 7.4c.8.3 1.6.4 2.2.6 1.2-3.8 2.2-7.3 2.7-10.1 1.6-9.2 3.5-16.7-7.8-30.6z" fill="#e83c7d" opacity=".3"/><path d="m72.6 46.7s-.5 7.7.5 14.5c.9 6.8-6.5 32.9-6.5 32.9s4.5-26.7 4.9-32c.4-5.4-.4-12.1 1.1-15.4z" fill="#e83c7d" opacity=".5"/><path d="m66.2 94.3 2.2-19.3s-.4-2.3.5-3.7c.5-2.6 2.1-4.9 2.2-5s-3.4 26.3-3.4 26.3z" fill="#7f3451" opacity=".4"/><path d="m66.9 92.5s2.2-23.2 3.9-25.8 5.9-5.1 8.1-4.1c2.6 1.1 4 4.2 4 7.5 0 2.1-9.1 24.1-10 24.4-1 .4-6.3-.5-6-2z" fill="#767676"/><path d="m72.9 94.5c1.2-1 10-22.3 10-24.4 0-.5 0-1-.1-1.5.1 1.9-.9 4.1-2.3 3.9-1.7-.3 0-6 0-6s-2.2 5.4-3.3 4.9.4-7.1.4-7.4c0-.2-2 6.8-3.4 6.8-1.3 0-.8-4.6-1-4.8s-1 5.7-2.4 4.7c-1.3-1 .9-5.2.9-5.2-.4.4-.7.8-1 1.2-1.4 2.2-3.2 19-3.8 24.2v.3s1.9-16.4 3.5-15.5-1.8 16-1.8 16 4.4-16.6 6.1-16.1c1.8.5-1.3 7.6-3.5 17.2 6.4-18 8-16.3 7.8-14.8-.2 2.5-4.2 12.2-6.1 16.5z" fill="#767676" opacity=".5"/><path d="m69.5 71.7s5.8-2 12 2.8c.4.6.2 2.2-.9 2.2-3.4-2.4-8.6-3.3-11.6-2.4-.8-1.4.5-2.6.5-2.6z" fill="#767676"/><path d="m69.5 71.7s-1.3 1.1-.4 2.7c3-1 8.2-.1 11.6 2.4 1.1 0 1.3-1.6.9-2.2-6.3-4.9-12.1-2.9-12.1-2.9zm10.8 4.4c-6.1-4.1-10-1.6-10.9-2.5s.3-1.7.7-1.7c4.8-.9 9 1.3 10.6 2.8.9.8.3 1.7-.4 1.4z" fill="#767676" opacity=".9"/><path d="m50.9 18.8s-1.7 2.9-2.8 9.4c2.8 0 5.7 7.1 5.7 7.1l5.9-9.4s-7.2-7.9-8.8-7.1z" fill="#e83c7d"/><path d="m60.8 46.7s4.3 2.8 18.4-9.5c-3.6-5.6-6.8-7.8-6.8-7.8l-12.3 14.4z" fill="#e83c7d" opacity=".5"/><path d="m53.1 15.2c-1.4 1.8-7 11.1 7.4 29 5 1.3 17.5-5.7 18.2-7.6.6-1.7-1.3-1.7-1.8-3.5-1.4-5.9-4.8-17.2-9.2-20.4-5.5-3.9-11.7-1.2-14.6 2.5z" fill="#e83c7d"/><path d="m76.9 33.1c-1-4.1-2.9-10.9-5.5-15.7s4.8 10.2 2.1 15.8c-2 4.2 1.8 3.4 4.1 4.5.6-.5 1-.9 1.1-1.2.6-1.7-1.4-1.6-1.8-3.4z" fill="#e83c7d" opacity=".3"/><path d="m63.7 37.4c-8.8-1.8-12.8-13.7-12.8-13.7l-.1.1c.2 4.8 2.4 11.6 9.6 20.4.9.2 2.1.2 3.3 0 1.4-5.1 6.6-5.5 0-6.8z" fill="#e83c7d" opacity=".5"/><path d="m48 5.6c0 .1.1.1.1.2.4.7-.3 2.3.1 2.5.4.1 1.5-.1 1.6-.3.1-.1 0-1.1.1-2-.5-.3-1.2-.4-1.9-.4z" fill="#e83c7d"/><path d="m49.8 5.8c.1.9-.3 2.2-.7 2.4.4-.1.8-.2.8-.3.1-.1 0-1.1.1-2 0-.1-.1-.1-.2-.1z" fill="#e83c7d" opacity=".5"/><path d="m49 7.2c.1.2.1.5-.1.6s-.5.1-.6-.1-.1-.5.1-.6.5-.1.6.1z" fill="#1a1a1a"/><path d="m49.9 10.3c-.7-1-1.5-2.9-1.5-2.9v-.1h.1c0 .1.8 2 1.4 3 .1 0 .1 0 0 0z" fill="#1a1a1a"/><path d="m51.1 8.8s2.8 3.1 2.7 4.3c0 1.2-1.4 2.9-1.4 3.5s5.8.9 8.3-.8c0-2 .1-3.3.8-4.9-.8-.3-3.9-.8-6.8-3.8-3.4-2.1-4.3.9-3.6 1.7z" fill="#bf9726"/><path d="m60.7 15.8c0-1.9.2-3.1.7-4.7-.1-.1-.2-.2-.3-.3-2.2-.6-3.2-1.1-5-2.4h-.8s4.2 1.5 3.4 5.7c-1 1.5-4.4 1.8-5.2.1-.4 1-1.2 2-1.2 2.4.1.6 5.9.9 8.4-.8z" fill="#bf9726" opacity=".4"/><path d="m54.5 9.5s0 1.5-1.2 2.2c-1.5-2.1-2.2-3.6-2.1-3.4s3.3 1.2 3.3 1.2z" fill="#bf9726" opacity=".7"/><path d="m55.2 8.5c-.8 1.5-3.2 3-4.7 2.2s-2.6-5.1-1.8-6.6 3.4-2.2 4.9-1.3c1.6.9 2.5 4.3 1.6 5.7z" fill="#bf9726"/><path d="m47.6 4.8s-.2 1.6 1.3 1c.7.5 1.7-.1 2-.8.8-.1 1.1.9 1.7.7s.8 1.6.7 1.8c-.2.2.5.3.8 0s.2-2.4.9-2.1.6 2 .5 2.6c.6.6 1 .7 1 .7s.9-3-.3-4.9c-1.3-1.9-3.5-.8-3.5-.8s-4.8-2-5.1 1.8z" fill="#1a1a1a"/><path d="m49.7 8.6c-.1-.4-.4-.7-.8-.7.2.5.3 1 .6 1.4.2-.1.3-.4.2-.7z" fill="#bf9726" opacity=".7"/><path d="m53.2 7.5c.1.4-.2.9-.6 1s-.9-.2-1-.6.2-.9.6-1c.4-.2.9.1 1 .6z" fill="#bf9726" opacity=".7"/><path d="m51.3 3.8c0 .1 1.5.9 1.9 1.6s-.3 2.3.1 2.5c.4.1 1.5-.1 1.6-.3s-.2-3 1-3.3z" fill="#e83c7d"/><path d="m51.5 4c.3.2.8.5 1.2.9.1-.3.5-.5 1.2-.4 1.4.1.7 3 .1 3.3.4-.1.8-.2.8-.3.1-.2-.2-3 1-3.3l-4.2-.3s-.1 0-.1.1z" fill="#e83c7d" opacity=".5"/><path d="m47.4 5.3s4.3-1.3 9.3-.9c-.9-4.7-5.3-4.8-7.3-3.7-1.4.8-2.2 2.5-1.9 4.1-.4 0-.1.5-.1.5z" fill="#e83c7d"/><path d="m49.2 4.8c1.7-.3 4.5-.7 7.5-.5-.5-2.6-2.2-3.8-3.8-4.2 1.1.6 2 1.5 1.7 2.9-.5 1.1-2.2.7-5.4 1.8z" fill="#e83c7d" opacity=".5"/><path d="m49.9.4c-.2.1-.3.2-.5.2-1.4.8-2.2 2.5-1.9 4.1-.4.1-.2.5-.2.5s.6-.2 1.5-.4c-.3-.6-1.1-2.5 1.1-4.4z" fill="#e83c7d" opacity=".6"/><path d="m49.5 10c-.1 0-.2 0-.3 0-.4-.2-.1-1-.1-1h.1v.1c-.1.2-.2.8.1.9s2.5-.2 3.5-.9l1.3-.8.1-1.5-.7.3-1.3.8c-1 .6-3.2 1-3.6.9-.4-.2-.1-1-.1-1h.1v.1c-.1.2-.2.8.1.9s2.5-.2 3.5-.9l1.3-.8.8-.3v.1l-.1 1.7-1.3.8c-.9.2-2.6.6-3.4.6z" fill="#1a1a1a"/><path d="m50.2 11.2c-.1 0-.2 0-.2 0-.4-.2-.1-1-.1-1h.1v.1c-.1.2-.2.8.1.9s2.4-.3 3.4-1c.7-.4 1.1-.9 1.2-.9l-.2-2.4-.2-.1s0 0 0-.1h.1l.2.2.2 2.5s-.5.5-1.3 1c-.9.4-2.6.8-3.3.8z" fill="#1a1a1a"/><path d="m54.6 9.4-.8-1-.7-1.6v-.1h.1l.7 1.5.7 1.2c.1-.1.1-.1 0 0z" fill="#1a1a1a"/><path d="m54.7 6.3c.2.2.1.6-.2.7-.2.2-.6.1-.7-.2-.2-.2-.1-.6.2-.7s.6 0 .7.2z" fill="#1a1a1a"/><path d="m53 10.7s-.1-.1 0 0c-.6-1.1-1.3-2.8-1.3-2.8v-.1h.1c-.1 0 .6 1.7 1.2 2.9 0-.1 0-.1 0 0z" fill="#1a1a1a"/><path d="m50.8 11.3c-.5-1.2-1-2.9-1-2.9s0 0 0-.1h.1c0 .1.5 1.8.9 3 .1 0 .1 0 0 0z" fill="#1a1a1a"/><path d="m47.7 4.1c.7-.2 1.5-.3 2.3-.5.8-.1 1.5-.2 2.3-.3-.7.2-1.5.3-2.3.5-.7.1-1.5.2-2.3.3z" fill="#1a1a1a"/><path d="m48 2.2c.8-.9 1.7-1.9 3-2.2 1.3-.2 2.5.3 3.4 1.2-1-.7-2.2-1.3-3.4-1-1.2.2-2.1 1.2-3 2z" fill="#1a1a1a"/><path d="m59.3 10.2s2.1 2.1-1.6 5.1c-2.5 1.2-4.7 0-4.4-.5-1.1 2-2.4 4-2.4 4s6.5 2.1 9.7-1.3c3.3-3.5 3-6.5 3-6.5z" fill="#e83c7d"/><path d="m57.2 15.5s3.2-2.9 1-5.8c.5-1 2.1-1.2 2.9.8s-.3 6.6-.3 6.7c-.1.1-3.6-1.7-3.6-1.7z" fill="#e83c7d"/><path d="m61 10.5c-.4-.9-.9-1.4-1.4-1.5.5.3 1.7 1.3 1 4.1-.5 2.1-1.9 2.3-2.9 1.9-.3.4-.5.6-.5.6s3.6 1.8 3.6 1.7c-.1-.2 1-4.8.2-6.8z" fill="#e83c7d" opacity=".5"/><path d="m66.9 93.1s.9.8 1.9.4c.9-.3 2.1-1.5 3.4.1s0 4.7 0 5.9-5.1.2-6.3-1.5c-1.3-1.8 1-4.9 1-4.9z" fill="#e83c7d"/><path d="m72.1 99.7c.1-.1.1-.1.1-.2 0-1.1 1.1-3.8.3-5.5-.5-.4-.9-.7-.9-.7v1.3c1.2.7.4 4.4-.5 3.1s-2 1.6-.2 1.9c.4.1.8.1 1.2.1z" fill="#e83c7d" opacity=".2"/><path d="m68.7 97.5c-1.9.5-2.7-1-2.2-2.7s2.5-1 2.5-1v-.3c-.1 0-.2.1-.3.1-.9.3-1.9-.4-1.9-.4s-2.2 3.2-1 4.9c.6.8 2.1 1.5 3.5 1.8 1-1 .7-2.7-.6-2.4z" fill="#e83c7d" opacity=".2"/><path d="m72.2 99.5c0-.2 0-.5.1-.8-.3-.2-.3-.4-.7-.7-1.5-1.6-3.3.2-5-.3-.8-.2-1-1-1-1.8-.2.7-.1 1.5.3 2.1 1.2 1.7 6.3 2.7 6.3 1.5z" fill="#7f3451"/><path d="m69 93.4s.3 3.2 1.8 3c1.6-.2 2-1.7 1.9-2.3-.1-.7-1.6-2.7-3.7-.7z" fill="#767676"/><path d="m71.8 96c.8-.5 1-1.6.9-2-.1-.6-1.7-2.6-3.7-.7v.3l.3-.3c.5-.4 1.7-.4 2.2-.1.8.4.9 1.2.8 1.8-.1.4-.3.7-.5 1z" fill="#767676" opacity=".5"/><path d="m57.3 21s-.8 1 2.4 2.2 5.5 3.9 6.4 2.5c.9-1.3 1.3-6.8-1.3-7.9-2.5-1.1-6.7.2-7.5 3.2z" fill="#e83c7d"/><path d="m49.3 29.4s5-4.9 7.4-6.1c1.2-1.4 2.3-8.2 5.6-8.5s4.3 1.8 4.3 5.2c0 2-1.7 4.9-4.1 7.4-2.8 2.8-6.1 4.3-11.9 5.9-2.9-.3-1.3-3.9-1.3-3.9z" fill="#bf9726"/><path d="m50.6 33.2c5.7-1.6 9.1-3.1 11.9-5.9 2.4-2.4 4.1-5.4 4.1-7.4 0-1.2-.1-2.3-.5-3.1-.4-.1-.8-.1-1.3 0-2.1.2-3.9.4-5.4.5-.6 1-1.1 2.3-1.5 3.4 1.6-.6 5.5-1.1 5.7 2.4.3 4.2-5.4 7.8-11.6 8.9-1.1.2-1.9.5-2.5 1 .3 0 .6.2 1.1.2z" fill="#bf9726" opacity=".4"/><path d="m48.1 36.7s.1.6-.6.8c-.2.9-.9.9-.9.9s0 .8-.9.9c-.5.7-1.3 1.2-1.7 1.1s-1.6-1.1-1.7-2c-.2-.9.8-1.4 1.4-1.7.6-.4 3.6-1.4 4.4 0z" fill="#767676"/><path d="m42.3 38.4s-.5-1.6.9-2.1.4.9.2 1.3c-.3.3-1.1.8-1.1.8z" fill="#767676"/><path d="m52.1 31.5s.1.6-.6.8c-.2.9-.9.9-.9.9s0 .8-.9.9c-.5.7-1.3 1.2-1.7 1.1s-1.6-1.1-1.7-2c-.2-.9.8-1.4 1.4-1.7.6-.4 3.6-1.4 4.4 0z" fill="#767676"/><path d="m46.3 33.1s-.5-1.6.9-2.1.4.9.2 1.3c-.3.4-1.1.8-1.1.8z" fill="#767676"/><path d="m42.9 42.9c-3.5 3.9-17.6 17-21.8 18.6-2.1.8-4.2-.1-5-1.3-.9-1.3-.2-2.9.3-3.7 2.6-3.8 17-16.1 21.6-18.8 0 0 .9-.1 1.4.2 1.8 1 4.1 4.4 3.5 5z" fill="#968b22"/><path d="m16.1 60.2c-.1-.1-.1-.2-.2-.2 0-.8-.1-1.5-.1-2.2.2-.5.4-.9.6-1.2.3-.5.9-1.2 1.6-1.9l3.2 4.2s-.8 2.2 1.4 1.5c2.1-.6 16.1-13.2 18.8-15.9 1.1-1.1.8-1.5-.3-.7-1.4-.2-4.2-1.2-6.4 0-1.4.8-2.5.1-3.2-1.2 2.7-2.2 5.1-4 6.5-4.8 0 0 .9-.1 1.4.2 1.7 1 4.1 4.4 3.5 5-3.5 3.9-17.6 17-21.8 18.6-2.1.7-4.2-.2-5-1.4z" fill="#968b22" opacity=".4"/><path d="m40.4 41-.9-1.1 9.4-7.9c0-.1 0-.2.1-.3.2-.1.4-.1.5 0l.6.8c.1.2.1.4 0 .5s-.2.1-.3.1z" fill="#ffeaa6"/><path d="m40.8 40.1s6.6-5.1 8.9-7.1c.5-.4.3-.6.3-.6l.1.2c.1.2.1.4 0 .5s-.2.1-.3.1l-9 7.6z" fill="#968b22" opacity=".4"/><path d="m39.4 39.8.4-.3c1.8.3 6.7-4.2 8.9-6.2.6-.5.9-.9 1.1-1.2l.3.4c.1.2.1.4 0 .5s-.2.1-.3.1l-9.4 7.9z" fill="#968b22" opacity=".4"/><path d="m42.1 42.6c-3.5 3.9-17.7 16.7-21.9 18.5-1.6.7-3.1.3-4.1-.9s-1.2-3.2-.7-3.9c2.6-3.8 18.3-16.6 22.6-18.5.8-.4 4.7 4.2 4.1 4.8z" fill="#ffeaa6"/><path d="m16.1 60.2c-1-1.2-1.2-3.2-.7-3.9 0 0 .1-.1.1-.1.4 1.4 1.5 2.7 2.8 3.6 3.2 2.1 20.6-13 21.3-17.3.5-3-1.5-3.9-2.6-4.2.4-.2.7-.4 1-.5.8-.4 4.7 4.2 4.1 4.9-3.5 3.9-17.7 16.7-21.9 18.5-1.6.6-3.1.2-4.1-1z" fill="#968b22" opacity=".4"/><path d="m44.2 39.4c-.2-.5-.1-1.3-.6-2.1s-1.4-1.3-1.4-1.8 1.3-.9 2.5 1.1c1.4 2.5-.2 3.7-.5 2.8z" fill="#767676"/><path d="m44.7 39.6c0 .1 0 .1 0 0 .5-.1 1-1.2-.1-3-.7-1.2-1.4-1.6-1.9-1.5.3.2.7.5 1.2 1.1 1.1 1.3 1.4 3.1.8 3.4z" fill="#767676"/><path d="m45.1 38.8c-.2-.5-.1-1.3-.6-2.1s-1.4-1.3-1.4-1.8 1.3-.9 2.5 1.1c1.5 2.5-.1 3.7-.5 2.8z" fill="#767676"/><path d="m45.7 39c.5-.1 1-1.2-.1-3-.7-1.2-1.4-1.6-1.9-1.5-.5 0 .5.6 1.1 1.2 1.2 1.1 1.4 2.9.9 3.3z" fill="#767676"/><path d="m46.2 37.9c-.2-.5-.2-1.3-.8-2s-1.5-1.1-1.6-1.7c0-.5 1.2-1 2.6.9 1.7 2.3.2 3.7-.2 2.8z" fill="#767676"/><path d="m46.7 38.1c.5-.2.9-1.3-.4-3-.8-1.1-1.6-1.4-2.1-1.3.3.1.8.5 1.3 1 1.3 1.2 1.8 2.9 1.2 3.3z" fill="#767676"/><path d="m47.1 37.1c-.3-.5-.2-1.3-.8-2s-1.6-1.1-1.6-1.7 1.2-1 2.6.8c1.8 2.4.3 3.8-.2 2.9z" fill="#767676"/><path d="m47.7 37.3c.4-.2.8-1.4-.4-3-.9-1.1-1.6-1.4-2.1-1.3.3.1.8.4 1.3 1 1.2 1.2 1.8 2.9 1.2 3.3z" fill="#767676"/><path d="m44.3 37c.1.1 0 .3-.1.4-.2.1-.4.1-.4-.1-.1-.1 0-.3.1-.4.2-.1.4-.1.4.1z" fill="#767676"/><path d="m45.3 36.4c.1.1 0 .3-.1.4-.2.1-.4.1-.4-.1-.1-.1 0-.3.1-.4s.3-.1.4.1z" fill="#767676"/><path d="m46.2 35.6c.1.1 0 .3-.1.4-.2.1-.4.1-.4-.1-.1-.1 0-.3.1-.4s.3-.1.4.1z" fill="#767676"/><path d="m47 34.9c.1.1 0 .3-.1.4-.2.1-.4.1-.4-.1-.1-.1 0-.3.1-.4.2-.1.4-.1.4.1z" fill="#767676"/><path d="m48.3 35.1c-.2-.5-.1-1.3-.6-2.1s-1.4-1.3-1.4-1.8 1.3-.9 2.5 1.1c1.5 2.5-.1 3.7-.5 2.8z" fill="#767676"/><path d="m48.9 35.3c-.1 0-.1 0 0 0 .5-.1 1-1.2-.1-3-.7-1.2-1.4-1.6-1.9-1.5.3.2.7.5 1.2 1.1 1 1.3 1.3 3 .8 3.4z" fill="#767676"/><path d="m49.3 34.4c-.2-.5-.1-1.3-.6-2.1s-1.4-1.3-1.4-1.8 1.3-.9 2.5 1.1c1.4 2.5-.2 3.7-.5 2.8z" fill="#767676"/><path d="m49.8 34.7c.5-.1 1-1.2-.1-3-.7-1.2-1.4-1.6-1.9-1.5-.5 0 .5.6 1.1 1.2 1.3 1.1 1.5 2.9.9 3.3z" fill="#767676"/><path d="m50.3 33.6c-.2-.5-.2-1.3-.8-2s-1.5-1.1-1.6-1.7c0-.5 1.2-1 2.6.9 1.7 2.3.3 3.6-.2 2.8z" fill="#767676"/><path d="m50.9 33.8c.5-.2.9-1.3-.4-3-.8-1.1-1.6-1.4-2.1-1.3.3.1.8.5 1.3 1 1.2 1.1 1.7 2.8 1.2 3.3z" fill="#767676"/><path d="m51.3 32.8c-.3-.5-.2-1.3-.8-2s-1.6-1.1-1.6-1.7c0-.5 1.2-1 2.6.8 1.7 2.4.2 3.8-.2 2.9z" fill="#767676"/><path d="m51.9 33c.4-.2.8-1.4-.4-3-.9-1.1-1.6-1.4-2.1-1.3.3.1.8.4 1.3 1 1.2 1.2 1.7 2.9 1.2 3.3z" fill="#767676"/><path d="m48.5 32.7c.1.1 0 .3-.1.4-.2.1-.4.1-.4-.1-.1-.1 0-.3.1-.4s.3-.1.4.1z" fill="#767676"/><path d="m49.4 32c.1.1 0 .3-.1.4-.2.1-.4.1-.4-.1-.1-.1 0-.3.1-.4.2 0 .4 0 .4.1z" fill="#767676"/><path d="m50.4 31.3c.1.1 0 .3-.1.4-.2.1-.4.1-.4-.1-.1-.1 0-.3.1-.4s.3-.1.4.1z" fill="#767676"/><path d="m51.2 30.6c.1.1 0 .3-.1.4-.2.1-.4.1-.4-.1-.1-.1 0-.3.1-.4s.3-.1.4.1z" fill="#767676"/><path d="m57.3 21s1.4-2.6 4.6-1.6c2.2.7 5.1 4.6 4.2 6.3 4-5.5 4.2-11.1 1.6-13s-8-1-10.4 8.3z" fill="#e83c7d"/><path d="m57.3 21s.8-1.4 2.5-1.7c.5-3.5 1.6-5.4 3.6-7.1-2.3.8-4.7 3.4-6.1 8.8z" fill="#e83c7d" opacity=".3"/><path d="m67 20.8c-2.4.6-2.9-1.6-5.1-1.4 2.2.7 5.1 4.6 4.2 6.3 2.7-3.6 3.6-7.3 3.3-9.9 0 0-.1 4.4-2.4 5z" fill="#e83c7d" opacity=".5"/><path d="m53.8 13.1s.1 2.8 3.3 2.4c-.7 1.7-.6 3.2-.6 3.2s-3.6-1.8-3.9-4c-.2-1.9 1.2-1.6 1.2-1.6z" fill="#e83c7d"/><path d="m56.5 15.6c-.1 1.2-.4 2.5-2.4.9-1.1-.9-1.4-1.7-1.5-2.3v.6c.3 2.2 3.9 4 3.9 4s0-1.5.6-3.2c-.2-.1-.4 0-.6 0z" fill="#e83c7d" opacity=".5"/><g fill="#1a1a1a"><path d="m46.5 31.8c.3.1.5.3.7.5s.4.5.6.7c.3.5.6 1.1.7 1.7-.2-.6-.5-1.1-.8-1.6-.2-.3-.3-.5-.5-.7-.3-.2-.5-.5-.7-.6z"/><path d="m47.5 31.2c1 .6 1.7 1.8 1.8 3-.4-1.2-1-2.2-1.8-3z"/><path d="m48.2 30.8c1.2.6 2.1 1.8 2.3 3.1-.4-1.3-1.2-2.4-2.3-3.1z"/><path d="m49.1 29.9c1 .5 1.8 1.5 1.9 2.5-.4-1-1-1.9-1.9-2.5z"/><path d="m50.1 28.9c.6.2 1 .6 1.3 1.1s.5 1 .7 1.6c-.3-.5-.5-1-.8-1.5s-.7-.9-1.2-1.2z"/><path d="m50.2 28.6c.9-.9 1.9-1.7 2.8-2.5 1-.8 1.9-1.6 2.9-2.3-.9.9-1.9 1.7-2.8 2.5-1 .7-1.9 1.5-2.9 2.3z"/><path d="m53.1 32.5c1.1-.4 2.2-.7 3.2-1.2s2-1.1 3-1.6c1-.6 2-1.1 2.8-2 .8-.8 1.5-1.7 2.3-2.6l-1.1 1.4-1.1 1.3c-.8.9-1.8 1.4-2.8 2s-2 1.1-3.1 1.6c-1 .5-2.1.8-3.2 1.1z"/><path d="m54.6 35.3c.8 1.5 1.7 2.9 2.7 4.2s2.1 2.6 3.1 4c-1.1-1.2-2.2-2.5-3.2-3.9-1.1-1.3-2-2.7-2.6-4.3z"/><path d="m57.2 20.9c.7-.7 1.6-1.3 2.6-1.5s2.1 0 2.9.5c.9.6 1.5 1.3 2.1 2.2.6.8 1 1.8 1.1 2.8-.2-1-.7-1.9-1.2-2.7-.6-.8-1.2-1.6-2.1-2.1-.8-.5-1.8-.7-2.8-.5-1 .1-1.9.6-2.6 1.3z"/><path d="m57.5 20c.3-1.1.8-2.1 1.3-3.2.5-1 1.1-2 1.8-2.9-.6 1-1.1 2-1.6 3-.6 1-1.1 2.1-1.5 3.1z"/><path d="m67 24.7c.5-.8.8-1.7 1.1-2.6.4-.9.7-1.8 1.2-2.6-.4.9-.7 1.8-1 2.7-.4.8-.7 1.8-1.3 2.5z"/><path d="m48.6 25c.3-1.6.8-3.1 1.3-4.5.6-1.5 1.3-2.9 2.1-4.2-.7 1.4-1.4 2.8-2 4.3-.5 1.3-.9 2.8-1.4 4.4z"/><path d="m52.5 14.5c.5.9 1.2 1.7 1.9 2.3.8.7 1.6 1.2 2.5 1.7l-.1.1c.1-.9 0-1.8.2-2.7-.1.9 0 1.8 0 2.7v.1h-.1c-.9-.4-1.8-1-2.5-1.7-.8-.8-1.5-1.6-1.9-2.5z"/><path d="m57.5 15.5c.3.1.5.2.7.3.2.2.4.3.6.5-.3-.1-.5-.2-.7-.3-.2-.2-.5-.3-.6-.5z"/><path d="m58 8.8c.5 0 1 0 1.5.2s1 .4 1.3.9c.6.9.5 2.1.4 3.1 0-1 .1-2.1-.5-3-.3-.4-.7-.7-1.2-.9s-1-.2-1.5-.3z"/><path d="m58.4 10c.8 1.1.9 2.6.3 3.8.3-1.2.2-2.6-.3-3.8z"/><path d="m61.7 44.2c.6.2 1.3.1 1.9 0s1.3-.2 1.9-.4c1.3-.4 2.5-.8 3.6-1.4 2.4-1.1 4.5-2.6 6.7-4-2.1 1.5-4.3 3-6.6 4.2-1.2.6-2.4 1-3.7 1.4-1.1.2-2.5.5-3.8.2z"/><path d="m71.3 49.3c.1 2.5.3 5 .5 7.4.2 2.5.5 5 .7 7.4-.4-2.5-.7-4.9-.9-7.4s-.3-4.9-.3-7.4z"/><path d="m82.6 43.9c.9 1.6 1.3 3.5 1.7 5.3.3 1.8.6 3.6.6 5.5 0 .9-.2 1.8-.3 2.8-.1.9-.3 1.8-.4 2.7-.3 1.8-.7 3.6-1 5.4.3-1.8.6-3.6.9-5.5.2-.9.3-1.8.4-2.7s.3-1.8.3-2.7c0-1.8-.3-3.7-.6-5.5-.4-1.8-.8-3.6-1.6-5.3z"/><path d="m61.9 71.4c-.2-3.3-.4-6.6-.5-9.9 0-3.3 0-6.6.3-9.9-.1 3.3-.2 6.6-.1 9.9s.3 6.6.3 9.9z"/><path d="m66.9 92.6c.5-3 .6-6.1.8-9.2.1-1.5.3-3.1.6-4.6s.7-3 .9-4.5c0 1.5-.5 3-.7 4.6-.3 1.5-.4 3.1-.5 4.6-.4 3-.5 6.1-1.1 9.1z"/><path d="m68.9 73.4c-.1.1-.2-.1-.1-.2 0-.1 0-.2 0-.3 0-.2.1-.4.1-.6.2-.4.4-.7.7-1-.2.3-.4.7-.5 1-.1.2-.1.4-.2.5l-.1.3c0 .2 0 .3.1.3z"/><path d="m70.5 67.3c.8-1.5 2.2-2.6 3.6-3.5.7-.4 1.5-.7 2.3-1.1.4-.2.8-.3 1.2-.5.4-.1.9-.2 1.2 0-.4-.2-.8-.1-1.2 0s-.8.3-1.2.5c-.8.3-1.5.7-2.3 1.1-1.4.9-2.7 2-3.6 3.5z"/><path d="m73.3 94.3c.6-1.5 1.1-2.9 1.7-4.4.6-1.4 1.1-2.9 1.8-4.3 1.4-2.8 2.8-5.6 4-8.5-1 3-2.5 5.8-3.8 8.6-.7 1.4-1.2 2.9-1.9 4.3-.5 1.4-1.1 2.8-1.8 4.3z"/><path d="m81.6 75.9c.2-.4.4-.7.4-1.2.1-.4 0-.8 0-1.3.1.4.2.8.2 1.3-.1.5-.3.9-.6 1.2z"/><path d="m81.5 64.7c.7 1.2 1.3 2.5 1.5 3.8.2 1.4.1 2.8-.6 4 .6-1.2.7-2.7.5-4-.3-1.3-.9-2.5-1.4-3.8z"/><path d="m62 82.2c.7 3.4 1.3 6.8 1.9 10.2l-.2-.2.2.2c-.7-3.4-1.4-6.8-1.9-10.2z"/><path d="m62.2 81.1c-.5.1-1-.4-1.2-.9-.1-.5.2-1.1.7-1.2-.4.3-.7.8-.6 1.2.2.5.6.8 1.1.9z"/><path d="m61.8 78.4c-.3-.3-.4-.8-.5-1.2l-.1-1.3-.2-2.6v-.1l.1.1c.6.3 1.3.1 1.9 0 .7-.1 1.3-.1 2-.1 1.3.1 2.6.4 3.8 1-1.2-.5-2.5-.8-3.8-.8-.7 0-1.3 0-1.9.1s-1.3.3-2 0l.1-.1.2 2.6.1 1.3c0 .3 0 .7.3 1.1z"/><path d="m62.2 94c0 1 .1 2.1.8 2.8.3.4.8.6 1.3.7s1-.1 1.4-.5c-.3.4-.9.6-1.4.6s-1-.3-1.4-.7c-.7-.8-.9-1.9-.7-2.9z"/><path d="m65.7 94.1c.9-.8 2.3-1 3.4-.4h-.1c.3-.3.6-.6 1-.8s.8-.3 1.3-.1c.8.4 1.2 1.3 1.3 2.1-.1-.8-.6-1.6-1.3-2-.4-.1-.8 0-1.1.1-.4.2-.7.4-1 .7v.1h-.1c-1.1-.6-2.5-.4-3.4.3z"/><path d="m66.5 98.1c1.4 1 2.9 1.6 4.6 1.8-1.7.1-3.4-.6-4.6-1.8z"/><path d="m75.4 26.8c.5 1.6 1 3.3 1.5 4.9.2.8.5 1.6 1 2.3s1.1 1.3 1.7 1.9c-.7-.5-1.3-1.1-1.8-1.8s-.9-1.5-1.1-2.3c-.5-1.7-1-3.4-1.3-5z"/><path d="m79.9 39.2c.9.7 1.6 1.7 1.9 2.8-.6-.9-1.2-1.9-1.9-2.8z"/><path d="m69.5 89.4-.3.4c1.3-4.9 2.7-9.8 4.1-14.7-1.3 4.9-2.6 9.8-4.1 14.7z"/><path d="m73.1 90.5c.5-2.5 1.1-5 1.6-7.4.6-2.5 1.1-4.9 1.8-7.4-.5 2.5-1.1 5-1.6 7.4-.6 2.4-1.2 4.9-1.8 7.4z"/><path d="m64.1 90.5c-.1-1.2-.2-2.4-.2-3.5 0-1.2-.1-2.4-.1-3.5.1 1.2.2 2.4.2 3.5s.1 2.3.1 3.5z"/><path d="m66.2 89c-.1-1-.1-2-.2-2.9 0-1 0-2 0-2.9.1 1 .1 2 .2 2.9 0 .9.1 1.9 0 2.9z"/><path d="m62.8 79.4c.6.1 1.3.3 1.9.4.6.2 1.3.3 1.9.4-.7 0-1.3-.1-2-.2-.6-.2-1.2-.3-1.8-.6z"/><path d="m63.1 81.8c1.2.2 2.4.2 3.6.1-1.1.4-2.4.3-3.6-.1z"/><path d="m72.6 72c2.1-.1 4.1.5 5.9 1.6-1.9-.9-3.8-1.4-5.9-1.6z"/><path d="m72.6 73.9c2-.1 4 .1 5.9.8-1.9-.5-3.9-.7-5.9-.8z"/><path d="m46.8 38.6c.5.1.9 0 1.4-.1s.9-.3 1.3-.4c.9-.3 1.7-.7 2.5-1.2-.7.6-1.6 1-2.5 1.4-.4.2-.9.3-1.4.4-.4-.1-.9 0-1.3-.1z"/><path d="m21.1 61.4c2-1.2 3.8-2.6 5.6-4s3.6-2.9 5.3-4.4c3.5-3 6.7-6.4 9.7-9.9-2.9 3.6-6.1 6.9-9.6 10-1.7 1.5-3.5 3-5.4 4.4-1.7 1.4-3.6 2.7-5.6 3.9z"/><path d="m23 59c2.5-2 4.9-4 7.3-6.1 2.5-2 4.8-4.2 7.2-6.2-2.3 2.2-4.7 4.3-7.1 6.4-2.4 2-4.9 4-7.4 5.9z"/><path d="m16.6 55.3c2.9-3.2 6-6.1 9.2-8.9 3.3-2.7 6.7-5.3 10.4-7.6-3.5 2.4-7 4.9-10.3 7.7s-6.4 5.7-9.3 8.8z"/><path d="m40.8 38.8c.6-.4 1.2-.8 1.8-1.2-.4.6-1.1 1-1.8 1.2z"/><path d="m41.8 40.3c.3.2.5.5.8.8.2.3.5.6.7.9-.3-.2-.5-.5-.8-.8s-.5-.5-.7-.9z"/><path d="m42.2 36c1 .5 1.8 1.5 1.8 2.7-.3-1.1-.9-2.1-1.8-2.7z"/><path d="m43.1 35.2c1.1.8 1.9 2.1 2.1 3.5-.4-1.3-1.1-2.5-2.1-3.5z"/><path d="m43.8 34.7c1.2.9 2.1 2.3 2.4 3.8-.5-1.4-1.3-2.7-2.4-3.8z"/><path d="m44.6 33.8c1.3.8 2.3 2.2 2.5 3.7-.5-1.4-1.3-2.7-2.5-3.7z"/><path d="m45.6 33.5c1.1.6 1.9 1.8 2 3.1-.3-1.2-1-2.3-2-3.1z"/><path d="m42.5 39.4c.4.3.7.7 1.1.9.4.3.8.4 1.3.3-.4.3-1 .1-1.4-.1-.4-.3-.7-.7-1-1.1z"/><path d="m45.2 39.5c.3-.3.6-.5.9-.8.3-.2.6-.4 1-.6-.3.3-.6.5-.9.8-.3.1-.6.4-1 .6z"/><path d="m42.2 37.8c-.1-.1 0-.2 0-.2 0-.1 0-.1.1-.2.1.1 0 .2 0 .2 0 .1 0 .1-.1.2z"/><path d="m52.5 32.8c.6.8.8 1.8.8 2.7-.2-.9-.5-1.8-.8-2.7z"/></g></svg>