<svg
	xmlns="http://www.w3.org/2000/svg" width="244" height="244" viewBox="0 0 411.725 411">
	<path d="m60.023438 60.605469c-80.15625 80.503906-80.011719 210.707031.320312 291.039062s210.53125 80.472657 291.039062.316407c80.457032-80.457032 80.457032-210.902344 0-291.355469-80.328124-80.324219-211.03125-80.324219-291.359374 0zm11.316406 11.3125c72.054687-71.8945315 187.929687-74.328125 262.945312-5.53125l-268.480468 268.476562c-68.921876-74.96875-66.480469-190.941406 5.53125-262.945312zm268.726562 268.730469c-72.191406 72.191406-188.492187 74.027343-262.941406 5.527343l268.476562-268.476562c68.921876 74.96875 66.484376 190.945312-5.53125 262.949219zm0 0" fill="#ffffff" class="color000 svgShape"></path>
	<path d="M187.882812 176.933594l-11.527343 11.527344c-3.125 3.125-3.125 8.1875 0 11.3125s8.191406 3.125 11.316406 0l11.523437-11.527344c3.125-3.121094 3.125-8.1875 0-11.3125s-8.191406-3.125-11.3125 0zm0 0M217.867188 237.972656c2.125.003906 4.160156-.839844 5.660156-2.34375l11.523437-11.523437c3.125-3.125 3.125-8.191407 0-11.316407s-8.191406-3.121093-11.3125 0l-11.527343 11.527344c-2.289063 2.289063-2.972657 5.726563-1.734376 8.71875 1.238282 2.988282 4.15625 4.9375 7.390626 4.9375zm0 0M216.695312 148.121094l-11.527343 11.527344c-3.089844 3.128906-3.074219 8.167968.035156 11.277343s8.148437 3.125 11.277344.035157l11.527343-11.527344c3.125-3.125 3.125-8.1875 0-11.3125s-8.191406-3.125-11.3125 0zm0 0M246.683594 209.160156c2.121094 0 4.15625-.84375 5.65625-2.34375l11.523437-11.527344c3.007813-3.140624 2.953125-8.113281-.125-11.1875-3.074219-3.074218-8.042969-3.128906-11.1875-.121093l-11.527343 11.527343c-2.285157 2.289063-2.96875 5.726563-1.730469 8.71875 1.238281 2.988282 4.152343 4.9375 7.390625 4.9375zm0 0M245.503906 119.308594l-11.527344 11.523437c-3.125 3.125-3.121093 8.191407 0 11.316407 3.125 3.125 8.191407 3.121093 11.316407 0l11.523437-11.527344c3.125-3.125 3.125-8.1875 0-11.3125s-8.1875-3.125-11.3125 0zm0 0M275.496094 180.347656c2.121094 0 4.15625-.84375 5.65625-2.34375l11.523437-11.523437c3.125-3.125 3.125-8.1875 0-11.3125s-8.1875-3.125-11.3125 0l-11.523437 11.527343c-2.289063 2.285157-2.972656 5.726563-1.734375 8.714844 1.238281 2.992188 4.15625 4.9375 7.390625 4.941406zm0 0M159.070312 205.746094l-11.527343 11.527344c-2.09375 2.003906-2.941407 4.988281-2.210938 7.792968.730469 2.804688 2.921875 4.996094 5.730469 5.726563 2.804688.730469 5.789062-.117188 7.792969-2.210938l11.527343-11.523437c3.089844-3.132813 3.074219-8.171875-.035156-11.28125s-8.148437-3.125-11.277344-.035156zm0 0M189.054688 266.78125c2.125.003906 4.160156-.839844 5.660156-2.34375l11.523437-11.523438c3.09375-3.132812 3.078125-8.167968-.035156-11.28125-3.109375-3.109374-8.148437-3.125-11.277344-.03125l-11.523437 11.527344c-2.289063 2.289063-2.972656 5.730469-1.734375 8.71875 1.238281 2.988282 4.15625 4.9375 7.394531 4.9375zm0 0M130.253906 234.5625l-11.523437 11.519531c-3.125 3.125-3.125 8.191407 0 11.3125 3.125 3.125 8.191406 3.125 11.3125 0l11.527343-11.523437c3.089844-3.132813 3.074219-8.167969-.035156-11.28125-3.113281-3.109375-8.152344-3.125-11.28125-.03125zm0 0M160.242188 295.597656c2.121093.003906 4.160156-.839844 5.65625-2.34375l11.527343-11.523437c3.125-3.125 3.125-8.191407 0-11.316407-3.125-3.121093-8.191406-3.121093-11.316406.003907l-11.523437 11.523437c-2.289063 2.289063-2.972657 5.730469-1.734376 8.71875 1.238282 2.988282 4.15625 4.9375 7.390626 4.9375zm0 0M101.441406 263.375l-11.523437 11.523438c-2.058594 2.011718-2.878907 4.976562-2.144531 7.761718.734374 2.785156 2.910156 4.957032 5.695312 5.695313 2.785156.734375 5.746094-.085938 7.761719-2.144531l11.527343-11.527344c2.039063-2.019532 2.84375-4.972656 2.109376-7.746094-.738282-2.773438-2.90625-4.941406-5.679688-5.679688-2.773438-.734374-5.726562.070313-7.746094 2.109376zm0 0M131.429688 324.410156c2.121093.003906 4.160156-.839844 5.65625-2.339844l11.527343-11.527343c3.007813-3.140625 2.953125-8.113281-.121093-11.1875-3.074219-3.078125-8.046876-3.132813-11.1875-.125l-11.527344 11.523437c-2.289063 2.289063-2.972656 5.730469-1.734375 8.71875 1.238281 2.992188 4.15625 4.941406 7.390625 4.9375zm0 0M67.402344 316.726562c2.125.003907 4.160156-.839843 5.65625-2.339843l11.527344-11.527344c3.125-3.125 3.125-8.191406 0-11.3125-3.125-3.125-8.191407-3.125-11.316407 0l-11.527343 11.523437c-2.285157 2.289063-2.96875 5.730469-1.730469 8.71875 1.238281 2.988282 4.152343 4.9375 7.390625 4.9375zm0 0M120.4375 327.402344c-3.121094-3.125-8.1875-3.125-11.3125 0l-11.523438 11.527344c-3.121093 3.121093-3.121093 8.1875.003907 11.3125s8.1875 3.125 11.3125 0l11.527343-11.527344c3.121094-3.125 3.117188-8.1875-.007812-11.3125zm0 0M274.320312 90.496094l-11.527343 11.523437c-2.09375 2.007813-2.941407 4.988281-2.210938 7.792969.730469 2.808594 2.921875 5 5.726563 5.730469 2.808594.730469 5.789062-.113281 7.792968-2.210938l11.527344-11.523437c3.125-3.125 3.125-8.191406 0-11.3125-3.125-3.125-8.191406-3.125-11.316406 0zm0 0M304.304688 151.53125c2.121093.003906 4.15625-.839844 5.65625-2.339844l11.527343-11.527344c2.058594-2.011718 2.875-4.976562 2.140625-7.761718-.734375-2.78125-2.910156-4.957032-5.695312-5.691406-2.78125-.734376-5.746094.082031-7.761719 2.140624l-11.519531 11.53125c-2.289063 2.285157-2.972656 5.726563-1.734375 8.714844 1.238281 2.992188 4.152343 4.941406 7.390625 4.941406zm0 0M290.96875 85.160156c3.121094 3.125 8.1875 3.125 11.3125 0l11.523438-11.523437c3.121093-3.125 3.121093-8.191407-.003907-11.316407-3.121093-3.121093-8.1875-3.121093-11.3125.003907l-11.523437 11.523437c-3.125 3.125-3.121094 8.191406.003906 11.3125zm0 0M338.347656 98.183594l-11.523437 11.519531c-3.125 3.125-3.125 8.191406 0 11.316406 3.125 3.121094 8.191406 3.121094 11.3125 0l11.527343-11.527343c2.078126-2.007813 2.914063-4.984376 2.179688-7.78125-.734375-2.796876-2.917969-4.980469-5.714844-5.710938-2.796875-.734375-5.769531.101562-7.78125 2.183594zm0 0M241.023438 230.082031l-11.519532 11.523438c-2.042968 2.015625-2.847656 4.972656-2.109375 7.746093.738281 2.773438 2.902344 4.9375 5.675781 5.675782 2.773438.734375 5.730469-.070313 7.746094-2.109375l11.527344-11.527344c3.121094-3.125 3.121094-8.191406-.003906-11.3125-3.125-3.125-8.191406-3.121094-11.316406.003906zm0 0M269.839844 201.265625l-11.527344 11.523437c-3.125 3.125-3.125 8.191407 0 11.316407s8.191406 3.121093 11.316406 0l11.523438-11.523438c3.125-3.125 3.125-8.191406 0-11.3125-3.125-3.125-8.191406-3.125-11.3125 0zm0 0M298.652344 172.453125l-11.527344 11.527344c-2.039062 2.019531-2.84375 4.972656-2.109375 7.746093.738281 2.773438 2.90625 4.941407 5.679687 5.675782 2.773438.738281 5.726563-.066406 7.742188-2.109375l11.527344-11.523438c3.125-3.125 3.125-8.191406 0-11.3125-3.125-3.125-8.191406-3.125-11.3125 0zm0 0M212.210938 258.890625l-11.523438 11.527344c-3.125 3.125-3.125 8.191406 0 11.3125 3.125 3.125 8.191406 3.125 11.316406 0l11.523438-11.527344c3.125-3.121094 3.125-8.1875 0-11.3125s-8.191406-3.125-11.3125 0zm0 0M183.402344 287.703125l-11.527344 11.527344c-2.058594 2.011719-2.878906 4.976562-2.144531 7.761719.734375 2.785156 2.910156 4.957031 5.695312 5.691406 2.785157.734375 5.746094-.082032 7.761719-2.140625l11.527344-11.523438c2.085937-2.007812 2.925781-4.988281 2.195312-7.789062-.730468-2.800781-2.917968-4.988281-5.71875-5.722657-2.800781-.730468-5.78125.109376-7.789062 2.195313zm0 0M154.585938 316.519531l-11.527344 11.523438c-3.121094 3.125-3.121094 8.191406.003906 11.3125 3.125 3.125 8.1875 3.125 11.3125 0l11.527344-11.523438c3.09375-3.132812 3.078125-8.167969-.035156-11.28125-3.109376-3.109375-8.148438-3.125-11.277344-.03125zm0 0M126.414062 344.691406l-11.527343 11.523438c-3.121094 3.125-3.121094 8.191406.003906 11.316406 3.125 3.121094 8.1875 3.121094 11.3125-.003906l11.523437-11.523438c3.125-3.125 3.125-8.191406 0-11.3125-3.121093-3.125-8.1875-3.125-11.3125 0zm0 0M327.464844 143.640625l-11.527344 11.523437c-3.125 3.125-3.125 8.191407 0 11.316407s8.191406 3.125 11.316406 0l11.523438-11.523438c3.125-3.125 3.125-8.191406 0-11.3125-3.125-3.125-8.1875-3.125-11.3125 0zm0 0M344.113281 138.304688c3.121094 3.125 8.1875 3.125 11.3125 0l11.527344-11.523438c3.089844-3.128906 3.074219-8.167969-.035156-11.277344-3.113281-3.113281-8.152344-3.128906-11.28125-.035156l-11.523438 11.523438c-3.125 3.125-3.125 8.1875 0 11.3125zm0 0M164.722656 184.828125c2.125.003906 4.160156-.839844 5.660156-2.34375l11.519532-11.523437c3.09375-3.132813 3.078125-8.167969-.035156-11.28125-3.109376-3.109376-8.148438-3.125-11.277344-.03125l-11.523438 11.523437c-2.285156 2.289063-2.972656 5.730469-1.734375 8.71875s4.15625 4.9375 7.390625 4.9375zm0 0M193.539062 156.015625c2.121094.003906 4.15625-.839844 5.65625-2.34375l11.523438-11.523437c3.125-3.125 3.125-8.191407 0-11.316407s-8.191406-3.125-11.316406 0l-11.523438 11.527344c-2.289062 2.289063-2.972656 5.726563-1.734375 8.71875 1.238281 2.988281 4.15625 4.9375 7.390625 4.9375zm0 0M222.351562 127.203125c2.121094 0 4.15625-.84375 5.65625-2.34375l11.527344-11.527344c3.0625-3.132812 3.035156-8.148437-.066406-11.25-3.097656-3.097656-8.113281-3.125-11.25-.0625l-11.523438 11.527344c-2.289062 2.285156-2.972656 5.726563-1.734374 8.714844 1.238281 2.992187 4.152343 4.941406 7.390624 4.941406zm0 0M135.910156 213.640625c2.125.003906 4.160156-.839844 5.660156-2.34375l11.523438-11.523437c3.125-3.125 3.125-8.191407 0-11.316407-3.125-3.121093-8.191406-3.121093-11.3125.003907l-11.527344 11.519531c-2.289062 2.289062-2.972656 5.730469-1.734375 8.71875 1.238281 2.992187 4.15625 4.941406 7.390625 4.941406zm0 0M107.101562 242.453125c2.125.003906 4.160157-.839844 5.660157-2.339844l11.519531-11.53125c3.09375-3.128906 3.078125-8.167969-.035156-11.28125-3.109375-3.109375-8.148438-3.125-11.277344-.03125l-11.527344 11.523438c-2.289062 2.289062-2.972656 5.730469-1.734375 8.71875 1.238281 2.992187 4.15625 4.941406 7.390625 4.9375zm0 0M78.285156 271.269531c2.121094 0 4.160156-.84375 5.65625-2.34375l11.527344-11.527343c3.125-3.125 3.125-8.191407 0-11.316407s-8.191406-3.125-11.316406 0l-11.523438 11.523438c-2.289062 2.289062-2.972656 5.730469-1.734375 8.71875 1.238281 2.992187 4.15625 4.941406 7.390625 4.941406zm0 0M67.296875 274.257812c-3.125-3.125-8.191406-3.125-11.316406 0l-11.523438 11.523438c-2.042969 2.015625-2.847656 4.972656-2.109375 7.746094.734375 2.773437 2.902344 4.941406 5.675782 5.675781 2.773437.738281 5.730468-.066406 7.746093-2.109375l11.527344-11.523438c3.121094-3.125 3.121094-8.1875 0-11.3125zm0 0M251.164062 98.390625c2.121094 0 4.160157-.84375 5.65625-2.34375l11.527344-11.527344c3.121094-3.125 3.121094-8.1875-.003906-11.3125-3.121094-3.125-8.1875-3.125-11.3125 0l-11.527344 11.527344c-2.289062 2.285156-2.972656 5.726563-1.734375 8.714844 1.238281 2.992187 4.15625 4.9375 7.390625 4.941406zm0 0M279.335938 70.214844c2.121093.003906 4.160156-.839844 5.65625-2.339844l11.527343-11.527344c3.121094-3.125 3.121094-8.191406-.003906-11.3125-3.121094-3.125-8.1875-3.125-11.3125 0l-11.523437 11.523438c-2.289063 2.289062-2.972657 5.730468-1.734376 8.71875 1.238282 2.992187 4.15625 4.941406 7.390626 4.9375zm0 0" fill="#ffffff" class="color000 svgShape"></path>
</svg>